<?xml version="1.0" encoding="UTF-8" standalone="no"?><svg xmlns="http://www.w3.org/2000/svg" xmlns:xlink="http://www.w3.org/1999/xlink" clip-rule="evenodd" stroke-miterlimit="10" viewBox="0 0 1920 1080"><desc>SVG generated by Keynote</desc><defs></defs><g transform="matrix(1.00, 0.00, -0.00, -1.00, 0.0, 1080.0)"><g><clipPath id="clip0x7f9a46d82eb0"><path d="M 0.0 1080.0 L 1920.0 1080.0 L 1920.0 0.0 L 0.0 0.0 Z M 0.0 1080.0 "></path></clipPath><g clip-path="url(#clip0x7f9a46d82eb0)"><image xlink:href="../../2454F38C-308E-4D93-86A7-ACF877EF01F7/assets/D54D7AAA5FD1EC733BC359F041C689F1.jpeg" width="2048.00" height="1536.00" transform="matrix(0.94, 0.00, -0.00, -0.70, 0.0, 1080.0)"></image></g></g><text xml:space="preserve" font-family="CourierNewPS-BoldMT,Courier New" font-weight="bold" font-size="54.6" fill="#FEFFFE" transform="matrix(1.00, 0.00, -0.00, -1.00, 68.8, 728.2)">p</text><text xml:space="preserve" font-family="CourierNewPS-BoldMT,Courier New" font-weight="bold" font-size="54.6" fill="#FEFFFE" transform="matrix(1.00, 0.00, -0.00, -1.00, 101.5, 728.2)">a</text><text xml:space="preserve" font-family="CourierNewPS-BoldMT,Courier New" font-weight="bold" font-size="54.6" fill="#FEFFFE" transform="matrix(1.00, 0.00, -0.00, -1.00, 134.3, 728.2)">c</text><text xml:space="preserve" font-family="CourierNewPS-BoldMT,Courier New" font-weight="bold" font-size="54.6" fill="#FEFFFE" transform="matrix(1.00, 0.00, -0.00, -1.00, 167.1, 728.2)">k</text><text xml:space="preserve" font-family="CourierNewPS-BoldMT,Courier New" font-weight="bold" font-size="54.6" fill="#FEFFFE" transform="matrix(1.00, 0.00, -0.00, -1.00, 199.9, 728.2)">a</text><text xml:space="preserve" font-family="CourierNewPS-BoldMT,Courier New" font-weight="bold" font-size="54.6" fill="#FEFFFE" transform="matrix(1.00, 0.00, -0.00, -1.00, 232.6, 728.2)">g</text><text xml:space="preserve" font-family="CourierNewPS-BoldMT,Courier New" font-weight="bold" font-size="54.6" fill="#FEFFFE" transform="matrix(1.00, 0.00, -0.00, -1.00, 265.4, 728.2)">e</text><text xml:space="preserve" font-family="CourierNewPSMT,Courier New" font-size="54.6" fill="#FEFFFE" transform="matrix(1.00, 0.00, -0.00, -1.00, 298.1, 728.2)"> </text><text xml:space="preserve" font-family="CourierNewPSMT,Courier New" font-size="54.6" fill="#FEFFFE" transform="matrix(1.00, 0.00, -0.00, -1.00, 330.9, 728.2)">c</text><text xml:space="preserve" font-family="CourierNewPSMT,Courier New" font-size="54.6" fill="#FEFFFE" transform="matrix(1.00, 0.00, -0.00, -1.00, 363.7, 728.2)">o</text><text xml:space="preserve" font-family="CourierNewPSMT,Courier New" font-size="54.6" fill="#FEFFFE" transform="matrix(1.00, 0.00, -0.00, -1.00, 396.4, 728.2)">n</text><text xml:space="preserve" font-family="CourierNewPSMT,Courier New" font-size="54.6" fill="#FEFFFE" transform="matrix(1.00, 0.00, -0.00, -1.00, 429.2, 728.2)">t</text><text xml:space="preserve" font-family="CourierNewPSMT,Courier New" font-size="54.6" fill="#FEFFFE" transform="matrix(1.00, 0.00, -0.00, -1.00, 462.0, 728.2)">r</text><text xml:space="preserve" font-family="CourierNewPSMT,Courier New" font-size="54.6" fill="#FEFFFE" transform="matrix(1.00, 0.00, -0.00, -1.00, 494.8, 728.2)">o</text><text xml:space="preserve" font-family="CourierNewPSMT,Courier New" font-size="54.6" fill="#FEFFFE" transform="matrix(1.00, 0.00, -0.00, -1.00, 527.5, 728.2)">l</text><text xml:space="preserve" font-family="CourierNewPSMT,Courier New" font-size="54.6" fill="#FEFFFE" transform="matrix(1.00, 0.00, -0.00, -1.00, 560.3, 728.2)">l</text><text xml:space="preserve" font-family="CourierNewPSMT,Courier New" font-size="54.6" fill="#FEFFFE" transform="matrix(1.00, 0.00, -0.00, -1.00, 593.1, 728.2)">e</text><text xml:space="preserve" font-family="CourierNewPSMT,Courier New" font-size="54.6" fill="#FEFFFE" transform="matrix(1.00, 0.00, -0.00, -1.00, 625.8, 728.2)">r</text><text xml:space="preserve" font-family="CourierNewPSMT,Courier New" font-size="54.6" fill="#FEFFFE" transform="matrix(1.00, 0.00, -0.00, -1.00, 658.6, 728.2)">s</text><text xml:space="preserve" font-family="CourierNewPSMT,Courier New" font-size="54.6" fill="#FEFFFE" transform="matrix(1.00, 0.00, -0.00, -1.00, 691.4, 728.2)">;</text><text xml:space="preserve" font-family="Monaco,Monaco" font-size="54.6" fill="#FEFFFE" transform="matrix(1.00, 0.00, -0.00, -1.00, 724.1, 728.2)"> </text><text xml:space="preserve" font-family="Monaco,Monaco" font-size="54.6" fill="#FEFFFE" transform="matrix(1.00, 0.00, -0.00, -1.00, 68.8, 667.2)"> </text><text xml:space="preserve" font-family="CourierNewPS-BoldMT,Courier New" font-weight="bold" font-size="54.6" fill="#FEFFFE" transform="matrix(1.00, 0.00, -0.00, -1.00, 68.8, 606.2)">i</text><text xml:space="preserve" font-family="CourierNewPS-BoldMT,Courier New" font-weight="bold" font-size="54.6" fill="#FEFFFE" transform="matrix(1.00, 0.00, -0.00, -1.00, 101.5, 606.2)">m</text><text xml:space="preserve" font-family="CourierNewPS-BoldMT,Courier New" font-weight="bold" font-size="54.6" fill="#FEFFFE" transform="matrix(1.00, 0.00, -0.00, -1.00, 134.3, 606.2)">p</text><text xml:space="preserve" font-family="CourierNewPS-BoldMT,Courier New" font-weight="bold" font-size="54.6" fill="#FEFFFE" transform="matrix(1.00, 0.00, -0.00, -1.00, 167.1, 606.2)">o</text><text xml:space="preserve" font-family="CourierNewPS-BoldMT,Courier New" font-weight="bold" font-size="54.6" fill="#FEFFFE" transform="matrix(1.00, 0.00, -0.00, -1.00, 199.9, 606.2)">r</text><text xml:space="preserve" font-family="CourierNewPS-BoldMT,Courier New" font-weight="bold" font-size="54.6" fill="#FEFFFE" transform="matrix(1.00, 0.00, -0.00, -1.00, 232.6, 606.2)">t</text><text xml:space="preserve" font-family="CourierNewPSMT,Courier New" font-size="54.6" fill="#FEFFFE" transform="matrix(1.00, 0.00, -0.00, -1.00, 265.4, 606.2)"> </text><text xml:space="preserve" font-family="CourierNewPSMT,Courier New" font-size="54.6" fill="#FEFFFE" transform="matrix(1.00, 0.00, -0.00, -1.00, 298.1, 606.2)">.</text><text xml:space="preserve" font-family="CourierNewPSMT,Courier New" font-size="54.6" fill="#FEFFFE" transform="matrix(1.00, 0.00, -0.00, -1.00, 330.9, 606.2)">.</text><text xml:space="preserve" font-family="CourierNewPSMT,Courier New" font-size="54.6" fill="#FEFFFE" transform="matrix(1.00, 0.00, -0.00, -1.00, 363.7, 606.2)">.</text><text xml:space="preserve" font-family="CourierNewPSMT,Courier New" font-size="54.6" fill="#FEFFFE" transform="matrix(1.00, 0.00, -0.00, -1.00, 396.5, 606.2)"> </text><text xml:space="preserve" font-family="Monaco,Monaco" font-size="54.6" fill="#FEFFFE" transform="matrix(1.00, 0.00, -0.00, -1.00, 429.2, 606.2)"> </text><text xml:space="preserve" font-family="Monaco,Monaco" font-size="54.6" fill="#FEFFFE" transform="matrix(1.00, 0.00, -0.00, -1.00, 68.8, 545.2)"> </text><text xml:space="preserve" font-family="CourierNewPS-BoldMT,Courier New" font-weight="bold" font-size="54.6" fill="#FEFFFE" transform="matrix(1.00, 0.00, -0.00, -1.00, 68.8, 484.2)">p</text><text xml:space="preserve" font-family="CourierNewPS-BoldMT,Courier New" font-weight="bold" font-size="54.6" fill="#FEFFFE" transform="matrix(1.00, 0.00, -0.00, -1.00, 101.5, 484.2)">u</text><text xml:space="preserve" font-family="CourierNewPS-BoldMT,Courier New" font-weight="bold" font-size="54.6" fill="#FEFFFE" transform="matrix(1.00, 0.00, -0.00, -1.00, 134.3, 484.2)">b</text><text xml:space="preserve" font-family="CourierNewPS-BoldMT,Courier New" font-weight="bold" font-size="54.6" fill="#FEFFFE" transform="matrix(1.00, 0.00, -0.00, -1.00, 167.1, 484.2)">l</text><text xml:space="preserve" font-family="CourierNewPS-BoldMT,Courier New" font-weight="bold" font-size="54.6" fill="#FEFFFE" transform="matrix(1.00, 0.00, -0.00, -1.00, 199.9, 484.2)">i</text><text xml:space="preserve" font-family="CourierNewPS-BoldMT,Courier New" font-weight="bold" font-size="54.6" fill="#FEFFFE" transform="matrix(1.00, 0.00, -0.00, -1.00, 232.6, 484.2)">c</text><text xml:space="preserve" font-family="CourierNewPS-BoldMT,Courier New" font-weight="bold" font-size="54.6" fill="#FEFFFE" transform="matrix(1.00, 0.00, -0.00, -1.00, 265.4, 484.2)"> </text><text xml:space="preserve" font-family="CourierNewPS-BoldMT,Courier New" font-weight="bold" font-size="54.6" fill="#FEFFFE" transform="matrix(1.00, 0.00, -0.00, -1.00, 298.2, 484.2)">c</text><text xml:space="preserve" font-family="CourierNewPS-BoldMT,Courier New" font-weight="bold" font-size="54.6" fill="#FEFFFE" transform="matrix(1.00, 0.00, -0.00, -1.00, 330.9, 484.2)">l</text><text xml:space="preserve" font-family="CourierNewPS-BoldMT,Courier New" font-weight="bold" font-size="54.6" fill="#FEFFFE" transform="matrix(1.00, 0.00, -0.00, -1.00, 363.7, 484.2)">a</text><text xml:space="preserve" font-family="CourierNewPS-BoldMT,Courier New" font-weight="bold" font-size="54.6" fill="#FEFFFE" transform="matrix(1.00, 0.00, -0.00, -1.00, 396.5, 484.2)">s</text><text xml:space="preserve" font-family="CourierNewPS-BoldMT,Courier New" font-weight="bold" font-size="54.6" fill="#FEFFFE" transform="matrix(1.00, 0.00, -0.00, -1.00, 429.3, 484.2)">s</text><text xml:space="preserve" font-family="CourierNewPSMT,Courier New" font-size="54.6" fill="#FEFFFE" transform="matrix(1.00, 0.00, -0.00, -1.00, 462.0, 484.2)"> </text><text xml:space="preserve" font-family="CourierNewPSMT,Courier New" font-size="54.6" fill="#FEFFFE" transform="matrix(1.00, 0.00, -0.00, -1.00, 494.7, 484.2)">M</text><text xml:space="preserve" font-family="CourierNewPSMT,Courier New" font-size="54.6" fill="#FEFFFE" transform="matrix(1.00, 0.00, -0.00, -1.00, 527.5, 484.2)">y</text><text xml:space="preserve" font-family="CourierNewPSMT,Courier New" font-size="54.6" fill="#FEFFFE" transform="matrix(1.00, 0.00, -0.00, -1.00, 560.3, 484.2)">C</text><text xml:space="preserve" font-family="CourierNewPSMT,Courier New" font-size="54.6" fill="#FEFFFE" transform="matrix(1.00, 0.00, -0.00, -1.00, 593.0, 484.2)">o</text><text xml:space="preserve" font-family="CourierNewPSMT,Courier New" font-size="54.6" fill="#FEFFFE" transform="matrix(1.00, 0.00, -0.00, -1.00, 625.8, 484.2)">n</text><text xml:space="preserve" font-family="CourierNewPSMT,Courier New" font-size="54.6" fill="#FEFFFE" transform="matrix(1.00, 0.00, -0.00, -1.00, 658.6, 484.2)">t</text><text xml:space="preserve" font-family="CourierNewPSMT,Courier New" font-size="54.6" fill="#FEFFFE" transform="matrix(1.00, 0.00, -0.00, -1.00, 691.4, 484.2)">r</text><text xml:space="preserve" font-family="CourierNewPSMT,Courier New" font-size="54.6" fill="#FEFFFE" transform="matrix(1.00, 0.00, -0.00, -1.00, 724.1, 484.2)">o</text><text xml:space="preserve" font-family="CourierNewPSMT,Courier New" font-size="54.6" fill="#FEFFFE" transform="matrix(1.00, 0.00, -0.00, -1.00, 756.9, 484.2)">l</text><text xml:space="preserve" font-family="CourierNewPSMT,Courier New" font-size="54.6" fill="#FEFFFE" transform="matrix(1.00, 0.00, -0.00, -1.00, 789.7, 484.2)">l</text><text xml:space="preserve" font-family="CourierNewPSMT,Courier New" font-size="54.6" fill="#FEFFFE" transform="matrix(1.00, 0.00, -0.00, -1.00, 822.4, 484.2)">e</text><text xml:space="preserve" font-family="CourierNewPSMT,Courier New" font-size="54.6" fill="#FEFFFE" transform="matrix(1.00, 0.00, -0.00, -1.00, 855.2, 484.2)">r</text><text xml:space="preserve" font-family="CourierNewPSMT,Courier New" font-size="54.6" fill="#FEFFFE" transform="matrix(1.00, 0.00, -0.00, -1.00, 888.0, 484.2)"> </text><text xml:space="preserve" font-family="CourierNewPS-BoldMT,Courier New" font-weight="bold" font-size="54.6" fill="#FEFFFE" transform="matrix(1.00, 0.00, -0.00, -1.00, 920.7, 484.2)">e</text><text xml:space="preserve" font-family="CourierNewPS-BoldMT,Courier New" font-weight="bold" font-size="54.6" fill="#FEFFFE" transform="matrix(1.00, 0.00, -0.00, -1.00, 953.4, 484.2)">x</text><text xml:space="preserve" font-family="CourierNewPS-BoldMT,Courier New" font-weight="bold" font-size="54.6" fill="#FEFFFE" transform="matrix(1.00, 0.00, -0.00, -1.00, 986.2, 484.2)">t</text><text xml:space="preserve" font-family="CourierNewPS-BoldMT,Courier New" font-weight="bold" font-size="54.6" fill="#FEFFFE" transform="matrix(1.00, 0.00, -0.00, -1.00, 1019.0, 484.2)">e</text><text xml:space="preserve" font-family="CourierNewPS-BoldMT,Courier New" font-weight="bold" font-size="54.6" fill="#FEFFFE" transform="matrix(1.00, 0.00, -0.00, -1.00, 1051.8, 484.2)">n</text><text xml:space="preserve" font-family="CourierNewPS-BoldMT,Courier New" font-weight="bold" font-size="54.6" fill="#FEFFFE" transform="matrix(1.00, 0.00, -0.00, -1.00, 1084.5, 484.2)">d</text><text xml:space="preserve" font-family="CourierNewPS-BoldMT,Courier New" font-weight="bold" font-size="54.6" fill="#FEFFFE" transform="matrix(1.00, 0.00, -0.00, -1.00, 1117.3, 484.2)">s</text><text xml:space="preserve" font-family="CourierNewPSMT,Courier New" font-size="54.6" fill="#FEFFFE" transform="matrix(1.00, 0.00, -0.00, -1.00, 1150.0, 484.2)"> </text><text xml:space="preserve" font-family="CourierNewPSMT,Courier New" font-size="54.6" fill="#FEFFFE" transform="matrix(1.00, 0.00, -0.00, -1.00, 1182.8, 484.2)">C</text><text xml:space="preserve" font-family="CourierNewPSMT,Courier New" font-size="54.6" fill="#FEFFFE" transform="matrix(1.00, 0.00, -0.00, -1.00, 1215.6, 484.2)">o</text><text xml:space="preserve" font-family="CourierNewPSMT,Courier New" font-size="54.6" fill="#FEFFFE" transform="matrix(1.00, 0.00, -0.00, -1.00, 1248.3, 484.2)">n</text><text xml:space="preserve" font-family="CourierNewPSMT,Courier New" font-size="54.6" fill="#FEFFFE" transform="matrix(1.00, 0.00, -0.00, -1.00, 1281.1, 484.2)">t</text><text xml:space="preserve" font-family="CourierNewPSMT,Courier New" font-size="54.6" fill="#FEFFFE" transform="matrix(1.00, 0.00, -0.00, -1.00, 1313.9, 484.2)">r</text><text xml:space="preserve" font-family="CourierNewPSMT,Courier New" font-size="54.6" fill="#FEFFFE" transform="matrix(1.00, 0.00, -0.00, -1.00, 1346.7, 484.2)">o</text><text xml:space="preserve" font-family="CourierNewPSMT,Courier New" font-size="54.6" fill="#FEFFFE" transform="matrix(1.00, 0.00, -0.00, -1.00, 1379.4, 484.2)">l</text><text xml:space="preserve" font-family="CourierNewPSMT,Courier New" font-size="54.6" fill="#FEFFFE" transform="matrix(1.00, 0.00, -0.00, -1.00, 1412.2, 484.2)">l</text><text xml:space="preserve" font-family="CourierNewPSMT,Courier New" font-size="54.6" fill="#FEFFFE" transform="matrix(1.00, 0.00, -0.00, -1.00, 1445.0, 484.2)">e</text><text xml:space="preserve" font-family="CourierNewPSMT,Courier New" font-size="54.6" fill="#FEFFFE" transform="matrix(1.00, 0.00, -0.00, -1.00, 1477.7, 484.2)">r</text><text xml:space="preserve" font-family="CourierNewPSMT,Courier New" font-size="54.6" fill="#FEFFFE" transform="matrix(1.00, 0.00, -0.00, -1.00, 1510.5, 484.2)"> </text><text xml:space="preserve" font-family="CourierNewPSMT,Courier New" font-size="54.6" fill="#FEFFFE" transform="matrix(1.00, 0.00, -0.00, -1.00, 1543.3, 484.2)">{</text><text xml:space="preserve" font-family="CourierNewPSMT,Courier New" font-size="54.6" fill="#FEFFFE" transform="matrix(1.00, 0.00, -0.00, -1.00, 1576.1, 484.2)"> </text><text xml:space="preserve" font-family="CourierNewPSMT,Courier New" font-size="54.6" fill="#FEFFFE" transform="matrix(1.00, 0.00, -0.00, -1.00, 68.8, 390.4)"> </text><text xml:space="preserve" font-family="CourierNewPSMT,Courier New" font-size="54.6" fill="#FEFFFE" transform="matrix(1.00, 0.00, -0.00, -1.00, 101.5, 390.4)"> </text><text xml:space="preserve" font-family="CourierNewPSMT,Courier New" font-size="54.6" fill="#FEFFFE" transform="matrix(1.00, 0.00, -0.00, -1.00, 134.3, 390.4)"> </text><text xml:space="preserve" font-family="CourierNewPSMT,Courier New" font-size="54.6" fill="#FEFFFE" transform="matrix(1.00, 0.00, -0.00, -1.00, 167.1, 390.4)"> </text><text xml:space="preserve" font-family="CourierNewPS-BoldMT,Courier New" font-weight="bold" font-size="54.6" fill="#FEFFFE" transform="matrix(1.00, 0.00, -0.00, -1.00, 199.8, 390.4)">p</text><text xml:space="preserve" font-family="CourierNewPS-BoldMT,Courier New" font-weight="bold" font-size="54.6" fill="#FEFFFE" transform="matrix(1.00, 0.00, -0.00, -1.00, 232.6, 390.4)">u</text><text xml:space="preserve" font-family="CourierNewPS-BoldMT,Courier New" font-weight="bold" font-size="54.6" fill="#FEFFFE" transform="matrix(1.00, 0.00, -0.00, -1.00, 265.4, 390.4)">b</text><text xml:space="preserve" font-family="CourierNewPS-BoldMT,Courier New" font-weight="bold" font-size="54.6" fill="#FEFFFE" transform="matrix(1.00, 0.00, -0.00, -1.00, 298.2, 390.4)">l</text><text xml:space="preserve" font-family="CourierNewPS-BoldMT,Courier New" font-weight="bold" font-size="54.6" fill="#FEFFFE" transform="matrix(1.00, 0.00, -0.00, -1.00, 330.9, 390.4)">i</text><text xml:space="preserve" font-family="CourierNewPS-BoldMT,Courier New" font-weight="bold" font-size="54.6" fill="#FEFFFE" transform="matrix(1.00, 0.00, -0.00, -1.00, 363.7, 390.4)">c</text><text xml:space="preserve" font-family="CourierNewPS-BoldMT,Courier New" font-weight="bold" font-size="54.6" fill="#FEFFFE" transform="matrix(1.00, 0.00, -0.00, -1.00, 396.5, 390.4)"> </text><text xml:space="preserve" font-family="CourierNewPS-BoldMT,Courier New" font-weight="bold" font-size="54.6" fill="#FEFFFE" transform="matrix(1.00, 0.00, -0.00, -1.00, 429.2, 390.4)">s</text><text xml:space="preserve" font-family="CourierNewPS-BoldMT,Courier New" font-weight="bold" font-size="54.6" fill="#FEFFFE" transform="matrix(1.00, 0.00, -0.00, -1.00, 462.0, 390.4)">t</text><text xml:space="preserve" font-family="CourierNewPS-BoldMT,Courier New" font-weight="bold" font-size="54.6" fill="#FEFFFE" transform="matrix(1.00, 0.00, -0.00, -1.00, 494.8, 390.4)">a</text><text xml:space="preserve" font-family="CourierNewPS-BoldMT,Courier New" font-weight="bold" font-size="54.6" fill="#FEFFFE" transform="matrix(1.00, 0.00, -0.00, -1.00, 527.5, 390.4)">t</text><text xml:space="preserve" font-family="CourierNewPS-BoldMT,Courier New" font-weight="bold" font-size="54.6" fill="#FEFFFE" transform="matrix(1.00, 0.00, -0.00, -1.00, 560.3, 390.4)">i</text><text xml:space="preserve" font-family="CourierNewPS-BoldMT,Courier New" font-weight="bold" font-size="54.6" fill="#FEFFFE" transform="matrix(1.00, 0.00, -0.00, -1.00, 593.1, 390.4)">c</text><text xml:space="preserve" font-family="CourierNewPSMT,Courier New" font-size="54.6" fill="#FEFFFE" transform="matrix(1.00, 0.00, -0.00, -1.00, 625.8, 390.4)"> </text><text xml:space="preserve" font-family="CourierNewPSMT,Courier New" font-size="54.6" fill="#FEFFFE" transform="matrix(1.00, 0.00, -0.00, -1.00, 658.6, 390.4)">R</text><text xml:space="preserve" font-family="CourierNewPSMT,Courier New" font-size="54.6" fill="#FEFFFE" transform="matrix(1.00, 0.00, -0.00, -1.00, 691.3, 390.4)">e</text><text xml:space="preserve" font-family="CourierNewPSMT,Courier New" font-size="54.6" fill="#FEFFFE" transform="matrix(1.00, 0.00, -0.00, -1.00, 724.1, 390.4)">s</text><text xml:space="preserve" font-family="CourierNewPSMT,Courier New" font-size="54.6" fill="#FEFFFE" transform="matrix(1.00, 0.00, -0.00, -1.00, 756.9, 390.4)">u</text><text xml:space="preserve" font-family="CourierNewPSMT,Courier New" font-size="54.6" fill="#FEFFFE" transform="matrix(1.00, 0.00, -0.00, -1.00, 789.6, 390.4)">l</text><text xml:space="preserve" font-family="CourierNewPSMT,Courier New" font-size="54.6" fill="#FEFFFE" transform="matrix(1.00, 0.00, -0.00, -1.00, 822.4, 390.4)">t</text><text xml:space="preserve" font-family="CourierNewPSMT,Courier New" font-size="54.6" fill="#FEFFFE" transform="matrix(1.00, 0.00, -0.00, -1.00, 855.2, 390.4)"> </text><text xml:space="preserve" font-family="CourierNewPSMT,Courier New" font-size="54.6" fill="#FEFFFE" transform="matrix(1.00, 0.00, -0.00, -1.00, 888.0, 390.4)">i</text><text xml:space="preserve" font-family="CourierNewPSMT,Courier New" font-size="54.6" fill="#FEFFFE" transform="matrix(1.00, 0.00, -0.00, -1.00, 920.7, 390.4)">n</text><text xml:space="preserve" font-family="CourierNewPSMT,Courier New" font-size="54.6" fill="#FEFFFE" transform="matrix(1.00, 0.00, -0.00, -1.00, 953.5, 390.4)">d</text><text xml:space="preserve" font-family="CourierNewPSMT,Courier New" font-size="54.6" fill="#FEFFFE" transform="matrix(1.00, 0.00, -0.00, -1.00, 986.3, 390.4)">e</text><text xml:space="preserve" font-family="CourierNewPSMT,Courier New" font-size="54.6" fill="#FEFFFE" transform="matrix(1.00, 0.00, -0.00, -1.00, 1019.0, 390.4)">x</text><text xml:space="preserve" font-family="CourierNewPSMT,Courier New" font-size="54.6" fill="#FEFFFE" transform="matrix(1.00, 0.00, -0.00, -1.00, 1051.8, 390.4)">(</text><text xml:space="preserve" font-family="CourierNewPSMT,Courier New" font-size="54.6" fill="#FEFFFE" transform="matrix(1.00, 0.00, -0.00, -1.00, 1084.6, 390.4)">)</text><text xml:space="preserve" font-family="CourierNewPSMT,Courier New" font-size="54.6" fill="#FEFFFE" transform="matrix(1.00, 0.00, -0.00, -1.00, 1117.3, 390.4)"> </text><text xml:space="preserve" font-family="CourierNewPSMT,Courier New" font-size="54.6" fill="#FEFFFE" transform="matrix(1.00, 0.00, -0.00, -1.00, 1150.1, 390.4)">{</text><text xml:space="preserve" font-family="Monaco,Monaco" font-size="54.6" fill="#FEFFFE" transform="matrix(1.00, 0.00, -0.00, -1.00, 1182.8, 390.4)"> </text><text xml:space="preserve" font-family="CourierNewPSMT,Courier New" font-size="54.6" fill="#FEFFFE" transform="matrix(1.00, 0.00, -0.00, -1.00, 68.8, 329.4)"> </text><text xml:space="preserve" font-family="CourierNewPSMT,Courier New" font-size="54.6" fill="#FEFFFE" transform="matrix(1.00, 0.00, -0.00, -1.00, 101.5, 329.4)"> </text><text xml:space="preserve" font-family="CourierNewPSMT,Courier New" font-size="54.6" fill="#FEFFFE" transform="matrix(1.00, 0.00, -0.00, -1.00, 134.3, 329.4)"> </text><text xml:space="preserve" font-family="CourierNewPSMT,Courier New" font-size="54.6" fill="#FEFFFE" transform="matrix(1.00, 0.00, -0.00, -1.00, 167.1, 329.4)"> </text><text xml:space="preserve" font-family="CourierNewPSMT,Courier New" font-size="54.6" fill="#FEFFFE" transform="matrix(1.00, 0.00, -0.00, -1.00, 199.9, 329.4)"> </text><text xml:space="preserve" font-family="CourierNewPSMT,Courier New" font-size="54.6" fill="#FEFFFE" transform="matrix(1.00, 0.00, -0.00, -1.00, 232.6, 329.4)"> </text><text xml:space="preserve" font-family="CourierNewPSMT,Courier New" font-size="54.6" fill="#FEFFFE" transform="matrix(1.00, 0.00, -0.00, -1.00, 265.4, 329.4)"> </text><text xml:space="preserve" font-family="CourierNewPSMT,Courier New" font-size="54.6" fill="#FEFFFE" transform="matrix(1.00, 0.00, -0.00, -1.00, 298.2, 329.4)"> </text><text xml:space="preserve" font-family="CourierNewPSMT,Courier New" font-size="54.6" fill="#FEFFFE" transform="matrix(1.00, 0.00, -0.00, -1.00, 330.9, 329.4)">/</text><text xml:space="preserve" font-family="CourierNewPSMT,Courier New" font-size="54.6" fill="#FEFFFE" transform="matrix(1.00, 0.00, -0.00, -1.00, 363.7, 329.4)">/</text><text xml:space="preserve" font-family="CourierNewPSMT,Courier New" font-size="54.6" fill="#FEFFFE" transform="matrix(1.00, 0.00, -0.00, -1.00, 396.5, 329.4)"> </text><text xml:space="preserve" font-family="CourierNewPSMT,Courier New" font-size="54.6" fill="#FEFFFE" transform="matrix(1.00, 0.00, -0.00, -1.00, 429.3, 329.4)">r</text><text xml:space="preserve" font-family="CourierNewPSMT,Courier New" font-size="54.6" fill="#FEFFFE" transform="matrix(1.00, 0.00, -0.00, -1.00, 462.0, 329.4)">u</text><text xml:space="preserve" font-family="CourierNewPSMT,Courier New" font-size="54.6" fill="#FEFFFE" transform="matrix(1.00, 0.00, -0.00, -1.00, 494.8, 329.4)">n</text><text xml:space="preserve" font-family="CourierNewPSMT,Courier New" font-size="54.6" fill="#FEFFFE" transform="matrix(1.00, 0.00, -0.00, -1.00, 527.6, 329.4)"> </text><text xml:space="preserve" font-family="CourierNewPSMT,Courier New" font-size="54.6" fill="#FEFFFE" transform="matrix(1.00, 0.00, -0.00, -1.00, 560.3, 329.4)">h</text><text xml:space="preserve" font-family="CourierNewPSMT,Courier New" font-size="54.6" fill="#FEFFFE" transform="matrix(1.00, 0.00, -0.00, -1.00, 593.1, 329.4)">e</text><text xml:space="preserve" font-family="CourierNewPSMT,Courier New" font-size="54.6" fill="#FEFFFE" transform="matrix(1.00, 0.00, -0.00, -1.00, 625.9, 329.4)">r</text><text xml:space="preserve" font-family="CourierNewPSMT,Courier New" font-size="54.6" fill="#FEFFFE" transform="matrix(1.00, 0.00, -0.00, -1.00, 658.7, 329.4)">e</text><text xml:space="preserve" font-family="CourierNewPSMT,Courier New" font-size="54.6" fill="#FEFFFE" transform="matrix(1.00, 0.00, -0.00, -1.00, 691.4, 329.4)"> </text><text xml:space="preserve" font-family="CourierNewPSMT,Courier New" font-size="54.6" fill="#FEFFFE" transform="matrix(1.00, 0.00, -0.00, -1.00, 724.2, 329.4)">y</text><text xml:space="preserve" font-family="CourierNewPSMT,Courier New" font-size="54.6" fill="#FEFFFE" transform="matrix(1.00, 0.00, -0.00, -1.00, 757.0, 329.4)">o</text><text xml:space="preserve" font-family="CourierNewPSMT,Courier New" font-size="54.6" fill="#FEFFFE" transform="matrix(1.00, 0.00, -0.00, -1.00, 789.7, 329.4)">u</text><text xml:space="preserve" font-family="CourierNewPSMT,Courier New" font-size="54.6" fill="#FEFFFE" transform="matrix(1.00, 0.00, -0.00, -1.00, 822.5, 329.4)">r</text><text xml:space="preserve" font-family="CourierNewPSMT,Courier New" font-size="54.6" fill="#FEFFFE" transform="matrix(1.00, 0.00, -0.00, -1.00, 855.3, 329.4)"> </text><text xml:space="preserve" font-family="CourierNewPSMT,Courier New" font-size="54.6" fill="#FEFFFE" transform="matrix(1.00, 0.00, -0.00, -1.00, 888.0, 329.4)">l</text><text xml:space="preserve" font-family="CourierNewPSMT,Courier New" font-size="54.6" fill="#FEFFFE" transform="matrix(1.00, 0.00, -0.00, -1.00, 920.8, 329.4)">o</text><text xml:space="preserve" font-family="CourierNewPSMT,Courier New" font-size="54.6" fill="#FEFFFE" transform="matrix(1.00, 0.00, -0.00, -1.00, 953.6, 329.4)">g</text><text xml:space="preserve" font-family="CourierNewPSMT,Courier New" font-size="54.6" fill="#FEFFFE" transform="matrix(1.00, 0.00, -0.00, -1.00, 986.4, 329.4)">i</text><text xml:space="preserve" font-family="CourierNewPSMT,Courier New" font-size="54.6" fill="#FEFFFE" transform="matrix(1.00, 0.00, -0.00, -1.00, 1019.1, 329.4)">c</text><text xml:space="preserve" font-family="CourierNewPSMT,Courier New" font-size="54.6" fill="#FEFFFE" transform="matrix(1.00, 0.00, -0.00, -1.00, 1051.7, 329.4)"> </text><text xml:space="preserve" font-family="CourierNewPSMT,Courier New" font-size="54.6" fill="#FEFFFE" transform="matrix(1.00, 0.00, -0.00, -1.00, 68.8, 235.7)"> </text><text xml:space="preserve" font-family="CourierNewPSMT,Courier New" font-size="54.6" fill="#FEFFFE" transform="matrix(1.00, 0.00, -0.00, -1.00, 101.5, 235.7)"> </text><text xml:space="preserve" font-family="CourierNewPSMT,Courier New" font-size="54.6" fill="#FEFFFE" transform="matrix(1.00, 0.00, -0.00, -1.00, 134.3, 235.7)"> </text><text xml:space="preserve" font-family="CourierNewPSMT,Courier New" font-size="54.6" fill="#FEFFFE" transform="matrix(1.00, 0.00, -0.00, -1.00, 167.1, 235.7)"> </text><text xml:space="preserve" font-family="CourierNewPSMT,Courier New" font-size="54.6" fill="#FEFFFE" transform="matrix(1.00, 0.00, -0.00, -1.00, 199.9, 235.7)"> </text><text xml:space="preserve" font-family="CourierNewPSMT,Courier New" font-size="54.6" fill="#FEFFFE" transform="matrix(1.00, 0.00, -0.00, -1.00, 232.6, 235.7)"> </text><text xml:space="preserve" font-family="CourierNewPSMT,Courier New" font-size="54.6" fill="#FEFFFE" transform="matrix(1.00, 0.00, -0.00, -1.00, 265.4, 235.7)"> </text><text xml:space="preserve" font-family="CourierNewPSMT,Courier New" font-size="54.6" fill="#FEFFFE" transform="matrix(1.00, 0.00, -0.00, -1.00, 298.2, 235.7)"> </text><text xml:space="preserve" font-family="CourierNewPS-BoldMT,Courier New" font-weight="bold" font-size="54.6" fill="#FEFFFE" transform="matrix(1.00, 0.00, -0.00, -1.00, 330.9, 235.7)">r</text><text xml:space="preserve" font-family="CourierNewPS-BoldMT,Courier New" font-weight="bold" font-size="54.6" fill="#FEFFFE" transform="matrix(1.00, 0.00, -0.00, -1.00, 363.7, 235.7)">e</text><text xml:space="preserve" font-family="CourierNewPS-BoldMT,Courier New" font-weight="bold" font-size="54.6" fill="#FEFFFE" transform="matrix(1.00, 0.00, -0.00, -1.00, 396.4, 235.7)">t</text><text xml:space="preserve" font-family="CourierNewPS-BoldMT,Courier New" font-weight="bold" font-size="54.6" fill="#FEFFFE" transform="matrix(1.00, 0.00, -0.00, -1.00, 429.2, 235.7)">u</text><text xml:space="preserve" font-family="CourierNewPS-BoldMT,Courier New" font-weight="bold" font-size="54.6" fill="#FEFFFE" transform="matrix(1.00, 0.00, -0.00, -1.00, 462.0, 235.7)">r</text><text xml:space="preserve" font-family="CourierNewPS-BoldMT,Courier New" font-weight="bold" font-size="54.6" fill="#FEFFFE" transform="matrix(1.00, 0.00, -0.00, -1.00, 494.8, 235.7)">n</text><text xml:space="preserve" font-family="CourierNewPSMT,Courier New" font-size="54.6" fill="#FEFFFE" transform="matrix(1.00, 0.00, -0.00, -1.00, 527.5, 235.7)"> </text><text xml:space="preserve" font-family="CourierNewPSMT,Courier New" font-size="54.6" fill="#FEFFFE" transform="matrix(1.00, 0.00, -0.00, -1.00, 560.3, 235.7)">o</text><text xml:space="preserve" font-family="CourierNewPSMT,Courier New" font-size="54.6" fill="#FEFFFE" transform="matrix(1.00, 0.00, -0.00, -1.00, 593.0, 235.7)">k</text><text xml:space="preserve" font-family="CourierNewPSMT,Courier New" font-size="54.6" fill="#FEFFFE" transform="matrix(1.00, 0.00, -0.00, -1.00, 625.8, 235.7)">(</text><text xml:space="preserve" font-family="CourierNewPSMT,Courier New" font-size="54.6" fill="#FEFFFE" transform="matrix(1.00, 0.00, -0.00, -1.00, 658.6, 235.7)">)</text><text xml:space="preserve" font-family="CourierNewPSMT,Courier New" font-size="54.6" fill="#FEFFFE" transform="matrix(1.00, 0.00, -0.00, -1.00, 691.3, 235.7)">;</text><text xml:space="preserve" font-family="CourierNewPSMT,Courier New" font-size="54.6" fill="#FEFFFE" transform="matrix(1.00, 0.00, -0.00, -1.00, 724.1, 235.7)"> </text><text xml:space="preserve" font-family="CourierNewPSMT,Courier New" font-size="54.6" fill="#FEFFFE" transform="matrix(1.00, 0.00, -0.00, -1.00, 756.9, 235.7)">/</text><text xml:space="preserve" font-family="CourierNewPSMT,Courier New" font-size="54.6" fill="#FEFFFE" transform="matrix(1.00, 0.00, -0.00, -1.00, 789.7, 235.7)">/</text><text xml:space="preserve" font-family="CourierNewPSMT,Courier New" font-size="54.6" fill="#FEFFFE" transform="matrix(1.00, 0.00, -0.00, -1.00, 822.4, 235.7)"> </text><text xml:space="preserve" font-family="CourierNewPSMT,Courier New" font-size="54.6" fill="#FEFFFE" transform="matrix(1.00, 0.00, -0.00, -1.00, 855.2, 235.7)">2</text><text xml:space="preserve" font-family="CourierNewPSMT,Courier New" font-size="54.6" fill="#FEFFFE" transform="matrix(1.00, 0.00, -0.00, -1.00, 888.0, 235.7)">0</text><text xml:space="preserve" font-family="CourierNewPSMT,Courier New" font-size="54.6" fill="#FEFFFE" transform="matrix(1.00, 0.00, -0.00, -1.00, 920.7, 235.7)">0</text><text xml:space="preserve" font-family="CourierNewPSMT,Courier New" font-size="54.6" fill="#FEFFFE" transform="matrix(1.00, 0.00, -0.00, -1.00, 953.5, 235.7)"> </text><text xml:space="preserve" font-family="CourierNewPSMT,Courier New" font-size="54.6" fill="#FEFFFE" transform="matrix(1.00, 0.00, -0.00, -1.00, 986.3, 235.7)">O</text><text xml:space="preserve" font-family="CourierNewPSMT,Courier New" font-size="54.6" fill="#FEFFFE" transform="matrix(1.00, 0.00, -0.00, -1.00, 1019.1, 235.7)">K</text><text xml:space="preserve" font-family="Monaco,Monaco" font-size="54.6" fill="#FEFFFE" transform="matrix(1.00, 0.00, -0.00, -1.00, 1051.7, 235.7)"> </text><text xml:space="preserve" font-family="CourierNewPSMT,Courier New" font-size="54.6" fill="#FEFFFE" transform="matrix(1.00, 0.00, -0.00, -1.00, 68.8, 174.7)"> </text><text xml:space="preserve" font-family="CourierNewPSMT,Courier New" font-size="54.6" fill="#FEFFFE" transform="matrix(1.00, 0.00, -0.00, -1.00, 101.5, 174.7)"> </text><text xml:space="preserve" font-family="CourierNewPSMT,Courier New" font-size="54.6" fill="#FEFFFE" transform="matrix(1.00, 0.00, -0.00, -1.00, 134.3, 174.7)"> </text><text xml:space="preserve" font-family="CourierNewPSMT,Courier New" font-size="54.6" fill="#FEFFFE" transform="matrix(1.00, 0.00, -0.00, -1.00, 167.1, 174.7)"> </text><text xml:space="preserve" font-family="CourierNewPSMT,Courier New" font-size="54.6" fill="#FEFFFE" transform="matrix(1.00, 0.00, -0.00, -1.00, 199.9, 174.7)">}</text><text xml:space="preserve" font-family="Monaco,Monaco" font-size="54.6" fill="#FEFFFE" transform="matrix(1.00, 0.00, -0.00, -1.00, 232.6, 174.7)"> </text><text xml:space="preserve" font-family="CourierNewPSMT,Courier New" font-size="54.6" fill="#FEFFFE" transform="matrix(1.00, 0.00, -0.00, -1.00, 68.8, 113.7)">}</text><text xml:space="preserve" font-family="Chalkduster,Chalkduster" font-size="100.0" fill="#71AFE1" transform="matrix(1.00, 0.00, -0.00, -1.00, 660.7, 922.5)">C</text><text xml:space="preserve" font-family="Chalkduster,Chalkduster" font-size="100.0" fill="#71AFE1" transform="matrix(1.00, 0.00, -0.00, -1.00, 741.8, 922.5)">o</text><text xml:space="preserve" font-family="Chalkduster,Chalkduster" font-size="100.0" fill="#71AFE1" transform="matrix(1.00, 0.00, -0.00, -1.00, 816.2, 922.5)">n</text><text xml:space="preserve" font-family="Chalkduster,Chalkduster" font-size="100.0" fill="#71AFE1" transform="matrix(1.00, 0.00, -0.00, -1.00, 885.8, 922.5)">t</text><text xml:space="preserve" font-family="Chalkduster,Chalkduster" font-size="100.0" fill="#71AFE1" transform="matrix(1.00, 0.00, -0.00, -1.00, 931.5, 922.5)">r</text><text xml:space="preserve" font-family="Chalkduster,Chalkduster" font-size="100.0" fill="#71AFE1" transform="matrix(1.00, 0.00, -0.00, -1.00, 982.7, 922.5)">o</text><text xml:space="preserve" font-family="Chalkduster,Chalkduster" font-size="100.0" fill="#71AFE1" transform="matrix(1.00, 0.00, -0.00, -1.00, 1058.8, 922.5)">l</text><text xml:space="preserve" font-family="Chalkduster,Chalkduster" font-size="100.0" fill="#71AFE1" transform="matrix(1.00, 0.00, -0.00, -1.00, 1104.2, 922.5)">l</text><text xml:space="preserve" font-family="Chalkduster,Chalkduster" font-size="100.0" fill="#71AFE1" transform="matrix(1.00, 0.00, -0.00, -1.00, 1145.6, 922.5)">e</text><text xml:space="preserve" font-family="Chalkduster,Chalkduster" font-size="100.0" fill="#71AFE1" transform="matrix(1.00, 0.00, -0.00, -1.00, 1206.5, 922.5)">r</text></g></svg>