<?xml version="1.0" encoding="UTF-8" standalone="no"?><svg xmlns="http://www.w3.org/2000/svg" xmlns:xlink="http://www.w3.org/1999/xlink" clip-rule="evenodd" stroke-miterlimit="10" viewBox="0 0 1920 1080"><desc>SVG generated by Keynote</desc><defs></defs><g transform="matrix(1.00, 0.00, -0.00, -1.00, 0.0, 1080.0)"><g><clipPath id="clip0x7f9a41c2b950"><path d="M 0.0 1080.0 L 1920.0 1080.0 L 1920.0 0.0 L 0.0 0.0 Z M 0.0 1080.0 "></path></clipPath><g clip-path="url(#clip0x7f9a41c2b950)"><image xlink:href="../../2454F38C-308E-4D93-86A7-ACF877EF01F7/assets/D54D7AAA5FD1EC733BC359F041C689F1.jpeg" width="2048.00" height="1536.00" transform="matrix(0.94, 0.00, -0.00, -0.70, 0.0, 1080.0)"></image></g></g><text xml:space="preserve" font-family="Monaco,Monaco" font-size="59.4" fill="#FEFFFE" transform="matrix(1.00, 0.00, -0.00, -1.00, 68.8, 722.6)"> </text><text xml:space="preserve" font-family="CourierNewPS-BoldMT,Courier New" font-weight="bold" font-size="59.4" fill="#FEFFFE" transform="matrix(1.00, 0.00, -0.00, -1.00, 68.8, 655.6)">p</text><text xml:space="preserve" font-family="CourierNewPS-BoldMT,Courier New" font-weight="bold" font-size="59.4" fill="#FEFFFE" transform="matrix(1.00, 0.00, -0.00, -1.00, 104.4, 655.6)">u</text><text xml:space="preserve" font-family="CourierNewPS-BoldMT,Courier New" font-weight="bold" font-size="59.4" fill="#FEFFFE" transform="matrix(1.00, 0.00, -0.00, -1.00, 140.1, 655.6)">b</text><text xml:space="preserve" font-family="CourierNewPS-BoldMT,Courier New" font-weight="bold" font-size="59.4" fill="#FEFFFE" transform="matrix(1.00, 0.00, -0.00, -1.00, 175.7, 655.6)">l</text><text xml:space="preserve" font-family="CourierNewPS-BoldMT,Courier New" font-weight="bold" font-size="59.4" fill="#FEFFFE" transform="matrix(1.00, 0.00, -0.00, -1.00, 211.4, 655.6)">i</text><text xml:space="preserve" font-family="CourierNewPS-BoldMT,Courier New" font-weight="bold" font-size="59.4" fill="#FEFFFE" transform="matrix(1.00, 0.00, -0.00, -1.00, 247.0, 655.6)">c</text><text xml:space="preserve" font-family="CourierNewPS-BoldMT,Courier New" font-weight="bold" font-size="59.4" fill="#FEFFFE" transform="matrix(1.00, 0.00, -0.00, -1.00, 282.7, 655.6)"> </text><text xml:space="preserve" font-family="CourierNewPS-BoldMT,Courier New" font-weight="bold" font-size="59.4" fill="#FEFFFE" transform="matrix(1.00, 0.00, -0.00, -1.00, 318.3, 655.6)">c</text><text xml:space="preserve" font-family="CourierNewPS-BoldMT,Courier New" font-weight="bold" font-size="59.4" fill="#FEFFFE" transform="matrix(1.00, 0.00, -0.00, -1.00, 354.0, 655.6)">l</text><text xml:space="preserve" font-family="CourierNewPS-BoldMT,Courier New" font-weight="bold" font-size="59.4" fill="#FEFFFE" transform="matrix(1.00, 0.00, -0.00, -1.00, 389.6, 655.6)">a</text><text xml:space="preserve" font-family="CourierNewPS-BoldMT,Courier New" font-weight="bold" font-size="59.4" fill="#FEFFFE" transform="matrix(1.00, 0.00, -0.00, -1.00, 425.3, 655.6)">s</text><text xml:space="preserve" font-family="CourierNewPS-BoldMT,Courier New" font-weight="bold" font-size="59.4" fill="#FEFFFE" transform="matrix(1.00, 0.00, -0.00, -1.00, 460.9, 655.6)">s</text><text xml:space="preserve" font-family="CourierNewPSMT,Courier New" font-size="59.4" fill="#FEFFFE" transform="matrix(1.00, 0.00, -0.00, -1.00, 496.5, 655.6)"> </text><text xml:space="preserve" font-family="CourierNewPSMT,Courier New" font-size="59.4" fill="#FEFFFE" transform="matrix(1.00, 0.00, -0.00, -1.00, 532.2, 655.6)">M</text><text xml:space="preserve" font-family="CourierNewPSMT,Courier New" font-size="59.4" fill="#FEFFFE" transform="matrix(1.00, 0.00, -0.00, -1.00, 567.8, 655.6)">y</text><text xml:space="preserve" font-family="CourierNewPSMT,Courier New" font-size="59.4" fill="#FEFFFE" transform="matrix(1.00, 0.00, -0.00, -1.00, 603.5, 655.6)">C</text><text xml:space="preserve" font-family="CourierNewPSMT,Courier New" font-size="59.4" fill="#FEFFFE" transform="matrix(1.00, 0.00, -0.00, -1.00, 639.1, 655.6)">o</text><text xml:space="preserve" font-family="CourierNewPSMT,Courier New" font-size="59.4" fill="#FEFFFE" transform="matrix(1.00, 0.00, -0.00, -1.00, 674.8, 655.6)">n</text><text xml:space="preserve" font-family="CourierNewPSMT,Courier New" font-size="59.4" fill="#FEFFFE" transform="matrix(1.00, 0.00, -0.00, -1.00, 710.4, 655.6)">t</text><text xml:space="preserve" font-family="CourierNewPSMT,Courier New" font-size="59.4" fill="#FEFFFE" transform="matrix(1.00, 0.00, -0.00, -1.00, 746.1, 655.6)">r</text><text xml:space="preserve" font-family="CourierNewPSMT,Courier New" font-size="59.4" fill="#FEFFFE" transform="matrix(1.00, 0.00, -0.00, -1.00, 781.7, 655.6)">o</text><text xml:space="preserve" font-family="CourierNewPSMT,Courier New" font-size="59.4" fill="#FEFFFE" transform="matrix(1.00, 0.00, -0.00, -1.00, 817.4, 655.6)">l</text><text xml:space="preserve" font-family="CourierNewPSMT,Courier New" font-size="59.4" fill="#FEFFFE" transform="matrix(1.00, 0.00, -0.00, -1.00, 853.0, 655.6)">l</text><text xml:space="preserve" font-family="CourierNewPSMT,Courier New" font-size="59.4" fill="#FEFFFE" transform="matrix(1.00, 0.00, -0.00, -1.00, 888.7, 655.6)">e</text><text xml:space="preserve" font-family="CourierNewPSMT,Courier New" font-size="59.4" fill="#FEFFFE" transform="matrix(1.00, 0.00, -0.00, -1.00, 924.3, 655.6)">r</text><text xml:space="preserve" font-family="CourierNewPSMT,Courier New" font-size="59.4" fill="#FEFFFE" transform="matrix(1.00, 0.00, -0.00, -1.00, 960.0, 655.6)"> </text><text xml:space="preserve" font-family="CourierNewPS-BoldMT,Courier New" font-weight="bold" font-size="59.4" fill="#FEFFFE" transform="matrix(1.00, 0.00, -0.00, -1.00, 995.6, 655.6)">e</text><text xml:space="preserve" font-family="CourierNewPS-BoldMT,Courier New" font-weight="bold" font-size="59.4" fill="#FEFFFE" transform="matrix(1.00, 0.00, -0.00, -1.00, 1031.2, 655.6)">x</text><text xml:space="preserve" font-family="CourierNewPS-BoldMT,Courier New" font-weight="bold" font-size="59.4" fill="#FEFFFE" transform="matrix(1.00, 0.00, -0.00, -1.00, 1066.9, 655.6)">t</text><text xml:space="preserve" font-family="CourierNewPS-BoldMT,Courier New" font-weight="bold" font-size="59.4" fill="#FEFFFE" transform="matrix(1.00, 0.00, -0.00, -1.00, 1102.5, 655.6)">e</text><text xml:space="preserve" font-family="CourierNewPS-BoldMT,Courier New" font-weight="bold" font-size="59.4" fill="#FEFFFE" transform="matrix(1.00, 0.00, -0.00, -1.00, 1138.2, 655.6)">n</text><text xml:space="preserve" font-family="CourierNewPS-BoldMT,Courier New" font-weight="bold" font-size="59.4" fill="#FEFFFE" transform="matrix(1.00, 0.00, -0.00, -1.00, 1173.8, 655.6)">d</text><text xml:space="preserve" font-family="CourierNewPS-BoldMT,Courier New" font-weight="bold" font-size="59.4" fill="#FEFFFE" transform="matrix(1.00, 0.00, -0.00, -1.00, 1209.5, 655.6)">s</text><text xml:space="preserve" font-family="CourierNewPSMT,Courier New" font-size="59.4" fill="#FEFFFE" transform="matrix(1.00, 0.00, -0.00, -1.00, 1245.1, 655.6)"> </text><text xml:space="preserve" font-family="CourierNewPSMT,Courier New" font-size="59.4" fill="#FEFFFE" transform="matrix(1.00, 0.00, -0.00, -1.00, 1280.7, 655.6)">C</text><text xml:space="preserve" font-family="CourierNewPSMT,Courier New" font-size="59.4" fill="#FEFFFE" transform="matrix(1.00, 0.00, -0.00, -1.00, 1316.4, 655.6)">o</text><text xml:space="preserve" font-family="CourierNewPSMT,Courier New" font-size="59.4" fill="#FEFFFE" transform="matrix(1.00, 0.00, -0.00, -1.00, 1352.0, 655.6)">n</text><text xml:space="preserve" font-family="CourierNewPSMT,Courier New" font-size="59.4" fill="#FEFFFE" transform="matrix(1.00, 0.00, -0.00, -1.00, 1387.7, 655.6)">t</text><text xml:space="preserve" font-family="CourierNewPSMT,Courier New" font-size="59.4" fill="#FEFFFE" transform="matrix(1.00, 0.00, -0.00, -1.00, 1423.3, 655.6)">r</text><text xml:space="preserve" font-family="CourierNewPSMT,Courier New" font-size="59.4" fill="#FEFFFE" transform="matrix(1.00, 0.00, -0.00, -1.00, 1459.0, 655.6)">o</text><text xml:space="preserve" font-family="CourierNewPSMT,Courier New" font-size="59.4" fill="#FEFFFE" transform="matrix(1.00, 0.00, -0.00, -1.00, 1494.7, 655.6)">l</text><text xml:space="preserve" font-family="CourierNewPSMT,Courier New" font-size="59.4" fill="#FEFFFE" transform="matrix(1.00, 0.00, -0.00, -1.00, 1530.3, 655.6)">l</text><text xml:space="preserve" font-family="CourierNewPSMT,Courier New" font-size="59.4" fill="#FEFFFE" transform="matrix(1.00, 0.00, -0.00, -1.00, 1566.0, 655.6)">e</text><text xml:space="preserve" font-family="CourierNewPSMT,Courier New" font-size="59.4" fill="#FEFFFE" transform="matrix(1.00, 0.00, -0.00, -1.00, 1601.6, 655.6)">r</text><text xml:space="preserve" font-family="CourierNewPSMT,Courier New" font-size="59.4" fill="#FEFFFE" transform="matrix(1.00, 0.00, -0.00, -1.00, 1637.3, 655.6)"> </text><text xml:space="preserve" font-family="CourierNewPSMT,Courier New" font-size="59.4" fill="#FEFFFE" transform="matrix(1.00, 0.00, -0.00, -1.00, 1672.9, 655.6)">{</text><text xml:space="preserve" font-family="CourierNewPSMT,Courier New" font-size="59.4" fill="#FEFFFE" transform="matrix(1.00, 0.00, -0.00, -1.00, 1708.6, 655.6)"> </text><text xml:space="preserve" font-family="CourierNewPSMT,Courier New" font-size="59.4" fill="#FEFFFE" transform="matrix(1.00, 0.00, -0.00, -1.00, 68.8, 553.0)"> </text><text xml:space="preserve" font-family="CourierNewPSMT,Courier New" font-size="59.4" fill="#FEFFFE" transform="matrix(1.00, 0.00, -0.00, -1.00, 104.4, 553.0)"> </text><text xml:space="preserve" font-family="CourierNewPSMT,Courier New" font-size="59.4" fill="#FEFFFE" transform="matrix(1.00, 0.00, -0.00, -1.00, 140.1, 553.0)"> </text><text xml:space="preserve" font-family="CourierNewPSMT,Courier New" font-size="59.4" fill="#FEFFFE" transform="matrix(1.00, 0.00, -0.00, -1.00, 175.7, 553.0)"> </text><text xml:space="preserve" font-family="CourierNewPS-BoldMT,Courier New" font-weight="bold" font-size="59.4" fill="#FEFFFE" transform="matrix(1.00, 0.00, -0.00, -1.00, 211.4, 553.0)">p</text><text xml:space="preserve" font-family="CourierNewPS-BoldMT,Courier New" font-weight="bold" font-size="59.4" fill="#FEFFFE" transform="matrix(1.00, 0.00, -0.00, -1.00, 247.0, 553.0)">u</text><text xml:space="preserve" font-family="CourierNewPS-BoldMT,Courier New" font-weight="bold" font-size="59.4" fill="#FEFFFE" transform="matrix(1.00, 0.00, -0.00, -1.00, 282.7, 553.0)">b</text><text xml:space="preserve" font-family="CourierNewPS-BoldMT,Courier New" font-weight="bold" font-size="59.4" fill="#FEFFFE" transform="matrix(1.00, 0.00, -0.00, -1.00, 318.3, 553.0)">l</text><text xml:space="preserve" font-family="CourierNewPS-BoldMT,Courier New" font-weight="bold" font-size="59.4" fill="#FEFFFE" transform="matrix(1.00, 0.00, -0.00, -1.00, 354.0, 553.0)">i</text><text xml:space="preserve" font-family="CourierNewPS-BoldMT,Courier New" font-weight="bold" font-size="59.4" fill="#FEFFFE" transform="matrix(1.00, 0.00, -0.00, -1.00, 389.6, 553.0)">c</text><text xml:space="preserve" font-family="CourierNewPS-BoldMT,Courier New" font-weight="bold" font-size="59.4" fill="#FEFFFE" transform="matrix(1.00, 0.00, -0.00, -1.00, 425.3, 553.0)"> </text><text xml:space="preserve" font-family="CourierNewPS-BoldMT,Courier New" font-weight="bold" font-size="59.4" fill="#FEFFFE" transform="matrix(1.00, 0.00, -0.00, -1.00, 460.9, 553.0)">s</text><text xml:space="preserve" font-family="CourierNewPS-BoldMT,Courier New" font-weight="bold" font-size="59.4" fill="#FEFFFE" transform="matrix(1.00, 0.00, -0.00, -1.00, 496.6, 553.0)">t</text><text xml:space="preserve" font-family="CourierNewPS-BoldMT,Courier New" font-weight="bold" font-size="59.4" fill="#FEFFFE" transform="matrix(1.00, 0.00, -0.00, -1.00, 532.2, 553.0)">a</text><text xml:space="preserve" font-family="CourierNewPS-BoldMT,Courier New" font-weight="bold" font-size="59.4" fill="#FEFFFE" transform="matrix(1.00, 0.00, -0.00, -1.00, 567.9, 553.0)">t</text><text xml:space="preserve" font-family="CourierNewPS-BoldMT,Courier New" font-weight="bold" font-size="59.4" fill="#FEFFFE" transform="matrix(1.00, 0.00, -0.00, -1.00, 603.5, 553.0)">i</text><text xml:space="preserve" font-family="CourierNewPS-BoldMT,Courier New" font-weight="bold" font-size="59.4" fill="#FEFFFE" transform="matrix(1.00, 0.00, -0.00, -1.00, 639.2, 553.0)">c</text><text xml:space="preserve" font-family="CourierNewPSMT,Courier New" font-size="59.4" fill="#FEFFFE" transform="matrix(1.00, 0.00, -0.00, -1.00, 674.8, 553.0)"> </text><text xml:space="preserve" font-family="CourierNewPSMT,Courier New" font-size="59.4" fill="#FEFFFE" transform="matrix(1.00, 0.00, -0.00, -1.00, 710.4, 553.0)">R</text><text xml:space="preserve" font-family="CourierNewPSMT,Courier New" font-size="59.4" fill="#FEFFFE" transform="matrix(1.00, 0.00, -0.00, -1.00, 746.1, 553.0)">e</text><text xml:space="preserve" font-family="CourierNewPSMT,Courier New" font-size="59.4" fill="#FEFFFE" transform="matrix(1.00, 0.00, -0.00, -1.00, 781.7, 553.0)">s</text><text xml:space="preserve" font-family="CourierNewPSMT,Courier New" font-size="59.4" fill="#FEFFFE" transform="matrix(1.00, 0.00, -0.00, -1.00, 817.4, 553.0)">u</text><text xml:space="preserve" font-family="CourierNewPSMT,Courier New" font-size="59.4" fill="#FEFFFE" transform="matrix(1.00, 0.00, -0.00, -1.00, 853.0, 553.0)">l</text><text xml:space="preserve" font-family="CourierNewPSMT,Courier New" font-size="59.4" fill="#FEFFFE" transform="matrix(1.00, 0.00, -0.00, -1.00, 888.7, 553.0)">t</text><text xml:space="preserve" font-family="CourierNewPSMT,Courier New" font-size="59.4" fill="#FEFFFE" transform="matrix(1.00, 0.00, -0.00, -1.00, 924.3, 553.0)"> </text><text xml:space="preserve" font-family="CourierNewPSMT,Courier New" font-size="59.4" fill="#FEFFFE" transform="matrix(1.00, 0.00, -0.00, -1.00, 960.0, 553.0)">i</text><text xml:space="preserve" font-family="CourierNewPSMT,Courier New" font-size="59.4" fill="#FEFFFE" transform="matrix(1.00, 0.00, -0.00, -1.00, 995.6, 553.0)">n</text><text xml:space="preserve" font-family="CourierNewPSMT,Courier New" font-size="59.4" fill="#FEFFFE" transform="matrix(1.00, 0.00, -0.00, -1.00, 1031.3, 553.0)">d</text><text xml:space="preserve" font-family="CourierNewPSMT,Courier New" font-size="59.4" fill="#FEFFFE" transform="matrix(1.00, 0.00, -0.00, -1.00, 1066.9, 553.0)">e</text><text xml:space="preserve" font-family="CourierNewPSMT,Courier New" font-size="59.4" fill="#FEFFFE" transform="matrix(1.00, 0.00, -0.00, -1.00, 1102.6, 553.0)">x</text><text xml:space="preserve" font-family="CourierNewPSMT,Courier New" font-size="59.4" fill="#FEFFFE" transform="matrix(1.00, 0.00, -0.00, -1.00, 1138.2, 553.0)">(</text><text xml:space="preserve" font-family="CourierNewPSMT,Courier New" font-size="59.4" fill="#FEFFFE" transform="matrix(1.00, 0.00, -0.00, -1.00, 1173.9, 553.0)">)</text><text xml:space="preserve" font-family="CourierNewPSMT,Courier New" font-size="59.4" fill="#FEFFFE" transform="matrix(1.00, 0.00, -0.00, -1.00, 1209.5, 553.0)"> </text><text xml:space="preserve" font-family="CourierNewPSMT,Courier New" font-size="59.4" fill="#FEFFFE" transform="matrix(1.00, 0.00, -0.00, -1.00, 1245.2, 553.0)">{</text><text xml:space="preserve" font-family="Monaco,Monaco" font-size="59.4" fill="#FEFFFE" transform="matrix(1.00, 0.00, -0.00, -1.00, 1280.7, 553.0)"> </text><text xml:space="preserve" font-family="CourierNewPSMT,Courier New" font-size="59.4" fill="#FEFFFE" transform="matrix(1.00, 0.00, -0.00, -1.00, 68.8, 486.0)"> </text><text xml:space="preserve" font-family="CourierNewPSMT,Courier New" font-size="59.4" fill="#FEFFFE" transform="matrix(1.00, 0.00, -0.00, -1.00, 104.4, 486.0)"> </text><text xml:space="preserve" font-family="CourierNewPSMT,Courier New" font-size="59.4" fill="#FEFFFE" transform="matrix(1.00, 0.00, -0.00, -1.00, 140.1, 486.0)"> </text><text xml:space="preserve" font-family="CourierNewPSMT,Courier New" font-size="59.4" fill="#FEFFFE" transform="matrix(1.00, 0.00, -0.00, -1.00, 175.7, 486.0)"> </text><text xml:space="preserve" font-family="CourierNewPSMT,Courier New" font-size="59.4" fill="#FEFFFE" transform="matrix(1.00, 0.00, -0.00, -1.00, 211.4, 486.0)"> </text><text xml:space="preserve" font-family="CourierNewPSMT,Courier New" font-size="59.4" fill="#FEFFFE" transform="matrix(1.00, 0.00, -0.00, -1.00, 247.0, 486.0)"> </text><text xml:space="preserve" font-family="CourierNewPSMT,Courier New" font-size="59.4" fill="#FEFFFE" transform="matrix(1.00, 0.00, -0.00, -1.00, 282.7, 486.0)"> </text><text xml:space="preserve" font-family="CourierNewPSMT,Courier New" font-size="59.4" fill="#FEFFFE" transform="matrix(1.00, 0.00, -0.00, -1.00, 318.3, 486.0)">J</text><text xml:space="preserve" font-family="CourierNewPSMT,Courier New" font-size="59.4" fill="#FEFFFE" transform="matrix(1.00, 0.00, -0.00, -1.00, 354.0, 486.0)">s</text><text xml:space="preserve" font-family="CourierNewPSMT,Courier New" font-size="59.4" fill="#FEFFFE" transform="matrix(1.00, 0.00, -0.00, -1.00, 389.6, 486.0)">o</text><text xml:space="preserve" font-family="CourierNewPSMT,Courier New" font-size="59.4" fill="#FEFFFE" transform="matrix(1.00, 0.00, -0.00, -1.00, 425.3, 486.0)">n</text><text xml:space="preserve" font-family="CourierNewPSMT,Courier New" font-size="59.4" fill="#FEFFFE" transform="matrix(1.00, 0.00, -0.00, -1.00, 460.9, 486.0)">N</text><text xml:space="preserve" font-family="CourierNewPSMT,Courier New" font-size="59.4" fill="#FEFFFE" transform="matrix(1.00, 0.00, -0.00, -1.00, 496.6, 486.0)">o</text><text xml:space="preserve" font-family="CourierNewPSMT,Courier New" font-size="59.4" fill="#FEFFFE" transform="matrix(1.00, 0.00, -0.00, -1.00, 532.2, 486.0)">d</text><text xml:space="preserve" font-family="CourierNewPSMT,Courier New" font-size="59.4" fill="#FEFFFE" transform="matrix(1.00, 0.00, -0.00, -1.00, 567.9, 486.0)">e</text><text xml:space="preserve" font-family="CourierNewPSMT,Courier New" font-size="59.4" fill="#FEFFFE" transform="matrix(1.00, 0.00, -0.00, -1.00, 603.6, 486.0)"> </text><text xml:space="preserve" font-family="CourierNewPSMT,Courier New" font-size="59.4" fill="#FEFFFE" transform="matrix(1.00, 0.00, -0.00, -1.00, 639.2, 486.0)">j</text><text xml:space="preserve" font-family="CourierNewPSMT,Courier New" font-size="59.4" fill="#FEFFFE" transform="matrix(1.00, 0.00, -0.00, -1.00, 674.9, 486.0)">s</text><text xml:space="preserve" font-family="CourierNewPSMT,Courier New" font-size="59.4" fill="#FEFFFE" transform="matrix(1.00, 0.00, -0.00, -1.00, 710.5, 486.0)">o</text><text xml:space="preserve" font-family="CourierNewPSMT,Courier New" font-size="59.4" fill="#FEFFFE" transform="matrix(1.00, 0.00, -0.00, -1.00, 746.2, 486.0)">n</text><text xml:space="preserve" font-family="CourierNewPSMT,Courier New" font-size="59.4" fill="#FEFFFE" transform="matrix(1.00, 0.00, -0.00, -1.00, 781.8, 486.0)"> </text><text xml:space="preserve" font-family="CourierNewPSMT,Courier New" font-size="59.4" fill="#FEFFFE" transform="matrix(1.00, 0.00, -0.00, -1.00, 817.5, 486.0)">=</text><text xml:space="preserve" font-family="CourierNewPSMT,Courier New" font-size="59.4" fill="#FEFFFE" transform="matrix(1.00, 0.00, -0.00, -1.00, 853.1, 486.0)"> </text><text xml:space="preserve" font-family="CourierNewPSMT,Courier New" font-size="59.4" fill="#FEFFFE" transform="matrix(1.00, 0.00, -0.00, -1.00, 888.8, 486.0)">r</text><text xml:space="preserve" font-family="CourierNewPSMT,Courier New" font-size="59.4" fill="#FEFFFE" transform="matrix(1.00, 0.00, -0.00, -1.00, 924.4, 486.0)">e</text><text xml:space="preserve" font-family="CourierNewPSMT,Courier New" font-size="59.4" fill="#FEFFFE" transform="matrix(1.00, 0.00, -0.00, -1.00, 960.1, 486.0)">q</text><text xml:space="preserve" font-family="CourierNewPSMT,Courier New" font-size="59.4" fill="#FEFFFE" transform="matrix(1.00, 0.00, -0.00, -1.00, 995.7, 486.0)">u</text><text xml:space="preserve" font-family="CourierNewPSMT,Courier New" font-size="59.4" fill="#FEFFFE" transform="matrix(1.00, 0.00, -0.00, -1.00, 1031.4, 486.0)">e</text><text xml:space="preserve" font-family="CourierNewPSMT,Courier New" font-size="59.4" fill="#FEFFFE" transform="matrix(1.00, 0.00, -0.00, -1.00, 1067.0, 486.0)">s</text><text xml:space="preserve" font-family="CourierNewPSMT,Courier New" font-size="59.4" fill="#FEFFFE" transform="matrix(1.00, 0.00, -0.00, -1.00, 1102.7, 486.0)">t</text><text xml:space="preserve" font-family="CourierNewPSMT,Courier New" font-size="59.4" fill="#FEFFFE" transform="matrix(1.00, 0.00, -0.00, -1.00, 1138.3, 486.0)">(</text><text xml:space="preserve" font-family="CourierNewPSMT,Courier New" font-size="59.4" fill="#FEFFFE" transform="matrix(1.00, 0.00, -0.00, -1.00, 1174.0, 486.0)">)</text><text xml:space="preserve" font-family="CourierNewPSMT,Courier New" font-size="59.4" fill="#FEFFFE" transform="matrix(1.00, 0.00, -0.00, -1.00, 1209.6, 486.0)">.</text><text xml:space="preserve" font-family="CourierNewPSMT,Courier New" font-size="59.4" fill="#FEFFFE" transform="matrix(1.00, 0.00, -0.00, -1.00, 1245.3, 486.0)">b</text><text xml:space="preserve" font-family="CourierNewPSMT,Courier New" font-size="59.4" fill="#FEFFFE" transform="matrix(1.00, 0.00, -0.00, -1.00, 1280.9, 486.0)">o</text><text xml:space="preserve" font-family="CourierNewPSMT,Courier New" font-size="59.4" fill="#FEFFFE" transform="matrix(1.00, 0.00, -0.00, -1.00, 1316.6, 486.0)">d</text><text xml:space="preserve" font-family="CourierNewPSMT,Courier New" font-size="59.4" fill="#FEFFFE" transform="matrix(1.00, 0.00, -0.00, -1.00, 1352.2, 486.0)">y</text><text xml:space="preserve" font-family="CourierNewPSMT,Courier New" font-size="59.4" fill="#FEFFFE" transform="matrix(1.00, 0.00, -0.00, -1.00, 1387.9, 486.0)">(</text><text xml:space="preserve" font-family="CourierNewPSMT,Courier New" font-size="59.4" fill="#FEFFFE" transform="matrix(1.00, 0.00, -0.00, -1.00, 1423.5, 486.0)">)</text><text xml:space="preserve" font-family="CourierNewPSMT,Courier New" font-size="59.4" fill="#FEFFFE" transform="matrix(1.00, 0.00, -0.00, -1.00, 1459.2, 486.0)">.</text><text xml:space="preserve" font-family="CourierNewPSMT,Courier New" font-size="59.4" fill="#FEFFFE" transform="matrix(1.00, 0.00, -0.00, -1.00, 1494.8, 486.0)">a</text><text xml:space="preserve" font-family="CourierNewPSMT,Courier New" font-size="59.4" fill="#FEFFFE" transform="matrix(1.00, 0.00, -0.00, -1.00, 1530.5, 486.0)">s</text><text xml:space="preserve" font-family="CourierNewPSMT,Courier New" font-size="59.4" fill="#FEFFFE" transform="matrix(1.00, 0.00, -0.00, -1.00, 1566.2, 486.0)">J</text><text xml:space="preserve" font-family="CourierNewPSMT,Courier New" font-size="59.4" fill="#FEFFFE" transform="matrix(1.00, 0.00, -0.00, -1.00, 1601.8, 486.0)">s</text><text xml:space="preserve" font-family="CourierNewPSMT,Courier New" font-size="59.4" fill="#FEFFFE" transform="matrix(1.00, 0.00, -0.00, -1.00, 1637.5, 486.0)">o</text><text xml:space="preserve" font-family="CourierNewPSMT,Courier New" font-size="59.4" fill="#FEFFFE" transform="matrix(1.00, 0.00, -0.00, -1.00, 1673.1, 486.0)">n</text><text xml:space="preserve" font-family="CourierNewPSMT,Courier New" font-size="59.4" fill="#FEFFFE" transform="matrix(1.00, 0.00, -0.00, -1.00, 1708.8, 486.0)">(</text><text xml:space="preserve" font-family="CourierNewPSMT,Courier New" font-size="59.4" fill="#FEFFFE" transform="matrix(1.00, 0.00, -0.00, -1.00, 1744.4, 486.0)">)</text><text xml:space="preserve" font-family="CourierNewPSMT,Courier New" font-size="59.4" fill="#FEFFFE" transform="matrix(1.00, 0.00, -0.00, -1.00, 1780.1, 486.0)">;</text><text xml:space="preserve" font-family="CourierNewPSMT,Courier New" font-size="59.4" fill="#FEFFFE" transform="matrix(1.00, 0.00, -0.00, -1.00, 1815.4, 486.0)"> </text><text xml:space="preserve" font-family="CourierNewPSMT,Courier New" font-size="59.4" fill="#FEFFFE" transform="matrix(1.00, 0.00, -0.00, -1.00, 68.8, 383.4)"> </text><text xml:space="preserve" font-family="CourierNewPSMT,Courier New" font-size="59.4" fill="#FEFFFE" transform="matrix(1.00, 0.00, -0.00, -1.00, 104.4, 383.4)"> </text><text xml:space="preserve" font-family="CourierNewPSMT,Courier New" font-size="59.4" fill="#FEFFFE" transform="matrix(1.00, 0.00, -0.00, -1.00, 140.1, 383.4)"> </text><text xml:space="preserve" font-family="CourierNewPSMT,Courier New" font-size="59.4" fill="#FEFFFE" transform="matrix(1.00, 0.00, -0.00, -1.00, 175.7, 383.4)"> </text><text xml:space="preserve" font-family="CourierNewPSMT,Courier New" font-size="59.4" fill="#FEFFFE" transform="matrix(1.00, 0.00, -0.00, -1.00, 211.4, 383.4)"> </text><text xml:space="preserve" font-family="CourierNewPSMT,Courier New" font-size="59.4" fill="#FEFFFE" transform="matrix(1.00, 0.00, -0.00, -1.00, 247.0, 383.4)"> </text><text xml:space="preserve" font-family="CourierNewPSMT,Courier New" font-size="59.4" fill="#FEFFFE" transform="matrix(1.00, 0.00, -0.00, -1.00, 282.7, 383.4)"> </text><text xml:space="preserve" font-family="CourierNewPSMT,Courier New" font-size="59.4" fill="#FEFFFE" transform="matrix(1.00, 0.00, -0.00, -1.00, 318.3, 383.4)">.</text><text xml:space="preserve" font-family="CourierNewPSMT,Courier New" font-size="59.4" fill="#FEFFFE" transform="matrix(1.00, 0.00, -0.00, -1.00, 354.0, 383.4)">.</text><text xml:space="preserve" font-family="CourierNewPSMT,Courier New" font-size="59.4" fill="#FEFFFE" transform="matrix(1.00, 0.00, -0.00, -1.00, 389.6, 383.4)">.</text><text xml:space="preserve" font-family="Monaco,Monaco" font-size="59.4" fill="#FEFFFE" transform="matrix(1.00, 0.00, -0.00, -1.00, 425.2, 383.4)"> </text><text xml:space="preserve" font-family="Monaco,Monaco" font-size="59.4" fill="#FEFFFE" transform="matrix(1.00, 0.00, -0.00, -1.00, 68.8, 316.4)"> </text><text xml:space="preserve" font-family="CourierNewPSMT,Courier New" font-size="59.4" fill="#FEFFFE" transform="matrix(1.00, 0.00, -0.00, -1.00, 68.8, 249.4)"> </text><text xml:space="preserve" font-family="CourierNewPSMT,Courier New" font-size="59.4" fill="#FEFFFE" transform="matrix(1.00, 0.00, -0.00, -1.00, 104.4, 249.4)"> </text><text xml:space="preserve" font-family="CourierNewPSMT,Courier New" font-size="59.4" fill="#FEFFFE" transform="matrix(1.00, 0.00, -0.00, -1.00, 140.1, 249.4)"> </text><text xml:space="preserve" font-family="CourierNewPSMT,Courier New" font-size="59.4" fill="#FEFFFE" transform="matrix(1.00, 0.00, -0.00, -1.00, 175.7, 249.4)"> </text><text xml:space="preserve" font-family="CourierNewPSMT,Courier New" font-size="59.4" fill="#FEFFFE" transform="matrix(1.00, 0.00, -0.00, -1.00, 211.4, 249.4)"> </text><text xml:space="preserve" font-family="CourierNewPSMT,Courier New" font-size="59.4" fill="#FEFFFE" transform="matrix(1.00, 0.00, -0.00, -1.00, 247.0, 249.4)"> </text><text xml:space="preserve" font-family="CourierNewPSMT,Courier New" font-size="59.4" fill="#FEFFFE" transform="matrix(1.00, 0.00, -0.00, -1.00, 282.7, 249.4)"> </text><text xml:space="preserve" font-family="CourierNewPS-BoldMT,Courier New" font-weight="bold" font-size="59.4" fill="#FEFFFE" transform="matrix(1.00, 0.00, -0.00, -1.00, 318.3, 249.4)">r</text><text xml:space="preserve" font-family="CourierNewPS-BoldMT,Courier New" font-weight="bold" font-size="59.4" fill="#FEFFFE" transform="matrix(1.00, 0.00, -0.00, -1.00, 353.9, 249.4)">e</text><text xml:space="preserve" font-family="CourierNewPS-BoldMT,Courier New" font-weight="bold" font-size="59.4" fill="#FEFFFE" transform="matrix(1.00, 0.00, -0.00, -1.00, 389.6, 249.4)">t</text><text xml:space="preserve" font-family="CourierNewPS-BoldMT,Courier New" font-weight="bold" font-size="59.4" fill="#FEFFFE" transform="matrix(1.00, 0.00, -0.00, -1.00, 425.3, 249.4)">u</text><text xml:space="preserve" font-family="CourierNewPS-BoldMT,Courier New" font-weight="bold" font-size="59.4" fill="#FEFFFE" transform="matrix(1.00, 0.00, -0.00, -1.00, 460.9, 249.4)">r</text><text xml:space="preserve" font-family="CourierNewPS-BoldMT,Courier New" font-weight="bold" font-size="59.4" fill="#FEFFFE" transform="matrix(1.00, 0.00, -0.00, -1.00, 496.6, 249.4)">n</text><text xml:space="preserve" font-family="CourierNewPSMT,Courier New" font-size="59.4" fill="#FEFFFE" transform="matrix(1.00, 0.00, -0.00, -1.00, 532.2, 249.4)"> </text><text xml:space="preserve" font-family="CourierNewPSMT,Courier New" font-size="59.4" fill="#FEFFFE" transform="matrix(1.00, 0.00, -0.00, -1.00, 567.8, 249.4)">o</text><text xml:space="preserve" font-family="CourierNewPSMT,Courier New" font-size="59.4" fill="#FEFFFE" transform="matrix(1.00, 0.00, -0.00, -1.00, 603.5, 249.4)">k</text><text xml:space="preserve" font-family="CourierNewPSMT,Courier New" font-size="59.4" fill="#FEFFFE" transform="matrix(1.00, 0.00, -0.00, -1.00, 639.1, 249.4)">(</text><text xml:space="preserve" font-family="CourierNewPSMT,Courier New" font-size="59.4" fill="#FEFFFE" transform="matrix(1.00, 0.00, -0.00, -1.00, 674.8, 249.4)">)</text><text xml:space="preserve" font-family="CourierNewPSMT,Courier New" font-size="59.4" fill="#FEFFFE" transform="matrix(1.00, 0.00, -0.00, -1.00, 710.4, 249.4)">;</text><text xml:space="preserve" font-family="Monaco,Monaco" font-size="59.4" fill="#FEFFFE" transform="matrix(1.00, 0.00, -0.00, -1.00, 746.0, 249.4)"> </text><text xml:space="preserve" font-family="CourierNewPSMT,Courier New" font-size="59.4" fill="#FEFFFE" transform="matrix(1.00, 0.00, -0.00, -1.00, 68.8, 182.4)"> </text><text xml:space="preserve" font-family="CourierNewPSMT,Courier New" font-size="59.4" fill="#FEFFFE" transform="matrix(1.00, 0.00, -0.00, -1.00, 104.4, 182.4)"> </text><text xml:space="preserve" font-family="CourierNewPSMT,Courier New" font-size="59.4" fill="#FEFFFE" transform="matrix(1.00, 0.00, -0.00, -1.00, 140.1, 182.4)"> </text><text xml:space="preserve" font-family="CourierNewPSMT,Courier New" font-size="59.4" fill="#FEFFFE" transform="matrix(1.00, 0.00, -0.00, -1.00, 175.7, 182.4)"> </text><text xml:space="preserve" font-family="CourierNewPSMT,Courier New" font-size="59.4" fill="#FEFFFE" transform="matrix(1.00, 0.00, -0.00, -1.00, 211.4, 182.4)">}</text><text xml:space="preserve" font-family="Monaco,Monaco" font-size="59.4" fill="#FEFFFE" transform="matrix(1.00, 0.00, -0.00, -1.00, 247.0, 182.4)"> </text><text xml:space="preserve" font-family="CourierNewPSMT,Courier New" font-size="59.4" fill="#FEFFFE" transform="matrix(1.00, 0.00, -0.00, -1.00, 68.8, 115.4)">}</text><text xml:space="preserve" font-family="Chalkduster,Chalkduster" font-size="100.0" fill="#71AFE1" transform="matrix(1.00, 0.00, -0.00, -1.00, 660.7, 922.5)">C</text><text xml:space="preserve" font-family="Chalkduster,Chalkduster" font-size="100.0" fill="#71AFE1" transform="matrix(1.00, 0.00, -0.00, -1.00, 741.8, 922.5)">o</text><text xml:space="preserve" font-family="Chalkduster,Chalkduster" font-size="100.0" fill="#71AFE1" transform="matrix(1.00, 0.00, -0.00, -1.00, 816.2, 922.5)">n</text><text xml:space="preserve" font-family="Chalkduster,Chalkduster" font-size="100.0" fill="#71AFE1" transform="matrix(1.00, 0.00, -0.00, -1.00, 885.8, 922.5)">t</text><text xml:space="preserve" font-family="Chalkduster,Chalkduster" font-size="100.0" fill="#71AFE1" transform="matrix(1.00, 0.00, -0.00, -1.00, 931.5, 922.5)">r</text><text xml:space="preserve" font-family="Chalkduster,Chalkduster" font-size="100.0" fill="#71AFE1" transform="matrix(1.00, 0.00, -0.00, -1.00, 982.7, 922.5)">o</text><text xml:space="preserve" font-family="Chalkduster,Chalkduster" font-size="100.0" fill="#71AFE1" transform="matrix(1.00, 0.00, -0.00, -1.00, 1058.8, 922.5)">l</text><text xml:space="preserve" font-family="Chalkduster,Chalkduster" font-size="100.0" fill="#71AFE1" transform="matrix(1.00, 0.00, -0.00, -1.00, 1104.2, 922.5)">l</text><text xml:space="preserve" font-family="Chalkduster,Chalkduster" font-size="100.0" fill="#71AFE1" transform="matrix(1.00, 0.00, -0.00, -1.00, 1145.6, 922.5)">e</text><text xml:space="preserve" font-family="Chalkduster,Chalkduster" font-size="100.0" fill="#71AFE1" transform="matrix(1.00, 0.00, -0.00, -1.00, 1206.5, 922.5)">r</text></g></svg>