<?xml version="1.0" encoding="UTF-8" standalone="no"?><svg xmlns="http://www.w3.org/2000/svg" xmlns:xlink="http://www.w3.org/1999/xlink" clip-rule="evenodd" stroke-miterlimit="10" viewBox="0 0 1920 1080"><desc>SVG generated by Keynote</desc><defs></defs><g transform="matrix(1.00, 0.00, -0.00, -1.00, 0.0, 1080.0)"><g><clipPath id="clip0x7f9a46710870"><path d="M 0.0 1080.0 L 1920.0 1080.0 L 1920.0 0.0 L 0.0 0.0 Z M 0.0 1080.0 "></path></clipPath><g clip-path="url(#clip0x7f9a46710870)"><image xlink:href="../../2454F38C-308E-4D93-86A7-ACF877EF01F7/assets/D54D7AAA5FD1EC733BC359F041C689F1.jpeg" width="2048.00" height="1536.00" transform="matrix(0.94, 0.00, -0.00, -0.70, 0.0, 1080.0)"></image></g></g><text xml:space="preserve" font-family="Monaco,Monaco" font-size="55.8" fill="#FEFFFE" transform="matrix(1.00, 0.00, -0.00, -1.00, 68.8, 705.6)"> </text><text xml:space="preserve" font-family="CourierNewPS-BoldMT,Courier New" font-weight="bold" font-size="55.8" fill="#FEFFFE" transform="matrix(1.00, 0.00, -0.00, -1.00, 68.8, 642.6)">p</text><text xml:space="preserve" font-family="CourierNewPS-BoldMT,Courier New" font-weight="bold" font-size="55.8" fill="#FEFFFE" transform="matrix(1.00, 0.00, -0.00, -1.00, 102.3, 642.6)">u</text><text xml:space="preserve" font-family="CourierNewPS-BoldMT,Courier New" font-weight="bold" font-size="55.8" fill="#FEFFFE" transform="matrix(1.00, 0.00, -0.00, -1.00, 135.8, 642.6)">b</text><text xml:space="preserve" font-family="CourierNewPS-BoldMT,Courier New" font-weight="bold" font-size="55.8" fill="#FEFFFE" transform="matrix(1.00, 0.00, -0.00, -1.00, 169.3, 642.6)">l</text><text xml:space="preserve" font-family="CourierNewPS-BoldMT,Courier New" font-weight="bold" font-size="55.8" fill="#FEFFFE" transform="matrix(1.00, 0.00, -0.00, -1.00, 202.7, 642.6)">i</text><text xml:space="preserve" font-family="CourierNewPS-BoldMT,Courier New" font-weight="bold" font-size="55.8" fill="#FEFFFE" transform="matrix(1.00, 0.00, -0.00, -1.00, 236.2, 642.6)">c</text><text xml:space="preserve" font-family="CourierNewPS-BoldMT,Courier New" font-weight="bold" font-size="55.8" fill="#FEFFFE" transform="matrix(1.00, 0.00, -0.00, -1.00, 269.7, 642.6)"> </text><text xml:space="preserve" font-family="CourierNewPS-BoldMT,Courier New" font-weight="bold" font-size="55.8" fill="#FEFFFE" transform="matrix(1.00, 0.00, -0.00, -1.00, 303.2, 642.6)">c</text><text xml:space="preserve" font-family="CourierNewPS-BoldMT,Courier New" font-weight="bold" font-size="55.8" fill="#FEFFFE" transform="matrix(1.00, 0.00, -0.00, -1.00, 336.7, 642.6)">l</text><text xml:space="preserve" font-family="CourierNewPS-BoldMT,Courier New" font-weight="bold" font-size="55.8" fill="#FEFFFE" transform="matrix(1.00, 0.00, -0.00, -1.00, 370.2, 642.6)">a</text><text xml:space="preserve" font-family="CourierNewPS-BoldMT,Courier New" font-weight="bold" font-size="55.8" fill="#FEFFFE" transform="matrix(1.00, 0.00, -0.00, -1.00, 403.7, 642.6)">s</text><text xml:space="preserve" font-family="CourierNewPS-BoldMT,Courier New" font-weight="bold" font-size="55.8" fill="#FEFFFE" transform="matrix(1.00, 0.00, -0.00, -1.00, 437.2, 642.6)">s</text><text xml:space="preserve" font-family="CourierNewPSMT,Courier New" font-size="55.8" fill="#FEFFFE" transform="matrix(1.00, 0.00, -0.00, -1.00, 470.6, 642.6)"> </text><text xml:space="preserve" font-family="CourierNewPSMT,Courier New" font-size="55.8" fill="#FEFFFE" transform="matrix(1.00, 0.00, -0.00, -1.00, 504.1, 642.6)">M</text><text xml:space="preserve" font-family="CourierNewPSMT,Courier New" font-size="55.8" fill="#FEFFFE" transform="matrix(1.00, 0.00, -0.00, -1.00, 537.6, 642.6)">y</text><text xml:space="preserve" font-family="CourierNewPSMT,Courier New" font-size="55.8" fill="#FEFFFE" transform="matrix(1.00, 0.00, -0.00, -1.00, 571.1, 642.6)">C</text><text xml:space="preserve" font-family="CourierNewPSMT,Courier New" font-size="55.8" fill="#FEFFFE" transform="matrix(1.00, 0.00, -0.00, -1.00, 604.6, 642.6)">o</text><text xml:space="preserve" font-family="CourierNewPSMT,Courier New" font-size="55.8" fill="#FEFFFE" transform="matrix(1.00, 0.00, -0.00, -1.00, 638.1, 642.6)">n</text><text xml:space="preserve" font-family="CourierNewPSMT,Courier New" font-size="55.8" fill="#FEFFFE" transform="matrix(1.00, 0.00, -0.00, -1.00, 671.5, 642.6)">t</text><text xml:space="preserve" font-family="CourierNewPSMT,Courier New" font-size="55.8" fill="#FEFFFE" transform="matrix(1.00, 0.00, -0.00, -1.00, 705.0, 642.6)">r</text><text xml:space="preserve" font-family="CourierNewPSMT,Courier New" font-size="55.8" fill="#FEFFFE" transform="matrix(1.00, 0.00, -0.00, -1.00, 738.5, 642.6)">o</text><text xml:space="preserve" font-family="CourierNewPSMT,Courier New" font-size="55.8" fill="#FEFFFE" transform="matrix(1.00, 0.00, -0.00, -1.00, 772.0, 642.6)">l</text><text xml:space="preserve" font-family="CourierNewPSMT,Courier New" font-size="55.8" fill="#FEFFFE" transform="matrix(1.00, 0.00, -0.00, -1.00, 805.5, 642.6)">l</text><text xml:space="preserve" font-family="CourierNewPSMT,Courier New" font-size="55.8" fill="#FEFFFE" transform="matrix(1.00, 0.00, -0.00, -1.00, 839.0, 642.6)">e</text><text xml:space="preserve" font-family="CourierNewPSMT,Courier New" font-size="55.8" fill="#FEFFFE" transform="matrix(1.00, 0.00, -0.00, -1.00, 872.5, 642.6)">r</text><text xml:space="preserve" font-family="CourierNewPSMT,Courier New" font-size="55.8" fill="#FEFFFE" transform="matrix(1.00, 0.00, -0.00, -1.00, 906.0, 642.6)"> </text><text xml:space="preserve" font-family="CourierNewPS-BoldMT,Courier New" font-weight="bold" font-size="55.8" fill="#FEFFFE" transform="matrix(1.00, 0.00, -0.00, -1.00, 939.4, 642.6)">e</text><text xml:space="preserve" font-family="CourierNewPS-BoldMT,Courier New" font-weight="bold" font-size="55.8" fill="#FEFFFE" transform="matrix(1.00, 0.00, -0.00, -1.00, 972.9, 642.6)">x</text><text xml:space="preserve" font-family="CourierNewPS-BoldMT,Courier New" font-weight="bold" font-size="55.8" fill="#FEFFFE" transform="matrix(1.00, 0.00, -0.00, -1.00, 1006.4, 642.6)">t</text><text xml:space="preserve" font-family="CourierNewPS-BoldMT,Courier New" font-weight="bold" font-size="55.8" fill="#FEFFFE" transform="matrix(1.00, 0.00, -0.00, -1.00, 1039.9, 642.6)">e</text><text xml:space="preserve" font-family="CourierNewPS-BoldMT,Courier New" font-weight="bold" font-size="55.8" fill="#FEFFFE" transform="matrix(1.00, 0.00, -0.00, -1.00, 1073.4, 642.6)">n</text><text xml:space="preserve" font-family="CourierNewPS-BoldMT,Courier New" font-weight="bold" font-size="55.8" fill="#FEFFFE" transform="matrix(1.00, 0.00, -0.00, -1.00, 1106.9, 642.6)">d</text><text xml:space="preserve" font-family="CourierNewPS-BoldMT,Courier New" font-weight="bold" font-size="55.8" fill="#FEFFFE" transform="matrix(1.00, 0.00, -0.00, -1.00, 1140.3, 642.6)">s</text><text xml:space="preserve" font-family="CourierNewPSMT,Courier New" font-size="55.8" fill="#FEFFFE" transform="matrix(1.00, 0.00, -0.00, -1.00, 1173.8, 642.6)"> </text><text xml:space="preserve" font-family="CourierNewPSMT,Courier New" font-size="55.8" fill="#FEFFFE" transform="matrix(1.00, 0.00, -0.00, -1.00, 1207.3, 642.6)">C</text><text xml:space="preserve" font-family="CourierNewPSMT,Courier New" font-size="55.8" fill="#FEFFFE" transform="matrix(1.00, 0.00, -0.00, -1.00, 1240.8, 642.6)">o</text><text xml:space="preserve" font-family="CourierNewPSMT,Courier New" font-size="55.8" fill="#FEFFFE" transform="matrix(1.00, 0.00, -0.00, -1.00, 1274.3, 642.6)">n</text><text xml:space="preserve" font-family="CourierNewPSMT,Courier New" font-size="55.8" fill="#FEFFFE" transform="matrix(1.00, 0.00, -0.00, -1.00, 1307.8, 642.6)">t</text><text xml:space="preserve" font-family="CourierNewPSMT,Courier New" font-size="55.8" fill="#FEFFFE" transform="matrix(1.00, 0.00, -0.00, -1.00, 1341.3, 642.6)">r</text><text xml:space="preserve" font-family="CourierNewPSMT,Courier New" font-size="55.8" fill="#FEFFFE" transform="matrix(1.00, 0.00, -0.00, -1.00, 1374.7, 642.6)">o</text><text xml:space="preserve" font-family="CourierNewPSMT,Courier New" font-size="55.8" fill="#FEFFFE" transform="matrix(1.00, 0.00, -0.00, -1.00, 1408.2, 642.6)">l</text><text xml:space="preserve" font-family="CourierNewPSMT,Courier New" font-size="55.8" fill="#FEFFFE" transform="matrix(1.00, 0.00, -0.00, -1.00, 1441.7, 642.6)">l</text><text xml:space="preserve" font-family="CourierNewPSMT,Courier New" font-size="55.8" fill="#FEFFFE" transform="matrix(1.00, 0.00, -0.00, -1.00, 1475.2, 642.6)">e</text><text xml:space="preserve" font-family="CourierNewPSMT,Courier New" font-size="55.8" fill="#FEFFFE" transform="matrix(1.00, 0.00, -0.00, -1.00, 1508.7, 642.6)">r</text><text xml:space="preserve" font-family="CourierNewPSMT,Courier New" font-size="55.8" fill="#FEFFFE" transform="matrix(1.00, 0.00, -0.00, -1.00, 1542.2, 642.6)"> </text><text xml:space="preserve" font-family="CourierNewPSMT,Courier New" font-size="55.8" fill="#FEFFFE" transform="matrix(1.00, 0.00, -0.00, -1.00, 1575.7, 642.6)">{</text><text xml:space="preserve" font-family="CourierNewPSMT,Courier New" font-size="55.8" fill="#FEFFFE" transform="matrix(1.00, 0.00, -0.00, -1.00, 1609.2, 642.6)"> </text><text xml:space="preserve" font-family="CourierNewPSMT,Courier New" font-size="55.8" fill="#FEFFFE" transform="matrix(1.00, 0.00, -0.00, -1.00, 68.8, 546.1)"> </text><text xml:space="preserve" font-family="CourierNewPSMT,Courier New" font-size="55.8" fill="#FEFFFE" transform="matrix(1.00, 0.00, -0.00, -1.00, 102.3, 546.1)"> </text><text xml:space="preserve" font-family="CourierNewPSMT,Courier New" font-size="55.8" fill="#FEFFFE" transform="matrix(1.00, 0.00, -0.00, -1.00, 135.8, 546.1)"> </text><text xml:space="preserve" font-family="CourierNewPSMT,Courier New" font-size="55.8" fill="#FEFFFE" transform="matrix(1.00, 0.00, -0.00, -1.00, 169.3, 546.1)"> </text><text xml:space="preserve" font-family="CourierNewPS-BoldMT,Courier New" font-weight="bold" font-size="55.8" fill="#FEFFFE" transform="matrix(1.00, 0.00, -0.00, -1.00, 202.7, 546.1)">p</text><text xml:space="preserve" font-family="CourierNewPS-BoldMT,Courier New" font-weight="bold" font-size="55.8" fill="#FEFFFE" transform="matrix(1.00, 0.00, -0.00, -1.00, 236.2, 546.1)">u</text><text xml:space="preserve" font-family="CourierNewPS-BoldMT,Courier New" font-weight="bold" font-size="55.8" fill="#FEFFFE" transform="matrix(1.00, 0.00, -0.00, -1.00, 269.7, 546.1)">b</text><text xml:space="preserve" font-family="CourierNewPS-BoldMT,Courier New" font-weight="bold" font-size="55.8" fill="#FEFFFE" transform="matrix(1.00, 0.00, -0.00, -1.00, 303.2, 546.1)">l</text><text xml:space="preserve" font-family="CourierNewPS-BoldMT,Courier New" font-weight="bold" font-size="55.8" fill="#FEFFFE" transform="matrix(1.00, 0.00, -0.00, -1.00, 336.7, 546.1)">i</text><text xml:space="preserve" font-family="CourierNewPS-BoldMT,Courier New" font-weight="bold" font-size="55.8" fill="#FEFFFE" transform="matrix(1.00, 0.00, -0.00, -1.00, 370.2, 546.1)">c</text><text xml:space="preserve" font-family="CourierNewPS-BoldMT,Courier New" font-weight="bold" font-size="55.8" fill="#FEFFFE" transform="matrix(1.00, 0.00, -0.00, -1.00, 403.7, 546.1)"> </text><text xml:space="preserve" font-family="CourierNewPS-BoldMT,Courier New" font-weight="bold" font-size="55.8" fill="#FEFFFE" transform="matrix(1.00, 0.00, -0.00, -1.00, 437.2, 546.1)">s</text><text xml:space="preserve" font-family="CourierNewPS-BoldMT,Courier New" font-weight="bold" font-size="55.8" fill="#FEFFFE" transform="matrix(1.00, 0.00, -0.00, -1.00, 470.6, 546.1)">t</text><text xml:space="preserve" font-family="CourierNewPS-BoldMT,Courier New" font-weight="bold" font-size="55.8" fill="#FEFFFE" transform="matrix(1.00, 0.00, -0.00, -1.00, 504.1, 546.1)">a</text><text xml:space="preserve" font-family="CourierNewPS-BoldMT,Courier New" font-weight="bold" font-size="55.8" fill="#FEFFFE" transform="matrix(1.00, 0.00, -0.00, -1.00, 537.6, 546.1)">t</text><text xml:space="preserve" font-family="CourierNewPS-BoldMT,Courier New" font-weight="bold" font-size="55.8" fill="#FEFFFE" transform="matrix(1.00, 0.00, -0.00, -1.00, 571.1, 546.1)">i</text><text xml:space="preserve" font-family="CourierNewPS-BoldMT,Courier New" font-weight="bold" font-size="55.8" fill="#FEFFFE" transform="matrix(1.00, 0.00, -0.00, -1.00, 604.6, 546.1)">c</text><text xml:space="preserve" font-family="CourierNewPSMT,Courier New" font-size="55.8" fill="#FEFFFE" transform="matrix(1.00, 0.00, -0.00, -1.00, 638.0, 546.1)"> </text><text xml:space="preserve" font-family="CourierNewPSMT,Courier New" font-size="55.8" fill="#FEFFFE" transform="matrix(1.00, 0.00, -0.00, -1.00, 671.5, 546.1)">R</text><text xml:space="preserve" font-family="CourierNewPSMT,Courier New" font-size="55.8" fill="#FEFFFE" transform="matrix(1.00, 0.00, -0.00, -1.00, 705.0, 546.1)">e</text><text xml:space="preserve" font-family="CourierNewPSMT,Courier New" font-size="55.8" fill="#FEFFFE" transform="matrix(1.00, 0.00, -0.00, -1.00, 738.5, 546.1)">s</text><text xml:space="preserve" font-family="CourierNewPSMT,Courier New" font-size="55.8" fill="#FEFFFE" transform="matrix(1.00, 0.00, -0.00, -1.00, 772.0, 546.1)">u</text><text xml:space="preserve" font-family="CourierNewPSMT,Courier New" font-size="55.8" fill="#FEFFFE" transform="matrix(1.00, 0.00, -0.00, -1.00, 805.5, 546.1)">l</text><text xml:space="preserve" font-family="CourierNewPSMT,Courier New" font-size="55.8" fill="#FEFFFE" transform="matrix(1.00, 0.00, -0.00, -1.00, 839.0, 546.1)">t</text><text xml:space="preserve" font-family="CourierNewPSMT,Courier New" font-size="55.8" fill="#FEFFFE" transform="matrix(1.00, 0.00, -0.00, -1.00, 872.5, 546.1)"> </text><text xml:space="preserve" font-family="CourierNewPSMT,Courier New" font-size="55.8" fill="#FEFFFE" transform="matrix(1.00, 0.00, -0.00, -1.00, 906.0, 546.1)">u</text><text xml:space="preserve" font-family="CourierNewPSMT,Courier New" font-size="55.8" fill="#FEFFFE" transform="matrix(1.00, 0.00, -0.00, -1.00, 939.4, 546.1)">p</text><text xml:space="preserve" font-family="CourierNewPSMT,Courier New" font-size="55.8" fill="#FEFFFE" transform="matrix(1.00, 0.00, -0.00, -1.00, 972.9, 546.1)">l</text><text xml:space="preserve" font-family="CourierNewPSMT,Courier New" font-size="55.8" fill="#FEFFFE" transform="matrix(1.00, 0.00, -0.00, -1.00, 1006.4, 546.1)">o</text><text xml:space="preserve" font-family="CourierNewPSMT,Courier New" font-size="55.8" fill="#FEFFFE" transform="matrix(1.00, 0.00, -0.00, -1.00, 1039.9, 546.1)">a</text><text xml:space="preserve" font-family="CourierNewPSMT,Courier New" font-size="55.8" fill="#FEFFFE" transform="matrix(1.00, 0.00, -0.00, -1.00, 1073.4, 546.1)">d</text><text xml:space="preserve" font-family="CourierNewPSMT,Courier New" font-size="55.8" fill="#FEFFFE" transform="matrix(1.00, 0.00, -0.00, -1.00, 1106.9, 546.1)">(</text><text xml:space="preserve" font-family="CourierNewPSMT,Courier New" font-size="55.8" fill="#FEFFFE" transform="matrix(1.00, 0.00, -0.00, -1.00, 1140.4, 546.1)">)</text><text xml:space="preserve" font-family="CourierNewPSMT,Courier New" font-size="55.8" fill="#FEFFFE" transform="matrix(1.00, 0.00, -0.00, -1.00, 1173.9, 546.1)"> </text><text xml:space="preserve" font-family="CourierNewPSMT,Courier New" font-size="55.8" fill="#FEFFFE" transform="matrix(1.00, 0.00, -0.00, -1.00, 1207.4, 546.1)">{</text><text xml:space="preserve" font-family="Monaco,Monaco" font-size="55.8" fill="#FEFFFE" transform="matrix(1.00, 0.00, -0.00, -1.00, 1240.8, 546.1)"> </text><text xml:space="preserve" font-family="CourierNewPSMT,Courier New" font-size="55.8" fill="#FEFFFE" transform="matrix(1.00, 0.00, -0.00, -1.00, 68.8, 483.1)"> </text><text xml:space="preserve" font-family="CourierNewPSMT,Courier New" font-size="55.8" fill="#FEFFFE" transform="matrix(1.00, 0.00, -0.00, -1.00, 102.3, 483.1)"> </text><text xml:space="preserve" font-family="CourierNewPSMT,Courier New" font-size="55.8" fill="#FEFFFE" transform="matrix(1.00, 0.00, -0.00, -1.00, 135.8, 483.1)"> </text><text xml:space="preserve" font-family="CourierNewPSMT,Courier New" font-size="55.8" fill="#FEFFFE" transform="matrix(1.00, 0.00, -0.00, -1.00, 169.3, 483.1)"> </text><text xml:space="preserve" font-family="CourierNewPSMT,Courier New" font-size="55.8" fill="#FEFFFE" transform="matrix(1.00, 0.00, -0.00, -1.00, 202.7, 483.1)"> </text><text xml:space="preserve" font-family="CourierNewPSMT,Courier New" font-size="55.8" fill="#FEFFFE" transform="matrix(1.00, 0.00, -0.00, -1.00, 236.2, 483.1)"> </text><text xml:space="preserve" font-family="CourierNewPSMT,Courier New" font-size="55.8" fill="#FEFFFE" transform="matrix(1.00, 0.00, -0.00, -1.00, 269.7, 483.1)"> </text><text xml:space="preserve" font-family="CourierNewPSMT,Courier New" font-size="55.8" fill="#FEFFFE" transform="matrix(1.00, 0.00, -0.00, -1.00, 303.2, 483.1)">F</text><text xml:space="preserve" font-family="CourierNewPSMT,Courier New" font-size="55.8" fill="#FEFFFE" transform="matrix(1.00, 0.00, -0.00, -1.00, 336.7, 483.1)">i</text><text xml:space="preserve" font-family="CourierNewPSMT,Courier New" font-size="55.8" fill="#FEFFFE" transform="matrix(1.00, 0.00, -0.00, -1.00, 370.2, 483.1)">l</text><text xml:space="preserve" font-family="CourierNewPSMT,Courier New" font-size="55.8" fill="#FEFFFE" transform="matrix(1.00, 0.00, -0.00, -1.00, 403.7, 483.1)">e</text><text xml:space="preserve" font-family="CourierNewPSMT,Courier New" font-size="55.8" fill="#FEFFFE" transform="matrix(1.00, 0.00, -0.00, -1.00, 437.2, 483.1)"> </text><text xml:space="preserve" font-family="CourierNewPSMT,Courier New" font-size="55.8" fill="#FEFFFE" transform="matrix(1.00, 0.00, -0.00, -1.00, 470.7, 483.1)">f</text><text xml:space="preserve" font-family="CourierNewPSMT,Courier New" font-size="55.8" fill="#FEFFFE" transform="matrix(1.00, 0.00, -0.00, -1.00, 504.2, 483.1)">i</text><text xml:space="preserve" font-family="CourierNewPSMT,Courier New" font-size="55.8" fill="#FEFFFE" transform="matrix(1.00, 0.00, -0.00, -1.00, 537.7, 483.1)">l</text><text xml:space="preserve" font-family="CourierNewPSMT,Courier New" font-size="55.8" fill="#FEFFFE" transform="matrix(1.00, 0.00, -0.00, -1.00, 571.1, 483.1)">e</text><text xml:space="preserve" font-family="CourierNewPSMT,Courier New" font-size="55.8" fill="#FEFFFE" transform="matrix(1.00, 0.00, -0.00, -1.00, 604.6, 483.1)"> </text><text xml:space="preserve" font-family="CourierNewPSMT,Courier New" font-size="55.8" fill="#FEFFFE" transform="matrix(1.00, 0.00, -0.00, -1.00, 638.1, 483.1)">=</text><text xml:space="preserve" font-family="CourierNewPSMT,Courier New" font-size="55.8" fill="#FEFFFE" transform="matrix(1.00, 0.00, -0.00, -1.00, 671.6, 483.1)"> </text><text xml:space="preserve" font-family="CourierNewPSMT,Courier New" font-size="55.8" fill="#FEFFFE" transform="matrix(1.00, 0.00, -0.00, -1.00, 705.1, 483.1)">r</text><text xml:space="preserve" font-family="CourierNewPSMT,Courier New" font-size="55.8" fill="#FEFFFE" transform="matrix(1.00, 0.00, -0.00, -1.00, 738.6, 483.1)">e</text><text xml:space="preserve" font-family="CourierNewPSMT,Courier New" font-size="55.8" fill="#FEFFFE" transform="matrix(1.00, 0.00, -0.00, -1.00, 772.1, 483.1)">q</text><text xml:space="preserve" font-family="CourierNewPSMT,Courier New" font-size="55.8" fill="#FEFFFE" transform="matrix(1.00, 0.00, -0.00, -1.00, 805.6, 483.1)">u</text><text xml:space="preserve" font-family="CourierNewPSMT,Courier New" font-size="55.8" fill="#FEFFFE" transform="matrix(1.00, 0.00, -0.00, -1.00, 839.1, 483.1)">e</text><text xml:space="preserve" font-family="CourierNewPSMT,Courier New" font-size="55.8" fill="#FEFFFE" transform="matrix(1.00, 0.00, -0.00, -1.00, 872.6, 483.1)">s</text><text xml:space="preserve" font-family="CourierNewPSMT,Courier New" font-size="55.8" fill="#FEFFFE" transform="matrix(1.00, 0.00, -0.00, -1.00, 906.1, 483.1)">t</text><text xml:space="preserve" font-family="CourierNewPSMT,Courier New" font-size="55.8" fill="#FEFFFE" transform="matrix(1.00, 0.00, -0.00, -1.00, 939.5, 483.1)">(</text><text xml:space="preserve" font-family="CourierNewPSMT,Courier New" font-size="55.8" fill="#FEFFFE" transform="matrix(1.00, 0.00, -0.00, -1.00, 973.0, 483.1)">)</text><text xml:space="preserve" font-family="CourierNewPSMT,Courier New" font-size="55.8" fill="#FEFFFE" transform="matrix(1.00, 0.00, -0.00, -1.00, 1006.5, 483.1)">.</text><text xml:space="preserve" font-family="CourierNewPSMT,Courier New" font-size="55.8" fill="#FEFFFE" transform="matrix(1.00, 0.00, -0.00, -1.00, 1040.0, 483.1)">b</text><text xml:space="preserve" font-family="CourierNewPSMT,Courier New" font-size="55.8" fill="#FEFFFE" transform="matrix(1.00, 0.00, -0.00, -1.00, 1073.5, 483.1)">o</text><text xml:space="preserve" font-family="CourierNewPSMT,Courier New" font-size="55.8" fill="#FEFFFE" transform="matrix(1.00, 0.00, -0.00, -1.00, 1107.0, 483.1)">d</text><text xml:space="preserve" font-family="CourierNewPSMT,Courier New" font-size="55.8" fill="#FEFFFE" transform="matrix(1.00, 0.00, -0.00, -1.00, 1140.5, 483.1)">y</text><text xml:space="preserve" font-family="CourierNewPSMT,Courier New" font-size="55.8" fill="#FEFFFE" transform="matrix(1.00, 0.00, -0.00, -1.00, 1174.0, 483.1)">(</text><text xml:space="preserve" font-family="CourierNewPSMT,Courier New" font-size="55.8" fill="#FEFFFE" transform="matrix(1.00, 0.00, -0.00, -1.00, 1207.5, 483.1)">)</text><text xml:space="preserve" font-family="CourierNewPSMT,Courier New" font-size="55.8" fill="#FEFFFE" transform="matrix(1.00, 0.00, -0.00, -1.00, 1241.0, 483.1)">.</text><text xml:space="preserve" font-family="CourierNewPSMT,Courier New" font-size="55.8" fill="#FEFFFE" transform="matrix(1.00, 0.00, -0.00, -1.00, 1274.5, 483.1)">a</text><text xml:space="preserve" font-family="CourierNewPSMT,Courier New" font-size="55.8" fill="#FEFFFE" transform="matrix(1.00, 0.00, -0.00, -1.00, 1307.9, 483.1)">s</text><text xml:space="preserve" font-family="CourierNewPSMT,Courier New" font-size="55.8" fill="#FEFFFE" transform="matrix(1.00, 0.00, -0.00, -1.00, 1341.4, 483.1)">R</text><text xml:space="preserve" font-family="CourierNewPSMT,Courier New" font-size="55.8" fill="#FEFFFE" transform="matrix(1.00, 0.00, -0.00, -1.00, 1374.9, 483.1)">a</text><text xml:space="preserve" font-family="CourierNewPSMT,Courier New" font-size="55.8" fill="#FEFFFE" transform="matrix(1.00, 0.00, -0.00, -1.00, 1408.4, 483.1)">w</text><text xml:space="preserve" font-family="CourierNewPSMT,Courier New" font-size="55.8" fill="#FEFFFE" transform="matrix(1.00, 0.00, -0.00, -1.00, 1441.9, 483.1)">(</text><text xml:space="preserve" font-family="CourierNewPSMT,Courier New" font-size="55.8" fill="#FEFFFE" transform="matrix(1.00, 0.00, -0.00, -1.00, 1475.4, 483.1)">)</text><text xml:space="preserve" font-family="CourierNewPSMT,Courier New" font-size="55.8" fill="#FEFFFE" transform="matrix(1.00, 0.00, -0.00, -1.00, 1508.9, 483.1)">.</text><text xml:space="preserve" font-family="CourierNewPSMT,Courier New" font-size="55.8" fill="#FEFFFE" transform="matrix(1.00, 0.00, -0.00, -1.00, 1542.4, 483.1)">a</text><text xml:space="preserve" font-family="CourierNewPSMT,Courier New" font-size="55.8" fill="#FEFFFE" transform="matrix(1.00, 0.00, -0.00, -1.00, 1575.9, 483.1)">s</text><text xml:space="preserve" font-family="CourierNewPSMT,Courier New" font-size="55.8" fill="#FEFFFE" transform="matrix(1.00, 0.00, -0.00, -1.00, 1609.4, 483.1)">F</text><text xml:space="preserve" font-family="CourierNewPSMT,Courier New" font-size="55.8" fill="#FEFFFE" transform="matrix(1.00, 0.00, -0.00, -1.00, 1642.9, 483.1)">i</text><text xml:space="preserve" font-family="CourierNewPSMT,Courier New" font-size="55.8" fill="#FEFFFE" transform="matrix(1.00, 0.00, -0.00, -1.00, 1676.3, 483.1)">l</text><text xml:space="preserve" font-family="CourierNewPSMT,Courier New" font-size="55.8" fill="#FEFFFE" transform="matrix(1.00, 0.00, -0.00, -1.00, 1709.8, 483.1)">e</text><text xml:space="preserve" font-family="CourierNewPSMT,Courier New" font-size="55.8" fill="#FEFFFE" transform="matrix(1.00, 0.00, -0.00, -1.00, 1743.3, 483.1)">(</text><text xml:space="preserve" font-family="CourierNewPSMT,Courier New" font-size="55.8" fill="#FEFFFE" transform="matrix(1.00, 0.00, -0.00, -1.00, 1776.8, 483.1)">)</text><text xml:space="preserve" font-family="CourierNewPSMT,Courier New" font-size="55.8" fill="#FEFFFE" transform="matrix(1.00, 0.00, -0.00, -1.00, 1810.3, 483.1)">;</text><text xml:space="preserve" font-family="CourierNewPSMT,Courier New" font-size="55.8" fill="#FEFFFE" transform="matrix(1.00, 0.00, -0.00, -1.00, 1843.5, 483.1)"> </text><text xml:space="preserve" font-family="CourierNewPSMT,Courier New" font-size="55.8" fill="#FEFFFE" transform="matrix(1.00, 0.00, -0.00, -1.00, 68.8, 386.6)"> </text><text xml:space="preserve" font-family="CourierNewPSMT,Courier New" font-size="55.8" fill="#FEFFFE" transform="matrix(1.00, 0.00, -0.00, -1.00, 102.3, 386.6)"> </text><text xml:space="preserve" font-family="CourierNewPSMT,Courier New" font-size="55.8" fill="#FEFFFE" transform="matrix(1.00, 0.00, -0.00, -1.00, 135.8, 386.6)"> </text><text xml:space="preserve" font-family="CourierNewPSMT,Courier New" font-size="55.8" fill="#FEFFFE" transform="matrix(1.00, 0.00, -0.00, -1.00, 169.3, 386.6)"> </text><text xml:space="preserve" font-family="CourierNewPSMT,Courier New" font-size="55.8" fill="#FEFFFE" transform="matrix(1.00, 0.00, -0.00, -1.00, 202.7, 386.6)"> </text><text xml:space="preserve" font-family="CourierNewPSMT,Courier New" font-size="55.8" fill="#FEFFFE" transform="matrix(1.00, 0.00, -0.00, -1.00, 236.2, 386.6)"> </text><text xml:space="preserve" font-family="CourierNewPSMT,Courier New" font-size="55.8" fill="#FEFFFE" transform="matrix(1.00, 0.00, -0.00, -1.00, 269.7, 386.6)"> </text><text xml:space="preserve" font-family="CourierNewPSMT,Courier New" font-size="55.8" fill="#FEFFFE" transform="matrix(1.00, 0.00, -0.00, -1.00, 303.2, 386.6)">.</text><text xml:space="preserve" font-family="CourierNewPSMT,Courier New" font-size="55.8" fill="#FEFFFE" transform="matrix(1.00, 0.00, -0.00, -1.00, 336.7, 386.6)">.</text><text xml:space="preserve" font-family="CourierNewPSMT,Courier New" font-size="55.8" fill="#FEFFFE" transform="matrix(1.00, 0.00, -0.00, -1.00, 370.2, 386.6)">.</text><text xml:space="preserve" font-family="Monaco,Monaco" font-size="55.8" fill="#FEFFFE" transform="matrix(1.00, 0.00, -0.00, -1.00, 403.6, 386.6)"> </text><text xml:space="preserve" font-family="Monaco,Monaco" font-size="55.8" fill="#FEFFFE" transform="matrix(1.00, 0.00, -0.00, -1.00, 68.8, 323.6)"> </text><text xml:space="preserve" font-family="CourierNewPSMT,Courier New" font-size="55.8" fill="#FEFFFE" transform="matrix(1.00, 0.00, -0.00, -1.00, 68.8, 260.6)"> </text><text xml:space="preserve" font-family="CourierNewPSMT,Courier New" font-size="55.8" fill="#FEFFFE" transform="matrix(1.00, 0.00, -0.00, -1.00, 102.3, 260.6)"> </text><text xml:space="preserve" font-family="CourierNewPSMT,Courier New" font-size="55.8" fill="#FEFFFE" transform="matrix(1.00, 0.00, -0.00, -1.00, 135.8, 260.6)"> </text><text xml:space="preserve" font-family="CourierNewPSMT,Courier New" font-size="55.8" fill="#FEFFFE" transform="matrix(1.00, 0.00, -0.00, -1.00, 169.3, 260.6)"> </text><text xml:space="preserve" font-family="CourierNewPSMT,Courier New" font-size="55.8" fill="#FEFFFE" transform="matrix(1.00, 0.00, -0.00, -1.00, 202.7, 260.6)"> </text><text xml:space="preserve" font-family="CourierNewPSMT,Courier New" font-size="55.8" fill="#FEFFFE" transform="matrix(1.00, 0.00, -0.00, -1.00, 236.2, 260.6)"> </text><text xml:space="preserve" font-family="CourierNewPSMT,Courier New" font-size="55.8" fill="#FEFFFE" transform="matrix(1.00, 0.00, -0.00, -1.00, 269.7, 260.6)"> </text><text xml:space="preserve" font-family="CourierNewPS-BoldMT,Courier New" font-weight="bold" font-size="55.8" fill="#FEFFFE" transform="matrix(1.00, 0.00, -0.00, -1.00, 303.2, 260.6)">r</text><text xml:space="preserve" font-family="CourierNewPS-BoldMT,Courier New" font-weight="bold" font-size="55.8" fill="#FEFFFE" transform="matrix(1.00, 0.00, -0.00, -1.00, 336.7, 260.6)">e</text><text xml:space="preserve" font-family="CourierNewPS-BoldMT,Courier New" font-weight="bold" font-size="55.8" fill="#FEFFFE" transform="matrix(1.00, 0.00, -0.00, -1.00, 370.2, 260.6)">t</text><text xml:space="preserve" font-family="CourierNewPS-BoldMT,Courier New" font-weight="bold" font-size="55.8" fill="#FEFFFE" transform="matrix(1.00, 0.00, -0.00, -1.00, 403.6, 260.6)">u</text><text xml:space="preserve" font-family="CourierNewPS-BoldMT,Courier New" font-weight="bold" font-size="55.8" fill="#FEFFFE" transform="matrix(1.00, 0.00, -0.00, -1.00, 437.1, 260.6)">r</text><text xml:space="preserve" font-family="CourierNewPS-BoldMT,Courier New" font-weight="bold" font-size="55.8" fill="#FEFFFE" transform="matrix(1.00, 0.00, -0.00, -1.00, 470.6, 260.6)">n</text><text xml:space="preserve" font-family="CourierNewPSMT,Courier New" font-size="55.8" fill="#FEFFFE" transform="matrix(1.00, 0.00, -0.00, -1.00, 504.1, 260.6)"> </text><text xml:space="preserve" font-family="CourierNewPSMT,Courier New" font-size="55.8" fill="#FEFFFE" transform="matrix(1.00, 0.00, -0.00, -1.00, 537.6, 260.6)">o</text><text xml:space="preserve" font-family="CourierNewPSMT,Courier New" font-size="55.8" fill="#FEFFFE" transform="matrix(1.00, 0.00, -0.00, -1.00, 571.1, 260.6)">k</text><text xml:space="preserve" font-family="CourierNewPSMT,Courier New" font-size="55.8" fill="#FEFFFE" transform="matrix(1.00, 0.00, -0.00, -1.00, 604.6, 260.6)">(</text><text xml:space="preserve" font-family="CourierNewPSMT,Courier New" font-size="55.8" fill="#FEFFFE" transform="matrix(1.00, 0.00, -0.00, -1.00, 638.1, 260.6)">f</text><text xml:space="preserve" font-family="CourierNewPSMT,Courier New" font-size="55.8" fill="#FEFFFE" transform="matrix(1.00, 0.00, -0.00, -1.00, 671.5, 260.6)">i</text><text xml:space="preserve" font-family="CourierNewPSMT,Courier New" font-size="55.8" fill="#FEFFFE" transform="matrix(1.00, 0.00, -0.00, -1.00, 705.0, 260.6)">l</text><text xml:space="preserve" font-family="CourierNewPSMT,Courier New" font-size="55.8" fill="#FEFFFE" transform="matrix(1.00, 0.00, -0.00, -1.00, 738.5, 260.6)">e</text><text xml:space="preserve" font-family="CourierNewPSMT,Courier New" font-size="55.8" fill="#FEFFFE" transform="matrix(1.00, 0.00, -0.00, -1.00, 772.0, 260.6)">)</text><text xml:space="preserve" font-family="CourierNewPSMT,Courier New" font-size="55.8" fill="#FEFFFE" transform="matrix(1.00, 0.00, -0.00, -1.00, 805.5, 260.6)">;</text><text xml:space="preserve" font-family="Monaco,Monaco" font-size="55.8" fill="#FEFFFE" transform="matrix(1.00, 0.00, -0.00, -1.00, 838.9, 260.6)"> </text><text xml:space="preserve" font-family="CourierNewPSMT,Courier New" font-size="55.8" fill="#FEFFFE" transform="matrix(1.00, 0.00, -0.00, -1.00, 68.8, 197.6)"> </text><text xml:space="preserve" font-family="CourierNewPSMT,Courier New" font-size="55.8" fill="#FEFFFE" transform="matrix(1.00, 0.00, -0.00, -1.00, 102.3, 197.6)"> </text><text xml:space="preserve" font-family="CourierNewPSMT,Courier New" font-size="55.8" fill="#FEFFFE" transform="matrix(1.00, 0.00, -0.00, -1.00, 135.8, 197.6)"> </text><text xml:space="preserve" font-family="CourierNewPSMT,Courier New" font-size="55.8" fill="#FEFFFE" transform="matrix(1.00, 0.00, -0.00, -1.00, 169.3, 197.6)"> </text><text xml:space="preserve" font-family="CourierNewPSMT,Courier New" font-size="55.8" fill="#FEFFFE" transform="matrix(1.00, 0.00, -0.00, -1.00, 202.7, 197.6)">}</text><text xml:space="preserve" font-family="Monaco,Monaco" font-size="55.8" fill="#FEFFFE" transform="matrix(1.00, 0.00, -0.00, -1.00, 236.2, 197.6)"> </text><text xml:space="preserve" font-family="CourierNewPSMT,Courier New" font-size="55.8" fill="#FEFFFE" transform="matrix(1.00, 0.00, -0.00, -1.00, 68.8, 134.6)">}</text><text xml:space="preserve" font-family="Chalkduster,Chalkduster" font-size="100.0" fill="#71AFE1" transform="matrix(1.00, 0.00, -0.00, -1.00, 660.7, 922.5)">C</text><text xml:space="preserve" font-family="Chalkduster,Chalkduster" font-size="100.0" fill="#71AFE1" transform="matrix(1.00, 0.00, -0.00, -1.00, 741.8, 922.5)">o</text><text xml:space="preserve" font-family="Chalkduster,Chalkduster" font-size="100.0" fill="#71AFE1" transform="matrix(1.00, 0.00, -0.00, -1.00, 816.2, 922.5)">n</text><text xml:space="preserve" font-family="Chalkduster,Chalkduster" font-size="100.0" fill="#71AFE1" transform="matrix(1.00, 0.00, -0.00, -1.00, 885.8, 922.5)">t</text><text xml:space="preserve" font-family="Chalkduster,Chalkduster" font-size="100.0" fill="#71AFE1" transform="matrix(1.00, 0.00, -0.00, -1.00, 931.5, 922.5)">r</text><text xml:space="preserve" font-family="Chalkduster,Chalkduster" font-size="100.0" fill="#71AFE1" transform="matrix(1.00, 0.00, -0.00, -1.00, 982.7, 922.5)">o</text><text xml:space="preserve" font-family="Chalkduster,Chalkduster" font-size="100.0" fill="#71AFE1" transform="matrix(1.00, 0.00, -0.00, -1.00, 1058.8, 922.5)">l</text><text xml:space="preserve" font-family="Chalkduster,Chalkduster" font-size="100.0" fill="#71AFE1" transform="matrix(1.00, 0.00, -0.00, -1.00, 1104.2, 922.5)">l</text><text xml:space="preserve" font-family="Chalkduster,Chalkduster" font-size="100.0" fill="#71AFE1" transform="matrix(1.00, 0.00, -0.00, -1.00, 1145.6, 922.5)">e</text><text xml:space="preserve" font-family="Chalkduster,Chalkduster" font-size="100.0" fill="#71AFE1" transform="matrix(1.00, 0.00, -0.00, -1.00, 1206.5, 922.5)">r</text></g></svg>