<?xml version="1.0" encoding="UTF-8" standalone="no"?><svg xmlns="http://www.w3.org/2000/svg" xmlns:xlink="http://www.w3.org/1999/xlink" clip-rule="evenodd" stroke-miterlimit="10" viewBox="0 0 1920 1080"><desc>SVG generated by Keynote</desc><defs></defs><g transform="matrix(1.00, 0.00, -0.00, -1.00, 0.0, 1080.0)"><g><clipPath id="clip0x7f9a46f2b710"><path d="M 0.0 1080.0 L 1920.0 1080.0 L 1920.0 0.0 L 0.0 0.0 Z M 0.0 1080.0 "></path></clipPath><g clip-path="url(#clip0x7f9a46f2b710)"><image xlink:href="../../2454F38C-308E-4D93-86A7-ACF877EF01F7/assets/D54D7AAA5FD1EC733BC359F041C689F1.jpeg" width="2048.00" height="1536.00" transform="matrix(0.94, 0.00, -0.00, -0.70, 0.0, 1080.0)"></image></g></g><image xlink:href="../../2454F38C-308E-4D93-86A7-ACF877EF01F7/assets/4DEEB86E8592901A27491E22B30EA716.png" width="78.00" height="72.00" transform="matrix(0.71, 0.00, -0.00, -0.71, 22.4, 660.3)"></image><text xml:space="preserve" font-family="Chalkduster,Chalkduster" font-size="94.0" fill="#FEFFFE" transform="matrix(1.00, 0.00, -0.00, -1.00, 86.9, 605.0)"> </text><text xml:space="preserve" font-family="Chalkduster,Chalkduster" font-size="94.0" fill="#FFE181" transform="matrix(1.00, 0.00, -0.00, -1.00, 125.7, 605.0)">T</text><text xml:space="preserve" font-family="Chalkduster,Chalkduster" font-size="94.0" fill="#FFE181" transform="matrix(1.00, 0.00, -0.00, -1.00, 185.5, 605.0)">e</text><text xml:space="preserve" font-family="Chalkduster,Chalkduster" font-size="94.0" fill="#FFE181" transform="matrix(1.00, 0.00, -0.00, -1.00, 243.8, 605.0)">m</text><text xml:space="preserve" font-family="Chalkduster,Chalkduster" font-size="94.0" fill="#FFE181" transform="matrix(1.00, 0.00, -0.00, -1.00, 338.9, 605.0)">p</text><text xml:space="preserve" font-family="Chalkduster,Chalkduster" font-size="94.0" fill="#FFE181" transform="matrix(1.00, 0.00, -0.00, -1.00, 396.9, 605.0)">l</text><text xml:space="preserve" font-family="Chalkduster,Chalkduster" font-size="94.0" fill="#FFE181" transform="matrix(1.00, 0.00, -0.00, -1.00, 439.1, 605.0)">a</text><text xml:space="preserve" font-family="Chalkduster,Chalkduster" font-size="94.0" fill="#FFE181" transform="matrix(1.00, 0.00, -0.00, -1.00, 497.4, 605.0)">t</text><text xml:space="preserve" font-family="Chalkduster,Chalkduster" font-size="94.0" fill="#FFE181" transform="matrix(1.00, 0.00, -0.00, -1.00, 539.4, 605.0)">e</text><text xml:space="preserve" font-family="Chalkduster,Chalkduster" font-size="94.0" fill="#FFE181" transform="matrix(1.00, 0.00, -0.00, -1.00, 599.9, 605.0)">s</text><text xml:space="preserve" font-family="Chalkduster,Chalkduster" font-size="94.0" fill="#FEFFFE" transform="matrix(1.00, 0.00, -0.00, -1.00, 647.4, 605.0)"> </text><text xml:space="preserve" font-family="Chalkduster,Chalkduster" font-size="94.0" fill="#FEFFFE" transform="matrix(1.00, 0.00, -0.00, -1.00, 694.1, 605.0)">d</text><text xml:space="preserve" font-family="Chalkduster,Chalkduster" font-size="94.0" fill="#FEFFFE" transform="matrix(1.00, 0.00, -0.00, -1.00, 767.6, 605.0)">e</text><text xml:space="preserve" font-family="Chalkduster,Chalkduster" font-size="94.0" fill="#FEFFFE" transform="matrix(1.00, 0.00, -0.00, -1.00, 825.8, 605.0)"> </text><text xml:space="preserve" font-family="Chalkduster,Chalkduster" font-size="94.0" fill="#FEFFFE" transform="matrix(1.00, 0.00, -0.00, -1.00, 872.6, 605.0)">v</text><text xml:space="preserve" font-family="Chalkduster,Chalkduster" font-size="94.0" fill="#FEFFFE" transform="matrix(1.00, 0.00, -0.00, -1.00, 931.1, 605.0)">i</text><text xml:space="preserve" font-family="Chalkduster,Chalkduster" font-size="94.0" fill="#FEFFFE" transform="matrix(1.00, 0.00, -0.00, -1.00, 968.2, 605.0)">s</text><text xml:space="preserve" font-family="Chalkduster,Chalkduster" font-size="94.0" fill="#FEFFFE" transform="matrix(1.00, 0.00, -0.00, -1.00, 1018.6, 605.0)">t</text><text xml:space="preserve" font-family="Chalkduster,Chalkduster" font-size="94.0" fill="#FEFFFE" transform="matrix(1.00, 0.00, -0.00, -1.00, 1060.6, 605.0)">a</text><text xml:space="preserve" font-family="Chalkduster,Chalkduster" font-size="94.0" fill="#FEFFFE" transform="matrix(1.00, 0.00, -0.00, -1.00, 1126.5, 605.0)">s</text><text xml:space="preserve" font-family="Chalkduster,Chalkduster" font-size="94.0" fill="#FEFFFE" transform="matrix(1.00, 0.00, -0.00, -1.00, 1174.0, 605.0)"> </text><text xml:space="preserve" font-family="Chalkduster,Chalkduster" font-size="94.0" fill="#FEFFFE" transform="matrix(1.00, 0.00, -0.00, -1.00, 1220.7, 605.0)">t</text><text xml:space="preserve" font-family="Chalkduster,Chalkduster" font-size="94.0" fill="#FEFFFE" transform="matrix(1.00, 0.00, -0.00, -1.00, 1263.6, 605.0)">y</text><text xml:space="preserve" font-family="Chalkduster,Chalkduster" font-size="94.0" fill="#FEFFFE" transform="matrix(1.00, 0.00, -0.00, -1.00, 1320.9, 605.0)">p</text><text xml:space="preserve" font-family="Chalkduster,Chalkduster" font-size="94.0" fill="#FEFFFE" transform="matrix(1.00, 0.00, -0.00, -1.00, 1379.9, 605.0)">e</text><text xml:space="preserve" font-family="Chalkduster,Chalkduster" font-size="94.0" fill="#FEFFFE" transform="matrix(1.00, 0.00, -0.00, -1.00, 1440.4, 605.0)">s</text><text xml:space="preserve" font-family="Chalkduster,Chalkduster" font-size="94.0" fill="#FEFFFE" transform="matrix(1.00, 0.00, -0.00, -1.00, 1487.8, 605.0)">a</text><text xml:space="preserve" font-family="Chalkduster,Chalkduster" font-size="94.0" fill="#FEFFFE" transform="matrix(1.00, 0.00, -0.00, -1.00, 1549.5, 605.0)">f</text><text xml:space="preserve" font-family="Chalkduster,Chalkduster" font-size="94.0" fill="#FEFFFE" transform="matrix(1.00, 0.00, -0.00, -1.00, 1600.4, 605.0)">e</text><text xml:space="preserve" font-family="Chalkduster,Chalkduster" font-size="94.0" fill="#FEFFFE" transform="matrix(1.00, 0.00, -0.00, -1.00, 1655.4, 605.0)">.</text><text xml:space="preserve" font-family="Chalkduster,Chalkduster" font-size="94.0" fill="#FEFFFE" transform="matrix(1.00, 0.00, -0.00, -1.00, 1682.2, 605.0)"> </text><text xml:space="preserve" font-family="Chalkduster,Chalkduster" font-size="94.0" fill="#FEFFFE" transform="matrix(1.00, 0.00, -0.00, -1.00, 86.9, 485.0)">C</text><text xml:space="preserve" font-family="Chalkduster,Chalkduster" font-size="94.0" fill="#FEFFFE" transform="matrix(1.00, 0.00, -0.00, -1.00, 163.1, 485.0)">o</text><text xml:space="preserve" font-family="Chalkduster,Chalkduster" font-size="94.0" fill="#FEFFFE" transform="matrix(1.00, 0.00, -0.00, -1.00, 233.6, 485.0)">m</text><text xml:space="preserve" font-family="Chalkduster,Chalkduster" font-size="94.0" fill="#FEFFFE" transform="matrix(1.00, 0.00, -0.00, -1.00, 328.7, 485.0)">p</text><text xml:space="preserve" font-family="Chalkduster,Chalkduster" font-size="94.0" fill="#FEFFFE" transform="matrix(1.00, 0.00, -0.00, -1.00, 388.7, 485.0)">i</text><text xml:space="preserve" font-family="Chalkduster,Chalkduster" font-size="94.0" fill="#FEFFFE" transform="matrix(1.00, 0.00, -0.00, -1.00, 426.8, 485.0)">l</text><text xml:space="preserve" font-family="Chalkduster,Chalkduster" font-size="94.0" fill="#FEFFFE" transform="matrix(1.00, 0.00, -0.00, -1.00, 468.9, 485.0)">a</text><text xml:space="preserve" font-family="Chalkduster,Chalkduster" font-size="94.0" fill="#FEFFFE" transform="matrix(1.00, 0.00, -0.00, -1.00, 530.7, 485.0)">d</text><text xml:space="preserve" font-family="Chalkduster,Chalkduster" font-size="94.0" fill="#FEFFFE" transform="matrix(1.00, 0.00, -0.00, -1.00, 604.1, 485.0)">o</text><text xml:space="preserve" font-family="Chalkduster,Chalkduster" font-size="94.0" fill="#FEFFFE" transform="matrix(1.00, 0.00, -0.00, -1.00, 672.6, 485.0)">s</text><text xml:space="preserve" font-family="Chalkduster,Chalkduster" font-size="94.0" fill="#FEFFFE" transform="matrix(1.00, 0.00, -0.00, -1.00, 715.8, 485.0)">!</text><text xml:space="preserve" font-family="Chalkduster,Chalkduster" font-size="94.0" fill="#FEFFFE" transform="matrix(1.00, 0.00, -0.00, -1.00, 749.0, 485.0)"> </text><text xml:space="preserve" font-family="Chalkduster,Chalkduster" font-size="94.0" fill="#FEFFFE" transform="matrix(1.00, 0.00, -0.00, -1.00, 795.8, 485.0)">M</text><text xml:space="preserve" font-family="Chalkduster,Chalkduster" font-size="94.0" fill="#FEFFFE" transform="matrix(1.00, 0.00, -0.00, -1.00, 874.8, 485.0)">u</text><text xml:space="preserve" font-family="Chalkduster,Chalkduster" font-size="94.0" fill="#FEFFFE" transform="matrix(1.00, 0.00, -0.00, -1.00, 939.5, 485.0)">e</text><text xml:space="preserve" font-family="Chalkduster,Chalkduster" font-size="94.0" fill="#FEFFFE" transform="matrix(1.00, 0.00, -0.00, -1.00, 996.8, 485.0)">r</text><text xml:space="preserve" font-family="Chalkduster,Chalkduster" font-size="94.0" fill="#FEFFFE" transform="matrix(1.00, 0.00, -0.00, -1.00, 1046.4, 485.0)">t</text><text xml:space="preserve" font-family="Chalkduster,Chalkduster" font-size="94.0" fill="#FEFFFE" transform="matrix(1.00, 0.00, -0.00, -1.00, 1088.4, 485.0)">e</text><text xml:space="preserve" font-family="Chalkduster,Chalkduster" font-size="94.0" fill="#FEFFFE" transform="matrix(1.00, 0.00, -0.00, -1.00, 1146.7, 485.0)"> </text><text xml:space="preserve" font-family="Chalkduster,Chalkduster" font-size="94.0" fill="#FEFFFE" transform="matrix(1.00, 0.00, -0.00, -1.00, 1193.4, 485.0)">a</text><text xml:space="preserve" font-family="Chalkduster,Chalkduster" font-size="94.0" fill="#FEFFFE" transform="matrix(1.00, 0.00, -0.00, -1.00, 1258.2, 485.0)"> </text><text xml:space="preserve" font-family="Chalkduster,Chalkduster" font-size="94.0" fill="#FEFFFE" transform="matrix(1.00, 0.00, -0.00, -1.00, 1305.0, 485.0)">l</text><text xml:space="preserve" font-family="Chalkduster,Chalkduster" font-size="94.0" fill="#FEFFFE" transform="matrix(1.00, 0.00, -0.00, -1.00, 1345.4, 485.0)">o</text><text xml:space="preserve" font-family="Chalkduster,Chalkduster" font-size="94.0" fill="#FEFFFE" transform="matrix(1.00, 0.00, -0.00, -1.00, 1413.9, 485.0)">s</text><text xml:space="preserve" font-family="Chalkduster,Chalkduster" font-size="94.0" fill="#FEFFFE" transform="matrix(1.00, 0.00, -0.00, -1.00, 1461.4, 485.0)"> </text><text xml:space="preserve" font-family="Chalkduster,Chalkduster" font-size="94.0" fill="#FEFFFE" transform="matrix(1.00, 0.00, -0.00, -1.00, 86.9, 365.0)">e</text><text xml:space="preserve" font-family="Chalkduster,Chalkduster" font-size="94.0" fill="#FEFFFE" transform="matrix(1.00, 0.00, -0.00, -1.00, 144.2, 365.0)">r</text><text xml:space="preserve" font-family="Chalkduster,Chalkduster" font-size="94.0" fill="#FEFFFE" transform="matrix(1.00, 0.00, -0.00, -1.00, 196.7, 365.0)">r</text><text xml:space="preserve" font-family="Chalkduster,Chalkduster" font-size="94.0" fill="#FEFFFE" transform="matrix(1.00, 0.00, -0.00, -1.00, 244.9, 365.0)">o</text><text xml:space="preserve" font-family="Chalkduster,Chalkduster" font-size="94.0" fill="#FEFFFE" transform="matrix(1.00, 0.00, -0.00, -1.00, 313.3, 365.0)">r</text><text xml:space="preserve" font-family="Chalkduster,Chalkduster" font-size="94.0" fill="#FEFFFE" transform="matrix(1.00, 0.00, -0.00, -1.00, 360.9, 365.0)">e</text><text xml:space="preserve" font-family="Chalkduster,Chalkduster" font-size="94.0" fill="#FEFFFE" transform="matrix(1.00, 0.00, -0.00, -1.00, 421.4, 365.0)">s</text><text xml:space="preserve" font-family="Chalkduster,Chalkduster" font-size="94.0" fill="#FEFFFE" transform="matrix(1.00, 0.00, -0.00, -1.00, 468.8, 365.0)"> </text><text xml:space="preserve" font-family="Chalkduster,Chalkduster" font-size="94.0" fill="#FEFFFE" transform="matrix(1.00, 0.00, -0.00, -1.00, 515.6, 365.0)">e</text><text xml:space="preserve" font-family="Chalkduster,Chalkduster" font-size="94.0" fill="#FEFFFE" transform="matrix(1.00, 0.00, -0.00, -1.00, 574.9, 365.0)">n</text><text xml:space="preserve" font-family="Chalkduster,Chalkduster" font-size="94.0" fill="#FEFFFE" transform="matrix(1.00, 0.00, -0.00, -1.00, 643.8, 365.0)"> </text><text xml:space="preserve" font-family="Chalkduster,Chalkduster" font-size="94.0" fill="#FEFFFE" transform="matrix(1.00, 0.00, -0.00, -1.00, 690.6, 365.0)">r</text><text xml:space="preserve" font-family="Chalkduster,Chalkduster" font-size="94.0" fill="#FEFFFE" transform="matrix(1.00, 0.00, -0.00, -1.00, 742.7, 365.0)">u</text><text xml:space="preserve" font-family="Chalkduster,Chalkduster" font-size="94.0" fill="#FEFFFE" transform="matrix(1.00, 0.00, -0.00, -1.00, 808.7, 365.0)">n</text><text xml:space="preserve" font-family="Chalkduster,Chalkduster" font-size="94.0" fill="#FEFFFE" transform="matrix(1.00, 0.00, -0.00, -1.00, 874.1, 365.0)">t</text><text xml:space="preserve" font-family="Chalkduster,Chalkduster" font-size="94.0" fill="#FEFFFE" transform="matrix(1.00, 0.00, -0.00, -1.00, 917.6, 365.0)">i</text><text xml:space="preserve" font-family="Chalkduster,Chalkduster" font-size="94.0" fill="#FEFFFE" transform="matrix(1.00, 0.00, -0.00, -1.00, 954.7, 365.0)">m</text><text xml:space="preserve" font-family="Chalkduster,Chalkduster" font-size="94.0" fill="#FEFFFE" transform="matrix(1.00, 0.00, -0.00, -1.00, 1052.2, 365.0)">e</text><text xml:space="preserve" font-family="Chalkduster,Chalkduster" font-size="94.0" fill="#FEFFFE" transform="matrix(1.00, 0.00, -0.00, -1.00, 1110.4, 365.0)">!</text><text xml:space="preserve" font-family="Chalkduster,Chalkduster" font-size="94.0" fill="#FEFFFE" transform="matrix(1.00, 0.00, -0.00, -1.00, 1143.5, 365.0)"> </text><image xlink:href="../../2454F38C-308E-4D93-86A7-ACF877EF01F7/assets/4DEEB86E8592901A27491E22B30EA716.png" width="78.00" height="72.00" transform="matrix(0.71, 0.00, -0.00, -0.71, 22.4, 264.3)"></image><text xml:space="preserve" font-family="Chalkduster,Chalkduster" font-size="94.0" fill="#FEFFFE" transform="matrix(1.00, 0.00, -0.00, -1.00, 86.9, 209.0)"> </text><text xml:space="preserve" font-family="Chalkduster,Chalkduster" font-size="94.0" fill="#FEFFFE" transform="matrix(1.00, 0.00, -0.00, -1.00, 133.7, 209.0)">S</text><text xml:space="preserve" font-family="Chalkduster,Chalkduster" font-size="94.0" fill="#FEFFFE" transform="matrix(1.00, 0.00, -0.00, -1.00, 180.4, 209.0)">o</text><text xml:space="preserve" font-family="Chalkduster,Chalkduster" font-size="94.0" fill="#FEFFFE" transform="matrix(1.00, 0.00, -0.00, -1.00, 248.9, 209.0)">p</text><text xml:space="preserve" font-family="Chalkduster,Chalkduster" font-size="94.0" fill="#FEFFFE" transform="matrix(1.00, 0.00, -0.00, -1.00, 308.1, 209.0)">o</text><text xml:space="preserve" font-family="Chalkduster,Chalkduster" font-size="94.0" fill="#FEFFFE" transform="matrix(1.00, 0.00, -0.00, -1.00, 376.6, 209.0)">r</text><text xml:space="preserve" font-family="Chalkduster,Chalkduster" font-size="94.0" fill="#FEFFFE" transform="matrix(1.00, 0.00, -0.00, -1.00, 426.2, 209.0)">t</text><text xml:space="preserve" font-family="Chalkduster,Chalkduster" font-size="94.0" fill="#FEFFFE" transform="matrix(1.00, 0.00, -0.00, -1.00, 468.2, 209.0)">e</text><text xml:space="preserve" font-family="Chalkduster,Chalkduster" font-size="94.0" fill="#FEFFFE" transform="matrix(1.00, 0.00, -0.00, -1.00, 526.5, 209.0)"> </text><text xml:space="preserve" font-family="Chalkduster,Chalkduster" font-size="94.0" fill="#FF7777" transform="matrix(1.00, 0.00, -0.00, -1.00, 573.1, 209.0)">R</text><text xml:space="preserve" font-family="Chalkduster,Chalkduster" font-size="94.0" fill="#FF7777" transform="matrix(1.00, 0.00, -0.00, -1.00, 646.2, 209.0)">E</text><text xml:space="preserve" font-family="Chalkduster,Chalkduster" font-size="94.0" fill="#FF7777" transform="matrix(1.00, 0.00, -0.00, -1.00, 715.7, 209.0)">S</text><text xml:space="preserve" font-family="Chalkduster,Chalkduster" font-size="94.0" fill="#FF7777" transform="matrix(1.00, 0.00, -0.00, -1.00, 762.4, 209.0)">T</text><text xml:space="preserve" font-family="Chalkduster,Chalkduster" font-size="94.0" fill="#FF7777" transform="matrix(1.00, 0.00, -0.00, -1.00, 834.5, 209.0)">f</text><text xml:space="preserve" font-family="Chalkduster,Chalkduster" font-size="94.0" fill="#FF7777" transform="matrix(1.00, 0.00, -0.00, -1.00, 884.5, 209.0)">u</text><text xml:space="preserve" font-family="Chalkduster,Chalkduster" font-size="94.0" fill="#FF7777" transform="matrix(1.00, 0.00, -0.00, -1.00, 951.7, 209.0)">l</text><text xml:space="preserve" font-family="Chalkduster,Chalkduster" font-size="94.0" fill="#FEFFFE" transform="matrix(1.00, 0.00, -0.00, -1.00, 995.7, 209.0)"> </text><text xml:space="preserve" font-family="Chalkduster,Chalkduster" font-size="94.0" fill="#FEFFFE" transform="matrix(1.00, 0.00, -0.00, -1.00, 1042.5, 209.0)">p</text><text xml:space="preserve" font-family="Chalkduster,Chalkduster" font-size="94.0" fill="#FEFFFE" transform="matrix(1.00, 0.00, -0.00, -1.00, 1101.7, 209.0)">o</text><text xml:space="preserve" font-family="Chalkduster,Chalkduster" font-size="94.0" fill="#FEFFFE" transform="matrix(1.00, 0.00, -0.00, -1.00, 1170.2, 209.0)">r</text><text xml:space="preserve" font-family="Chalkduster,Chalkduster" font-size="94.0" fill="#FEFFFE" transform="matrix(1.00, 0.00, -0.00, -1.00, 1219.7, 209.0)"> </text><text xml:space="preserve" font-family="Chalkduster,Chalkduster" font-size="94.0" fill="#FEFFFE" transform="matrix(1.00, 0.00, -0.00, -1.00, 1266.5, 209.0)">d</text><text xml:space="preserve" font-family="Chalkduster,Chalkduster" font-size="94.0" fill="#FEFFFE" transform="matrix(1.00, 0.00, -0.00, -1.00, 1339.9, 209.0)">e</text><text xml:space="preserve" font-family="Chalkduster,Chalkduster" font-size="94.0" fill="#FEFFFE" transform="matrix(1.00, 0.00, -0.00, -1.00, 1396.0, 209.0)">f</text><text xml:space="preserve" font-family="Chalkduster,Chalkduster" font-size="94.0" fill="#FEFFFE" transform="matrix(1.00, 0.00, -0.00, -1.00, 1446.9, 209.0)">e</text><text xml:space="preserve" font-family="Chalkduster,Chalkduster" font-size="94.0" fill="#FEFFFE" transform="matrix(1.00, 0.00, -0.00, -1.00, 1506.7, 209.0)">c</text><text xml:space="preserve" font-family="Chalkduster,Chalkduster" font-size="94.0" fill="#FEFFFE" transform="matrix(1.00, 0.00, -0.00, -1.00, 1562.4, 209.0)">t</text><text xml:space="preserve" font-family="Chalkduster,Chalkduster" font-size="94.0" fill="#FEFFFE" transform="matrix(1.00, 0.00, -0.00, -1.00, 1601.2, 209.0)">o</text><text xml:space="preserve" font-family="Chalkduster,Chalkduster" font-size="93.0" fill="#71AFE1" transform="matrix(1.00, 0.00, -0.00, -1.00, 387.9, 925.4)">¿</text><text xml:space="preserve" font-family="Chalkduster,Chalkduster" font-size="93.0" fill="#71AFE1" transform="matrix(1.00, 0.00, -0.00, -1.00, 444.0, 925.4)">Q</text><text xml:space="preserve" font-family="Chalkduster,Chalkduster" font-size="93.0" fill="#71AFE1" transform="matrix(1.00, 0.00, -0.00, -1.00, 515.9, 925.4)">u</text><text xml:space="preserve" font-family="Chalkduster,Chalkduster" font-size="93.0" fill="#71AFE1" transform="matrix(1.00, 0.00, -0.00, -1.00, 579.8, 925.4)">é</text><text xml:space="preserve" font-family="Chalkduster,Chalkduster" font-size="93.0" fill="#71AFE1" transform="matrix(1.00, 0.00, -0.00, -1.00, 641.8, 925.4)"> </text><text xml:space="preserve" font-family="Chalkduster,Chalkduster" font-size="93.0" fill="#71AFE1" transform="matrix(1.00, 0.00, -0.00, -1.00, 688.1, 925.4)">t</text><text xml:space="preserve" font-family="Chalkduster,Chalkduster" font-size="93.0" fill="#71AFE1" transform="matrix(1.00, 0.00, -0.00, -1.00, 731.1, 925.4)">i</text><text xml:space="preserve" font-family="Chalkduster,Chalkduster" font-size="93.0" fill="#71AFE1" transform="matrix(1.00, 0.00, -0.00, -1.00, 767.8, 925.4)">e</text><text xml:space="preserve" font-family="Chalkduster,Chalkduster" font-size="93.0" fill="#71AFE1" transform="matrix(1.00, 0.00, -0.00, -1.00, 826.5, 925.4)">n</text><text xml:space="preserve" font-family="Chalkduster,Chalkduster" font-size="93.0" fill="#71AFE1" transform="matrix(1.00, 0.00, -0.00, -1.00, 896.2, 925.4)">e</text><text xml:space="preserve" font-family="Chalkduster,Chalkduster" font-size="93.0" fill="#71AFE1" transform="matrix(1.00, 0.00, -0.00, -1.00, 953.9, 925.4)"> </text><text xml:space="preserve" font-family="Chalkduster,Chalkduster" font-size="93.0" fill="#71AFE1" transform="matrix(1.00, 0.00, -0.00, -1.00, 1000.1, 925.4)">d</text><text xml:space="preserve" font-family="Chalkduster,Chalkduster" font-size="93.0" fill="#71AFE1" transform="matrix(1.00, 0.00, -0.00, -1.00, 1072.8, 925.4)">e</text><text xml:space="preserve" font-family="Chalkduster,Chalkduster" font-size="93.0" fill="#71AFE1" transform="matrix(1.00, 0.00, -0.00, -1.00, 1130.5, 925.4)"> </text><text xml:space="preserve" font-family="Chalkduster,Chalkduster" font-size="93.0" fill="#71AFE1" transform="matrix(1.00, 0.00, -0.00, -1.00, 1176.8, 925.4)">b</text><text xml:space="preserve" font-family="Chalkduster,Chalkduster" font-size="93.0" fill="#71AFE1" transform="matrix(1.00, 0.00, -0.00, -1.00, 1230.9, 925.4)">u</text><text xml:space="preserve" font-family="Chalkduster,Chalkduster" font-size="93.0" fill="#71AFE1" transform="matrix(1.00, 0.00, -0.00, -1.00, 1294.9, 925.4)">e</text><text xml:space="preserve" font-family="Chalkduster,Chalkduster" font-size="93.0" fill="#71AFE1" transform="matrix(1.00, 0.00, -0.00, -1.00, 1353.6, 925.4)">n</text><text xml:space="preserve" font-family="Chalkduster,Chalkduster" font-size="93.0" fill="#71AFE1" transform="matrix(1.00, 0.00, -0.00, -1.00, 1419.8, 925.4)">o</text><text xml:space="preserve" font-family="Chalkduster,Chalkduster" font-size="93.0" fill="#71AFE1" transform="matrix(1.00, 0.00, -0.00, -1.00, 1486.2, 925.4)">?</text></g></svg>