<?xml version="1.0" encoding="UTF-8" standalone="no"?><svg xmlns="http://www.w3.org/2000/svg" xmlns:xlink="http://www.w3.org/1999/xlink" clip-rule="evenodd" stroke-miterlimit="10" viewBox="0 0 1920 1080"><desc>SVG generated by Keynote</desc><defs></defs><g transform="matrix(1.00, 0.00, -0.00, -1.00, 0.0, 1080.0)"><g><clipPath id="clip0x7f9a46ae2c90"><path d="M 0.0 1080.0 L 1920.0 1080.0 L 1920.0 0.0 L 0.0 0.0 Z M 0.0 1080.0 "></path></clipPath><g clip-path="url(#clip0x7f9a46ae2c90)"><image xlink:href="../../2454F38C-308E-4D93-86A7-ACF877EF01F7/assets/D54D7AAA5FD1EC733BC359F041C689F1.jpeg" width="2048.00" height="1536.00" transform="matrix(0.94, 0.00, -0.00, -0.70, 0.0, 1080.0)"></image></g></g><image xlink:href="../../690F2620-482E-481C-93B7-5E2B7C8633F2/assets/3AEA4686F9C7B388312B99BC4D3573CE.png" width="636.00" height="423.00" transform="matrix(1.41, 0.00, -0.00, -1.41, 513.0, 733.0)"></image><image xlink:href="../../690F2620-482E-481C-93B7-5E2B7C8633F2/assets/85228368E83932A9ACB0AC0E0F0B3EBA.png" width="928.00" height="639.00" transform="matrix(1.00, 0.00, -0.00, 1.00, 496.0, 105.0)"></image><text xml:space="preserve" font-family="Chalkduster,Chalkduster" font-size="75.8" fill="#A8E685" transform="matrix(1.00, 0.00, -0.00, -1.00, 53.4, 940.6)">…</text><text xml:space="preserve" font-family="Chalkduster,Chalkduster" font-size="75.8" fill="#A8E685" transform="matrix(1.00, 0.00, -0.00, -1.00, 128.8, 940.6)">p</text><text xml:space="preserve" font-family="Chalkduster,Chalkduster" font-size="75.8" fill="#A8E685" transform="matrix(1.00, 0.00, -0.00, -1.00, 176.4, 940.6)">e</text><text xml:space="preserve" font-family="Chalkduster,Chalkduster" font-size="75.8" fill="#A8E685" transform="matrix(1.00, 0.00, -0.00, -1.00, 222.6, 940.6)">r</text><text xml:space="preserve" font-family="Chalkduster,Chalkduster" font-size="75.8" fill="#A8E685" transform="matrix(1.00, 0.00, -0.00, -1.00, 261.5, 940.6)">o</text><text xml:space="preserve" font-family="Chalkduster,Chalkduster" font-size="75.8" fill="#A8E685" transform="matrix(1.00, 0.00, -0.00, -1.00, 316.0, 940.6)"> </text><text xml:space="preserve" font-family="Chalkduster,Chalkduster" font-size="75.8" fill="#A8E685" transform="matrix(1.00, 0.00, -0.00, -1.00, 353.7, 940.6)">m</text><text xml:space="preserve" font-family="Chalkduster,Chalkduster" font-size="75.8" fill="#A8E685" transform="matrix(1.00, 0.00, -0.00, -1.00, 432.3, 940.6)">e</text><text xml:space="preserve" font-family="Chalkduster,Chalkduster" font-size="75.8" fill="#A8E685" transform="matrix(1.00, 0.00, -0.00, -1.00, 479.3, 940.6)"> </text><text xml:space="preserve" font-family="Chalkduster,Chalkduster" font-size="75.8" fill="#A8E685" transform="matrix(1.00, 0.00, -0.00, -1.00, 517.0, 940.6)">a</text><text xml:space="preserve" font-family="Chalkduster,Chalkduster" font-size="75.8" fill="#A8E685" transform="matrix(1.00, 0.00, -0.00, -1.00, 566.9, 940.6)">c</text><text xml:space="preserve" font-family="Chalkduster,Chalkduster" font-size="75.8" fill="#A8E685" transform="matrix(1.00, 0.00, -0.00, -1.00, 612.8, 940.6)">e</text><text xml:space="preserve" font-family="Chalkduster,Chalkduster" font-size="75.8" fill="#A8E685" transform="matrix(1.00, 0.00, -0.00, -1.00, 661.1, 940.6)">p</text><text xml:space="preserve" font-family="Chalkduster,Chalkduster" font-size="75.8" fill="#A8E685" transform="matrix(1.00, 0.00, -0.00, -1.00, 708.6, 940.6)">t</text><text xml:space="preserve" font-family="Chalkduster,Chalkduster" font-size="75.8" fill="#A8E685" transform="matrix(1.00, 0.00, -0.00, -1.00, 742.5, 940.6)">a</text><text xml:space="preserve" font-family="Chalkduster,Chalkduster" font-size="75.8" fill="#A8E685" transform="matrix(1.00, 0.00, -0.00, -1.00, 790.8, 940.6)">r</text><text xml:space="preserve" font-family="Chalkduster,Chalkduster" font-size="75.8" fill="#A8E685" transform="matrix(1.00, 0.00, -0.00, -1.00, 829.7, 940.6)">o</text><text xml:space="preserve" font-family="Chalkduster,Chalkduster" font-size="75.8" fill="#A8E685" transform="matrix(1.00, 0.00, -0.00, -1.00, 886.1, 940.6)">n</text><text xml:space="preserve" font-family="Chalkduster,Chalkduster" font-size="75.8" fill="#A8E685" transform="matrix(1.00, 0.00, -0.00, -1.00, 941.7, 940.6)"> </text><text xml:space="preserve" font-family="Chalkduster,Chalkduster" font-size="75.8" fill="#A8E685" transform="matrix(1.00, 0.00, -0.00, -1.00, 979.4, 940.6)">u</text><text xml:space="preserve" font-family="Chalkduster,Chalkduster" font-size="75.8" fill="#A8E685" transform="matrix(1.00, 0.00, -0.00, -1.00, 1032.6, 940.6)">n</text><text xml:space="preserve" font-family="Chalkduster,Chalkduster" font-size="75.8" fill="#A8E685" transform="matrix(1.00, 0.00, -0.00, -1.00, 1088.2, 940.6)">a</text><text xml:space="preserve" font-family="Chalkduster,Chalkduster" font-size="75.8" fill="#A8E685" transform="matrix(1.00, 0.00, -0.00, -1.00, 1140.5, 940.6)"> </text><text xml:space="preserve" font-family="Chalkduster,Chalkduster" font-size="75.8" fill="#A8E685" transform="matrix(1.00, 0.00, -0.00, -1.00, 1178.2, 940.6)">P</text><text xml:space="preserve" font-family="Chalkduster,Chalkduster" font-size="75.8" fill="#A8E685" transform="matrix(1.00, 0.00, -0.00, -1.00, 1232.1, 940.6)">u</text><text xml:space="preserve" font-family="Chalkduster,Chalkduster" font-size="75.8" fill="#A8E685" transform="matrix(1.00, 0.00, -0.00, -1.00, 1286.3, 940.6)">l</text><text xml:space="preserve" font-family="Chalkduster,Chalkduster" font-size="75.8" fill="#A8E685" transform="matrix(1.00, 0.00, -0.00, -1.00, 1320.7, 940.6)">l</text><text xml:space="preserve" font-family="Chalkduster,Chalkduster" font-size="75.8" fill="#A8E685" transform="matrix(1.00, 0.00, -0.00, -1.00, 1356.3, 940.6)"> </text><text xml:space="preserve" font-family="Chalkduster,Chalkduster" font-size="75.8" fill="#A8E685" transform="matrix(1.00, 0.00, -0.00, -1.00, 1394.0, 940.6)">R</text><text xml:space="preserve" font-family="Chalkduster,Chalkduster" font-size="75.8" fill="#A8E685" transform="matrix(1.00, 0.00, -0.00, -1.00, 1453.0, 940.6)">e</text><text xml:space="preserve" font-family="Chalkduster,Chalkduster" font-size="75.8" fill="#A8E685" transform="matrix(1.00, 0.00, -0.00, -1.00, 1499.9, 940.6)">q</text><text xml:space="preserve" font-family="Chalkduster,Chalkduster" font-size="75.8" fill="#A8E685" transform="matrix(1.00, 0.00, -0.00, -1.00, 1548.9, 940.6)">u</text><text xml:space="preserve" font-family="Chalkduster,Chalkduster" font-size="75.8" fill="#A8E685" transform="matrix(1.00, 0.00, -0.00, -1.00, 1601.1, 940.6)">e</text><text xml:space="preserve" font-family="Chalkduster,Chalkduster" font-size="75.8" fill="#A8E685" transform="matrix(1.00, 0.00, -0.00, -1.00, 1649.8, 940.6)">s</text><text xml:space="preserve" font-family="Chalkduster,Chalkduster" font-size="75.8" fill="#A8E685" transform="matrix(1.00, 0.00, -0.00, -1.00, 1690.5, 940.6)">t</text><text xml:space="preserve" font-family="Chalkduster,Chalkduster" font-size="75.8" fill="#A8E685" transform="matrix(1.00, 0.00, -0.00, -1.00, 1725.2, 940.6)"> </text><text xml:space="preserve" font-family="Chalkduster,Chalkduster" font-size="75.8" fill="#A8E685" transform="matrix(1.00, 0.00, -0.00, -1.00, 1762.9, 940.6)">e</text><text xml:space="preserve" font-family="Chalkduster,Chalkduster" font-size="75.8" fill="#A8E685" transform="matrix(1.00, 0.00, -0.00, -1.00, 1810.8, 940.6)">n</text><text xml:space="preserve" font-family="Chalkduster,Chalkduster" font-size="75.8" fill="#A8E685" transform="matrix(1.00, 0.00, -0.00, -1.00, 1866.4, 940.6)"> </text><text xml:space="preserve" font-family="Chalkduster,Chalkduster" font-size="75.8" fill="#A8E685" transform="matrix(1.00, 0.00, -0.00, -1.00, 623.3, 844.6)">P</text><text xml:space="preserve" font-family="Chalkduster,Chalkduster" font-size="75.8" fill="#A8E685" transform="matrix(1.00, 0.00, -0.00, -1.00, 677.3, 844.6)">l</text><text xml:space="preserve" font-family="Chalkduster,Chalkduster" font-size="75.8" fill="#A8E685" transform="matrix(1.00, 0.00, -0.00, -1.00, 711.2, 844.6)">a</text><text xml:space="preserve" font-family="Chalkduster,Chalkduster" font-size="75.8" fill="#A8E685" transform="matrix(1.00, 0.00, -0.00, -1.00, 763.6, 844.6)">y</text><text xml:space="preserve" font-family="Chalkduster,Chalkduster" font-size="75.8" fill="#A8E685" transform="matrix(1.00, 0.00, -0.00, -1.00, 809.7, 844.6)">F</text><text xml:space="preserve" font-family="Chalkduster,Chalkduster" font-size="75.8" fill="#A8E685" transform="matrix(1.00, 0.00, -0.00, -1.00, 864.4, 844.6)">r</text><text xml:space="preserve" font-family="Chalkduster,Chalkduster" font-size="75.8" fill="#A8E685" transform="matrix(1.00, 0.00, -0.00, -1.00, 904.4, 844.6)">a</text><text xml:space="preserve" font-family="Chalkduster,Chalkduster" font-size="75.8" fill="#A8E685" transform="matrix(1.00, 0.00, -0.00, -1.00, 954.3, 844.6)">m</text><text xml:space="preserve" font-family="Chalkduster,Chalkduster" font-size="75.8" fill="#A8E685" transform="matrix(1.00, 0.00, -0.00, -1.00, 1032.9, 844.6)">e</text><text xml:space="preserve" font-family="Chalkduster,Chalkduster" font-size="75.8" fill="#A8E685" transform="matrix(1.00, 0.00, -0.00, -1.00, 1079.9, 844.6)">w</text><text xml:space="preserve" font-family="Chalkduster,Chalkduster" font-size="75.8" fill="#A8E685" transform="matrix(1.00, 0.00, -0.00, -1.00, 1142.3, 844.6)">o</text><text xml:space="preserve" font-family="Chalkduster,Chalkduster" font-size="75.8" fill="#A8E685" transform="matrix(1.00, 0.00, -0.00, -1.00, 1197.5, 844.6)">r</text><text xml:space="preserve" font-family="Chalkduster,Chalkduster" font-size="75.8" fill="#A8E685" transform="matrix(1.00, 0.00, -0.00, -1.00, 1237.6, 844.6)">k</text></g></svg>