<?xml version="1.0" encoding="UTF-8" standalone="no"?><svg xmlns="http://www.w3.org/2000/svg" xmlns:xlink="http://www.w3.org/1999/xlink" clip-rule="evenodd" stroke-miterlimit="10" viewBox="0 0 1920 1080"><desc>SVG generated by Keynote</desc><defs></defs><g transform="matrix(1.00, 0.00, -0.00, -1.00, 0.0, 1080.0)"><g><clipPath id="clip0x7f9a418a3910"><path d="M 0.0 1080.0 L 1920.0 1080.0 L 1920.0 0.0 L 0.0 0.0 Z M 0.0 1080.0 "></path></clipPath><g clip-path="url(#clip0x7f9a418a3910)"><image xlink:href="../../2454F38C-308E-4D93-86A7-ACF877EF01F7/assets/D54D7AAA5FD1EC733BC359F041C689F1.jpeg" width="2048.00" height="1536.00" transform="matrix(0.94, 0.00, -0.00, -0.70, 0.0, 1080.0)"></image></g></g><text xml:space="preserve" font-family="Chalkduster,Chalkduster" font-size="100.0" fill="#71AFE1" transform="matrix(1.00, 0.00, -0.00, -1.00, 722.9, 929.1)">R</text><text xml:space="preserve" font-family="Chalkduster,Chalkduster" font-size="100.0" fill="#71AFE1" transform="matrix(1.00, 0.00, -0.00, -1.00, 800.7, 929.1)">e</text><text xml:space="preserve" font-family="Chalkduster,Chalkduster" font-size="100.0" fill="#71AFE1" transform="matrix(1.00, 0.00, -0.00, -1.00, 862.7, 929.1)">a</text><text xml:space="preserve" font-family="Chalkduster,Chalkduster" font-size="100.0" fill="#71AFE1" transform="matrix(1.00, 0.00, -0.00, -1.00, 928.5, 929.1)">c</text><text xml:space="preserve" font-family="Chalkduster,Chalkduster" font-size="100.0" fill="#71AFE1" transform="matrix(1.00, 0.00, -0.00, -1.00, 987.8, 929.1)">t</text><text xml:space="preserve" font-family="Chalkduster,Chalkduster" font-size="100.0" fill="#71AFE1" transform="matrix(1.00, 0.00, -0.00, -1.00, 1034.0, 929.1)">i</text><text xml:space="preserve" font-family="Chalkduster,Chalkduster" font-size="100.0" fill="#71AFE1" transform="matrix(1.00, 0.00, -0.00, -1.00, 1073.7, 929.1)">v</text><text xml:space="preserve" font-family="Chalkduster,Chalkduster" font-size="100.0" fill="#71AFE1" transform="matrix(1.00, 0.00, -0.00, -1.00, 1135.1, 929.1)">e</text><image xlink:href="../../2454F38C-308E-4D93-86A7-ACF877EF01F7/assets/4DEEB86E8592901A27491E22B30EA716.png" width="78.00" height="72.00" transform="matrix(0.50, 0.00, -0.00, -0.50, 68.8, 802.8)"></image><text xml:space="preserve" font-family="Chalkduster,Chalkduster" font-size="66.6" fill="#A8E685" transform="matrix(1.00, 0.00, -0.00, -1.00, 128.1, 764.5)">R</text><text xml:space="preserve" font-family="Chalkduster,Chalkduster" font-size="66.6" fill="#A8E685" transform="matrix(1.00, 0.00, -0.00, -1.00, 179.9, 764.5)">e</text><text xml:space="preserve" font-family="Chalkduster,Chalkduster" font-size="66.6" fill="#A8E685" transform="matrix(1.00, 0.00, -0.00, -1.00, 222.7, 764.5)">s</text><text xml:space="preserve" font-family="Chalkduster,Chalkduster" font-size="66.6" fill="#A8E685" transform="matrix(1.00, 0.00, -0.00, -1.00, 256.3, 764.5)">p</text><text xml:space="preserve" font-family="Chalkduster,Chalkduster" font-size="66.6" fill="#A8E685" transform="matrix(1.00, 0.00, -0.00, -1.00, 298.3, 764.5)">o</text><text xml:space="preserve" font-family="Chalkduster,Chalkduster" font-size="66.6" fill="#A8E685" transform="matrix(1.00, 0.00, -0.00, -1.00, 347.8, 764.5)">n</text><text xml:space="preserve" font-family="Chalkduster,Chalkduster" font-size="66.6" fill="#A8E685" transform="matrix(1.00, 0.00, -0.00, -1.00, 396.7, 764.5)">s</text><text xml:space="preserve" font-family="Chalkduster,Chalkduster" font-size="66.6" fill="#A8E685" transform="matrix(1.00, 0.00, -0.00, -1.00, 430.3, 764.5)">i</text><text xml:space="preserve" font-family="Chalkduster,Chalkduster" font-size="66.6" fill="#A8E685" transform="matrix(1.00, 0.00, -0.00, -1.00, 456.7, 764.5)">v</text><text xml:space="preserve" font-family="Chalkduster,Chalkduster" font-size="66.6" fill="#A8E685" transform="matrix(1.00, 0.00, -0.00, -1.00, 497.6, 764.5)">e</text><text xml:space="preserve" font-family="Chalkduster,Chalkduster" font-size="66.6" fill="#FEFFFE" transform="matrix(1.00, 0.00, -0.00, -1.00, 538.9, 764.5)">:</text><text xml:space="preserve" font-family="Chalkduster,Chalkduster" font-size="66.6" fill="#FEFFFE" transform="matrix(1.00, 0.00, -0.00, -1.00, 560.8, 764.5)"> </text><text xml:space="preserve" font-family="Chalkduster,Chalkduster" font-size="66.6" fill="#FEFFFE" transform="matrix(1.00, 0.00, -0.00, -1.00, 594.0, 764.5)">v</text><text xml:space="preserve" font-family="Chalkduster,Chalkduster" font-size="66.6" fill="#FEFFFE" transform="matrix(1.00, 0.00, -0.00, -1.00, 634.9, 764.5)">e</text><text xml:space="preserve" font-family="Chalkduster,Chalkduster" font-size="66.6" fill="#FEFFFE" transform="matrix(1.00, 0.00, -0.00, -1.00, 676.2, 764.5)">l</text><text xml:space="preserve" font-family="Chalkduster,Chalkduster" font-size="66.6" fill="#FEFFFE" transform="matrix(1.00, 0.00, -0.00, -1.00, 704.9, 764.5)">o</text><text xml:space="preserve" font-family="Chalkduster,Chalkduster" font-size="66.6" fill="#FEFFFE" transform="matrix(1.00, 0.00, -0.00, -1.00, 753.9, 764.5)">c</text><text xml:space="preserve" font-family="Chalkduster,Chalkduster" font-size="66.6" fill="#FEFFFE" transform="matrix(1.00, 0.00, -0.00, -1.00, 795.7, 764.5)">i</text><text xml:space="preserve" font-family="Chalkduster,Chalkduster" font-size="66.6" fill="#FEFFFE" transform="matrix(1.00, 0.00, -0.00, -1.00, 824.4, 764.5)">d</text><text xml:space="preserve" font-family="Chalkduster,Chalkduster" font-size="66.6" fill="#FEFFFE" transform="matrix(1.00, 0.00, -0.00, -1.00, 876.4, 764.5)">a</text><text xml:space="preserve" font-family="Chalkduster,Chalkduster" font-size="66.6" fill="#FEFFFE" transform="matrix(1.00, 0.00, -0.00, -1.00, 920.2, 764.5)">d</text><text xml:space="preserve" font-family="Chalkduster,Chalkduster" font-size="66.6" fill="#FEFFFE" transform="matrix(1.00, 0.00, -0.00, -1.00, 972.2, 764.5)"> </text><text xml:space="preserve" font-family="Chalkduster,Chalkduster" font-size="66.6" fill="#FEFFFE" transform="matrix(1.00, 0.00, -0.00, -1.00, 1005.4, 764.5)">y</text><text xml:space="preserve" font-family="Chalkduster,Chalkduster" font-size="66.6" fill="#FEFFFE" transform="matrix(1.00, 0.00, -0.00, -1.00, 1045.9, 764.5)"> </text><text xml:space="preserve" font-family="Chalkduster,Chalkduster" font-size="66.6" fill="#FEFFFE" transform="matrix(1.00, 0.00, -0.00, -1.00, 1079.0, 764.5)">b</text><text xml:space="preserve" font-family="Chalkduster,Chalkduster" font-size="66.6" fill="#FEFFFE" transform="matrix(1.00, 0.00, -0.00, -1.00, 1116.2, 764.5)">a</text><text xml:space="preserve" font-family="Chalkduster,Chalkduster" font-size="66.6" fill="#FEFFFE" transform="matrix(1.00, 0.00, -0.00, -1.00, 1158.9, 764.5)">j</text><text xml:space="preserve" font-family="Chalkduster,Chalkduster" font-size="66.6" fill="#FEFFFE" transform="matrix(1.00, 0.00, -0.00, -1.00, 1190.1, 764.5)">a</text><text xml:space="preserve" font-family="Chalkduster,Chalkduster" font-size="66.6" fill="#FEFFFE" transform="matrix(1.00, 0.00, -0.00, -1.00, 1236.0, 764.5)"> </text><text xml:space="preserve" font-family="Chalkduster,Chalkduster" font-size="66.6" fill="#FEFFFE" transform="matrix(1.00, 0.00, -0.00, -1.00, 1269.1, 764.5)">l</text><text xml:space="preserve" font-family="Chalkduster,Chalkduster" font-size="66.6" fill="#FEFFFE" transform="matrix(1.00, 0.00, -0.00, -1.00, 1298.9, 764.5)">a</text><text xml:space="preserve" font-family="Chalkduster,Chalkduster" font-size="66.6" fill="#FEFFFE" transform="matrix(1.00, 0.00, -0.00, -1.00, 1340.3, 764.5)">t</text><text xml:space="preserve" font-family="Chalkduster,Chalkduster" font-size="66.6" fill="#FEFFFE" transform="matrix(1.00, 0.00, -0.00, -1.00, 1370.0, 764.5)">e</text><text xml:space="preserve" font-family="Chalkduster,Chalkduster" font-size="66.6" fill="#FEFFFE" transform="matrix(1.00, 0.00, -0.00, -1.00, 1412.4, 764.5)">c</text><text xml:space="preserve" font-family="Chalkduster,Chalkduster" font-size="66.6" fill="#FEFFFE" transform="matrix(1.00, 0.00, -0.00, -1.00, 1454.2, 764.5)">i</text><text xml:space="preserve" font-family="Chalkduster,Chalkduster" font-size="66.6" fill="#FEFFFE" transform="matrix(1.00, 0.00, -0.00, -1.00, 1481.2, 764.5)">a</text><text xml:space="preserve" font-family="Chalkduster,Chalkduster" font-size="66.6" fill="#FEFFFE" transform="matrix(1.00, 0.00, -0.00, -1.00, 1527.1, 764.5)">,</text><text xml:space="preserve" font-family="Chalkduster,Chalkduster" font-size="66.6" fill="#FEFFFE" transform="matrix(1.00, 0.00, -0.00, -1.00, 1547.7, 764.5)"> </text><text xml:space="preserve" font-family="Chalkduster,Chalkduster" font-size="66.6" fill="#FEFFFE" transform="matrix(1.00, 0.00, -0.00, -1.00, 1580.8, 764.5)">b</text><text xml:space="preserve" font-family="Chalkduster,Chalkduster" font-size="66.6" fill="#FEFFFE" transform="matrix(1.00, 0.00, -0.00, -1.00, 1618.0, 764.5)">a</text><text xml:space="preserve" font-family="Chalkduster,Chalkduster" font-size="66.6" fill="#FEFFFE" transform="matrix(1.00, 0.00, -0.00, -1.00, 1660.8, 764.5)">j</text><text xml:space="preserve" font-family="Chalkduster,Chalkduster" font-size="66.6" fill="#FEFFFE" transform="matrix(1.00, 0.00, -0.00, -1.00, 1691.9, 764.5)">o</text><text xml:space="preserve" font-family="Chalkduster,Chalkduster" font-size="66.6" fill="#FEFFFE" transform="matrix(1.00, 0.00, -0.00, -1.00, 1739.8, 764.5)"> </text><text xml:space="preserve" font-family="Chalkduster,Chalkduster" font-size="66.6" fill="#FEFFFE" transform="matrix(1.00, 0.00, -0.00, -1.00, 128.1, 679.5)">c</text><text xml:space="preserve" font-family="Chalkduster,Chalkduster" font-size="66.6" fill="#FEFFFE" transform="matrix(1.00, 0.00, -0.00, -1.00, 169.9, 679.5)">u</text><text xml:space="preserve" font-family="Chalkduster,Chalkduster" font-size="66.6" fill="#FEFFFE" transform="matrix(1.00, 0.00, -0.00, -1.00, 215.8, 679.5)">a</text><text xml:space="preserve" font-family="Chalkduster,Chalkduster" font-size="66.6" fill="#FEFFFE" transform="matrix(1.00, 0.00, -0.00, -1.00, 258.9, 679.5)">l</text><text xml:space="preserve" font-family="Chalkduster,Chalkduster" font-size="66.6" fill="#FEFFFE" transform="matrix(1.00, 0.00, -0.00, -1.00, 290.2, 679.5)">q</text><text xml:space="preserve" font-family="Chalkduster,Chalkduster" font-size="66.6" fill="#FEFFFE" transform="matrix(1.00, 0.00, -0.00, -1.00, 333.2, 679.5)">u</text><text xml:space="preserve" font-family="Chalkduster,Chalkduster" font-size="66.6" fill="#FEFFFE" transform="matrix(1.00, 0.00, -0.00, -1.00, 379.0, 679.5)">i</text><text xml:space="preserve" font-family="Chalkduster,Chalkduster" font-size="66.6" fill="#FEFFFE" transform="matrix(1.00, 0.00, -0.00, -1.00, 405.4, 679.5)">e</text><text xml:space="preserve" font-family="Chalkduster,Chalkduster" font-size="66.6" fill="#FEFFFE" transform="matrix(1.00, 0.00, -0.00, -1.00, 446.0, 679.5)">r</text><text xml:space="preserve" font-family="Chalkduster,Chalkduster" font-size="66.6" fill="#FEFFFE" transform="matrix(1.00, 0.00, -0.00, -1.00, 481.0, 679.5)"> </text><text xml:space="preserve" font-family="Chalkduster,Chalkduster" font-size="66.6" fill="#FEFFFE" transform="matrix(1.00, 0.00, -0.00, -1.00, 514.2, 679.5)">c</text><text xml:space="preserve" font-family="Chalkduster,Chalkduster" font-size="66.6" fill="#FEFFFE" transform="matrix(1.00, 0.00, -0.00, -1.00, 553.5, 679.5)">a</text><text xml:space="preserve" font-family="Chalkduster,Chalkduster" font-size="66.6" fill="#FEFFFE" transform="matrix(1.00, 0.00, -0.00, -1.00, 596.0, 679.5)">r</text><text xml:space="preserve" font-family="Chalkduster,Chalkduster" font-size="66.6" fill="#FEFFFE" transform="matrix(1.00, 0.00, -0.00, -1.00, 630.1, 679.5)">g</text><text xml:space="preserve" font-family="Chalkduster,Chalkduster" font-size="66.6" fill="#FEFFFE" transform="matrix(1.00, 0.00, -0.00, -1.00, 675.6, 679.5)">a</text><text xml:space="preserve" font-family="Chalkduster,Chalkduster" font-size="66.6" fill="#FEFFFE" transform="matrix(1.00, 0.00, -0.00, -1.00, 721.5, 679.5)">.</text><text xml:space="preserve" font-family="Chalkduster,Chalkduster" font-size="66.6" fill="#FEFFFE" transform="matrix(1.00, 0.00, -0.00, -1.00, 740.4, 679.5)"> </text><image xlink:href="../../2454F38C-308E-4D93-86A7-ACF877EF01F7/assets/4DEEB86E8592901A27491E22B30EA716.png" width="78.00" height="72.00" transform="matrix(0.50, 0.00, -0.00, -0.50, 68.8, 606.2)"></image><text xml:space="preserve" font-family="Chalkduster,Chalkduster" font-size="66.6" fill="#FFE181" transform="matrix(1.00, 0.00, -0.00, -1.00, 128.1, 567.9)">R</text><text xml:space="preserve" font-family="Chalkduster,Chalkduster" font-size="66.6" fill="#FFE181" transform="matrix(1.00, 0.00, -0.00, -1.00, 179.9, 567.9)">e</text><text xml:space="preserve" font-family="Chalkduster,Chalkduster" font-size="66.6" fill="#FFE181" transform="matrix(1.00, 0.00, -0.00, -1.00, 222.7, 567.9)">s</text><text xml:space="preserve" font-family="Chalkduster,Chalkduster" font-size="66.6" fill="#FFE181" transform="matrix(1.00, 0.00, -0.00, -1.00, 256.3, 567.9)">i</text><text xml:space="preserve" font-family="Chalkduster,Chalkduster" font-size="66.6" fill="#FFE181" transform="matrix(1.00, 0.00, -0.00, -1.00, 283.3, 567.9)">l</text><text xml:space="preserve" font-family="Chalkduster,Chalkduster" font-size="66.6" fill="#FFE181" transform="matrix(1.00, 0.00, -0.00, -1.00, 310.9, 567.9)">e</text><text xml:space="preserve" font-family="Chalkduster,Chalkduster" font-size="66.6" fill="#FFE181" transform="matrix(1.00, 0.00, -0.00, -1.00, 352.9, 567.9)">n</text><text xml:space="preserve" font-family="Chalkduster,Chalkduster" font-size="66.6" fill="#FFE181" transform="matrix(1.00, 0.00, -0.00, -1.00, 399.2, 567.9)">t</text><text xml:space="preserve" font-family="Chalkduster,Chalkduster" font-size="66.6" fill="#FEFFFE" transform="matrix(1.00, 0.00, -0.00, -1.00, 429.7, 567.9)">:</text><text xml:space="preserve" font-family="Chalkduster,Chalkduster" font-size="66.6" fill="#FEFFFE" transform="matrix(1.00, 0.00, -0.00, -1.00, 451.6, 567.9)"> </text><text xml:space="preserve" font-family="Chalkduster,Chalkduster" font-size="66.6" fill="#FEFFFE" transform="matrix(1.00, 0.00, -0.00, -1.00, 484.7, 567.9)">s</text><text xml:space="preserve" font-family="Chalkduster,Chalkduster" font-size="66.6" fill="#FEFFFE" transform="matrix(1.00, 0.00, -0.00, -1.00, 518.4, 567.9)">e</text><text xml:space="preserve" font-family="Chalkduster,Chalkduster" font-size="66.6" fill="#FEFFFE" transform="matrix(1.00, 0.00, -0.00, -1.00, 559.7, 567.9)"> </text><text xml:space="preserve" font-family="Chalkduster,Chalkduster" font-size="66.6" fill="#FEFFFE" transform="matrix(1.00, 0.00, -0.00, -1.00, 592.8, 567.9)">r</text><text xml:space="preserve" font-family="Chalkduster,Chalkduster" font-size="66.6" fill="#FEFFFE" transform="matrix(1.00, 0.00, -0.00, -1.00, 626.5, 567.9)">e</text><text xml:space="preserve" font-family="Chalkduster,Chalkduster" font-size="66.6" fill="#FEFFFE" transform="matrix(1.00, 0.00, -0.00, -1.00, 668.9, 567.9)">c</text><text xml:space="preserve" font-family="Chalkduster,Chalkduster" font-size="66.6" fill="#FEFFFE" transform="matrix(1.00, 0.00, -0.00, -1.00, 710.7, 567.9)">u</text><text xml:space="preserve" font-family="Chalkduster,Chalkduster" font-size="66.6" fill="#FEFFFE" transform="matrix(1.00, 0.00, -0.00, -1.00, 757.6, 567.9)">p</text><text xml:space="preserve" font-family="Chalkduster,Chalkduster" font-size="66.6" fill="#FEFFFE" transform="matrix(1.00, 0.00, -0.00, -1.00, 799.4, 567.9)">e</text><text xml:space="preserve" font-family="Chalkduster,Chalkduster" font-size="66.6" fill="#FEFFFE" transform="matrix(1.00, 0.00, -0.00, -1.00, 840.0, 567.9)">r</text><text xml:space="preserve" font-family="Chalkduster,Chalkduster" font-size="66.6" fill="#FEFFFE" transform="matrix(1.00, 0.00, -0.00, -1.00, 875.1, 567.9)">a</text><text xml:space="preserve" font-family="Chalkduster,Chalkduster" font-size="66.6" fill="#FEFFFE" transform="matrix(1.00, 0.00, -0.00, -1.00, 921.0, 567.9)"> </text><text xml:space="preserve" font-family="Chalkduster,Chalkduster" font-size="66.6" fill="#FEFFFE" transform="matrix(1.00, 0.00, -0.00, -1.00, 954.1, 567.9)">a</text><text xml:space="preserve" font-family="Chalkduster,Chalkduster" font-size="66.6" fill="#FEFFFE" transform="matrix(1.00, 0.00, -0.00, -1.00, 1000.0, 567.9)">n</text><text xml:space="preserve" font-family="Chalkduster,Chalkduster" font-size="66.6" fill="#FEFFFE" transform="matrix(1.00, 0.00, -0.00, -1.00, 1046.4, 567.9)">t</text><text xml:space="preserve" font-family="Chalkduster,Chalkduster" font-size="66.6" fill="#FEFFFE" transform="matrix(1.00, 0.00, -0.00, -1.00, 1076.1, 567.9)">e</text><text xml:space="preserve" font-family="Chalkduster,Chalkduster" font-size="66.6" fill="#FEFFFE" transform="matrix(1.00, 0.00, -0.00, -1.00, 1117.4, 567.9)"> </text><text xml:space="preserve" font-family="Chalkduster,Chalkduster" font-size="66.6" fill="#FEFFFE" transform="matrix(1.00, 0.00, -0.00, -1.00, 1150.5, 567.9)">f</text><text xml:space="preserve" font-family="Chalkduster,Chalkduster" font-size="66.6" fill="#FEFFFE" transform="matrix(1.00, 0.00, -0.00, -1.00, 1183.9, 567.9)">a</text><text xml:space="preserve" font-family="Chalkduster,Chalkduster" font-size="66.6" fill="#FEFFFE" transform="matrix(1.00, 0.00, -0.00, -1.00, 1227.1, 567.9)">l</text><text xml:space="preserve" font-family="Chalkduster,Chalkduster" font-size="66.6" fill="#FEFFFE" transform="matrix(1.00, 0.00, -0.00, -1.00, 1257.3, 567.9)">l</text><text xml:space="preserve" font-family="Chalkduster,Chalkduster" font-size="66.6" fill="#FEFFFE" transform="matrix(1.00, 0.00, -0.00, -1.00, 1286.0, 567.9)">o</text><text xml:space="preserve" font-family="Chalkduster,Chalkduster" font-size="66.6" fill="#FEFFFE" transform="matrix(1.00, 0.00, -0.00, -1.00, 1334.5, 567.9)">s</text><text xml:space="preserve" font-family="Chalkduster,Chalkduster" font-size="66.6" fill="#FEFFFE" transform="matrix(1.00, 0.00, -0.00, -1.00, 1368.1, 567.9)"> </text><image xlink:href="../../2454F38C-308E-4D93-86A7-ACF877EF01F7/assets/4DEEB86E8592901A27491E22B30EA716.png" width="78.00" height="72.00" transform="matrix(0.50, 0.00, -0.00, -0.50, 68.8, 494.6)"></image><text xml:space="preserve" font-family="Chalkduster,Chalkduster" font-size="66.6" fill="#F29F57" transform="matrix(1.00, 0.00, -0.00, -1.00, 128.1, 456.3)">E</text><text xml:space="preserve" font-family="Chalkduster,Chalkduster" font-size="66.6" fill="#F29F57" transform="matrix(1.00, 0.00, -0.00, -1.00, 177.3, 456.3)">l</text><text xml:space="preserve" font-family="Chalkduster,Chalkduster" font-size="66.6" fill="#F29F57" transform="matrix(1.00, 0.00, -0.00, -1.00, 207.2, 456.3)">a</text><text xml:space="preserve" font-family="Chalkduster,Chalkduster" font-size="66.6" fill="#F29F57" transform="matrix(1.00, 0.00, -0.00, -1.00, 253.9, 456.3)">s</text><text xml:space="preserve" font-family="Chalkduster,Chalkduster" font-size="66.6" fill="#F29F57" transform="matrix(1.00, 0.00, -0.00, -1.00, 289.6, 456.3)">t</text><text xml:space="preserve" font-family="Chalkduster,Chalkduster" font-size="66.6" fill="#F29F57" transform="matrix(1.00, 0.00, -0.00, -1.00, 320.4, 456.3)">i</text><text xml:space="preserve" font-family="Chalkduster,Chalkduster" font-size="66.6" fill="#F29F57" transform="matrix(1.00, 0.00, -0.00, -1.00, 347.4, 456.3)">c</text><text xml:space="preserve" font-family="Chalkduster,Chalkduster" font-size="66.6" fill="#FEFFFE" transform="matrix(1.00, 0.00, -0.00, -1.00, 389.2, 456.3)">:</text><text xml:space="preserve" font-family="Chalkduster,Chalkduster" font-size="66.6" fill="#FEFFFE" transform="matrix(1.00, 0.00, -0.00, -1.00, 411.1, 456.3)"> </text><text xml:space="preserve" font-family="Chalkduster,Chalkduster" font-size="66.6" fill="#FEFFFE" transform="matrix(1.00, 0.00, -0.00, -1.00, 444.3, 456.3)">d</text><text xml:space="preserve" font-family="Chalkduster,Chalkduster" font-size="66.6" fill="#FEFFFE" transform="matrix(1.00, 0.00, -0.00, -1.00, 499.0, 456.3)">i</text><text xml:space="preserve" font-family="Chalkduster,Chalkduster" font-size="66.6" fill="#FEFFFE" transform="matrix(1.00, 0.00, -0.00, -1.00, 525.3, 456.3)">s</text><text xml:space="preserve" font-family="Chalkduster,Chalkduster" font-size="66.6" fill="#FEFFFE" transform="matrix(1.00, 0.00, -0.00, -1.00, 561.0, 456.3)">t</text><text xml:space="preserve" font-family="Chalkduster,Chalkduster" font-size="66.6" fill="#FEFFFE" transform="matrix(1.00, 0.00, -0.00, -1.00, 591.5, 456.3)">r</text><text xml:space="preserve" font-family="Chalkduster,Chalkduster" font-size="66.6" fill="#FEFFFE" transform="matrix(1.00, 0.00, -0.00, -1.00, 628.3, 456.3)">i</text><text xml:space="preserve" font-family="Chalkduster,Chalkduster" font-size="66.6" fill="#FEFFFE" transform="matrix(1.00, 0.00, -0.00, -1.00, 654.6, 456.3)">b</text><text xml:space="preserve" font-family="Chalkduster,Chalkduster" font-size="66.6" fill="#FEFFFE" transform="matrix(1.00, 0.00, -0.00, -1.00, 693.4, 456.3)">u</text><text xml:space="preserve" font-family="Chalkduster,Chalkduster" font-size="66.6" fill="#FEFFFE" transform="matrix(1.00, 0.00, -0.00, -1.00, 739.2, 456.3)">i</text><text xml:space="preserve" font-family="Chalkduster,Chalkduster" font-size="66.6" fill="#FEFFFE" transform="matrix(1.00, 0.00, -0.00, -1.00, 767.9, 456.3)">d</text><text xml:space="preserve" font-family="Chalkduster,Chalkduster" font-size="66.6" fill="#FEFFFE" transform="matrix(1.00, 0.00, -0.00, -1.00, 819.9, 456.3)">o</text><text xml:space="preserve" font-family="Chalkduster,Chalkduster" font-size="66.6" fill="#FEFFFE" transform="matrix(1.00, 0.00, -0.00, -1.00, 862.5, 456.3)">,</text><text xml:space="preserve" font-family="Chalkduster,Chalkduster" font-size="66.6" fill="#FEFFFE" transform="matrix(1.00, 0.00, -0.00, -1.00, 883.1, 456.3)"> </text><text xml:space="preserve" font-family="Chalkduster,Chalkduster" font-size="66.6" fill="#FEFFFE" transform="matrix(1.00, 0.00, -0.00, -1.00, 916.2, 456.3)">a</text><text xml:space="preserve" font-family="Chalkduster,Chalkduster" font-size="66.6" fill="#FEFFFE" transform="matrix(1.00, 0.00, -0.00, -1.00, 962.1, 456.3)">u</text><text xml:space="preserve" font-family="Chalkduster,Chalkduster" font-size="66.6" fill="#FEFFFE" transform="matrix(1.00, 0.00, -0.00, -1.00, 1007.3, 456.3)">t</text><text xml:space="preserve" font-family="Chalkduster,Chalkduster" font-size="66.6" fill="#FEFFFE" transform="matrix(1.00, 0.00, -0.00, -1.00, 1034.7, 456.3)">o</text><text xml:space="preserve" font-family="Chalkduster,Chalkduster" font-size="66.6" fill="#FEFFFE" transform="matrix(1.00, 0.00, -0.00, -1.00, 1084.8, 456.3)">-</text><text xml:space="preserve" font-family="Chalkduster,Chalkduster" font-size="66.6" fill="#FEFFFE" transform="matrix(1.00, 0.00, -0.00, -1.00, 1125.1, 456.3)">e</text><text xml:space="preserve" font-family="Chalkduster,Chalkduster" font-size="66.6" fill="#FEFFFE" transform="matrix(1.00, 0.00, -0.00, -1.00, 1167.9, 456.3)">s</text><text xml:space="preserve" font-family="Chalkduster,Chalkduster" font-size="66.6" fill="#FEFFFE" transform="matrix(1.00, 0.00, -0.00, -1.00, 1202.9, 456.3)">c</text><text xml:space="preserve" font-family="Chalkduster,Chalkduster" font-size="66.6" fill="#FEFFFE" transform="matrix(1.00, 0.00, -0.00, -1.00, 1242.3, 456.3)">a</text><text xml:space="preserve" font-family="Chalkduster,Chalkduster" font-size="66.6" fill="#FEFFFE" transform="matrix(1.00, 0.00, -0.00, -1.00, 1285.4, 456.3)">l</text><text xml:space="preserve" font-family="Chalkduster,Chalkduster" font-size="66.6" fill="#FEFFFE" transform="matrix(1.00, 0.00, -0.00, -1.00, 1315.3, 456.3)">a</text><text xml:space="preserve" font-family="Chalkduster,Chalkduster" font-size="66.6" fill="#FEFFFE" transform="matrix(1.00, 0.00, -0.00, -1.00, 1361.3, 456.3)">b</text><text xml:space="preserve" font-family="Chalkduster,Chalkduster" font-size="66.6" fill="#FEFFFE" transform="matrix(1.00, 0.00, -0.00, -1.00, 1401.4, 456.3)">l</text><text xml:space="preserve" font-family="Chalkduster,Chalkduster" font-size="66.6" fill="#FEFFFE" transform="matrix(1.00, 0.00, -0.00, -1.00, 1428.9, 456.3)">e</text><text xml:space="preserve" font-family="Chalkduster,Chalkduster" font-size="66.6" fill="#FEFFFE" transform="matrix(1.00, 0.00, -0.00, -1.00, 1468.7, 456.3)">,</text><text xml:space="preserve" font-family="Chalkduster,Chalkduster" font-size="66.6" fill="#FEFFFE" transform="matrix(1.00, 0.00, -0.00, -1.00, 1489.3, 456.3)"> </text><text xml:space="preserve" font-family="Chalkduster,Chalkduster" font-size="66.6" fill="#FEFFFE" transform="matrix(1.00, 0.00, -0.00, -1.00, 1522.4, 456.3)">s</text><text xml:space="preserve" font-family="Chalkduster,Chalkduster" font-size="66.6" fill="#FEFFFE" transform="matrix(1.00, 0.00, -0.00, -1.00, 1556.1, 456.3)">i</text><text xml:space="preserve" font-family="Chalkduster,Chalkduster" font-size="66.6" fill="#FEFFFE" transform="matrix(1.00, 0.00, -0.00, -1.00, 1582.4, 456.3)">n</text><text xml:space="preserve" font-family="Chalkduster,Chalkduster" font-size="66.6" fill="#FEFFFE" transform="matrix(1.00, 0.00, -0.00, -1.00, 1631.2, 456.3)"> </text><text xml:space="preserve" font-family="Chalkduster,Chalkduster" font-size="66.6" fill="#FEFFFE" transform="matrix(1.00, 0.00, -0.00, -1.00, 128.1, 371.3)">c</text><text xml:space="preserve" font-family="Chalkduster,Chalkduster" font-size="66.6" fill="#FEFFFE" transform="matrix(1.00, 0.00, -0.00, -1.00, 169.9, 371.3)">u</text><text xml:space="preserve" font-family="Chalkduster,Chalkduster" font-size="66.6" fill="#FEFFFE" transform="matrix(1.00, 0.00, -0.00, -1.00, 215.7, 371.3)">e</text><text xml:space="preserve" font-family="Chalkduster,Chalkduster" font-size="66.6" fill="#FEFFFE" transform="matrix(1.00, 0.00, -0.00, -1.00, 257.0, 371.3)">l</text><text xml:space="preserve" font-family="Chalkduster,Chalkduster" font-size="66.6" fill="#FEFFFE" transform="matrix(1.00, 0.00, -0.00, -1.00, 287.2, 371.3)">l</text><text xml:space="preserve" font-family="Chalkduster,Chalkduster" font-size="66.6" fill="#FEFFFE" transform="matrix(1.00, 0.00, -0.00, -1.00, 315.9, 371.3)">o</text><text xml:space="preserve" font-family="Chalkduster,Chalkduster" font-size="66.6" fill="#FEFFFE" transform="matrix(1.00, 0.00, -0.00, -1.00, 364.4, 371.3)">s</text><text xml:space="preserve" font-family="Chalkduster,Chalkduster" font-size="66.6" fill="#FEFFFE" transform="matrix(1.00, 0.00, -0.00, -1.00, 398.1, 371.3)"> </text><text xml:space="preserve" font-family="Chalkduster,Chalkduster" font-size="66.6" fill="#FEFFFE" transform="matrix(1.00, 0.00, -0.00, -1.00, 431.2, 371.3)">d</text><text xml:space="preserve" font-family="Chalkduster,Chalkduster" font-size="66.6" fill="#FEFFFE" transform="matrix(1.00, 0.00, -0.00, -1.00, 483.2, 371.3)">e</text><text xml:space="preserve" font-family="Chalkduster,Chalkduster" font-size="66.6" fill="#FEFFFE" transform="matrix(1.00, 0.00, -0.00, -1.00, 524.5, 371.3)"> </text><text xml:space="preserve" font-family="Chalkduster,Chalkduster" font-size="66.6" fill="#FEFFFE" transform="matrix(1.00, 0.00, -0.00, -1.00, 557.6, 371.3)">b</text><text xml:space="preserve" font-family="Chalkduster,Chalkduster" font-size="66.6" fill="#FEFFFE" transform="matrix(1.00, 0.00, -0.00, -1.00, 596.4, 371.3)">o</text><text xml:space="preserve" font-family="Chalkduster,Chalkduster" font-size="66.6" fill="#FEFFFE" transform="matrix(1.00, 0.00, -0.00, -1.00, 641.8, 371.3)">t</text><text xml:space="preserve" font-family="Chalkduster,Chalkduster" font-size="66.6" fill="#FEFFFE" transform="matrix(1.00, 0.00, -0.00, -1.00, 671.5, 371.3)">e</text><text xml:space="preserve" font-family="Chalkduster,Chalkduster" font-size="66.6" fill="#FEFFFE" transform="matrix(1.00, 0.00, -0.00, -1.00, 712.8, 371.3)">l</text><text xml:space="preserve" font-family="Chalkduster,Chalkduster" font-size="66.6" fill="#FEFFFE" transform="matrix(1.00, 0.00, -0.00, -1.00, 743.0, 371.3)">l</text><text xml:space="preserve" font-family="Chalkduster,Chalkduster" font-size="66.6" fill="#FEFFFE" transform="matrix(1.00, 0.00, -0.00, -1.00, 772.9, 371.3)">a</text><text xml:space="preserve" font-family="Chalkduster,Chalkduster" font-size="66.6" fill="#FEFFFE" transform="matrix(1.00, 0.00, -0.00, -1.00, 818.8, 371.3)"> </text><image xlink:href="../../2454F38C-308E-4D93-86A7-ACF877EF01F7/assets/4DEEB86E8592901A27491E22B30EA716.png" width="78.00" height="72.00" transform="matrix(0.50, 0.00, -0.00, -0.50, 68.8, 297.9)"></image><text xml:space="preserve" font-family="Chalkduster,Chalkduster" font-size="66.6" fill="#FF7777" transform="matrix(1.00, 0.00, -0.00, -1.00, 128.1, 259.6)">M</text><text xml:space="preserve" font-family="Chalkduster,Chalkduster" font-size="66.6" fill="#FF7777" transform="matrix(1.00, 0.00, -0.00, -1.00, 184.1, 259.6)">e</text><text xml:space="preserve" font-family="Chalkduster,Chalkduster" font-size="66.6" fill="#FF7777" transform="matrix(1.00, 0.00, -0.00, -1.00, 226.9, 259.6)">s</text><text xml:space="preserve" font-family="Chalkduster,Chalkduster" font-size="66.6" fill="#FF7777" transform="matrix(1.00, 0.00, -0.00, -1.00, 260.5, 259.6)">s</text><text xml:space="preserve" font-family="Chalkduster,Chalkduster" font-size="66.6" fill="#FF7777" transform="matrix(1.00, 0.00, -0.00, -1.00, 294.2, 259.6)">a</text><text xml:space="preserve" font-family="Chalkduster,Chalkduster" font-size="66.6" fill="#FF7777" transform="matrix(1.00, 0.00, -0.00, -1.00, 336.6, 259.6)">g</text><text xml:space="preserve" font-family="Chalkduster,Chalkduster" font-size="66.6" fill="#FF7777" transform="matrix(1.00, 0.00, -0.00, -1.00, 383.0, 259.6)">e</text><text xml:space="preserve" font-family="Chalkduster,Chalkduster" font-size="66.6" fill="#FF7777" transform="matrix(1.00, 0.00, -0.00, -1.00, 424.3, 259.6)"> </text><text xml:space="preserve" font-family="Chalkduster,Chalkduster" font-size="66.6" fill="#FF7777" transform="matrix(1.00, 0.00, -0.00, -1.00, 457.4, 259.6)">D</text><text xml:space="preserve" font-family="Chalkduster,Chalkduster" font-size="66.6" fill="#FF7777" transform="matrix(1.00, 0.00, -0.00, -1.00, 504.0, 259.6)">r</text><text xml:space="preserve" font-family="Chalkduster,Chalkduster" font-size="66.6" fill="#FF7777" transform="matrix(1.00, 0.00, -0.00, -1.00, 540.9, 259.6)">i</text><text xml:space="preserve" font-family="Chalkduster,Chalkduster" font-size="66.6" fill="#FF7777" transform="matrix(1.00, 0.00, -0.00, -1.00, 567.3, 259.6)">v</text><text xml:space="preserve" font-family="Chalkduster,Chalkduster" font-size="66.6" fill="#FF7777" transform="matrix(1.00, 0.00, -0.00, -1.00, 608.2, 259.6)">e</text><text xml:space="preserve" font-family="Chalkduster,Chalkduster" font-size="66.6" fill="#FF7777" transform="matrix(1.00, 0.00, -0.00, -1.00, 650.2, 259.6)">n</text><text xml:space="preserve" font-family="Chalkduster,Chalkduster" font-size="66.6" fill="#FEFFFE" transform="matrix(1.00, 0.00, -0.00, -1.00, 699.1, 259.6)">:</text><text xml:space="preserve" font-family="Chalkduster,Chalkduster" font-size="66.6" fill="#FEFFFE" transform="matrix(1.00, 0.00, -0.00, -1.00, 721.0, 259.6)"> </text><text xml:space="preserve" font-family="Chalkduster,Chalkduster" font-size="66.6" fill="#FEFFFE" transform="matrix(1.00, 0.00, -0.00, -1.00, 754.2, 259.6)">a</text><text xml:space="preserve" font-family="Chalkduster,Chalkduster" font-size="66.6" fill="#FEFFFE" transform="matrix(1.00, 0.00, -0.00, -1.00, 800.9, 259.6)">s</text><text xml:space="preserve" font-family="Chalkduster,Chalkduster" font-size="66.6" fill="#FEFFFE" transform="matrix(1.00, 0.00, -0.00, -1.00, 834.5, 259.6)">í</text><text xml:space="preserve" font-family="Chalkduster,Chalkduster" font-size="66.6" fill="#FEFFFE" transform="matrix(1.00, 0.00, -0.00, -1.00, 856.7, 259.6)">n</text><text xml:space="preserve" font-family="Chalkduster,Chalkduster" font-size="66.6" fill="#FEFFFE" transform="matrix(1.00, 0.00, -0.00, -1.00, 905.5, 259.6)">c</text><text xml:space="preserve" font-family="Chalkduster,Chalkduster" font-size="66.6" fill="#FEFFFE" transform="matrix(1.00, 0.00, -0.00, -1.00, 946.0, 259.6)">r</text><text xml:space="preserve" font-family="Chalkduster,Chalkduster" font-size="66.6" fill="#FEFFFE" transform="matrix(1.00, 0.00, -0.00, -1.00, 980.2, 259.6)">o</text><text xml:space="preserve" font-family="Chalkduster,Chalkduster" font-size="66.6" fill="#FEFFFE" transform="matrix(1.00, 0.00, -0.00, -1.00, 1029.7, 259.6)">n</text><text xml:space="preserve" font-family="Chalkduster,Chalkduster" font-size="66.6" fill="#FEFFFE" transform="matrix(1.00, 0.00, -0.00, -1.00, 1077.1, 259.6)">o</text><text xml:space="preserve" font-family="Chalkduster,Chalkduster" font-size="66.6" fill="#FEFFFE" transform="matrix(1.00, 0.00, -0.00, -1.00, 1119.7, 259.6)">,</text><text xml:space="preserve" font-family="Chalkduster,Chalkduster" font-size="66.6" fill="#FEFFFE" transform="matrix(1.00, 0.00, -0.00, -1.00, 1140.3, 259.6)"> </text><text xml:space="preserve" font-family="Chalkduster,Chalkduster" font-size="66.6" fill="#FEFFFE" transform="matrix(1.00, 0.00, -0.00, -1.00, 1173.5, 259.6)">c</text><text xml:space="preserve" font-family="Chalkduster,Chalkduster" font-size="66.6" fill="#FEFFFE" transform="matrix(1.00, 0.00, -0.00, -1.00, 1213.2, 259.6)">o</text><text xml:space="preserve" font-family="Chalkduster,Chalkduster" font-size="66.6" fill="#FEFFFE" transform="matrix(1.00, 0.00, -0.00, -1.00, 1263.2, 259.6)">m</text><text xml:space="preserve" font-family="Chalkduster,Chalkduster" font-size="66.6" fill="#FEFFFE" transform="matrix(1.00, 0.00, -0.00, -1.00, 1330.6, 259.6)">p</text><text xml:space="preserve" font-family="Chalkduster,Chalkduster" font-size="66.6" fill="#FEFFFE" transform="matrix(1.00, 0.00, -0.00, -1.00, 1372.5, 259.6)">o</text><text xml:space="preserve" font-family="Chalkduster,Chalkduster" font-size="66.6" fill="#FEFFFE" transform="matrix(1.00, 0.00, -0.00, -1.00, 1422.0, 259.6)">n</text><text xml:space="preserve" font-family="Chalkduster,Chalkduster" font-size="66.6" fill="#FEFFFE" transform="matrix(1.00, 0.00, -0.00, -1.00, 1471.9, 259.6)">e</text><text xml:space="preserve" font-family="Chalkduster,Chalkduster" font-size="66.6" fill="#FEFFFE" transform="matrix(1.00, 0.00, -0.00, -1.00, 1513.9, 259.6)">n</text><text xml:space="preserve" font-family="Chalkduster,Chalkduster" font-size="66.6" fill="#FEFFFE" transform="matrix(1.00, 0.00, -0.00, -1.00, 1560.3, 259.6)">t</text><text xml:space="preserve" font-family="Chalkduster,Chalkduster" font-size="66.6" fill="#FEFFFE" transform="matrix(1.00, 0.00, -0.00, -1.00, 1590.0, 259.6)">e</text><text xml:space="preserve" font-family="Chalkduster,Chalkduster" font-size="66.6" fill="#FEFFFE" transform="matrix(1.00, 0.00, -0.00, -1.00, 1632.8, 259.6)">s</text><text xml:space="preserve" font-family="Chalkduster,Chalkduster" font-size="66.6" fill="#FEFFFE" transform="matrix(1.00, 0.00, -0.00, -1.00, 1666.5, 259.6)"> </text><text xml:space="preserve" font-family="Chalkduster,Chalkduster" font-size="66.6" fill="#FEFFFE" transform="matrix(1.00, 0.00, -0.00, -1.00, 128.1, 174.6)">d</text><text xml:space="preserve" font-family="Chalkduster,Chalkduster" font-size="66.6" fill="#FEFFFE" transform="matrix(1.00, 0.00, -0.00, -1.00, 180.1, 174.6)">e</text><text xml:space="preserve" font-family="Chalkduster,Chalkduster" font-size="66.6" fill="#FEFFFE" transform="matrix(1.00, 0.00, -0.00, -1.00, 223.0, 174.6)">s</text><text xml:space="preserve" font-family="Chalkduster,Chalkduster" font-size="66.6" fill="#FEFFFE" transform="matrix(1.00, 0.00, -0.00, -1.00, 256.6, 174.6)">a</text><text xml:space="preserve" font-family="Chalkduster,Chalkduster" font-size="66.6" fill="#FEFFFE" transform="matrix(1.00, 0.00, -0.00, -1.00, 300.4, 174.6)">c</text><text xml:space="preserve" font-family="Chalkduster,Chalkduster" font-size="66.6" fill="#FEFFFE" transform="matrix(1.00, 0.00, -0.00, -1.00, 340.2, 174.6)">o</text><text xml:space="preserve" font-family="Chalkduster,Chalkduster" font-size="66.6" fill="#FEFFFE" transform="matrix(1.00, 0.00, -0.00, -1.00, 388.7, 174.6)">p</text><text xml:space="preserve" font-family="Chalkduster,Chalkduster" font-size="66.6" fill="#FEFFFE" transform="matrix(1.00, 0.00, -0.00, -1.00, 429.8, 174.6)">l</text><text xml:space="preserve" font-family="Chalkduster,Chalkduster" font-size="66.6" fill="#FEFFFE" transform="matrix(1.00, 0.00, -0.00, -1.00, 459.7, 174.6)">a</text><text xml:space="preserve" font-family="Chalkduster,Chalkduster" font-size="66.6" fill="#FEFFFE" transform="matrix(1.00, 0.00, -0.00, -1.00, 503.5, 174.6)">d</text><text xml:space="preserve" font-family="Chalkduster,Chalkduster" font-size="66.6" fill="#FEFFFE" transform="matrix(1.00, 0.00, -0.00, -1.00, 555.5, 174.6)">o</text><text xml:space="preserve" font-family="Chalkduster,Chalkduster" font-size="66.6" fill="#FEFFFE" transform="matrix(1.00, 0.00, -0.00, -1.00, 604.0, 174.6)">s</text><text xml:space="preserve" font-family="Chalkduster,Chalkduster" font-size="66.6" fill="#FEFFFE" transform="matrix(1.00, 0.00, -0.00, -1.00, 637.6, 174.6)"> </text><text xml:space="preserve" font-family="Chalkduster,Chalkduster" font-size="66.6" fill="#FEFFFE" transform="matrix(1.00, 0.00, -0.00, -1.00, 670.8, 174.6)">q</text><text xml:space="preserve" font-family="Chalkduster,Chalkduster" font-size="66.6" fill="#FEFFFE" transform="matrix(1.00, 0.00, -0.00, -1.00, 713.8, 174.6)">u</text><text xml:space="preserve" font-family="Chalkduster,Chalkduster" font-size="66.6" fill="#FEFFFE" transform="matrix(1.00, 0.00, -0.00, -1.00, 759.6, 174.6)">e</text><text xml:space="preserve" font-family="Chalkduster,Chalkduster" font-size="66.6" fill="#FEFFFE" transform="matrix(1.00, 0.00, -0.00, -1.00, 800.8, 174.6)"> </text><text xml:space="preserve" font-family="Chalkduster,Chalkduster" font-size="66.6" fill="#FEFFFE" transform="matrix(1.00, 0.00, -0.00, -1.00, 834.0, 174.6)">s</text><text xml:space="preserve" font-family="Chalkduster,Chalkduster" font-size="66.6" fill="#FEFFFE" transform="matrix(1.00, 0.00, -0.00, -1.00, 867.6, 174.6)">e</text><text xml:space="preserve" font-family="Chalkduster,Chalkduster" font-size="66.6" fill="#FEFFFE" transform="matrix(1.00, 0.00, -0.00, -1.00, 908.9, 174.6)"> </text><text xml:space="preserve" font-family="Chalkduster,Chalkduster" font-size="66.6" fill="#FEFFFE" transform="matrix(1.00, 0.00, -0.00, -1.00, 942.0, 174.6)">p</text><text xml:space="preserve" font-family="Chalkduster,Chalkduster" font-size="66.6" fill="#FEFFFE" transform="matrix(1.00, 0.00, -0.00, -1.00, 983.1, 174.6)">a</text><text xml:space="preserve" font-family="Chalkduster,Chalkduster" font-size="66.6" fill="#FEFFFE" transform="matrix(1.00, 0.00, -0.00, -1.00, 1029.8, 174.6)">s</text><text xml:space="preserve" font-family="Chalkduster,Chalkduster" font-size="66.6" fill="#FEFFFE" transform="matrix(1.00, 0.00, -0.00, -1.00, 1063.5, 174.6)">a</text><text xml:space="preserve" font-family="Chalkduster,Chalkduster" font-size="66.6" fill="#FEFFFE" transform="matrix(1.00, 0.00, -0.00, -1.00, 1109.3, 174.6)">n</text><text xml:space="preserve" font-family="Chalkduster,Chalkduster" font-size="66.6" fill="#FEFFFE" transform="matrix(1.00, 0.00, -0.00, -1.00, 1158.2, 174.6)"> </text><text xml:space="preserve" font-family="Chalkduster,Chalkduster" font-size="66.6" fill="#FEFFFE" transform="matrix(1.00, 0.00, -0.00, -1.00, 1191.3, 174.6)">m</text><text xml:space="preserve" font-family="Chalkduster,Chalkduster" font-size="66.6" fill="#FEFFFE" transform="matrix(1.00, 0.00, -0.00, -1.00, 1260.4, 174.6)">e</text><text xml:space="preserve" font-family="Chalkduster,Chalkduster" font-size="66.6" fill="#FEFFFE" transform="matrix(1.00, 0.00, -0.00, -1.00, 1302.4, 174.6)">n</text><text xml:space="preserve" font-family="Chalkduster,Chalkduster" font-size="66.6" fill="#FEFFFE" transform="matrix(1.00, 0.00, -0.00, -1.00, 1351.2, 174.6)">s</text><text xml:space="preserve" font-family="Chalkduster,Chalkduster" font-size="66.6" fill="#FEFFFE" transform="matrix(1.00, 0.00, -0.00, -1.00, 1384.8, 174.6)">a</text><text xml:space="preserve" font-family="Chalkduster,Chalkduster" font-size="66.6" fill="#FEFFFE" transform="matrix(1.00, 0.00, -0.00, -1.00, 1427.6, 174.6)">j</text><text xml:space="preserve" font-family="Chalkduster,Chalkduster" font-size="66.6" fill="#FEFFFE" transform="matrix(1.00, 0.00, -0.00, -1.00, 1460.1, 174.6)">e</text><text xml:space="preserve" font-family="Chalkduster,Chalkduster" font-size="66.6" fill="#FEFFFE" transform="matrix(1.00, 0.00, -0.00, -1.00, 1503.0, 174.6)">s</text></g></svg>