<?xml version="1.0" encoding="UTF-8" standalone="no"?><svg xmlns="http://www.w3.org/2000/svg" xmlns:xlink="http://www.w3.org/1999/xlink" clip-rule="evenodd" stroke-miterlimit="10" viewBox="0 0 1920 1080"><desc>SVG generated by Keynote</desc><defs></defs><g transform="matrix(1.00, 0.00, -0.00, -1.00, 0.0, 1080.0)"><g><clipPath id="clip0x7f9a41b0b160"><path d="M 0.0 1080.0 L 1920.0 1080.0 L 1920.0 0.0 L 0.0 0.0 Z M 0.0 1080.0 "></path></clipPath><g clip-path="url(#clip0x7f9a41b0b160)"><image xlink:href="../../2454F38C-308E-4D93-86A7-ACF877EF01F7/assets/D54D7AAA5FD1EC733BC359F041C689F1.jpeg" width="2048.00" height="1536.00" transform="matrix(0.94, 0.00, -0.00, -0.70, 0.0, 1080.0)"></image></g></g><text xml:space="preserve" font-family="Chalkduster,Chalkduster" font-size="100.0" fill="#71AFE1" transform="matrix(1.00, 0.00, -0.00, -1.00, 655.1, 922.5)">E</text><text xml:space="preserve" font-family="Chalkduster,Chalkduster" font-size="100.0" fill="#71AFE1" transform="matrix(1.00, 0.00, -0.00, -1.00, 729.0, 922.5)">v</text><text xml:space="preserve" font-family="Chalkduster,Chalkduster" font-size="100.0" fill="#71AFE1" transform="matrix(1.00, 0.00, -0.00, -1.00, 791.4, 922.5)">o</text><text xml:space="preserve" font-family="Chalkduster,Chalkduster" font-size="100.0" fill="#71AFE1" transform="matrix(1.00, 0.00, -0.00, -1.00, 867.4, 922.5)">l</text><text xml:space="preserve" font-family="Chalkduster,Chalkduster" font-size="100.0" fill="#71AFE1" transform="matrix(1.00, 0.00, -0.00, -1.00, 913.3, 922.5)">u</text><text xml:space="preserve" font-family="Chalkduster,Chalkduster" font-size="100.0" fill="#71AFE1" transform="matrix(1.00, 0.00, -0.00, -1.00, 981.0, 922.5)">t</text><text xml:space="preserve" font-family="Chalkduster,Chalkduster" font-size="100.0" fill="#71AFE1" transform="matrix(1.00, 0.00, -0.00, -1.00, 1027.3, 922.5)">i</text><text xml:space="preserve" font-family="Chalkduster,Chalkduster" font-size="100.0" fill="#71AFE1" transform="matrix(1.00, 0.00, -0.00, -1.00, 1066.8, 922.5)">o</text><text xml:space="preserve" font-family="Chalkduster,Chalkduster" font-size="100.0" fill="#71AFE1" transform="matrix(1.00, 0.00, -0.00, -1.00, 1141.1, 922.5)">n</text><text xml:space="preserve" font-family="Chalkduster,Chalkduster" font-size="100.0" fill="#71AFE1" transform="matrix(1.00, 0.00, -0.00, -1.00, 1214.4, 922.5)">s</text><text xml:space="preserve" font-family="CourierNewPS-BoldMT,Courier New" font-weight="bold" font-size="43.0" fill="#FEFFFE" transform="matrix(1.00, 0.00, -0.00, -1.00, 211.2, 815.9)">#</text><text xml:space="preserve" font-family="CourierNewPS-BoldMT,Courier New" font-weight="bold" font-size="43.0" fill="#FEFFFE" transform="matrix(1.00, 0.00, -0.00, -1.00, 237.0, 815.9)"> </text><text xml:space="preserve" font-family="CourierNewPS-BoldMT,Courier New" font-weight="bold" font-size="43.0" fill="#FEFFFE" transform="matrix(1.00, 0.00, -0.00, -1.00, 262.8, 815.9)">1</text><text xml:space="preserve" font-family="CourierNewPS-BoldMT,Courier New" font-weight="bold" font-size="43.0" fill="#FEFFFE" transform="matrix(1.00, 0.00, -0.00, -1.00, 288.6, 815.9)">.</text><text xml:space="preserve" font-family="CourierNewPS-BoldMT,Courier New" font-weight="bold" font-size="43.0" fill="#FEFFFE" transform="matrix(1.00, 0.00, -0.00, -1.00, 314.4, 815.9)">s</text><text xml:space="preserve" font-family="CourierNewPS-BoldMT,Courier New" font-weight="bold" font-size="43.0" fill="#FEFFFE" transform="matrix(1.00, 0.00, -0.00, -1.00, 340.2, 815.9)">q</text><text xml:space="preserve" font-family="CourierNewPS-BoldMT,Courier New" font-weight="bold" font-size="43.0" fill="#FEFFFE" transform="matrix(1.00, 0.00, -0.00, -1.00, 366.0, 815.9)">l</text><text xml:space="preserve" font-family="CourierNewPS-BoldMT,Courier New" font-weight="bold" font-size="43.0" fill="#FEFFFE" transform="matrix(1.00, 0.00, -0.00, -1.00, 391.8, 815.9)"> </text><text xml:space="preserve" font-family="CourierNewPSMT,Courier New" font-size="43.0" fill="#FEFFFE" transform="matrix(1.00, 0.00, -0.00, -1.00, 211.2, 766.9)"> </text><text xml:space="preserve" font-family="CourierNewPSMT,Courier New" font-size="43.0" fill="#FEFFFE" transform="matrix(1.00, 0.00, -0.00, -1.00, 237.0, 766.9)"> </text><text xml:space="preserve" font-family="CourierNewPS-BoldMT,Courier New" font-weight="bold" font-size="43.0" fill="#FEFFFE" transform="matrix(1.00, 0.00, -0.00, -1.00, 211.2, 717.9)">#</text><text xml:space="preserve" font-family="CourierNewPS-BoldMT,Courier New" font-weight="bold" font-size="43.0" fill="#FEFFFE" transform="matrix(1.00, 0.00, -0.00, -1.00, 237.0, 717.9)"> </text><text xml:space="preserve" font-family="CourierNewPS-BoldMT,Courier New" font-weight="bold" font-size="43.0" fill="#FEFFFE" transform="matrix(1.00, 0.00, -0.00, -1.00, 262.8, 717.9)">-</text><text xml:space="preserve" font-family="CourierNewPS-BoldMT,Courier New" font-weight="bold" font-size="43.0" fill="#FEFFFE" transform="matrix(1.00, 0.00, -0.00, -1.00, 288.6, 717.9)">-</text><text xml:space="preserve" font-family="CourierNewPS-BoldMT,Courier New" font-weight="bold" font-size="43.0" fill="#FEFFFE" transform="matrix(1.00, 0.00, -0.00, -1.00, 314.4, 717.9)">-</text><text xml:space="preserve" font-family="CourierNewPS-BoldMT,Courier New" font-weight="bold" font-size="43.0" fill="#FEFFFE" transform="matrix(1.00, 0.00, -0.00, -1.00, 340.2, 717.9)"> </text><text xml:space="preserve" font-family="CourierNewPS-BoldMT,Courier New" font-weight="bold" font-size="43.0" fill="#FEFFFE" transform="matrix(1.00, 0.00, -0.00, -1.00, 366.0, 717.9)">!</text><text xml:space="preserve" font-family="CourierNewPS-BoldMT,Courier New" font-weight="bold" font-size="43.0" fill="#FEFFFE" transform="matrix(1.00, 0.00, -0.00, -1.00, 391.8, 717.9)">U</text><text xml:space="preserve" font-family="CourierNewPS-BoldMT,Courier New" font-weight="bold" font-size="43.0" fill="#FEFFFE" transform="matrix(1.00, 0.00, -0.00, -1.00, 417.6, 717.9)">p</text><text xml:space="preserve" font-family="CourierNewPS-BoldMT,Courier New" font-weight="bold" font-size="43.0" fill="#FEFFFE" transform="matrix(1.00, 0.00, -0.00, -1.00, 443.5, 717.9)">s</text><text xml:space="preserve" font-family="CourierNewPS-BoldMT,Courier New" font-weight="bold" font-size="43.0" fill="#FEFFFE" transform="matrix(1.00, 0.00, -0.00, -1.00, 469.3, 717.9)"> </text><text xml:space="preserve" font-family="CourierNewPSMT,Courier New" font-size="43.0" fill="#FEFFFE" transform="matrix(1.00, 0.00, -0.00, -1.00, 211.2, 668.9)"> </text><text xml:space="preserve" font-family="CourierNewPSMT,Courier New" font-size="43.0" fill="#FEFFFE" transform="matrix(1.00, 0.00, -0.00, -1.00, 237.0, 668.9)"> </text><text xml:space="preserve" font-family="CourierNewPSMT,Courier New" font-size="43.0" fill="#FEFFFE" transform="matrix(1.00, 0.00, -0.00, -1.00, 211.2, 619.9)">C</text><text xml:space="preserve" font-family="CourierNewPSMT,Courier New" font-size="43.0" fill="#FEFFFE" transform="matrix(1.00, 0.00, -0.00, -1.00, 237.0, 619.9)">R</text><text xml:space="preserve" font-family="CourierNewPSMT,Courier New" font-size="43.0" fill="#FEFFFE" transform="matrix(1.00, 0.00, -0.00, -1.00, 262.8, 619.9)">E</text><text xml:space="preserve" font-family="CourierNewPSMT,Courier New" font-size="43.0" fill="#FEFFFE" transform="matrix(1.00, 0.00, -0.00, -1.00, 288.6, 619.9)">A</text><text xml:space="preserve" font-family="CourierNewPSMT,Courier New" font-size="43.0" fill="#FEFFFE" transform="matrix(1.00, 0.00, -0.00, -1.00, 314.4, 619.9)">T</text><text xml:space="preserve" font-family="CourierNewPSMT,Courier New" font-size="43.0" fill="#FEFFFE" transform="matrix(1.00, 0.00, -0.00, -1.00, 340.2, 619.9)">E</text><text xml:space="preserve" font-family="CourierNewPSMT,Courier New" font-size="43.0" fill="#FEFFFE" transform="matrix(1.00, 0.00, -0.00, -1.00, 366.0, 619.9)"> </text><text xml:space="preserve" font-family="CourierNewPSMT,Courier New" font-size="43.0" fill="#FEFFFE" transform="matrix(1.00, 0.00, -0.00, -1.00, 391.8, 619.9)">T</text><text xml:space="preserve" font-family="CourierNewPSMT,Courier New" font-size="43.0" fill="#FEFFFE" transform="matrix(1.00, 0.00, -0.00, -1.00, 417.6, 619.9)">A</text><text xml:space="preserve" font-family="CourierNewPSMT,Courier New" font-size="43.0" fill="#FEFFFE" transform="matrix(1.00, 0.00, -0.00, -1.00, 443.5, 619.9)">B</text><text xml:space="preserve" font-family="CourierNewPSMT,Courier New" font-size="43.0" fill="#FEFFFE" transform="matrix(1.00, 0.00, -0.00, -1.00, 469.3, 619.9)">L</text><text xml:space="preserve" font-family="CourierNewPSMT,Courier New" font-size="43.0" fill="#FEFFFE" transform="matrix(1.00, 0.00, -0.00, -1.00, 495.1, 619.9)">E</text><text xml:space="preserve" font-family="CourierNewPSMT,Courier New" font-size="43.0" fill="#FEFFFE" transform="matrix(1.00, 0.00, -0.00, -1.00, 520.9, 619.9)"> </text><text xml:space="preserve" font-family="CourierNewPSMT,Courier New" font-size="43.0" fill="#FEFFFE" transform="matrix(1.00, 0.00, -0.00, -1.00, 546.7, 619.9)">U</text><text xml:space="preserve" font-family="CourierNewPSMT,Courier New" font-size="43.0" fill="#FEFFFE" transform="matrix(1.00, 0.00, -0.00, -1.00, 572.5, 619.9)">s</text><text xml:space="preserve" font-family="CourierNewPSMT,Courier New" font-size="43.0" fill="#FEFFFE" transform="matrix(1.00, 0.00, -0.00, -1.00, 598.3, 619.9)">e</text><text xml:space="preserve" font-family="CourierNewPSMT,Courier New" font-size="43.0" fill="#FEFFFE" transform="matrix(1.00, 0.00, -0.00, -1.00, 624.1, 619.9)">r</text><text xml:space="preserve" font-family="CourierNewPSMT,Courier New" font-size="43.0" fill="#FEFFFE" transform="matrix(1.00, 0.00, -0.00, -1.00, 649.9, 619.9)"> </text><text xml:space="preserve" font-family="CourierNewPSMT,Courier New" font-size="43.0" fill="#FEFFFE" transform="matrix(1.00, 0.00, -0.00, -1.00, 675.7, 619.9)">(</text><text xml:space="preserve" font-family="CourierNewPSMT,Courier New" font-size="43.0" fill="#FEFFFE" transform="matrix(1.00, 0.00, -0.00, -1.00, 701.5, 619.9)"> </text><text xml:space="preserve" font-family="CourierNewPSMT,Courier New" font-size="43.0" fill="#FEFFFE" transform="matrix(1.00, 0.00, -0.00, -1.00, 211.2, 570.9)"> </text><text xml:space="preserve" font-family="CourierNewPSMT,Courier New" font-size="43.0" fill="#FEFFFE" transform="matrix(1.00, 0.00, -0.00, -1.00, 237.0, 570.9)"> </text><text xml:space="preserve" font-family="CourierNewPSMT,Courier New" font-size="43.0" fill="#FEFFFE" transform="matrix(1.00, 0.00, -0.00, -1.00, 262.8, 570.9)"> </text><text xml:space="preserve" font-family="CourierNewPSMT,Courier New" font-size="43.0" fill="#FEFFFE" transform="matrix(1.00, 0.00, -0.00, -1.00, 288.6, 570.9)"> </text><text xml:space="preserve" font-family="CourierNewPSMT,Courier New" font-size="43.0" fill="#FEFFFE" transform="matrix(1.00, 0.00, -0.00, -1.00, 314.4, 570.9)">i</text><text xml:space="preserve" font-family="CourierNewPSMT,Courier New" font-size="43.0" fill="#FEFFFE" transform="matrix(1.00, 0.00, -0.00, -1.00, 340.2, 570.9)">d</text><text xml:space="preserve" font-family="CourierNewPSMT,Courier New" font-size="43.0" fill="#FEFFFE" transform="matrix(1.00, 0.00, -0.00, -1.00, 366.0, 570.9)"> </text><text xml:space="preserve" font-family="CourierNewPSMT,Courier New" font-size="43.0" fill="#FEFFFE" transform="matrix(1.00, 0.00, -0.00, -1.00, 391.8, 570.9)">b</text><text xml:space="preserve" font-family="CourierNewPSMT,Courier New" font-size="43.0" fill="#FEFFFE" transform="matrix(1.00, 0.00, -0.00, -1.00, 417.6, 570.9)">i</text><text xml:space="preserve" font-family="CourierNewPSMT,Courier New" font-size="43.0" fill="#FEFFFE" transform="matrix(1.00, 0.00, -0.00, -1.00, 443.5, 570.9)">g</text><text xml:space="preserve" font-family="CourierNewPSMT,Courier New" font-size="43.0" fill="#FEFFFE" transform="matrix(1.00, 0.00, -0.00, -1.00, 469.3, 570.9)">i</text><text xml:space="preserve" font-family="CourierNewPSMT,Courier New" font-size="43.0" fill="#FEFFFE" transform="matrix(1.00, 0.00, -0.00, -1.00, 495.1, 570.9)">n</text><text xml:space="preserve" font-family="CourierNewPSMT,Courier New" font-size="43.0" fill="#FEFFFE" transform="matrix(1.00, 0.00, -0.00, -1.00, 520.9, 570.9)">t</text><text xml:space="preserve" font-family="CourierNewPSMT,Courier New" font-size="43.0" fill="#FEFFFE" transform="matrix(1.00, 0.00, -0.00, -1.00, 546.7, 570.9)">(</text><text xml:space="preserve" font-family="CourierNewPSMT,Courier New" font-size="43.0" fill="#FEFFFE" transform="matrix(1.00, 0.00, -0.00, -1.00, 572.5, 570.9)">2</text><text xml:space="preserve" font-family="CourierNewPSMT,Courier New" font-size="43.0" fill="#FEFFFE" transform="matrix(1.00, 0.00, -0.00, -1.00, 598.3, 570.9)">0</text><text xml:space="preserve" font-family="CourierNewPSMT,Courier New" font-size="43.0" fill="#FEFFFE" transform="matrix(1.00, 0.00, -0.00, -1.00, 624.1, 570.9)">)</text><text xml:space="preserve" font-family="CourierNewPSMT,Courier New" font-size="43.0" fill="#FEFFFE" transform="matrix(1.00, 0.00, -0.00, -1.00, 649.9, 570.9)"> </text><text xml:space="preserve" font-family="CourierNewPSMT,Courier New" font-size="43.0" fill="#FEFFFE" transform="matrix(1.00, 0.00, -0.00, -1.00, 675.7, 570.9)">N</text><text xml:space="preserve" font-family="CourierNewPSMT,Courier New" font-size="43.0" fill="#FEFFFE" transform="matrix(1.00, 0.00, -0.00, -1.00, 701.5, 570.9)">O</text><text xml:space="preserve" font-family="CourierNewPSMT,Courier New" font-size="43.0" fill="#FEFFFE" transform="matrix(1.00, 0.00, -0.00, -1.00, 727.3, 570.9)">T</text><text xml:space="preserve" font-family="CourierNewPSMT,Courier New" font-size="43.0" fill="#FEFFFE" transform="matrix(1.00, 0.00, -0.00, -1.00, 753.2, 570.9)"> </text><text xml:space="preserve" font-family="CourierNewPSMT,Courier New" font-size="43.0" fill="#FEFFFE" transform="matrix(1.00, 0.00, -0.00, -1.00, 779.0, 570.9)">N</text><text xml:space="preserve" font-family="CourierNewPSMT,Courier New" font-size="43.0" fill="#FEFFFE" transform="matrix(1.00, 0.00, -0.00, -1.00, 804.8, 570.9)">U</text><text xml:space="preserve" font-family="CourierNewPSMT,Courier New" font-size="43.0" fill="#FEFFFE" transform="matrix(1.00, 0.00, -0.00, -1.00, 830.6, 570.9)">L</text><text xml:space="preserve" font-family="CourierNewPSMT,Courier New" font-size="43.0" fill="#FEFFFE" transform="matrix(1.00, 0.00, -0.00, -1.00, 856.4, 570.9)">L</text><text xml:space="preserve" font-family="CourierNewPSMT,Courier New" font-size="43.0" fill="#FEFFFE" transform="matrix(1.00, 0.00, -0.00, -1.00, 882.2, 570.9)"> </text><text xml:space="preserve" font-family="CourierNewPSMT,Courier New" font-size="43.0" fill="#FEFFFE" transform="matrix(1.00, 0.00, -0.00, -1.00, 908.0, 570.9)">A</text><text xml:space="preserve" font-family="CourierNewPSMT,Courier New" font-size="43.0" fill="#FEFFFE" transform="matrix(1.00, 0.00, -0.00, -1.00, 933.8, 570.9)">U</text><text xml:space="preserve" font-family="CourierNewPSMT,Courier New" font-size="43.0" fill="#FEFFFE" transform="matrix(1.00, 0.00, -0.00, -1.00, 959.6, 570.9)">T</text><text xml:space="preserve" font-family="CourierNewPSMT,Courier New" font-size="43.0" fill="#FEFFFE" transform="matrix(1.00, 0.00, -0.00, -1.00, 985.4, 570.9)">O</text><text xml:space="preserve" font-family="CourierNewPSMT,Courier New" font-size="43.0" fill="#FEFFFE" transform="matrix(1.00, 0.00, -0.00, -1.00, 1011.2, 570.9)">_</text><text xml:space="preserve" font-family="CourierNewPSMT,Courier New" font-size="43.0" fill="#FEFFFE" transform="matrix(1.00, 0.00, -0.00, -1.00, 1037.1, 570.9)">I</text><text xml:space="preserve" font-family="CourierNewPSMT,Courier New" font-size="43.0" fill="#FEFFFE" transform="matrix(1.00, 0.00, -0.00, -1.00, 1062.9, 570.9)">N</text><text xml:space="preserve" font-family="CourierNewPSMT,Courier New" font-size="43.0" fill="#FEFFFE" transform="matrix(1.00, 0.00, -0.00, -1.00, 1088.7, 570.9)">C</text><text xml:space="preserve" font-family="CourierNewPSMT,Courier New" font-size="43.0" fill="#FEFFFE" transform="matrix(1.00, 0.00, -0.00, -1.00, 1114.5, 570.9)">R</text><text xml:space="preserve" font-family="CourierNewPSMT,Courier New" font-size="43.0" fill="#FEFFFE" transform="matrix(1.00, 0.00, -0.00, -1.00, 1140.3, 570.9)">E</text><text xml:space="preserve" font-family="CourierNewPSMT,Courier New" font-size="43.0" fill="#FEFFFE" transform="matrix(1.00, 0.00, -0.00, -1.00, 1166.1, 570.9)">M</text><text xml:space="preserve" font-family="CourierNewPSMT,Courier New" font-size="43.0" fill="#FEFFFE" transform="matrix(1.00, 0.00, -0.00, -1.00, 1191.9, 570.9)">E</text><text xml:space="preserve" font-family="CourierNewPSMT,Courier New" font-size="43.0" fill="#FEFFFE" transform="matrix(1.00, 0.00, -0.00, -1.00, 1217.7, 570.9)">N</text><text xml:space="preserve" font-family="CourierNewPSMT,Courier New" font-size="43.0" fill="#FEFFFE" transform="matrix(1.00, 0.00, -0.00, -1.00, 1243.5, 570.9)">T</text><text xml:space="preserve" font-family="CourierNewPSMT,Courier New" font-size="43.0" fill="#FEFFFE" transform="matrix(1.00, 0.00, -0.00, -1.00, 1269.3, 570.9)">,</text><text xml:space="preserve" font-family="CourierNewPSMT,Courier New" font-size="43.0" fill="#FEFFFE" transform="matrix(1.00, 0.00, -0.00, -1.00, 1295.1, 570.9)"> </text><text xml:space="preserve" font-family="CourierNewPSMT,Courier New" font-size="43.0" fill="#FEFFFE" transform="matrix(1.00, 0.00, -0.00, -1.00, 211.2, 521.9)"> </text><text xml:space="preserve" font-family="CourierNewPSMT,Courier New" font-size="43.0" fill="#FEFFFE" transform="matrix(1.00, 0.00, -0.00, -1.00, 237.0, 521.9)"> </text><text xml:space="preserve" font-family="CourierNewPSMT,Courier New" font-size="43.0" fill="#FEFFFE" transform="matrix(1.00, 0.00, -0.00, -1.00, 262.8, 521.9)"> </text><text xml:space="preserve" font-family="CourierNewPSMT,Courier New" font-size="43.0" fill="#FEFFFE" transform="matrix(1.00, 0.00, -0.00, -1.00, 288.6, 521.9)"> </text><text xml:space="preserve" font-family="CourierNewPSMT,Courier New" font-size="43.0" fill="#FEFFFE" transform="matrix(1.00, 0.00, -0.00, -1.00, 314.4, 521.9)">e</text><text xml:space="preserve" font-family="CourierNewPSMT,Courier New" font-size="43.0" fill="#FEFFFE" transform="matrix(1.00, 0.00, -0.00, -1.00, 340.2, 521.9)">m</text><text xml:space="preserve" font-family="CourierNewPSMT,Courier New" font-size="43.0" fill="#FEFFFE" transform="matrix(1.00, 0.00, -0.00, -1.00, 366.0, 521.9)">a</text><text xml:space="preserve" font-family="CourierNewPSMT,Courier New" font-size="43.0" fill="#FEFFFE" transform="matrix(1.00, 0.00, -0.00, -1.00, 391.8, 521.9)">i</text><text xml:space="preserve" font-family="CourierNewPSMT,Courier New" font-size="43.0" fill="#FEFFFE" transform="matrix(1.00, 0.00, -0.00, -1.00, 417.6, 521.9)">l</text><text xml:space="preserve" font-family="CourierNewPSMT,Courier New" font-size="43.0" fill="#FEFFFE" transform="matrix(1.00, 0.00, -0.00, -1.00, 443.5, 521.9)"> </text><text xml:space="preserve" font-family="CourierNewPSMT,Courier New" font-size="43.0" fill="#FEFFFE" transform="matrix(1.00, 0.00, -0.00, -1.00, 469.3, 521.9)">v</text><text xml:space="preserve" font-family="CourierNewPSMT,Courier New" font-size="43.0" fill="#FEFFFE" transform="matrix(1.00, 0.00, -0.00, -1.00, 495.1, 521.9)">a</text><text xml:space="preserve" font-family="CourierNewPSMT,Courier New" font-size="43.0" fill="#FEFFFE" transform="matrix(1.00, 0.00, -0.00, -1.00, 520.9, 521.9)">r</text><text xml:space="preserve" font-family="CourierNewPSMT,Courier New" font-size="43.0" fill="#FEFFFE" transform="matrix(1.00, 0.00, -0.00, -1.00, 546.7, 521.9)">c</text><text xml:space="preserve" font-family="CourierNewPSMT,Courier New" font-size="43.0" fill="#FEFFFE" transform="matrix(1.00, 0.00, -0.00, -1.00, 572.5, 521.9)">h</text><text xml:space="preserve" font-family="CourierNewPSMT,Courier New" font-size="43.0" fill="#FEFFFE" transform="matrix(1.00, 0.00, -0.00, -1.00, 598.3, 521.9)">a</text><text xml:space="preserve" font-family="CourierNewPSMT,Courier New" font-size="43.0" fill="#FEFFFE" transform="matrix(1.00, 0.00, -0.00, -1.00, 624.1, 521.9)">r</text><text xml:space="preserve" font-family="CourierNewPSMT,Courier New" font-size="43.0" fill="#FEFFFE" transform="matrix(1.00, 0.00, -0.00, -1.00, 649.9, 521.9)">(</text><text xml:space="preserve" font-family="CourierNewPSMT,Courier New" font-size="43.0" fill="#FEFFFE" transform="matrix(1.00, 0.00, -0.00, -1.00, 675.7, 521.9)">2</text><text xml:space="preserve" font-family="CourierNewPSMT,Courier New" font-size="43.0" fill="#FEFFFE" transform="matrix(1.00, 0.00, -0.00, -1.00, 701.5, 521.9)">5</text><text xml:space="preserve" font-family="CourierNewPSMT,Courier New" font-size="43.0" fill="#FEFFFE" transform="matrix(1.00, 0.00, -0.00, -1.00, 727.3, 521.9)">5</text><text xml:space="preserve" font-family="CourierNewPSMT,Courier New" font-size="43.0" fill="#FEFFFE" transform="matrix(1.00, 0.00, -0.00, -1.00, 753.2, 521.9)">)</text><text xml:space="preserve" font-family="CourierNewPSMT,Courier New" font-size="43.0" fill="#FEFFFE" transform="matrix(1.00, 0.00, -0.00, -1.00, 779.0, 521.9)"> </text><text xml:space="preserve" font-family="CourierNewPSMT,Courier New" font-size="43.0" fill="#FEFFFE" transform="matrix(1.00, 0.00, -0.00, -1.00, 804.8, 521.9)">N</text><text xml:space="preserve" font-family="CourierNewPSMT,Courier New" font-size="43.0" fill="#FEFFFE" transform="matrix(1.00, 0.00, -0.00, -1.00, 830.6, 521.9)">O</text><text xml:space="preserve" font-family="CourierNewPSMT,Courier New" font-size="43.0" fill="#FEFFFE" transform="matrix(1.00, 0.00, -0.00, -1.00, 856.4, 521.9)">T</text><text xml:space="preserve" font-family="CourierNewPSMT,Courier New" font-size="43.0" fill="#FEFFFE" transform="matrix(1.00, 0.00, -0.00, -1.00, 882.2, 521.9)"> </text><text xml:space="preserve" font-family="CourierNewPSMT,Courier New" font-size="43.0" fill="#FEFFFE" transform="matrix(1.00, 0.00, -0.00, -1.00, 908.0, 521.9)">N</text><text xml:space="preserve" font-family="CourierNewPSMT,Courier New" font-size="43.0" fill="#FEFFFE" transform="matrix(1.00, 0.00, -0.00, -1.00, 933.8, 521.9)">U</text><text xml:space="preserve" font-family="CourierNewPSMT,Courier New" font-size="43.0" fill="#FEFFFE" transform="matrix(1.00, 0.00, -0.00, -1.00, 959.6, 521.9)">L</text><text xml:space="preserve" font-family="CourierNewPSMT,Courier New" font-size="43.0" fill="#FEFFFE" transform="matrix(1.00, 0.00, -0.00, -1.00, 985.4, 521.9)">L</text><text xml:space="preserve" font-family="CourierNewPSMT,Courier New" font-size="43.0" fill="#FEFFFE" transform="matrix(1.00, 0.00, -0.00, -1.00, 1011.2, 521.9)">,</text><text xml:space="preserve" font-family="CourierNewPSMT,Courier New" font-size="43.0" fill="#FEFFFE" transform="matrix(1.00, 0.00, -0.00, -1.00, 1037.1, 521.9)"> </text><text xml:space="preserve" font-family="CourierNewPSMT,Courier New" font-size="43.0" fill="#FEFFFE" transform="matrix(1.00, 0.00, -0.00, -1.00, 211.2, 472.9)"> </text><text xml:space="preserve" font-family="CourierNewPSMT,Courier New" font-size="43.0" fill="#FEFFFE" transform="matrix(1.00, 0.00, -0.00, -1.00, 237.0, 472.9)"> </text><text xml:space="preserve" font-family="CourierNewPSMT,Courier New" font-size="43.0" fill="#FEFFFE" transform="matrix(1.00, 0.00, -0.00, -1.00, 262.8, 472.9)"> </text><text xml:space="preserve" font-family="CourierNewPSMT,Courier New" font-size="43.0" fill="#FEFFFE" transform="matrix(1.00, 0.00, -0.00, -1.00, 288.6, 472.9)"> </text><text xml:space="preserve" font-family="CourierNewPSMT,Courier New" font-size="43.0" fill="#FEFFFE" transform="matrix(1.00, 0.00, -0.00, -1.00, 314.4, 472.9)">p</text><text xml:space="preserve" font-family="CourierNewPSMT,Courier New" font-size="43.0" fill="#FEFFFE" transform="matrix(1.00, 0.00, -0.00, -1.00, 340.2, 472.9)">a</text><text xml:space="preserve" font-family="CourierNewPSMT,Courier New" font-size="43.0" fill="#FEFFFE" transform="matrix(1.00, 0.00, -0.00, -1.00, 366.0, 472.9)">s</text><text xml:space="preserve" font-family="CourierNewPSMT,Courier New" font-size="43.0" fill="#FEFFFE" transform="matrix(1.00, 0.00, -0.00, -1.00, 391.8, 472.9)">s</text><text xml:space="preserve" font-family="CourierNewPSMT,Courier New" font-size="43.0" fill="#FEFFFE" transform="matrix(1.00, 0.00, -0.00, -1.00, 417.6, 472.9)">w</text><text xml:space="preserve" font-family="CourierNewPSMT,Courier New" font-size="43.0" fill="#FEFFFE" transform="matrix(1.00, 0.00, -0.00, -1.00, 443.5, 472.9)">o</text><text xml:space="preserve" font-family="CourierNewPSMT,Courier New" font-size="43.0" fill="#FEFFFE" transform="matrix(1.00, 0.00, -0.00, -1.00, 469.3, 472.9)">r</text><text xml:space="preserve" font-family="CourierNewPSMT,Courier New" font-size="43.0" fill="#FEFFFE" transform="matrix(1.00, 0.00, -0.00, -1.00, 495.1, 472.9)">d</text><text xml:space="preserve" font-family="CourierNewPSMT,Courier New" font-size="43.0" fill="#FEFFFE" transform="matrix(1.00, 0.00, -0.00, -1.00, 520.9, 472.9)"> </text><text xml:space="preserve" font-family="CourierNewPSMT,Courier New" font-size="43.0" fill="#FEFFFE" transform="matrix(1.00, 0.00, -0.00, -1.00, 546.7, 472.9)">v</text><text xml:space="preserve" font-family="CourierNewPSMT,Courier New" font-size="43.0" fill="#FEFFFE" transform="matrix(1.00, 0.00, -0.00, -1.00, 572.5, 472.9)">a</text><text xml:space="preserve" font-family="CourierNewPSMT,Courier New" font-size="43.0" fill="#FEFFFE" transform="matrix(1.00, 0.00, -0.00, -1.00, 598.3, 472.9)">r</text><text xml:space="preserve" font-family="CourierNewPSMT,Courier New" font-size="43.0" fill="#FEFFFE" transform="matrix(1.00, 0.00, -0.00, -1.00, 624.1, 472.9)">c</text><text xml:space="preserve" font-family="CourierNewPSMT,Courier New" font-size="43.0" fill="#FEFFFE" transform="matrix(1.00, 0.00, -0.00, -1.00, 649.9, 472.9)">h</text><text xml:space="preserve" font-family="CourierNewPSMT,Courier New" font-size="43.0" fill="#FEFFFE" transform="matrix(1.00, 0.00, -0.00, -1.00, 675.7, 472.9)">a</text><text xml:space="preserve" font-family="CourierNewPSMT,Courier New" font-size="43.0" fill="#FEFFFE" transform="matrix(1.00, 0.00, -0.00, -1.00, 701.5, 472.9)">r</text><text xml:space="preserve" font-family="CourierNewPSMT,Courier New" font-size="43.0" fill="#FEFFFE" transform="matrix(1.00, 0.00, -0.00, -1.00, 727.3, 472.9)">(</text><text xml:space="preserve" font-family="CourierNewPSMT,Courier New" font-size="43.0" fill="#FEFFFE" transform="matrix(1.00, 0.00, -0.00, -1.00, 753.2, 472.9)">2</text><text xml:space="preserve" font-family="CourierNewPSMT,Courier New" font-size="43.0" fill="#FEFFFE" transform="matrix(1.00, 0.00, -0.00, -1.00, 779.0, 472.9)">5</text><text xml:space="preserve" font-family="CourierNewPSMT,Courier New" font-size="43.0" fill="#FEFFFE" transform="matrix(1.00, 0.00, -0.00, -1.00, 804.8, 472.9)">5</text><text xml:space="preserve" font-family="CourierNewPSMT,Courier New" font-size="43.0" fill="#FEFFFE" transform="matrix(1.00, 0.00, -0.00, -1.00, 830.6, 472.9)">)</text><text xml:space="preserve" font-family="CourierNewPSMT,Courier New" font-size="43.0" fill="#FEFFFE" transform="matrix(1.00, 0.00, -0.00, -1.00, 856.4, 472.9)"> </text><text xml:space="preserve" font-family="CourierNewPSMT,Courier New" font-size="43.0" fill="#FEFFFE" transform="matrix(1.00, 0.00, -0.00, -1.00, 882.2, 472.9)">N</text><text xml:space="preserve" font-family="CourierNewPSMT,Courier New" font-size="43.0" fill="#FEFFFE" transform="matrix(1.00, 0.00, -0.00, -1.00, 908.0, 472.9)">O</text><text xml:space="preserve" font-family="CourierNewPSMT,Courier New" font-size="43.0" fill="#FEFFFE" transform="matrix(1.00, 0.00, -0.00, -1.00, 933.8, 472.9)">T</text><text xml:space="preserve" font-family="CourierNewPSMT,Courier New" font-size="43.0" fill="#FEFFFE" transform="matrix(1.00, 0.00, -0.00, -1.00, 959.6, 472.9)"> </text><text xml:space="preserve" font-family="CourierNewPSMT,Courier New" font-size="43.0" fill="#FEFFFE" transform="matrix(1.00, 0.00, -0.00, -1.00, 985.4, 472.9)">N</text><text xml:space="preserve" font-family="CourierNewPSMT,Courier New" font-size="43.0" fill="#FEFFFE" transform="matrix(1.00, 0.00, -0.00, -1.00, 1011.2, 472.9)">U</text><text xml:space="preserve" font-family="CourierNewPSMT,Courier New" font-size="43.0" fill="#FEFFFE" transform="matrix(1.00, 0.00, -0.00, -1.00, 1037.1, 472.9)">L</text><text xml:space="preserve" font-family="CourierNewPSMT,Courier New" font-size="43.0" fill="#FEFFFE" transform="matrix(1.00, 0.00, -0.00, -1.00, 1062.9, 472.9)">L</text><text xml:space="preserve" font-family="CourierNewPSMT,Courier New" font-size="43.0" fill="#FEFFFE" transform="matrix(1.00, 0.00, -0.00, -1.00, 1088.7, 472.9)">,</text><text xml:space="preserve" font-family="CourierNewPSMT,Courier New" font-size="43.0" fill="#FEFFFE" transform="matrix(1.00, 0.00, -0.00, -1.00, 1114.5, 472.9)"> </text><text xml:space="preserve" font-family="CourierNewPSMT,Courier New" font-size="43.0" fill="#FEFFFE" transform="matrix(1.00, 0.00, -0.00, -1.00, 211.2, 423.9)"> </text><text xml:space="preserve" font-family="CourierNewPSMT,Courier New" font-size="43.0" fill="#FEFFFE" transform="matrix(1.00, 0.00, -0.00, -1.00, 237.0, 423.9)"> </text><text xml:space="preserve" font-family="CourierNewPSMT,Courier New" font-size="43.0" fill="#FEFFFE" transform="matrix(1.00, 0.00, -0.00, -1.00, 262.8, 423.9)"> </text><text xml:space="preserve" font-family="CourierNewPSMT,Courier New" font-size="43.0" fill="#FEFFFE" transform="matrix(1.00, 0.00, -0.00, -1.00, 288.6, 423.9)"> </text><text xml:space="preserve" font-family="CourierNewPSMT,Courier New" font-size="43.0" fill="#FEFFFE" transform="matrix(1.00, 0.00, -0.00, -1.00, 314.4, 423.9)">f</text><text xml:space="preserve" font-family="CourierNewPSMT,Courier New" font-size="43.0" fill="#FEFFFE" transform="matrix(1.00, 0.00, -0.00, -1.00, 340.2, 423.9)">u</text><text xml:space="preserve" font-family="CourierNewPSMT,Courier New" font-size="43.0" fill="#FEFFFE" transform="matrix(1.00, 0.00, -0.00, -1.00, 366.0, 423.9)">l</text><text xml:space="preserve" font-family="CourierNewPSMT,Courier New" font-size="43.0" fill="#FEFFFE" transform="matrix(1.00, 0.00, -0.00, -1.00, 391.8, 423.9)">l</text><text xml:space="preserve" font-family="CourierNewPSMT,Courier New" font-size="43.0" fill="#FEFFFE" transform="matrix(1.00, 0.00, -0.00, -1.00, 417.6, 423.9)">n</text><text xml:space="preserve" font-family="CourierNewPSMT,Courier New" font-size="43.0" fill="#FEFFFE" transform="matrix(1.00, 0.00, -0.00, -1.00, 443.5, 423.9)">a</text><text xml:space="preserve" font-family="CourierNewPSMT,Courier New" font-size="43.0" fill="#FEFFFE" transform="matrix(1.00, 0.00, -0.00, -1.00, 469.3, 423.9)">m</text><text xml:space="preserve" font-family="CourierNewPSMT,Courier New" font-size="43.0" fill="#FEFFFE" transform="matrix(1.00, 0.00, -0.00, -1.00, 495.1, 423.9)">e</text><text xml:space="preserve" font-family="CourierNewPSMT,Courier New" font-size="43.0" fill="#FEFFFE" transform="matrix(1.00, 0.00, -0.00, -1.00, 520.9, 423.9)"> </text><text xml:space="preserve" font-family="CourierNewPSMT,Courier New" font-size="43.0" fill="#FEFFFE" transform="matrix(1.00, 0.00, -0.00, -1.00, 546.7, 423.9)">v</text><text xml:space="preserve" font-family="CourierNewPSMT,Courier New" font-size="43.0" fill="#FEFFFE" transform="matrix(1.00, 0.00, -0.00, -1.00, 572.5, 423.9)">a</text><text xml:space="preserve" font-family="CourierNewPSMT,Courier New" font-size="43.0" fill="#FEFFFE" transform="matrix(1.00, 0.00, -0.00, -1.00, 598.3, 423.9)">r</text><text xml:space="preserve" font-family="CourierNewPSMT,Courier New" font-size="43.0" fill="#FEFFFE" transform="matrix(1.00, 0.00, -0.00, -1.00, 624.1, 423.9)">c</text><text xml:space="preserve" font-family="CourierNewPSMT,Courier New" font-size="43.0" fill="#FEFFFE" transform="matrix(1.00, 0.00, -0.00, -1.00, 649.9, 423.9)">h</text><text xml:space="preserve" font-family="CourierNewPSMT,Courier New" font-size="43.0" fill="#FEFFFE" transform="matrix(1.00, 0.00, -0.00, -1.00, 675.7, 423.9)">a</text><text xml:space="preserve" font-family="CourierNewPSMT,Courier New" font-size="43.0" fill="#FEFFFE" transform="matrix(1.00, 0.00, -0.00, -1.00, 701.5, 423.9)">r</text><text xml:space="preserve" font-family="CourierNewPSMT,Courier New" font-size="43.0" fill="#FEFFFE" transform="matrix(1.00, 0.00, -0.00, -1.00, 727.3, 423.9)">(</text><text xml:space="preserve" font-family="CourierNewPSMT,Courier New" font-size="43.0" fill="#FEFFFE" transform="matrix(1.00, 0.00, -0.00, -1.00, 753.2, 423.9)">2</text><text xml:space="preserve" font-family="CourierNewPSMT,Courier New" font-size="43.0" fill="#FEFFFE" transform="matrix(1.00, 0.00, -0.00, -1.00, 779.0, 423.9)">5</text><text xml:space="preserve" font-family="CourierNewPSMT,Courier New" font-size="43.0" fill="#FEFFFE" transform="matrix(1.00, 0.00, -0.00, -1.00, 804.8, 423.9)">5</text><text xml:space="preserve" font-family="CourierNewPSMT,Courier New" font-size="43.0" fill="#FEFFFE" transform="matrix(1.00, 0.00, -0.00, -1.00, 830.6, 423.9)">)</text><text xml:space="preserve" font-family="CourierNewPSMT,Courier New" font-size="43.0" fill="#FEFFFE" transform="matrix(1.00, 0.00, -0.00, -1.00, 856.4, 423.9)"> </text><text xml:space="preserve" font-family="CourierNewPSMT,Courier New" font-size="43.0" fill="#FEFFFE" transform="matrix(1.00, 0.00, -0.00, -1.00, 882.2, 423.9)">N</text><text xml:space="preserve" font-family="CourierNewPSMT,Courier New" font-size="43.0" fill="#FEFFFE" transform="matrix(1.00, 0.00, -0.00, -1.00, 908.0, 423.9)">O</text><text xml:space="preserve" font-family="CourierNewPSMT,Courier New" font-size="43.0" fill="#FEFFFE" transform="matrix(1.00, 0.00, -0.00, -1.00, 933.8, 423.9)">T</text><text xml:space="preserve" font-family="CourierNewPSMT,Courier New" font-size="43.0" fill="#FEFFFE" transform="matrix(1.00, 0.00, -0.00, -1.00, 959.6, 423.9)"> </text><text xml:space="preserve" font-family="CourierNewPSMT,Courier New" font-size="43.0" fill="#FEFFFE" transform="matrix(1.00, 0.00, -0.00, -1.00, 985.4, 423.9)">N</text><text xml:space="preserve" font-family="CourierNewPSMT,Courier New" font-size="43.0" fill="#FEFFFE" transform="matrix(1.00, 0.00, -0.00, -1.00, 1011.2, 423.9)">U</text><text xml:space="preserve" font-family="CourierNewPSMT,Courier New" font-size="43.0" fill="#FEFFFE" transform="matrix(1.00, 0.00, -0.00, -1.00, 1037.1, 423.9)">L</text><text xml:space="preserve" font-family="CourierNewPSMT,Courier New" font-size="43.0" fill="#FEFFFE" transform="matrix(1.00, 0.00, -0.00, -1.00, 1062.9, 423.9)">L</text><text xml:space="preserve" font-family="CourierNewPSMT,Courier New" font-size="43.0" fill="#FEFFFE" transform="matrix(1.00, 0.00, -0.00, -1.00, 1088.7, 423.9)">,</text><text xml:space="preserve" font-family="CourierNewPSMT,Courier New" font-size="43.0" fill="#FEFFFE" transform="matrix(1.00, 0.00, -0.00, -1.00, 1114.5, 423.9)"> </text><text xml:space="preserve" font-family="CourierNewPSMT,Courier New" font-size="43.0" fill="#FEFFFE" transform="matrix(1.00, 0.00, -0.00, -1.00, 211.2, 374.9)"> </text><text xml:space="preserve" font-family="CourierNewPSMT,Courier New" font-size="43.0" fill="#FEFFFE" transform="matrix(1.00, 0.00, -0.00, -1.00, 237.0, 374.9)"> </text><text xml:space="preserve" font-family="CourierNewPSMT,Courier New" font-size="43.0" fill="#FEFFFE" transform="matrix(1.00, 0.00, -0.00, -1.00, 262.8, 374.9)"> </text><text xml:space="preserve" font-family="CourierNewPSMT,Courier New" font-size="43.0" fill="#FEFFFE" transform="matrix(1.00, 0.00, -0.00, -1.00, 288.6, 374.9)"> </text><text xml:space="preserve" font-family="CourierNewPSMT,Courier New" font-size="43.0" fill="#FEFFFE" transform="matrix(1.00, 0.00, -0.00, -1.00, 314.4, 374.9)">i</text><text xml:space="preserve" font-family="CourierNewPSMT,Courier New" font-size="43.0" fill="#FEFFFE" transform="matrix(1.00, 0.00, -0.00, -1.00, 340.2, 374.9)">s</text><text xml:space="preserve" font-family="CourierNewPSMT,Courier New" font-size="43.0" fill="#FEFFFE" transform="matrix(1.00, 0.00, -0.00, -1.00, 366.0, 374.9)">A</text><text xml:space="preserve" font-family="CourierNewPSMT,Courier New" font-size="43.0" fill="#FEFFFE" transform="matrix(1.00, 0.00, -0.00, -1.00, 391.8, 374.9)">d</text><text xml:space="preserve" font-family="CourierNewPSMT,Courier New" font-size="43.0" fill="#FEFFFE" transform="matrix(1.00, 0.00, -0.00, -1.00, 417.6, 374.9)">m</text><text xml:space="preserve" font-family="CourierNewPSMT,Courier New" font-size="43.0" fill="#FEFFFE" transform="matrix(1.00, 0.00, -0.00, -1.00, 443.5, 374.9)">i</text><text xml:space="preserve" font-family="CourierNewPSMT,Courier New" font-size="43.0" fill="#FEFFFE" transform="matrix(1.00, 0.00, -0.00, -1.00, 469.3, 374.9)">n</text><text xml:space="preserve" font-family="CourierNewPSMT,Courier New" font-size="43.0" fill="#FEFFFE" transform="matrix(1.00, 0.00, -0.00, -1.00, 495.1, 374.9)"> </text><text xml:space="preserve" font-family="CourierNewPSMT,Courier New" font-size="43.0" fill="#FEFFFE" transform="matrix(1.00, 0.00, -0.00, -1.00, 520.9, 374.9)">b</text><text xml:space="preserve" font-family="CourierNewPSMT,Courier New" font-size="43.0" fill="#FEFFFE" transform="matrix(1.00, 0.00, -0.00, -1.00, 546.7, 374.9)">o</text><text xml:space="preserve" font-family="CourierNewPSMT,Courier New" font-size="43.0" fill="#FEFFFE" transform="matrix(1.00, 0.00, -0.00, -1.00, 572.5, 374.9)">o</text><text xml:space="preserve" font-family="CourierNewPSMT,Courier New" font-size="43.0" fill="#FEFFFE" transform="matrix(1.00, 0.00, -0.00, -1.00, 598.3, 374.9)">l</text><text xml:space="preserve" font-family="CourierNewPSMT,Courier New" font-size="43.0" fill="#FEFFFE" transform="matrix(1.00, 0.00, -0.00, -1.00, 624.1, 374.9)">e</text><text xml:space="preserve" font-family="CourierNewPSMT,Courier New" font-size="43.0" fill="#FEFFFE" transform="matrix(1.00, 0.00, -0.00, -1.00, 649.9, 374.9)">a</text><text xml:space="preserve" font-family="CourierNewPSMT,Courier New" font-size="43.0" fill="#FEFFFE" transform="matrix(1.00, 0.00, -0.00, -1.00, 675.7, 374.9)">n</text><text xml:space="preserve" font-family="CourierNewPSMT,Courier New" font-size="43.0" fill="#FEFFFE" transform="matrix(1.00, 0.00, -0.00, -1.00, 701.5, 374.9)"> </text><text xml:space="preserve" font-family="CourierNewPSMT,Courier New" font-size="43.0" fill="#FEFFFE" transform="matrix(1.00, 0.00, -0.00, -1.00, 727.3, 374.9)">N</text><text xml:space="preserve" font-family="CourierNewPSMT,Courier New" font-size="43.0" fill="#FEFFFE" transform="matrix(1.00, 0.00, -0.00, -1.00, 753.2, 374.9)">O</text><text xml:space="preserve" font-family="CourierNewPSMT,Courier New" font-size="43.0" fill="#FEFFFE" transform="matrix(1.00, 0.00, -0.00, -1.00, 779.0, 374.9)">T</text><text xml:space="preserve" font-family="CourierNewPSMT,Courier New" font-size="43.0" fill="#FEFFFE" transform="matrix(1.00, 0.00, -0.00, -1.00, 804.8, 374.9)"> </text><text xml:space="preserve" font-family="CourierNewPSMT,Courier New" font-size="43.0" fill="#FEFFFE" transform="matrix(1.00, 0.00, -0.00, -1.00, 830.6, 374.9)">N</text><text xml:space="preserve" font-family="CourierNewPSMT,Courier New" font-size="43.0" fill="#FEFFFE" transform="matrix(1.00, 0.00, -0.00, -1.00, 856.4, 374.9)">U</text><text xml:space="preserve" font-family="CourierNewPSMT,Courier New" font-size="43.0" fill="#FEFFFE" transform="matrix(1.00, 0.00, -0.00, -1.00, 882.2, 374.9)">L</text><text xml:space="preserve" font-family="CourierNewPSMT,Courier New" font-size="43.0" fill="#FEFFFE" transform="matrix(1.00, 0.00, -0.00, -1.00, 908.0, 374.9)">L</text><text xml:space="preserve" font-family="CourierNewPSMT,Courier New" font-size="43.0" fill="#FEFFFE" transform="matrix(1.00, 0.00, -0.00, -1.00, 933.8, 374.9)">,</text><text xml:space="preserve" font-family="CourierNewPSMT,Courier New" font-size="43.0" fill="#FEFFFE" transform="matrix(1.00, 0.00, -0.00, -1.00, 959.6, 374.9)"> </text><text xml:space="preserve" font-family="CourierNewPSMT,Courier New" font-size="43.0" fill="#FEFFFE" transform="matrix(1.00, 0.00, -0.00, -1.00, 211.2, 325.9)"> </text><text xml:space="preserve" font-family="CourierNewPSMT,Courier New" font-size="43.0" fill="#FEFFFE" transform="matrix(1.00, 0.00, -0.00, -1.00, 237.0, 325.9)"> </text><text xml:space="preserve" font-family="CourierNewPSMT,Courier New" font-size="43.0" fill="#FEFFFE" transform="matrix(1.00, 0.00, -0.00, -1.00, 262.8, 325.9)"> </text><text xml:space="preserve" font-family="CourierNewPSMT,Courier New" font-size="43.0" fill="#FEFFFE" transform="matrix(1.00, 0.00, -0.00, -1.00, 288.6, 325.9)"> </text><text xml:space="preserve" font-family="CourierNewPSMT,Courier New" font-size="43.0" fill="#FEFFFE" transform="matrix(1.00, 0.00, -0.00, -1.00, 314.4, 325.9)">P</text><text xml:space="preserve" font-family="CourierNewPSMT,Courier New" font-size="43.0" fill="#FEFFFE" transform="matrix(1.00, 0.00, -0.00, -1.00, 340.2, 325.9)">R</text><text xml:space="preserve" font-family="CourierNewPSMT,Courier New" font-size="43.0" fill="#FEFFFE" transform="matrix(1.00, 0.00, -0.00, -1.00, 366.0, 325.9)">I</text><text xml:space="preserve" font-family="CourierNewPSMT,Courier New" font-size="43.0" fill="#FEFFFE" transform="matrix(1.00, 0.00, -0.00, -1.00, 391.8, 325.9)">M</text><text xml:space="preserve" font-family="CourierNewPSMT,Courier New" font-size="43.0" fill="#FEFFFE" transform="matrix(1.00, 0.00, -0.00, -1.00, 417.6, 325.9)">A</text><text xml:space="preserve" font-family="CourierNewPSMT,Courier New" font-size="43.0" fill="#FEFFFE" transform="matrix(1.00, 0.00, -0.00, -1.00, 443.5, 325.9)">R</text><text xml:space="preserve" font-family="CourierNewPSMT,Courier New" font-size="43.0" fill="#FEFFFE" transform="matrix(1.00, 0.00, -0.00, -1.00, 469.3, 325.9)">Y</text><text xml:space="preserve" font-family="CourierNewPSMT,Courier New" font-size="43.0" fill="#FEFFFE" transform="matrix(1.00, 0.00, -0.00, -1.00, 495.1, 325.9)"> </text><text xml:space="preserve" font-family="CourierNewPSMT,Courier New" font-size="43.0" fill="#FEFFFE" transform="matrix(1.00, 0.00, -0.00, -1.00, 520.9, 325.9)">K</text><text xml:space="preserve" font-family="CourierNewPSMT,Courier New" font-size="43.0" fill="#FEFFFE" transform="matrix(1.00, 0.00, -0.00, -1.00, 546.7, 325.9)">E</text><text xml:space="preserve" font-family="CourierNewPSMT,Courier New" font-size="43.0" fill="#FEFFFE" transform="matrix(1.00, 0.00, -0.00, -1.00, 572.5, 325.9)">Y</text><text xml:space="preserve" font-family="CourierNewPSMT,Courier New" font-size="43.0" fill="#FEFFFE" transform="matrix(1.00, 0.00, -0.00, -1.00, 598.3, 325.9)"> </text><text xml:space="preserve" font-family="CourierNewPSMT,Courier New" font-size="43.0" fill="#FEFFFE" transform="matrix(1.00, 0.00, -0.00, -1.00, 624.1, 325.9)">(</text><text xml:space="preserve" font-family="CourierNewPSMT,Courier New" font-size="43.0" fill="#FEFFFE" transform="matrix(1.00, 0.00, -0.00, -1.00, 649.9, 325.9)">i</text><text xml:space="preserve" font-family="CourierNewPSMT,Courier New" font-size="43.0" fill="#FEFFFE" transform="matrix(1.00, 0.00, -0.00, -1.00, 675.7, 325.9)">d</text><text xml:space="preserve" font-family="CourierNewPSMT,Courier New" font-size="43.0" fill="#FEFFFE" transform="matrix(1.00, 0.00, -0.00, -1.00, 701.5, 325.9)">)</text><text xml:space="preserve" font-family="CourierNewPSMT,Courier New" font-size="43.0" fill="#FEFFFE" transform="matrix(1.00, 0.00, -0.00, -1.00, 727.3, 325.9)"> </text><text xml:space="preserve" font-family="CourierNewPSMT,Courier New" font-size="43.0" fill="#FEFFFE" transform="matrix(1.00, 0.00, -0.00, -1.00, 211.2, 276.9)">)</text><text xml:space="preserve" font-family="CourierNewPSMT,Courier New" font-size="43.0" fill="#FEFFFE" transform="matrix(1.00, 0.00, -0.00, -1.00, 237.0, 276.9)">;</text><text xml:space="preserve" font-family="CourierNewPSMT,Courier New" font-size="43.0" fill="#FEFFFE" transform="matrix(1.00, 0.00, -0.00, -1.00, 262.8, 276.9)"> </text><text xml:space="preserve" font-family="CourierNewPSMT,Courier New" font-size="43.0" fill="#FEFFFE" transform="matrix(1.00, 0.00, -0.00, -1.00, 211.2, 227.9)"> </text><text xml:space="preserve" font-family="CourierNewPSMT,Courier New" font-size="43.0" fill="#FEFFFE" transform="matrix(1.00, 0.00, -0.00, -1.00, 237.0, 227.9)"> </text><text xml:space="preserve" font-family="CourierNewPS-BoldMT,Courier New" font-weight="bold" font-size="43.0" fill="#FEFFFE" transform="matrix(1.00, 0.00, -0.00, -1.00, 211.2, 178.9)">#</text><text xml:space="preserve" font-family="CourierNewPS-BoldMT,Courier New" font-weight="bold" font-size="43.0" fill="#FEFFFE" transform="matrix(1.00, 0.00, -0.00, -1.00, 237.0, 178.9)"> </text><text xml:space="preserve" font-family="CourierNewPS-BoldMT,Courier New" font-weight="bold" font-size="43.0" fill="#FEFFFE" transform="matrix(1.00, 0.00, -0.00, -1.00, 262.8, 178.9)">-</text><text xml:space="preserve" font-family="CourierNewPS-BoldMT,Courier New" font-weight="bold" font-size="43.0" fill="#FEFFFE" transform="matrix(1.00, 0.00, -0.00, -1.00, 288.6, 178.9)">-</text><text xml:space="preserve" font-family="CourierNewPS-BoldMT,Courier New" font-weight="bold" font-size="43.0" fill="#FEFFFE" transform="matrix(1.00, 0.00, -0.00, -1.00, 314.4, 178.9)">-</text><text xml:space="preserve" font-family="CourierNewPS-BoldMT,Courier New" font-weight="bold" font-size="43.0" fill="#FEFFFE" transform="matrix(1.00, 0.00, -0.00, -1.00, 340.2, 178.9)"> </text><text xml:space="preserve" font-family="CourierNewPS-BoldMT,Courier New" font-weight="bold" font-size="43.0" fill="#FEFFFE" transform="matrix(1.00, 0.00, -0.00, -1.00, 366.0, 178.9)">!</text><text xml:space="preserve" font-family="CourierNewPS-BoldMT,Courier New" font-weight="bold" font-size="43.0" fill="#FEFFFE" transform="matrix(1.00, 0.00, -0.00, -1.00, 391.8, 178.9)">D</text><text xml:space="preserve" font-family="CourierNewPS-BoldMT,Courier New" font-weight="bold" font-size="43.0" fill="#FEFFFE" transform="matrix(1.00, 0.00, -0.00, -1.00, 417.6, 178.9)">o</text><text xml:space="preserve" font-family="CourierNewPS-BoldMT,Courier New" font-weight="bold" font-size="43.0" fill="#FEFFFE" transform="matrix(1.00, 0.00, -0.00, -1.00, 443.5, 178.9)">w</text><text xml:space="preserve" font-family="CourierNewPS-BoldMT,Courier New" font-weight="bold" font-size="43.0" fill="#FEFFFE" transform="matrix(1.00, 0.00, -0.00, -1.00, 469.3, 178.9)">n</text><text xml:space="preserve" font-family="CourierNewPS-BoldMT,Courier New" font-weight="bold" font-size="43.0" fill="#FEFFFE" transform="matrix(1.00, 0.00, -0.00, -1.00, 495.1, 178.9)">s</text><text xml:space="preserve" font-family="CourierNewPS-BoldMT,Courier New" font-weight="bold" font-size="43.0" fill="#FEFFFE" transform="matrix(1.00, 0.00, -0.00, -1.00, 520.9, 178.9)"> </text><text xml:space="preserve" font-family="CourierNewPSMT,Courier New" font-size="43.0" fill="#FEFFFE" transform="matrix(1.00, 0.00, -0.00, -1.00, 211.2, 129.9)"> </text><text xml:space="preserve" font-family="CourierNewPSMT,Courier New" font-size="43.0" fill="#FEFFFE" transform="matrix(1.00, 0.00, -0.00, -1.00, 237.0, 129.9)"> </text><text xml:space="preserve" font-family="CourierNewPSMT,Courier New" font-size="43.0" fill="#FEFFFE" transform="matrix(1.00, 0.00, -0.00, -1.00, 211.2, 80.9)">D</text><text xml:space="preserve" font-family="CourierNewPSMT,Courier New" font-size="43.0" fill="#FEFFFE" transform="matrix(1.00, 0.00, -0.00, -1.00, 237.0, 80.9)">R</text><text xml:space="preserve" font-family="CourierNewPSMT,Courier New" font-size="43.0" fill="#FEFFFE" transform="matrix(1.00, 0.00, -0.00, -1.00, 262.8, 80.9)">O</text><text xml:space="preserve" font-family="CourierNewPSMT,Courier New" font-size="43.0" fill="#FEFFFE" transform="matrix(1.00, 0.00, -0.00, -1.00, 288.6, 80.9)">P</text><text xml:space="preserve" font-family="CourierNewPSMT,Courier New" font-size="43.0" fill="#FEFFFE" transform="matrix(1.00, 0.00, -0.00, -1.00, 314.4, 80.9)"> </text><text xml:space="preserve" font-family="CourierNewPSMT,Courier New" font-size="43.0" fill="#FEFFFE" transform="matrix(1.00, 0.00, -0.00, -1.00, 340.2, 80.9)">T</text><text xml:space="preserve" font-family="CourierNewPSMT,Courier New" font-size="43.0" fill="#FEFFFE" transform="matrix(1.00, 0.00, -0.00, -1.00, 366.0, 80.9)">A</text><text xml:space="preserve" font-family="CourierNewPSMT,Courier New" font-size="43.0" fill="#FEFFFE" transform="matrix(1.00, 0.00, -0.00, -1.00, 391.8, 80.9)">B</text><text xml:space="preserve" font-family="CourierNewPSMT,Courier New" font-size="43.0" fill="#FEFFFE" transform="matrix(1.00, 0.00, -0.00, -1.00, 417.6, 80.9)">L</text><text xml:space="preserve" font-family="CourierNewPSMT,Courier New" font-size="43.0" fill="#FEFFFE" transform="matrix(1.00, 0.00, -0.00, -1.00, 443.5, 80.9)">E</text><text xml:space="preserve" font-family="CourierNewPSMT,Courier New" font-size="43.0" fill="#FEFFFE" transform="matrix(1.00, 0.00, -0.00, -1.00, 469.3, 80.9)"> </text><text xml:space="preserve" font-family="CourierNewPSMT,Courier New" font-size="43.0" fill="#FEFFFE" transform="matrix(1.00, 0.00, -0.00, -1.00, 495.1, 80.9)">U</text><text xml:space="preserve" font-family="CourierNewPSMT,Courier New" font-size="43.0" fill="#FEFFFE" transform="matrix(1.00, 0.00, -0.00, -1.00, 520.9, 80.9)">s</text><text xml:space="preserve" font-family="CourierNewPSMT,Courier New" font-size="43.0" fill="#FEFFFE" transform="matrix(1.00, 0.00, -0.00, -1.00, 546.7, 80.9)">e</text><text xml:space="preserve" font-family="CourierNewPSMT,Courier New" font-size="43.0" fill="#FEFFFE" transform="matrix(1.00, 0.00, -0.00, -1.00, 572.5, 80.9)">r</text><text xml:space="preserve" font-family="CourierNewPSMT,Courier New" font-size="43.0" fill="#FEFFFE" transform="matrix(1.00, 0.00, -0.00, -1.00, 598.3, 80.9)">;</text></g></svg>