<?xml version="1.0" encoding="UTF-8" standalone="no"?><svg xmlns="http://www.w3.org/2000/svg" xmlns:xlink="http://www.w3.org/1999/xlink" clip-rule="evenodd" stroke-miterlimit="10" viewBox="0 0 1920 1080"><desc>SVG generated by Keynote</desc><defs></defs><g transform="matrix(1.00, 0.00, -0.00, -1.00, 0.0, 1080.0)"><g><clipPath id="clip0x7f9a46825160"><path d="M 0.0 1080.0 L 1920.0 1080.0 L 1920.0 0.0 L 0.0 0.0 Z M 0.0 1080.0 "></path></clipPath><g clip-path="url(#clip0x7f9a46825160)"><image xlink:href="../../2454F38C-308E-4D93-86A7-ACF877EF01F7/assets/D54D7AAA5FD1EC733BC359F041C689F1.jpeg" width="2048.00" height="1536.00" transform="matrix(0.94, 0.00, -0.00, -0.70, 0.0, 1080.0)"></image></g></g><text xml:space="preserve" font-family="Chalkduster,Chalkduster" font-size="100.0" fill="#71AFE1" transform="matrix(1.00, 0.00, -0.00, -1.00, 514.4, 929.1)">T</text><text xml:space="preserve" font-family="Chalkduster,Chalkduster" font-size="100.0" fill="#71AFE1" transform="matrix(1.00, 0.00, -0.00, -1.00, 577.9, 929.1)">e</text><text xml:space="preserve" font-family="Chalkduster,Chalkduster" font-size="100.0" fill="#71AFE1" transform="matrix(1.00, 0.00, -0.00, -1.00, 639.9, 929.1)">m</text><text xml:space="preserve" font-family="Chalkduster,Chalkduster" font-size="100.0" fill="#71AFE1" transform="matrix(1.00, 0.00, -0.00, -1.00, 741.1, 929.1)">p</text><text xml:space="preserve" font-family="Chalkduster,Chalkduster" font-size="100.0" fill="#71AFE1" transform="matrix(1.00, 0.00, -0.00, -1.00, 802.8, 929.1)">l</text><text xml:space="preserve" font-family="Chalkduster,Chalkduster" font-size="100.0" fill="#71AFE1" transform="matrix(1.00, 0.00, -0.00, -1.00, 847.7, 929.1)">a</text><text xml:space="preserve" font-family="Chalkduster,Chalkduster" font-size="100.0" fill="#71AFE1" transform="matrix(1.00, 0.00, -0.00, -1.00, 909.7, 929.1)">t</text><text xml:space="preserve" font-family="Chalkduster,Chalkduster" font-size="100.0" fill="#71AFE1" transform="matrix(1.00, 0.00, -0.00, -1.00, 954.4, 929.1)">e</text><text xml:space="preserve" font-family="Chalkduster,Chalkduster" font-size="100.0" fill="#71AFE1" transform="matrix(1.00, 0.00, -0.00, -1.00, 1018.7, 929.1)">s</text><text xml:space="preserve" font-family="Chalkduster,Chalkduster" font-size="100.0" fill="#71AFE1" transform="matrix(1.00, 0.00, -0.00, -1.00, 1069.2, 929.1)"> </text><text xml:space="preserve" font-family="Chalkduster,Chalkduster" font-size="100.0" fill="#71AFE1" transform="matrix(1.00, 0.00, -0.00, -1.00, 1110.5, 929.1)">T</text><text xml:space="preserve" font-family="Chalkduster,Chalkduster" font-size="100.0" fill="#71AFE1" transform="matrix(1.00, 0.00, -0.00, -1.00, 1179.9, 929.1)">w</text><text xml:space="preserve" font-family="Chalkduster,Chalkduster" font-size="100.0" fill="#71AFE1" transform="matrix(1.00, 0.00, -0.00, -1.00, 1265.4, 929.1)">i</text><text xml:space="preserve" font-family="Chalkduster,Chalkduster" font-size="100.0" fill="#71AFE1" transform="matrix(1.00, 0.00, -0.00, -1.00, 1305.9, 929.1)">l</text><text xml:space="preserve" font-family="Chalkduster,Chalkduster" font-size="100.0" fill="#71AFE1" transform="matrix(1.00, 0.00, -0.00, -1.00, 1352.8, 929.1)">r</text><text xml:space="preserve" font-family="CourierNewPSMT,Courier New" font-size="60.0" fill="#FEFFFE" transform="matrix(1.00, 0.00, -0.00, -1.00, 58.2, 710.0)">@</text><text xml:space="preserve" font-family="CourierNewPSMT,Courier New" font-size="60.0" fill="#FEFFFE" transform="matrix(1.00, 0.00, -0.00, -1.00, 94.2, 710.0)">(</text><text xml:space="preserve" font-family="CourierNewPSMT,Courier New" font-size="60.0" fill="#FEFFFE" transform="matrix(1.00, 0.00, -0.00, -1.00, 130.2, 710.0)">c</text><text xml:space="preserve" font-family="CourierNewPSMT,Courier New" font-size="60.0" fill="#FEFFFE" transform="matrix(1.00, 0.00, -0.00, -1.00, 166.2, 710.0)">u</text><text xml:space="preserve" font-family="CourierNewPSMT,Courier New" font-size="60.0" fill="#FEFFFE" transform="matrix(1.00, 0.00, -0.00, -1.00, 202.2, 710.0)">s</text><text xml:space="preserve" font-family="CourierNewPSMT,Courier New" font-size="60.0" fill="#FEFFFE" transform="matrix(1.00, 0.00, -0.00, -1.00, 238.2, 710.0)">t</text><text xml:space="preserve" font-family="CourierNewPSMT,Courier New" font-size="60.0" fill="#FEFFFE" transform="matrix(1.00, 0.00, -0.00, -1.00, 274.2, 710.0)">o</text><text xml:space="preserve" font-family="CourierNewPSMT,Courier New" font-size="60.0" fill="#FEFFFE" transform="matrix(1.00, 0.00, -0.00, -1.00, 310.2, 710.0)">m</text><text xml:space="preserve" font-family="CourierNewPSMT,Courier New" font-size="60.0" fill="#FEFFFE" transform="matrix(1.00, 0.00, -0.00, -1.00, 346.2, 710.0)">e</text><text xml:space="preserve" font-family="CourierNewPSMT,Courier New" font-size="60.0" fill="#FEFFFE" transform="matrix(1.00, 0.00, -0.00, -1.00, 382.3, 710.0)">r</text><text xml:space="preserve" font-family="CourierNewPSMT,Courier New" font-size="60.0" fill="#FEFFFE" transform="matrix(1.00, 0.00, -0.00, -1.00, 418.3, 710.0)">:</text><text xml:space="preserve" font-family="CourierNewPSMT,Courier New" font-size="60.0" fill="#FEFFFE" transform="matrix(1.00, 0.00, -0.00, -1.00, 454.3, 710.0)"> </text><text xml:space="preserve" font-family="CourierNewPSMT,Courier New" font-size="60.0" fill="#FEFFFE" transform="matrix(1.00, 0.00, -0.00, -1.00, 490.3, 710.0)">C</text><text xml:space="preserve" font-family="CourierNewPSMT,Courier New" font-size="60.0" fill="#FEFFFE" transform="matrix(1.00, 0.00, -0.00, -1.00, 526.3, 710.0)">u</text><text xml:space="preserve" font-family="CourierNewPSMT,Courier New" font-size="60.0" fill="#FEFFFE" transform="matrix(1.00, 0.00, -0.00, -1.00, 562.3, 710.0)">s</text><text xml:space="preserve" font-family="CourierNewPSMT,Courier New" font-size="60.0" fill="#FEFFFE" transform="matrix(1.00, 0.00, -0.00, -1.00, 598.3, 710.0)">t</text><text xml:space="preserve" font-family="CourierNewPSMT,Courier New" font-size="60.0" fill="#FEFFFE" transform="matrix(1.00, 0.00, -0.00, -1.00, 634.3, 710.0)">o</text><text xml:space="preserve" font-family="CourierNewPSMT,Courier New" font-size="60.0" fill="#FEFFFE" transform="matrix(1.00, 0.00, -0.00, -1.00, 670.4, 710.0)">m</text><text xml:space="preserve" font-family="CourierNewPSMT,Courier New" font-size="60.0" fill="#FEFFFE" transform="matrix(1.00, 0.00, -0.00, -1.00, 706.4, 710.0)">e</text><text xml:space="preserve" font-family="CourierNewPSMT,Courier New" font-size="60.0" fill="#FEFFFE" transform="matrix(1.00, 0.00, -0.00, -1.00, 742.4, 710.0)">r</text><text xml:space="preserve" font-family="CourierNewPSMT,Courier New" font-size="60.0" fill="#FEFFFE" transform="matrix(1.00, 0.00, -0.00, -1.00, 778.4, 710.0)">,</text><text xml:space="preserve" font-family="CourierNewPSMT,Courier New" font-size="60.0" fill="#FEFFFE" transform="matrix(1.00, 0.00, -0.00, -1.00, 814.4, 710.0)"> </text><text xml:space="preserve" font-family="CourierNewPSMT,Courier New" font-size="60.0" fill="#FEFFFE" transform="matrix(1.00, 0.00, -0.00, -1.00, 850.4, 710.0)">o</text><text xml:space="preserve" font-family="CourierNewPSMT,Courier New" font-size="60.0" fill="#FEFFFE" transform="matrix(1.00, 0.00, -0.00, -1.00, 886.4, 710.0)">r</text><text xml:space="preserve" font-family="CourierNewPSMT,Courier New" font-size="60.0" fill="#FEFFFE" transform="matrix(1.00, 0.00, -0.00, -1.00, 922.4, 710.0)">d</text><text xml:space="preserve" font-family="CourierNewPSMT,Courier New" font-size="60.0" fill="#FEFFFE" transform="matrix(1.00, 0.00, -0.00, -1.00, 958.4, 710.0)">e</text><text xml:space="preserve" font-family="CourierNewPSMT,Courier New" font-size="60.0" fill="#FEFFFE" transform="matrix(1.00, 0.00, -0.00, -1.00, 994.5, 710.0)">r</text><text xml:space="preserve" font-family="CourierNewPSMT,Courier New" font-size="60.0" fill="#FEFFFE" transform="matrix(1.00, 0.00, -0.00, -1.00, 1030.5, 710.0)">s</text><text xml:space="preserve" font-family="CourierNewPSMT,Courier New" font-size="60.0" fill="#FEFFFE" transform="matrix(1.00, 0.00, -0.00, -1.00, 1066.5, 710.0)">:</text><text xml:space="preserve" font-family="CourierNewPSMT,Courier New" font-size="60.0" fill="#FEFFFE" transform="matrix(1.00, 0.00, -0.00, -1.00, 1102.5, 710.0)"> </text><text xml:space="preserve" font-family="CourierNewPSMT,Courier New" font-size="60.0" fill="#FEFFFE" transform="matrix(1.00, 0.00, -0.00, -1.00, 1138.5, 710.0)">L</text><text xml:space="preserve" font-family="CourierNewPSMT,Courier New" font-size="60.0" fill="#FEFFFE" transform="matrix(1.00, 0.00, -0.00, -1.00, 1174.5, 710.0)">i</text><text xml:space="preserve" font-family="CourierNewPSMT,Courier New" font-size="60.0" fill="#FEFFFE" transform="matrix(1.00, 0.00, -0.00, -1.00, 1210.5, 710.0)">s</text><text xml:space="preserve" font-family="CourierNewPSMT,Courier New" font-size="60.0" fill="#FEFFFE" transform="matrix(1.00, 0.00, -0.00, -1.00, 1246.5, 710.0)">t</text><text xml:space="preserve" font-family="CourierNewPSMT,Courier New" font-size="60.0" fill="#FEFFFE" transform="matrix(1.00, 0.00, -0.00, -1.00, 1282.6, 710.0)">[</text><text xml:space="preserve" font-family="CourierNewPSMT,Courier New" font-size="60.0" fill="#FEFFFE" transform="matrix(1.00, 0.00, -0.00, -1.00, 1318.6, 710.0)">O</text><text xml:space="preserve" font-family="CourierNewPSMT,Courier New" font-size="60.0" fill="#FEFFFE" transform="matrix(1.00, 0.00, -0.00, -1.00, 1354.6, 710.0)">r</text><text xml:space="preserve" font-family="CourierNewPSMT,Courier New" font-size="60.0" fill="#FEFFFE" transform="matrix(1.00, 0.00, -0.00, -1.00, 1390.6, 710.0)">d</text><text xml:space="preserve" font-family="CourierNewPSMT,Courier New" font-size="60.0" fill="#FEFFFE" transform="matrix(1.00, 0.00, -0.00, -1.00, 1426.6, 710.0)">e</text><text xml:space="preserve" font-family="CourierNewPSMT,Courier New" font-size="60.0" fill="#FEFFFE" transform="matrix(1.00, 0.00, -0.00, -1.00, 1462.6, 710.0)">r</text><text xml:space="preserve" font-family="CourierNewPSMT,Courier New" font-size="60.0" fill="#FEFFFE" transform="matrix(1.00, 0.00, -0.00, -1.00, 1498.6, 710.0)">]</text><text xml:space="preserve" font-family="CourierNewPSMT,Courier New" font-size="60.0" fill="#FEFFFE" transform="matrix(1.00, 0.00, -0.00, -1.00, 1534.6, 710.0)">)</text><text xml:space="preserve" font-family="CourierNewPSMT,Courier New" font-size="60.0" fill="#FEFFFE" transform="matrix(1.00, 0.00, -0.00, -1.00, 1570.7, 710.0)"> </text><text xml:space="preserve" font-family="CourierNewPSMT,Courier New" font-size="60.0" fill="#FEFFFE" transform="matrix(1.00, 0.00, -0.00, -1.00, 58.2, 642.0)"> </text><text xml:space="preserve" font-family="CourierNewPSMT,Courier New" font-size="60.0" fill="#FEFFFE" transform="matrix(1.00, 0.00, -0.00, -1.00, 94.2, 642.0)"> </text><text xml:space="preserve" font-family="CourierNewPSMT,Courier New" font-size="60.0" fill="#FEFFFE" transform="matrix(1.00, 0.00, -0.00, -1.00, 58.2, 574.0)">&lt;</text><text xml:space="preserve" font-family="CourierNewPSMT,Courier New" font-size="60.0" fill="#FEFFFE" transform="matrix(1.00, 0.00, -0.00, -1.00, 94.2, 574.0)">h</text><text xml:space="preserve" font-family="CourierNewPSMT,Courier New" font-size="60.0" fill="#FEFFFE" transform="matrix(1.00, 0.00, -0.00, -1.00, 130.2, 574.0)">1</text><text xml:space="preserve" font-family="CourierNewPSMT,Courier New" font-size="60.0" fill="#FEFFFE" transform="matrix(1.00, 0.00, -0.00, -1.00, 166.2, 574.0)">&gt;</text><text xml:space="preserve" font-family="CourierNewPSMT,Courier New" font-size="60.0" fill="#FEFFFE" transform="matrix(1.00, 0.00, -0.00, -1.00, 202.2, 574.0)">W</text><text xml:space="preserve" font-family="CourierNewPSMT,Courier New" font-size="60.0" fill="#FEFFFE" transform="matrix(1.00, 0.00, -0.00, -1.00, 238.2, 574.0)">e</text><text xml:space="preserve" font-family="CourierNewPSMT,Courier New" font-size="60.0" fill="#FEFFFE" transform="matrix(1.00, 0.00, -0.00, -1.00, 274.2, 574.0)">l</text><text xml:space="preserve" font-family="CourierNewPSMT,Courier New" font-size="60.0" fill="#FEFFFE" transform="matrix(1.00, 0.00, -0.00, -1.00, 310.2, 574.0)">c</text><text xml:space="preserve" font-family="CourierNewPSMT,Courier New" font-size="60.0" fill="#FEFFFE" transform="matrix(1.00, 0.00, -0.00, -1.00, 346.2, 574.0)">o</text><text xml:space="preserve" font-family="CourierNewPSMT,Courier New" font-size="60.0" fill="#FEFFFE" transform="matrix(1.00, 0.00, -0.00, -1.00, 382.3, 574.0)">m</text><text xml:space="preserve" font-family="CourierNewPSMT,Courier New" font-size="60.0" fill="#FEFFFE" transform="matrix(1.00, 0.00, -0.00, -1.00, 418.3, 574.0)">e</text><text xml:space="preserve" font-family="CourierNewPSMT,Courier New" font-size="60.0" fill="#FEFFFE" transform="matrix(1.00, 0.00, -0.00, -1.00, 454.3, 574.0)"> </text><text xml:space="preserve" font-family="CourierNewPSMT,Courier New" font-size="60.0" fill="#FEFFFE" transform="matrix(1.00, 0.00, -0.00, -1.00, 490.3, 574.0)">@</text><text xml:space="preserve" font-family="CourierNewPSMT,Courier New" font-size="60.0" fill="#FEFFFE" transform="matrix(1.00, 0.00, -0.00, -1.00, 526.3, 574.0)">c</text><text xml:space="preserve" font-family="CourierNewPSMT,Courier New" font-size="60.0" fill="#FEFFFE" transform="matrix(1.00, 0.00, -0.00, -1.00, 562.3, 574.0)">u</text><text xml:space="preserve" font-family="CourierNewPSMT,Courier New" font-size="60.0" fill="#FEFFFE" transform="matrix(1.00, 0.00, -0.00, -1.00, 598.3, 574.0)">s</text><text xml:space="preserve" font-family="CourierNewPSMT,Courier New" font-size="60.0" fill="#FEFFFE" transform="matrix(1.00, 0.00, -0.00, -1.00, 634.3, 574.0)">t</text><text xml:space="preserve" font-family="CourierNewPSMT,Courier New" font-size="60.0" fill="#FEFFFE" transform="matrix(1.00, 0.00, -0.00, -1.00, 670.4, 574.0)">o</text><text xml:space="preserve" font-family="CourierNewPSMT,Courier New" font-size="60.0" fill="#FEFFFE" transform="matrix(1.00, 0.00, -0.00, -1.00, 706.4, 574.0)">m</text><text xml:space="preserve" font-family="CourierNewPSMT,Courier New" font-size="60.0" fill="#FEFFFE" transform="matrix(1.00, 0.00, -0.00, -1.00, 742.4, 574.0)">e</text><text xml:space="preserve" font-family="CourierNewPSMT,Courier New" font-size="60.0" fill="#FEFFFE" transform="matrix(1.00, 0.00, -0.00, -1.00, 778.4, 574.0)">r</text><text xml:space="preserve" font-family="CourierNewPSMT,Courier New" font-size="60.0" fill="#FEFFFE" transform="matrix(1.00, 0.00, -0.00, -1.00, 814.4, 574.0)">.</text><text xml:space="preserve" font-family="CourierNewPSMT,Courier New" font-size="60.0" fill="#FEFFFE" transform="matrix(1.00, 0.00, -0.00, -1.00, 850.4, 574.0)">n</text><text xml:space="preserve" font-family="CourierNewPSMT,Courier New" font-size="60.0" fill="#FEFFFE" transform="matrix(1.00, 0.00, -0.00, -1.00, 886.4, 574.0)">a</text><text xml:space="preserve" font-family="CourierNewPSMT,Courier New" font-size="60.0" fill="#FEFFFE" transform="matrix(1.00, 0.00, -0.00, -1.00, 922.4, 574.0)">m</text><text xml:space="preserve" font-family="CourierNewPSMT,Courier New" font-size="60.0" fill="#FEFFFE" transform="matrix(1.00, 0.00, -0.00, -1.00, 958.4, 574.0)">e</text><text xml:space="preserve" font-family="CourierNewPSMT,Courier New" font-size="60.0" fill="#FEFFFE" transform="matrix(1.00, 0.00, -0.00, -1.00, 994.5, 574.0)">!</text><text xml:space="preserve" font-family="CourierNewPSMT,Courier New" font-size="60.0" fill="#FEFFFE" transform="matrix(1.00, 0.00, -0.00, -1.00, 1030.5, 574.0)">&lt;</text><text xml:space="preserve" font-family="CourierNewPSMT,Courier New" font-size="60.0" fill="#FEFFFE" transform="matrix(1.00, 0.00, -0.00, -1.00, 1066.5, 574.0)">/</text><text xml:space="preserve" font-family="CourierNewPSMT,Courier New" font-size="60.0" fill="#FEFFFE" transform="matrix(1.00, 0.00, -0.00, -1.00, 1102.5, 574.0)">h</text><text xml:space="preserve" font-family="CourierNewPSMT,Courier New" font-size="60.0" fill="#FEFFFE" transform="matrix(1.00, 0.00, -0.00, -1.00, 1138.5, 574.0)">1</text><text xml:space="preserve" font-family="CourierNewPSMT,Courier New" font-size="60.0" fill="#FEFFFE" transform="matrix(1.00, 0.00, -0.00, -1.00, 1174.5, 574.0)">&gt;</text><text xml:space="preserve" font-family="CourierNewPSMT,Courier New" font-size="60.0" fill="#FEFFFE" transform="matrix(1.00, 0.00, -0.00, -1.00, 1210.5, 574.0)"> </text><text xml:space="preserve" font-family="CourierNewPSMT,Courier New" font-size="60.0" fill="#FEFFFE" transform="matrix(1.00, 0.00, -0.00, -1.00, 58.2, 438.0)">&lt;</text><text xml:space="preserve" font-family="CourierNewPSMT,Courier New" font-size="60.0" fill="#FEFFFE" transform="matrix(1.00, 0.00, -0.00, -1.00, 94.2, 438.0)">u</text><text xml:space="preserve" font-family="CourierNewPSMT,Courier New" font-size="60.0" fill="#FEFFFE" transform="matrix(1.00, 0.00, -0.00, -1.00, 130.2, 438.0)">l</text><text xml:space="preserve" font-family="CourierNewPSMT,Courier New" font-size="60.0" fill="#FEFFFE" transform="matrix(1.00, 0.00, -0.00, -1.00, 166.2, 438.0)">&gt;</text><text xml:space="preserve" font-family="CourierNewPSMT,Courier New" font-size="60.0" fill="#FEFFFE" transform="matrix(1.00, 0.00, -0.00, -1.00, 202.2, 438.0)"> </text><text xml:space="preserve" font-family="CourierNewPSMT,Courier New" font-size="60.0" fill="#FEFFFE" transform="matrix(1.00, 0.00, -0.00, -1.00, 238.2, 438.0)"> </text><text xml:space="preserve" font-family="CourierNewPSMT,Courier New" font-size="60.0" fill="#FEFFFE" transform="matrix(1.00, 0.00, -0.00, -1.00, 58.2, 370.0)">@</text><text xml:space="preserve" font-family="CourierNewPSMT,Courier New" font-size="60.0" fill="#FEFFFE" transform="matrix(1.00, 0.00, -0.00, -1.00, 94.2, 370.0)">f</text><text xml:space="preserve" font-family="CourierNewPSMT,Courier New" font-size="60.0" fill="#FEFFFE" transform="matrix(1.00, 0.00, -0.00, -1.00, 130.2, 370.0)">o</text><text xml:space="preserve" font-family="CourierNewPSMT,Courier New" font-size="60.0" fill="#FEFFFE" transform="matrix(1.00, 0.00, -0.00, -1.00, 166.2, 370.0)">r</text><text xml:space="preserve" font-family="CourierNewPSMT,Courier New" font-size="60.0" fill="#FEFFFE" transform="matrix(1.00, 0.00, -0.00, -1.00, 202.2, 370.0)">(</text><text xml:space="preserve" font-family="CourierNewPSMT,Courier New" font-size="60.0" fill="#FEFFFE" transform="matrix(1.00, 0.00, -0.00, -1.00, 238.2, 370.0)">o</text><text xml:space="preserve" font-family="CourierNewPSMT,Courier New" font-size="60.0" fill="#FEFFFE" transform="matrix(1.00, 0.00, -0.00, -1.00, 274.2, 370.0)">r</text><text xml:space="preserve" font-family="CourierNewPSMT,Courier New" font-size="60.0" fill="#FEFFFE" transform="matrix(1.00, 0.00, -0.00, -1.00, 310.2, 370.0)">d</text><text xml:space="preserve" font-family="CourierNewPSMT,Courier New" font-size="60.0" fill="#FEFFFE" transform="matrix(1.00, 0.00, -0.00, -1.00, 346.2, 370.0)">e</text><text xml:space="preserve" font-family="CourierNewPSMT,Courier New" font-size="60.0" fill="#FEFFFE" transform="matrix(1.00, 0.00, -0.00, -1.00, 382.3, 370.0)">r</text><text xml:space="preserve" font-family="CourierNewPSMT,Courier New" font-size="60.0" fill="#FEFFFE" transform="matrix(1.00, 0.00, -0.00, -1.00, 418.3, 370.0)"> </text><text xml:space="preserve" font-family="CourierNewPSMT,Courier New" font-size="60.0" fill="#FEFFFE" transform="matrix(1.00, 0.00, -0.00, -1.00, 454.3, 370.0)">&lt;</text><text xml:space="preserve" font-family="CourierNewPSMT,Courier New" font-size="60.0" fill="#FEFFFE" transform="matrix(1.00, 0.00, -0.00, -1.00, 490.3, 370.0)">-</text><text xml:space="preserve" font-family="CourierNewPSMT,Courier New" font-size="60.0" fill="#FEFFFE" transform="matrix(1.00, 0.00, -0.00, -1.00, 526.3, 370.0)"> </text><text xml:space="preserve" font-family="CourierNewPSMT,Courier New" font-size="60.0" fill="#FEFFFE" transform="matrix(1.00, 0.00, -0.00, -1.00, 562.3, 370.0)">o</text><text xml:space="preserve" font-family="CourierNewPSMT,Courier New" font-size="60.0" fill="#FEFFFE" transform="matrix(1.00, 0.00, -0.00, -1.00, 598.3, 370.0)">r</text><text xml:space="preserve" font-family="CourierNewPSMT,Courier New" font-size="60.0" fill="#FEFFFE" transform="matrix(1.00, 0.00, -0.00, -1.00, 634.3, 370.0)">d</text><text xml:space="preserve" font-family="CourierNewPSMT,Courier New" font-size="60.0" fill="#FEFFFE" transform="matrix(1.00, 0.00, -0.00, -1.00, 670.4, 370.0)">e</text><text xml:space="preserve" font-family="CourierNewPSMT,Courier New" font-size="60.0" fill="#FEFFFE" transform="matrix(1.00, 0.00, -0.00, -1.00, 706.4, 370.0)">r</text><text xml:space="preserve" font-family="CourierNewPSMT,Courier New" font-size="60.0" fill="#FEFFFE" transform="matrix(1.00, 0.00, -0.00, -1.00, 742.4, 370.0)">s</text><text xml:space="preserve" font-family="CourierNewPSMT,Courier New" font-size="60.0" fill="#FEFFFE" transform="matrix(1.00, 0.00, -0.00, -1.00, 778.4, 370.0)">)</text><text xml:space="preserve" font-family="CourierNewPSMT,Courier New" font-size="60.0" fill="#FEFFFE" transform="matrix(1.00, 0.00, -0.00, -1.00, 814.4, 370.0)"> </text><text xml:space="preserve" font-family="CourierNewPSMT,Courier New" font-size="60.0" fill="#FEFFFE" transform="matrix(1.00, 0.00, -0.00, -1.00, 850.4, 370.0)">{</text><text xml:space="preserve" font-family="CourierNewPSMT,Courier New" font-size="60.0" fill="#FEFFFE" transform="matrix(1.00, 0.00, -0.00, -1.00, 886.4, 370.0)"> </text><text xml:space="preserve" font-family="CourierNewPSMT,Courier New" font-size="60.0" fill="#FEFFFE" transform="matrix(1.00, 0.00, -0.00, -1.00, 58.2, 302.0)"> </text><text xml:space="preserve" font-family="CourierNewPSMT,Courier New" font-size="60.0" fill="#FEFFFE" transform="matrix(1.00, 0.00, -0.00, -1.00, 94.2, 302.0)"> </text><text xml:space="preserve" font-family="CourierNewPSMT,Courier New" font-size="60.0" fill="#FEFFFE" transform="matrix(1.00, 0.00, -0.00, -1.00, 130.2, 302.0)">&lt;</text><text xml:space="preserve" font-family="CourierNewPSMT,Courier New" font-size="60.0" fill="#FEFFFE" transform="matrix(1.00, 0.00, -0.00, -1.00, 166.2, 302.0)">l</text><text xml:space="preserve" font-family="CourierNewPSMT,Courier New" font-size="60.0" fill="#FEFFFE" transform="matrix(1.00, 0.00, -0.00, -1.00, 202.2, 302.0)">i</text><text xml:space="preserve" font-family="CourierNewPSMT,Courier New" font-size="60.0" fill="#FEFFFE" transform="matrix(1.00, 0.00, -0.00, -1.00, 238.2, 302.0)">&gt;</text><text xml:space="preserve" font-family="CourierNewPSMT,Courier New" font-size="60.0" fill="#FEFFFE" transform="matrix(1.00, 0.00, -0.00, -1.00, 274.2, 302.0)">@</text><text xml:space="preserve" font-family="CourierNewPSMT,Courier New" font-size="60.0" fill="#FEFFFE" transform="matrix(1.00, 0.00, -0.00, -1.00, 310.2, 302.0)">(</text><text xml:space="preserve" font-family="CourierNewPSMT,Courier New" font-size="60.0" fill="#FEFFFE" transform="matrix(1.00, 0.00, -0.00, -1.00, 346.2, 302.0)">o</text><text xml:space="preserve" font-family="CourierNewPSMT,Courier New" font-size="60.0" fill="#FEFFFE" transform="matrix(1.00, 0.00, -0.00, -1.00, 382.3, 302.0)">r</text><text xml:space="preserve" font-family="CourierNewPSMT,Courier New" font-size="60.0" fill="#FEFFFE" transform="matrix(1.00, 0.00, -0.00, -1.00, 418.3, 302.0)">d</text><text xml:space="preserve" font-family="CourierNewPSMT,Courier New" font-size="60.0" fill="#FEFFFE" transform="matrix(1.00, 0.00, -0.00, -1.00, 454.3, 302.0)">e</text><text xml:space="preserve" font-family="CourierNewPSMT,Courier New" font-size="60.0" fill="#FEFFFE" transform="matrix(1.00, 0.00, -0.00, -1.00, 490.3, 302.0)">r</text><text xml:space="preserve" font-family="CourierNewPSMT,Courier New" font-size="60.0" fill="#FEFFFE" transform="matrix(1.00, 0.00, -0.00, -1.00, 526.3, 302.0)">.</text><text xml:space="preserve" font-family="CourierNewPSMT,Courier New" font-size="60.0" fill="#FEFFFE" transform="matrix(1.00, 0.00, -0.00, -1.00, 562.3, 302.0)">g</text><text xml:space="preserve" font-family="CourierNewPSMT,Courier New" font-size="60.0" fill="#FEFFFE" transform="matrix(1.00, 0.00, -0.00, -1.00, 598.3, 302.0)">e</text><text xml:space="preserve" font-family="CourierNewPSMT,Courier New" font-size="60.0" fill="#FEFFFE" transform="matrix(1.00, 0.00, -0.00, -1.00, 634.3, 302.0)">t</text><text xml:space="preserve" font-family="CourierNewPSMT,Courier New" font-size="60.0" fill="#FEFFFE" transform="matrix(1.00, 0.00, -0.00, -1.00, 670.4, 302.0)">T</text><text xml:space="preserve" font-family="CourierNewPSMT,Courier New" font-size="60.0" fill="#FEFFFE" transform="matrix(1.00, 0.00, -0.00, -1.00, 706.4, 302.0)">i</text><text xml:space="preserve" font-family="CourierNewPSMT,Courier New" font-size="60.0" fill="#FEFFFE" transform="matrix(1.00, 0.00, -0.00, -1.00, 742.4, 302.0)">t</text><text xml:space="preserve" font-family="CourierNewPSMT,Courier New" font-size="60.0" fill="#FEFFFE" transform="matrix(1.00, 0.00, -0.00, -1.00, 778.4, 302.0)">l</text><text xml:space="preserve" font-family="CourierNewPSMT,Courier New" font-size="60.0" fill="#FEFFFE" transform="matrix(1.00, 0.00, -0.00, -1.00, 814.4, 302.0)">e</text><text xml:space="preserve" font-family="CourierNewPSMT,Courier New" font-size="60.0" fill="#FEFFFE" transform="matrix(1.00, 0.00, -0.00, -1.00, 850.4, 302.0)">(</text><text xml:space="preserve" font-family="CourierNewPSMT,Courier New" font-size="60.0" fill="#FEFFFE" transform="matrix(1.00, 0.00, -0.00, -1.00, 886.4, 302.0)">)</text><text xml:space="preserve" font-family="CourierNewPSMT,Courier New" font-size="60.0" fill="#FEFFFE" transform="matrix(1.00, 0.00, -0.00, -1.00, 922.4, 302.0)">)</text><text xml:space="preserve" font-family="CourierNewPSMT,Courier New" font-size="60.0" fill="#FEFFFE" transform="matrix(1.00, 0.00, -0.00, -1.00, 958.3, 302.0)">&lt;</text><text xml:space="preserve" font-family="CourierNewPSMT,Courier New" font-size="60.0" fill="#FEFFFE" transform="matrix(1.00, 0.00, -0.00, -1.00, 994.3, 302.0)">/</text><text xml:space="preserve" font-family="CourierNewPSMT,Courier New" font-size="60.0" fill="#FEFFFE" transform="matrix(1.00, 0.00, -0.00, -1.00, 1030.3, 302.0)">l</text><text xml:space="preserve" font-family="CourierNewPSMT,Courier New" font-size="60.0" fill="#FEFFFE" transform="matrix(1.00, 0.00, -0.00, -1.00, 1066.3, 302.0)">i</text><text xml:space="preserve" font-family="CourierNewPSMT,Courier New" font-size="60.0" fill="#FEFFFE" transform="matrix(1.00, 0.00, -0.00, -1.00, 1102.3, 302.0)">&gt;</text><text xml:space="preserve" font-family="CourierNewPSMT,Courier New" font-size="60.0" fill="#FEFFFE" transform="matrix(1.00, 0.00, -0.00, -1.00, 1138.4, 302.0)"> </text><text xml:space="preserve" font-family="CourierNewPSMT,Courier New" font-size="60.0" fill="#FEFFFE" transform="matrix(1.00, 0.00, -0.00, -1.00, 58.2, 234.0)">}</text><text xml:space="preserve" font-family="CourierNewPSMT,Courier New" font-size="60.0" fill="#FEFFFE" transform="matrix(1.00, 0.00, -0.00, -1.00, 94.2, 234.0)"> </text><text xml:space="preserve" font-family="CourierNewPSMT,Courier New" font-size="60.0" fill="#FEFFFE" transform="matrix(1.00, 0.00, -0.00, -1.00, 130.2, 234.0)"> </text><text xml:space="preserve" font-family="CourierNewPSMT,Courier New" font-size="60.0" fill="#FEFFFE" transform="matrix(1.00, 0.00, -0.00, -1.00, 58.2, 166.0)">&lt;</text><text xml:space="preserve" font-family="CourierNewPSMT,Courier New" font-size="60.0" fill="#FEFFFE" transform="matrix(1.00, 0.00, -0.00, -1.00, 94.2, 166.0)">/</text><text xml:space="preserve" font-family="CourierNewPSMT,Courier New" font-size="60.0" fill="#FEFFFE" transform="matrix(1.00, 0.00, -0.00, -1.00, 130.2, 166.0)">u</text><text xml:space="preserve" font-family="CourierNewPSMT,Courier New" font-size="60.0" fill="#FEFFFE" transform="matrix(1.00, 0.00, -0.00, -1.00, 166.2, 166.0)">l</text><text xml:space="preserve" font-family="CourierNewPSMT,Courier New" font-size="60.0" fill="#FEFFFE" transform="matrix(1.00, 0.00, -0.00, -1.00, 202.2, 166.0)">&gt;</text></g></svg>