<?xml version="1.0" encoding="UTF-8" standalone="no"?><svg xmlns="http://www.w3.org/2000/svg" xmlns:xlink="http://www.w3.org/1999/xlink" clip-rule="evenodd" stroke-miterlimit="10" viewBox="0 0 1920 1080"><desc>SVG generated by Keynote</desc><defs></defs><g transform="matrix(1.00, 0.00, -0.00, -1.00, 0.0, 1080.0)"><g><clipPath id="clip0x7f9a41deab90"><path d="M 0.0 1080.0 L 1920.0 1080.0 L 1920.0 0.0 L 0.0 0.0 Z M 0.0 1080.0 "></path></clipPath><g clip-path="url(#clip0x7f9a41deab90)"><image xlink:href="../../2454F38C-308E-4D93-86A7-ACF877EF01F7/assets/D54D7AAA5FD1EC733BC359F041C689F1.jpeg" width="2048.00" height="1536.00" transform="matrix(0.94, 0.00, -0.00, -0.70, 0.0, 1080.0)"></image></g></g><text xml:space="preserve" font-family="Chalkduster,Chalkduster" font-size="100.0" fill="#71AFE1" transform="matrix(1.00, 0.00, -0.00, -1.00, 638.0, 922.5)">V</text><text xml:space="preserve" font-family="Chalkduster,Chalkduster" font-size="100.0" fill="#71AFE1" transform="matrix(1.00, 0.00, -0.00, -1.00, 702.0, 922.5)">a</text><text xml:space="preserve" font-family="Chalkduster,Chalkduster" font-size="100.0" fill="#71AFE1" transform="matrix(1.00, 0.00, -0.00, -1.00, 766.8, 922.5)">l</text><text xml:space="preserve" font-family="Chalkduster,Chalkduster" font-size="100.0" fill="#71AFE1" transform="matrix(1.00, 0.00, -0.00, -1.00, 814.9, 922.5)">i</text><text xml:space="preserve" font-family="Chalkduster,Chalkduster" font-size="100.0" fill="#71AFE1" transform="matrix(1.00, 0.00, -0.00, -1.00, 857.9, 922.5)">d</text><text xml:space="preserve" font-family="Chalkduster,Chalkduster" font-size="100.0" fill="#71AFE1" transform="matrix(1.00, 0.00, -0.00, -1.00, 936.0, 922.5)">a</text><text xml:space="preserve" font-family="Chalkduster,Chalkduster" font-size="100.0" fill="#71AFE1" transform="matrix(1.00, 0.00, -0.00, -1.00, 998.1, 922.5)">t</text><text xml:space="preserve" font-family="Chalkduster,Chalkduster" font-size="100.0" fill="#71AFE1" transform="matrix(1.00, 0.00, -0.00, -1.00, 1044.3, 922.5)">i</text><text xml:space="preserve" font-family="Chalkduster,Chalkduster" font-size="100.0" fill="#71AFE1" transform="matrix(1.00, 0.00, -0.00, -1.00, 1083.8, 922.5)">o</text><text xml:space="preserve" font-family="Chalkduster,Chalkduster" font-size="100.0" fill="#71AFE1" transform="matrix(1.00, 0.00, -0.00, -1.00, 1158.3, 922.5)">n</text><text xml:space="preserve" font-family="Chalkduster,Chalkduster" font-size="100.0" fill="#71AFE1" transform="matrix(1.00, 0.00, -0.00, -1.00, 1231.6, 922.5)">s</text><text xml:space="preserve" font-family="CourierNewPSMT,Courier New" font-size="60.0" fill="#FEFFFE" transform="matrix(1.00, 0.00, -0.00, -1.00, 58.2, 846.0)">@</text><text xml:space="preserve" font-family="CourierNewPSMT,Courier New" font-size="60.0" fill="#FEFFFE" transform="matrix(1.00, 0.00, -0.00, -1.00, 94.2, 846.0)">E</text><text xml:space="preserve" font-family="CourierNewPSMT,Courier New" font-size="60.0" fill="#FEFFFE" transform="matrix(1.00, 0.00, -0.00, -1.00, 130.2, 846.0)">n</text><text xml:space="preserve" font-family="CourierNewPSMT,Courier New" font-size="60.0" fill="#FEFFFE" transform="matrix(1.00, 0.00, -0.00, -1.00, 166.2, 846.0)">t</text><text xml:space="preserve" font-family="CourierNewPSMT,Courier New" font-size="60.0" fill="#FEFFFE" transform="matrix(1.00, 0.00, -0.00, -1.00, 202.2, 846.0)">i</text><text xml:space="preserve" font-family="CourierNewPSMT,Courier New" font-size="60.0" fill="#FEFFFE" transform="matrix(1.00, 0.00, -0.00, -1.00, 238.2, 846.0)">t</text><text xml:space="preserve" font-family="CourierNewPSMT,Courier New" font-size="60.0" fill="#FEFFFE" transform="matrix(1.00, 0.00, -0.00, -1.00, 274.2, 846.0)">y</text><text xml:space="preserve" font-family="CourierNewPSMT,Courier New" font-size="60.0" fill="#FEFFFE" transform="matrix(1.00, 0.00, -0.00, -1.00, 310.2, 846.0)"> </text><text xml:space="preserve" font-family="CourierNewPSMT,Courier New" font-size="60.0" fill="#FEFFFE" transform="matrix(1.00, 0.00, -0.00, -1.00, 346.2, 846.0)"> </text><text xml:space="preserve" font-family="CourierNewPS-BoldMT,Courier New" font-weight="bold" font-size="60.0" fill="#FEFFFE" transform="matrix(1.00, 0.00, -0.00, -1.00, 58.2, 778.0)">p</text><text xml:space="preserve" font-family="CourierNewPS-BoldMT,Courier New" font-weight="bold" font-size="60.0" fill="#FEFFFE" transform="matrix(1.00, 0.00, -0.00, -1.00, 94.2, 778.0)">u</text><text xml:space="preserve" font-family="CourierNewPS-BoldMT,Courier New" font-weight="bold" font-size="60.0" fill="#FEFFFE" transform="matrix(1.00, 0.00, -0.00, -1.00, 130.2, 778.0)">b</text><text xml:space="preserve" font-family="CourierNewPS-BoldMT,Courier New" font-weight="bold" font-size="60.0" fill="#FEFFFE" transform="matrix(1.00, 0.00, -0.00, -1.00, 166.2, 778.0)">l</text><text xml:space="preserve" font-family="CourierNewPS-BoldMT,Courier New" font-weight="bold" font-size="60.0" fill="#FEFFFE" transform="matrix(1.00, 0.00, -0.00, -1.00, 202.2, 778.0)">i</text><text xml:space="preserve" font-family="CourierNewPS-BoldMT,Courier New" font-weight="bold" font-size="60.0" fill="#FEFFFE" transform="matrix(1.00, 0.00, -0.00, -1.00, 238.2, 778.0)">c</text><text xml:space="preserve" font-family="CourierNewPSMT,Courier New" font-size="60.0" fill="#FEFFFE" transform="matrix(1.00, 0.00, -0.00, -1.00, 274.2, 778.0)"> </text><text xml:space="preserve" font-family="CourierNewPS-BoldMT,Courier New" font-weight="bold" font-size="60.0" fill="#FEFFFE" transform="matrix(1.00, 0.00, -0.00, -1.00, 310.2, 778.0)">c</text><text xml:space="preserve" font-family="CourierNewPS-BoldMT,Courier New" font-weight="bold" font-size="60.0" fill="#FEFFFE" transform="matrix(1.00, 0.00, -0.00, -1.00, 346.2, 778.0)">l</text><text xml:space="preserve" font-family="CourierNewPS-BoldMT,Courier New" font-weight="bold" font-size="60.0" fill="#FEFFFE" transform="matrix(1.00, 0.00, -0.00, -1.00, 382.2, 778.0)">a</text><text xml:space="preserve" font-family="CourierNewPS-BoldMT,Courier New" font-weight="bold" font-size="60.0" fill="#FEFFFE" transform="matrix(1.00, 0.00, -0.00, -1.00, 418.2, 778.0)">s</text><text xml:space="preserve" font-family="CourierNewPS-BoldMT,Courier New" font-weight="bold" font-size="60.0" fill="#FEFFFE" transform="matrix(1.00, 0.00, -0.00, -1.00, 454.2, 778.0)">s</text><text xml:space="preserve" font-family="CourierNewPSMT,Courier New" font-size="60.0" fill="#FEFFFE" transform="matrix(1.00, 0.00, -0.00, -1.00, 490.2, 778.0)"> </text><text xml:space="preserve" font-family="CourierNewPSMT,Courier New" font-size="60.0" fill="#FEFFFE" transform="matrix(1.00, 0.00, -0.00, -1.00, 526.2, 778.0)">M</text><text xml:space="preserve" font-family="CourierNewPSMT,Courier New" font-size="60.0" fill="#FEFFFE" transform="matrix(1.00, 0.00, -0.00, -1.00, 562.2, 778.0)">i</text><text xml:space="preserve" font-family="CourierNewPSMT,Courier New" font-size="60.0" fill="#FEFFFE" transform="matrix(1.00, 0.00, -0.00, -1.00, 598.3, 778.0)">M</text><text xml:space="preserve" font-family="CourierNewPSMT,Courier New" font-size="60.0" fill="#FEFFFE" transform="matrix(1.00, 0.00, -0.00, -1.00, 634.3, 778.0)">o</text><text xml:space="preserve" font-family="CourierNewPSMT,Courier New" font-size="60.0" fill="#FEFFFE" transform="matrix(1.00, 0.00, -0.00, -1.00, 670.3, 778.0)">d</text><text xml:space="preserve" font-family="CourierNewPSMT,Courier New" font-size="60.0" fill="#FEFFFE" transform="matrix(1.00, 0.00, -0.00, -1.00, 706.3, 778.0)">e</text><text xml:space="preserve" font-family="CourierNewPSMT,Courier New" font-size="60.0" fill="#FEFFFE" transform="matrix(1.00, 0.00, -0.00, -1.00, 742.3, 778.0)">l</text><text xml:space="preserve" font-family="CourierNewPSMT,Courier New" font-size="60.0" fill="#FEFFFE" transform="matrix(1.00, 0.00, -0.00, -1.00, 778.3, 778.0)">o</text><text xml:space="preserve" font-family="CourierNewPSMT,Courier New" font-size="60.0" fill="#FEFFFE" transform="matrix(1.00, 0.00, -0.00, -1.00, 814.3, 778.0)"> </text><text xml:space="preserve" font-family="CourierNewPS-BoldMT,Courier New" font-weight="bold" font-size="60.0" fill="#FEFFFE" transform="matrix(1.00, 0.00, -0.00, -1.00, 850.3, 778.0)">e</text><text xml:space="preserve" font-family="CourierNewPS-BoldMT,Courier New" font-weight="bold" font-size="60.0" fill="#FEFFFE" transform="matrix(1.00, 0.00, -0.00, -1.00, 886.3, 778.0)">x</text><text xml:space="preserve" font-family="CourierNewPS-BoldMT,Courier New" font-weight="bold" font-size="60.0" fill="#FEFFFE" transform="matrix(1.00, 0.00, -0.00, -1.00, 922.3, 778.0)">t</text><text xml:space="preserve" font-family="CourierNewPS-BoldMT,Courier New" font-weight="bold" font-size="60.0" fill="#FEFFFE" transform="matrix(1.00, 0.00, -0.00, -1.00, 958.3, 778.0)">e</text><text xml:space="preserve" font-family="CourierNewPS-BoldMT,Courier New" font-weight="bold" font-size="60.0" fill="#FEFFFE" transform="matrix(1.00, 0.00, -0.00, -1.00, 994.3, 778.0)">n</text><text xml:space="preserve" font-family="CourierNewPS-BoldMT,Courier New" font-weight="bold" font-size="60.0" fill="#FEFFFE" transform="matrix(1.00, 0.00, -0.00, -1.00, 1030.3, 778.0)">d</text><text xml:space="preserve" font-family="CourierNewPS-BoldMT,Courier New" font-weight="bold" font-size="60.0" fill="#FEFFFE" transform="matrix(1.00, 0.00, -0.00, -1.00, 1066.4, 778.0)">s</text><text xml:space="preserve" font-family="CourierNewPSMT,Courier New" font-size="60.0" fill="#FEFFFE" transform="matrix(1.00, 0.00, -0.00, -1.00, 1102.3, 778.0)"> </text><text xml:space="preserve" font-family="CourierNewPSMT,Courier New" font-size="60.0" fill="#FEFFFE" transform="matrix(1.00, 0.00, -0.00, -1.00, 1138.3, 778.0)">M</text><text xml:space="preserve" font-family="CourierNewPSMT,Courier New" font-size="60.0" fill="#FEFFFE" transform="matrix(1.00, 0.00, -0.00, -1.00, 1174.3, 778.0)">o</text><text xml:space="preserve" font-family="CourierNewPSMT,Courier New" font-size="60.0" fill="#FEFFFE" transform="matrix(1.00, 0.00, -0.00, -1.00, 1210.4, 778.0)">d</text><text xml:space="preserve" font-family="CourierNewPSMT,Courier New" font-size="60.0" fill="#FEFFFE" transform="matrix(1.00, 0.00, -0.00, -1.00, 1246.4, 778.0)">e</text><text xml:space="preserve" font-family="CourierNewPSMT,Courier New" font-size="60.0" fill="#FEFFFE" transform="matrix(1.00, 0.00, -0.00, -1.00, 1282.4, 778.0)">l</text><text xml:space="preserve" font-family="CourierNewPSMT,Courier New" font-size="60.0" fill="#FEFFFE" transform="matrix(1.00, 0.00, -0.00, -1.00, 1318.4, 778.0)"> </text><text xml:space="preserve" font-family="CourierNewPSMT,Courier New" font-size="60.0" fill="#FEFFFE" transform="matrix(1.00, 0.00, -0.00, -1.00, 1354.4, 778.0)">{</text><text xml:space="preserve" font-family="CourierNewPSMT,Courier New" font-size="60.0" fill="#FEFFFE" transform="matrix(1.00, 0.00, -0.00, -1.00, 1390.4, 778.0)"> </text><text xml:space="preserve" font-family="CourierNewPSMT,Courier New" font-size="60.0" fill="#FEFFFE" transform="matrix(1.00, 0.00, -0.00, -1.00, 58.2, 642.0)"> </text><text xml:space="preserve" font-family="CourierNewPSMT,Courier New" font-size="60.0" fill="#FEFFFE" transform="matrix(1.00, 0.00, -0.00, -1.00, 94.2, 642.0)"> </text><text xml:space="preserve" font-family="CourierNewPSMT,Courier New" font-size="60.0" fill="#FEFFFE" transform="matrix(1.00, 0.00, -0.00, -1.00, 130.2, 642.0)"> </text><text xml:space="preserve" font-family="CourierNewPSMT,Courier New" font-size="60.0" fill="#FEFFFE" transform="matrix(1.00, 0.00, -0.00, -1.00, 166.2, 642.0)"> </text><text xml:space="preserve" font-family="CourierNewPSMT,Courier New" font-size="60.0" fill="#FEFFFE" transform="matrix(1.00, 0.00, -0.00, -1.00, 202.2, 642.0)">@</text><text xml:space="preserve" font-family="CourierNewPSMT,Courier New" font-size="60.0" fill="#FEFFFE" transform="matrix(1.00, 0.00, -0.00, -1.00, 238.2, 642.0)">R</text><text xml:space="preserve" font-family="CourierNewPSMT,Courier New" font-size="60.0" fill="#FEFFFE" transform="matrix(1.00, 0.00, -0.00, -1.00, 274.2, 642.0)">e</text><text xml:space="preserve" font-family="CourierNewPSMT,Courier New" font-size="60.0" fill="#FEFFFE" transform="matrix(1.00, 0.00, -0.00, -1.00, 310.2, 642.0)">q</text><text xml:space="preserve" font-family="CourierNewPSMT,Courier New" font-size="60.0" fill="#FEFFFE" transform="matrix(1.00, 0.00, -0.00, -1.00, 346.2, 642.0)">u</text><text xml:space="preserve" font-family="CourierNewPSMT,Courier New" font-size="60.0" fill="#FEFFFE" transform="matrix(1.00, 0.00, -0.00, -1.00, 382.3, 642.0)">i</text><text xml:space="preserve" font-family="CourierNewPSMT,Courier New" font-size="60.0" fill="#FEFFFE" transform="matrix(1.00, 0.00, -0.00, -1.00, 418.3, 642.0)">r</text><text xml:space="preserve" font-family="CourierNewPSMT,Courier New" font-size="60.0" fill="#FEFFFE" transform="matrix(1.00, 0.00, -0.00, -1.00, 454.3, 642.0)">e</text><text xml:space="preserve" font-family="CourierNewPSMT,Courier New" font-size="60.0" fill="#FEFFFE" transform="matrix(1.00, 0.00, -0.00, -1.00, 490.3, 642.0)">d</text><text xml:space="preserve" font-family="CourierNewPSMT,Courier New" font-size="60.0" fill="#FEFFFE" transform="matrix(1.00, 0.00, -0.00, -1.00, 526.2, 642.0)"> </text><text xml:space="preserve" font-family="CourierNewPSMT,Courier New" font-size="60.0" fill="#FEFFFE" transform="matrix(1.00, 0.00, -0.00, -1.00, 58.2, 574.0)"> </text><text xml:space="preserve" font-family="CourierNewPSMT,Courier New" font-size="60.0" fill="#FEFFFE" transform="matrix(1.00, 0.00, -0.00, -1.00, 94.2, 574.0)"> </text><text xml:space="preserve" font-family="CourierNewPSMT,Courier New" font-size="60.0" fill="#FEFFFE" transform="matrix(1.00, 0.00, -0.00, -1.00, 130.2, 574.0)"> </text><text xml:space="preserve" font-family="CourierNewPSMT,Courier New" font-size="60.0" fill="#FEFFFE" transform="matrix(1.00, 0.00, -0.00, -1.00, 166.2, 574.0)"> </text><text xml:space="preserve" font-family="CourierNewPS-BoldMT,Courier New" font-weight="bold" font-size="60.0" fill="#FEFFFE" transform="matrix(1.00, 0.00, -0.00, -1.00, 202.2, 574.0)">p</text><text xml:space="preserve" font-family="CourierNewPS-BoldMT,Courier New" font-weight="bold" font-size="60.0" fill="#FEFFFE" transform="matrix(1.00, 0.00, -0.00, -1.00, 238.2, 574.0)">u</text><text xml:space="preserve" font-family="CourierNewPS-BoldMT,Courier New" font-weight="bold" font-size="60.0" fill="#FEFFFE" transform="matrix(1.00, 0.00, -0.00, -1.00, 274.2, 574.0)">b</text><text xml:space="preserve" font-family="CourierNewPS-BoldMT,Courier New" font-weight="bold" font-size="60.0" fill="#FEFFFE" transform="matrix(1.00, 0.00, -0.00, -1.00, 310.2, 574.0)">l</text><text xml:space="preserve" font-family="CourierNewPS-BoldMT,Courier New" font-weight="bold" font-size="60.0" fill="#FEFFFE" transform="matrix(1.00, 0.00, -0.00, -1.00, 346.2, 574.0)">i</text><text xml:space="preserve" font-family="CourierNewPS-BoldMT,Courier New" font-weight="bold" font-size="60.0" fill="#FEFFFE" transform="matrix(1.00, 0.00, -0.00, -1.00, 382.2, 574.0)">c</text><text xml:space="preserve" font-family="CourierNewPSMT,Courier New" font-size="60.0" fill="#FEFFFE" transform="matrix(1.00, 0.00, -0.00, -1.00, 418.2, 574.0)"> </text><text xml:space="preserve" font-family="CourierNewPSMT,Courier New" font-size="60.0" fill="#FEFFFE" transform="matrix(1.00, 0.00, -0.00, -1.00, 454.2, 574.0)">S</text><text xml:space="preserve" font-family="CourierNewPSMT,Courier New" font-size="60.0" fill="#FEFFFE" transform="matrix(1.00, 0.00, -0.00, -1.00, 490.2, 574.0)">t</text><text xml:space="preserve" font-family="CourierNewPSMT,Courier New" font-size="60.0" fill="#FEFFFE" transform="matrix(1.00, 0.00, -0.00, -1.00, 526.2, 574.0)">r</text><text xml:space="preserve" font-family="CourierNewPSMT,Courier New" font-size="60.0" fill="#FEFFFE" transform="matrix(1.00, 0.00, -0.00, -1.00, 562.3, 574.0)">i</text><text xml:space="preserve" font-family="CourierNewPSMT,Courier New" font-size="60.0" fill="#FEFFFE" transform="matrix(1.00, 0.00, -0.00, -1.00, 598.3, 574.0)">n</text><text xml:space="preserve" font-family="CourierNewPSMT,Courier New" font-size="60.0" fill="#FEFFFE" transform="matrix(1.00, 0.00, -0.00, -1.00, 634.3, 574.0)">g</text><text xml:space="preserve" font-family="CourierNewPSMT,Courier New" font-size="60.0" fill="#FEFFFE" transform="matrix(1.00, 0.00, -0.00, -1.00, 670.3, 574.0)"> </text><text xml:space="preserve" font-family="CourierNewPSMT,Courier New" font-size="60.0" fill="#FEFFFE" transform="matrix(1.00, 0.00, -0.00, -1.00, 706.3, 574.0)">n</text><text xml:space="preserve" font-family="CourierNewPSMT,Courier New" font-size="60.0" fill="#FEFFFE" transform="matrix(1.00, 0.00, -0.00, -1.00, 742.3, 574.0)">a</text><text xml:space="preserve" font-family="CourierNewPSMT,Courier New" font-size="60.0" fill="#FEFFFE" transform="matrix(1.00, 0.00, -0.00, -1.00, 778.3, 574.0)">m</text><text xml:space="preserve" font-family="CourierNewPSMT,Courier New" font-size="60.0" fill="#FEFFFE" transform="matrix(1.00, 0.00, -0.00, -1.00, 814.3, 574.0)">e</text><text xml:space="preserve" font-family="CourierNewPSMT,Courier New" font-size="60.0" fill="#FEFFFE" transform="matrix(1.00, 0.00, -0.00, -1.00, 850.4, 574.0)">;</text><text xml:space="preserve" font-family="Monaco,Monaco" font-size="60.0" fill="#FEFFFE" transform="matrix(1.00, 0.00, -0.00, -1.00, 886.3, 574.0)"> </text><text xml:space="preserve" font-family="Monaco,Monaco" font-size="60.0" fill="#FEFFFE" transform="matrix(1.00, 0.00, -0.00, -1.00, 58.2, 506.0)"> </text><text xml:space="preserve" font-family="CourierNewPSMT,Courier New" font-size="60.0" fill="#FEFFFE" transform="matrix(1.00, 0.00, -0.00, -1.00, 58.2, 438.0)"> </text><text xml:space="preserve" font-family="CourierNewPSMT,Courier New" font-size="60.0" fill="#FEFFFE" transform="matrix(1.00, 0.00, -0.00, -1.00, 94.2, 438.0)"> </text><text xml:space="preserve" font-family="CourierNewPSMT,Courier New" font-size="60.0" fill="#FEFFFE" transform="matrix(1.00, 0.00, -0.00, -1.00, 130.2, 438.0)"> </text><text xml:space="preserve" font-family="CourierNewPSMT,Courier New" font-size="60.0" fill="#FEFFFE" transform="matrix(1.00, 0.00, -0.00, -1.00, 166.2, 438.0)"> </text><text xml:space="preserve" font-family="CourierNewPS-BoldMT,Courier New" font-weight="bold" font-size="60.0" fill="#FEFFFE" transform="matrix(1.00, 0.00, -0.00, -1.00, 202.2, 438.0)">p</text><text xml:space="preserve" font-family="CourierNewPS-BoldMT,Courier New" font-weight="bold" font-size="60.0" fill="#FEFFFE" transform="matrix(1.00, 0.00, -0.00, -1.00, 238.2, 438.0)">u</text><text xml:space="preserve" font-family="CourierNewPS-BoldMT,Courier New" font-weight="bold" font-size="60.0" fill="#FEFFFE" transform="matrix(1.00, 0.00, -0.00, -1.00, 274.2, 438.0)">b</text><text xml:space="preserve" font-family="CourierNewPS-BoldMT,Courier New" font-weight="bold" font-size="60.0" fill="#FEFFFE" transform="matrix(1.00, 0.00, -0.00, -1.00, 310.2, 438.0)">l</text><text xml:space="preserve" font-family="CourierNewPS-BoldMT,Courier New" font-weight="bold" font-size="60.0" fill="#FEFFFE" transform="matrix(1.00, 0.00, -0.00, -1.00, 346.2, 438.0)">i</text><text xml:space="preserve" font-family="CourierNewPS-BoldMT,Courier New" font-weight="bold" font-size="60.0" fill="#FEFFFE" transform="matrix(1.00, 0.00, -0.00, -1.00, 382.2, 438.0)">c</text><text xml:space="preserve" font-family="CourierNewPSMT,Courier New" font-size="60.0" fill="#FEFFFE" transform="matrix(1.00, 0.00, -0.00, -1.00, 418.2, 438.0)"> </text><text xml:space="preserve" font-family="CourierNewPSMT,Courier New" font-size="60.0" fill="#FEFFFE" transform="matrix(1.00, 0.00, -0.00, -1.00, 454.2, 438.0)">S</text><text xml:space="preserve" font-family="CourierNewPSMT,Courier New" font-size="60.0" fill="#FEFFFE" transform="matrix(1.00, 0.00, -0.00, -1.00, 490.2, 438.0)">t</text><text xml:space="preserve" font-family="CourierNewPSMT,Courier New" font-size="60.0" fill="#FEFFFE" transform="matrix(1.00, 0.00, -0.00, -1.00, 526.2, 438.0)">r</text><text xml:space="preserve" font-family="CourierNewPSMT,Courier New" font-size="60.0" fill="#FEFFFE" transform="matrix(1.00, 0.00, -0.00, -1.00, 562.3, 438.0)">i</text><text xml:space="preserve" font-family="CourierNewPSMT,Courier New" font-size="60.0" fill="#FEFFFE" transform="matrix(1.00, 0.00, -0.00, -1.00, 598.3, 438.0)">n</text><text xml:space="preserve" font-family="CourierNewPSMT,Courier New" font-size="60.0" fill="#FEFFFE" transform="matrix(1.00, 0.00, -0.00, -1.00, 634.3, 438.0)">g</text><text xml:space="preserve" font-family="CourierNewPSMT,Courier New" font-size="60.0" fill="#FEFFFE" transform="matrix(1.00, 0.00, -0.00, -1.00, 670.3, 438.0)"> </text><text xml:space="preserve" font-family="CourierNewPSMT,Courier New" font-size="60.0" fill="#FEFFFE" transform="matrix(1.00, 0.00, -0.00, -1.00, 706.3, 438.0)">v</text><text xml:space="preserve" font-family="CourierNewPSMT,Courier New" font-size="60.0" fill="#FEFFFE" transform="matrix(1.00, 0.00, -0.00, -1.00, 742.3, 438.0)">a</text><text xml:space="preserve" font-family="CourierNewPSMT,Courier New" font-size="60.0" fill="#FEFFFE" transform="matrix(1.00, 0.00, -0.00, -1.00, 778.3, 438.0)">l</text><text xml:space="preserve" font-family="CourierNewPSMT,Courier New" font-size="60.0" fill="#FEFFFE" transform="matrix(1.00, 0.00, -0.00, -1.00, 814.3, 438.0)">i</text><text xml:space="preserve" font-family="CourierNewPSMT,Courier New" font-size="60.0" fill="#FEFFFE" transform="matrix(1.00, 0.00, -0.00, -1.00, 850.4, 438.0)">d</text><text xml:space="preserve" font-family="CourierNewPSMT,Courier New" font-size="60.0" fill="#FEFFFE" transform="matrix(1.00, 0.00, -0.00, -1.00, 886.4, 438.0)">a</text><text xml:space="preserve" font-family="CourierNewPSMT,Courier New" font-size="60.0" fill="#FEFFFE" transform="matrix(1.00, 0.00, -0.00, -1.00, 922.4, 438.0)">t</text><text xml:space="preserve" font-family="CourierNewPSMT,Courier New" font-size="60.0" fill="#FEFFFE" transform="matrix(1.00, 0.00, -0.00, -1.00, 958.4, 438.0)">e</text><text xml:space="preserve" font-family="CourierNewPSMT,Courier New" font-size="60.0" fill="#FEFFFE" transform="matrix(1.00, 0.00, -0.00, -1.00, 994.4, 438.0)">(</text><text xml:space="preserve" font-family="CourierNewPSMT,Courier New" font-size="60.0" fill="#FEFFFE" transform="matrix(1.00, 0.00, -0.00, -1.00, 1030.4, 438.0)">)</text><text xml:space="preserve" font-family="CourierNewPSMT,Courier New" font-size="60.0" fill="#FEFFFE" transform="matrix(1.00, 0.00, -0.00, -1.00, 1066.4, 438.0)"> </text><text xml:space="preserve" font-family="CourierNewPSMT,Courier New" font-size="60.0" fill="#FEFFFE" transform="matrix(1.00, 0.00, -0.00, -1.00, 1102.4, 438.0)">{</text><text xml:space="preserve" font-family="CourierNewPSMT,Courier New" font-size="60.0" fill="#FEFFFE" transform="matrix(1.00, 0.00, -0.00, -1.00, 1138.4, 438.0)"> </text><text xml:space="preserve" font-family="CourierNewPSMT,Courier New" font-size="60.0" fill="#FEFFFE" transform="matrix(1.00, 0.00, -0.00, -1.00, 58.2, 370.0)"> </text><text xml:space="preserve" font-family="CourierNewPSMT,Courier New" font-size="60.0" fill="#FEFFFE" transform="matrix(1.00, 0.00, -0.00, -1.00, 94.2, 370.0)"> </text><text xml:space="preserve" font-family="CourierNewPSMT,Courier New" font-size="60.0" fill="#FEFFFE" transform="matrix(1.00, 0.00, -0.00, -1.00, 130.2, 370.0)"> </text><text xml:space="preserve" font-family="CourierNewPSMT,Courier New" font-size="60.0" fill="#FEFFFE" transform="matrix(1.00, 0.00, -0.00, -1.00, 166.2, 370.0)"> </text><text xml:space="preserve" font-family="CourierNewPSMT,Courier New" font-size="60.0" fill="#FEFFFE" transform="matrix(1.00, 0.00, -0.00, -1.00, 202.2, 370.0)"> </text><text xml:space="preserve" font-family="CourierNewPSMT,Courier New" font-size="60.0" fill="#FEFFFE" transform="matrix(1.00, 0.00, -0.00, -1.00, 238.2, 370.0)"> </text><text xml:space="preserve" font-family="CourierNewPSMT,Courier New" font-size="60.0" fill="#FEFFFE" transform="matrix(1.00, 0.00, -0.00, -1.00, 274.2, 370.0)"> </text><text xml:space="preserve" font-family="CourierNewPSMT,Courier New" font-size="60.0" fill="#FEFFFE" transform="matrix(1.00, 0.00, -0.00, -1.00, 310.2, 370.0)"> </text><text xml:space="preserve" font-family="CourierNewPSMT,Courier New" font-size="60.0" fill="#FEFFFE" transform="matrix(1.00, 0.00, -0.00, -1.00, 346.2, 370.0)">i</text><text xml:space="preserve" font-family="CourierNewPSMT,Courier New" font-size="60.0" fill="#FEFFFE" transform="matrix(1.00, 0.00, -0.00, -1.00, 382.3, 370.0)">f</text><text xml:space="preserve" font-family="CourierNewPSMT,Courier New" font-size="60.0" fill="#FEFFFE" transform="matrix(1.00, 0.00, -0.00, -1.00, 418.3, 370.0)"> </text><text xml:space="preserve" font-family="CourierNewPSMT,Courier New" font-size="60.0" fill="#FEFFFE" transform="matrix(1.00, 0.00, -0.00, -1.00, 454.3, 370.0)">(</text><text xml:space="preserve" font-family="CourierNewPSMT,Courier New" font-size="60.0" fill="#FEFFFE" transform="matrix(1.00, 0.00, -0.00, -1.00, 490.3, 370.0)">v</text><text xml:space="preserve" font-family="CourierNewPSMT,Courier New" font-size="60.0" fill="#FEFFFE" transform="matrix(1.00, 0.00, -0.00, -1.00, 526.3, 370.0)">a</text><text xml:space="preserve" font-family="CourierNewPSMT,Courier New" font-size="60.0" fill="#FEFFFE" transform="matrix(1.00, 0.00, -0.00, -1.00, 562.3, 370.0)">l</text><text xml:space="preserve" font-family="CourierNewPSMT,Courier New" font-size="60.0" fill="#FEFFFE" transform="matrix(1.00, 0.00, -0.00, -1.00, 598.3, 370.0)">i</text><text xml:space="preserve" font-family="CourierNewPSMT,Courier New" font-size="60.0" fill="#FEFFFE" transform="matrix(1.00, 0.00, -0.00, -1.00, 634.3, 370.0)">d</text><text xml:space="preserve" font-family="CourierNewPSMT,Courier New" font-size="60.0" fill="#FEFFFE" transform="matrix(1.00, 0.00, -0.00, -1.00, 670.4, 370.0)">a</text><text xml:space="preserve" font-family="CourierNewPSMT,Courier New" font-size="60.0" fill="#FEFFFE" transform="matrix(1.00, 0.00, -0.00, -1.00, 706.4, 370.0)">t</text><text xml:space="preserve" font-family="CourierNewPSMT,Courier New" font-size="60.0" fill="#FEFFFE" transform="matrix(1.00, 0.00, -0.00, -1.00, 742.4, 370.0)">i</text><text xml:space="preserve" font-family="CourierNewPSMT,Courier New" font-size="60.0" fill="#FEFFFE" transform="matrix(1.00, 0.00, -0.00, -1.00, 778.4, 370.0)">o</text><text xml:space="preserve" font-family="CourierNewPSMT,Courier New" font-size="60.0" fill="#FEFFFE" transform="matrix(1.00, 0.00, -0.00, -1.00, 814.4, 370.0)">n</text><text xml:space="preserve" font-family="CourierNewPSMT,Courier New" font-size="60.0" fill="#FEFFFE" transform="matrix(1.00, 0.00, -0.00, -1.00, 850.4, 370.0)"> </text><text xml:space="preserve" font-family="CourierNewPSMT,Courier New" font-size="60.0" fill="#FEFFFE" transform="matrix(1.00, 0.00, -0.00, -1.00, 886.4, 370.0)">f</text><text xml:space="preserve" font-family="CourierNewPSMT,Courier New" font-size="60.0" fill="#FEFFFE" transform="matrix(1.00, 0.00, -0.00, -1.00, 922.4, 370.0)">a</text><text xml:space="preserve" font-family="CourierNewPSMT,Courier New" font-size="60.0" fill="#FEFFFE" transform="matrix(1.00, 0.00, -0.00, -1.00, 958.4, 370.0)">i</text><text xml:space="preserve" font-family="CourierNewPSMT,Courier New" font-size="60.0" fill="#FEFFFE" transform="matrix(1.00, 0.00, -0.00, -1.00, 994.5, 370.0)">l</text><text xml:space="preserve" font-family="CourierNewPSMT,Courier New" font-size="60.0" fill="#FEFFFE" transform="matrix(1.00, 0.00, -0.00, -1.00, 1030.5, 370.0)">s</text><text xml:space="preserve" font-family="CourierNewPSMT,Courier New" font-size="60.0" fill="#FEFFFE" transform="matrix(1.00, 0.00, -0.00, -1.00, 1066.3, 370.0)">)</text><text xml:space="preserve" font-family="CourierNewPSMT,Courier New" font-size="60.0" fill="#FEFFFE" transform="matrix(1.00, 0.00, -0.00, -1.00, 1102.3, 370.0)"> </text><text xml:space="preserve" font-family="CourierNewPSMT,Courier New" font-size="60.0" fill="#FEFFFE" transform="matrix(1.00, 0.00, -0.00, -1.00, 1138.3, 370.0)">{</text><text xml:space="preserve" font-family="CourierNewPSMT,Courier New" font-size="60.0" fill="#FEFFFE" transform="matrix(1.00, 0.00, -0.00, -1.00, 1174.4, 370.0)"> </text><text xml:space="preserve" font-family="CourierNewPSMT,Courier New" font-size="60.0" fill="#FEFFFE" transform="matrix(1.00, 0.00, -0.00, -1.00, 58.2, 302.0)"> </text><text xml:space="preserve" font-family="CourierNewPSMT,Courier New" font-size="60.0" fill="#FEFFFE" transform="matrix(1.00, 0.00, -0.00, -1.00, 94.2, 302.0)"> </text><text xml:space="preserve" font-family="CourierNewPSMT,Courier New" font-size="60.0" fill="#FEFFFE" transform="matrix(1.00, 0.00, -0.00, -1.00, 130.2, 302.0)"> </text><text xml:space="preserve" font-family="CourierNewPSMT,Courier New" font-size="60.0" fill="#FEFFFE" transform="matrix(1.00, 0.00, -0.00, -1.00, 166.2, 302.0)"> </text><text xml:space="preserve" font-family="CourierNewPSMT,Courier New" font-size="60.0" fill="#FEFFFE" transform="matrix(1.00, 0.00, -0.00, -1.00, 202.2, 302.0)"> </text><text xml:space="preserve" font-family="CourierNewPSMT,Courier New" font-size="60.0" fill="#FEFFFE" transform="matrix(1.00, 0.00, -0.00, -1.00, 238.2, 302.0)"> </text><text xml:space="preserve" font-family="CourierNewPSMT,Courier New" font-size="60.0" fill="#FEFFFE" transform="matrix(1.00, 0.00, -0.00, -1.00, 274.2, 302.0)"> </text><text xml:space="preserve" font-family="CourierNewPSMT,Courier New" font-size="60.0" fill="#FEFFFE" transform="matrix(1.00, 0.00, -0.00, -1.00, 310.2, 302.0)"> </text><text xml:space="preserve" font-family="CourierNewPSMT,Courier New" font-size="60.0" fill="#FEFFFE" transform="matrix(1.00, 0.00, -0.00, -1.00, 346.2, 302.0)"> </text><text xml:space="preserve" font-family="CourierNewPSMT,Courier New" font-size="60.0" fill="#FEFFFE" transform="matrix(1.00, 0.00, -0.00, -1.00, 382.3, 302.0)"> </text><text xml:space="preserve" font-family="CourierNewPSMT,Courier New" font-size="60.0" fill="#FEFFFE" transform="matrix(1.00, 0.00, -0.00, -1.00, 418.3, 302.0)"> </text><text xml:space="preserve" font-family="CourierNewPSMT,Courier New" font-size="60.0" fill="#FEFFFE" transform="matrix(1.00, 0.00, -0.00, -1.00, 454.3, 302.0)"> </text><text xml:space="preserve" font-family="CourierNewPSMT,Courier New" font-size="60.0" fill="#FEFFFE" transform="matrix(1.00, 0.00, -0.00, -1.00, 490.3, 302.0)">r</text><text xml:space="preserve" font-family="CourierNewPSMT,Courier New" font-size="60.0" fill="#FEFFFE" transform="matrix(1.00, 0.00, -0.00, -1.00, 526.3, 302.0)">e</text><text xml:space="preserve" font-family="CourierNewPSMT,Courier New" font-size="60.0" fill="#FEFFFE" transform="matrix(1.00, 0.00, -0.00, -1.00, 562.3, 302.0)">t</text><text xml:space="preserve" font-family="CourierNewPSMT,Courier New" font-size="60.0" fill="#FEFFFE" transform="matrix(1.00, 0.00, -0.00, -1.00, 598.3, 302.0)">u</text><text xml:space="preserve" font-family="CourierNewPSMT,Courier New" font-size="60.0" fill="#FEFFFE" transform="matrix(1.00, 0.00, -0.00, -1.00, 634.3, 302.0)">r</text><text xml:space="preserve" font-family="CourierNewPSMT,Courier New" font-size="60.0" fill="#FEFFFE" transform="matrix(1.00, 0.00, -0.00, -1.00, 670.4, 302.0)">n</text><text xml:space="preserve" font-family="CourierNewPSMT,Courier New" font-size="60.0" fill="#FEFFFE" transform="matrix(1.00, 0.00, -0.00, -1.00, 706.4, 302.0)"> </text><text xml:space="preserve" font-family="CourierNewPSMT,Courier New" font-size="60.0" fill="#FEFFFE" transform="matrix(1.00, 0.00, -0.00, -1.00, 742.4, 302.0)">"</text><text xml:space="preserve" font-family="CourierNewPSMT,Courier New" font-size="60.0" fill="#FEFFFE" transform="matrix(1.00, 0.00, -0.00, -1.00, 778.4, 302.0)">V</text><text xml:space="preserve" font-family="CourierNewPSMT,Courier New" font-size="60.0" fill="#FEFFFE" transform="matrix(1.00, 0.00, -0.00, -1.00, 814.4, 302.0)">a</text><text xml:space="preserve" font-family="CourierNewPSMT,Courier New" font-size="60.0" fill="#FEFFFE" transform="matrix(1.00, 0.00, -0.00, -1.00, 850.4, 302.0)">l</text><text xml:space="preserve" font-family="CourierNewPSMT,Courier New" font-size="60.0" fill="#FEFFFE" transform="matrix(1.00, 0.00, -0.00, -1.00, 886.4, 302.0)">i</text><text xml:space="preserve" font-family="CourierNewPSMT,Courier New" font-size="60.0" fill="#FEFFFE" transform="matrix(1.00, 0.00, -0.00, -1.00, 922.4, 302.0)">d</text><text xml:space="preserve" font-family="CourierNewPSMT,Courier New" font-size="60.0" fill="#FEFFFE" transform="matrix(1.00, 0.00, -0.00, -1.00, 958.4, 302.0)">a</text><text xml:space="preserve" font-family="CourierNewPSMT,Courier New" font-size="60.0" fill="#FEFFFE" transform="matrix(1.00, 0.00, -0.00, -1.00, 994.5, 302.0)">t</text><text xml:space="preserve" font-family="CourierNewPSMT,Courier New" font-size="60.0" fill="#FEFFFE" transform="matrix(1.00, 0.00, -0.00, -1.00, 1030.5, 302.0)">i</text><text xml:space="preserve" font-family="CourierNewPSMT,Courier New" font-size="60.0" fill="#FEFFFE" transform="matrix(1.00, 0.00, -0.00, -1.00, 1066.5, 302.0)">o</text><text xml:space="preserve" font-family="CourierNewPSMT,Courier New" font-size="60.0" fill="#FEFFFE" transform="matrix(1.00, 0.00, -0.00, -1.00, 1102.5, 302.0)">n</text><text xml:space="preserve" font-family="CourierNewPSMT,Courier New" font-size="60.0" fill="#FEFFFE" transform="matrix(1.00, 0.00, -0.00, -1.00, 1138.5, 302.0)"> </text><text xml:space="preserve" font-family="CourierNewPSMT,Courier New" font-size="60.0" fill="#FEFFFE" transform="matrix(1.00, 0.00, -0.00, -1.00, 1174.5, 302.0)">m</text><text xml:space="preserve" font-family="CourierNewPSMT,Courier New" font-size="60.0" fill="#FEFFFE" transform="matrix(1.00, 0.00, -0.00, -1.00, 1210.5, 302.0)">e</text><text xml:space="preserve" font-family="CourierNewPSMT,Courier New" font-size="60.0" fill="#FEFFFE" transform="matrix(1.00, 0.00, -0.00, -1.00, 1246.5, 302.0)">s</text><text xml:space="preserve" font-family="CourierNewPSMT,Courier New" font-size="60.0" fill="#FEFFFE" transform="matrix(1.00, 0.00, -0.00, -1.00, 1282.6, 302.0)">s</text><text xml:space="preserve" font-family="CourierNewPSMT,Courier New" font-size="60.0" fill="#FEFFFE" transform="matrix(1.00, 0.00, -0.00, -1.00, 1318.6, 302.0)">a</text><text xml:space="preserve" font-family="CourierNewPSMT,Courier New" font-size="60.0" fill="#FEFFFE" transform="matrix(1.00, 0.00, -0.00, -1.00, 1354.6, 302.0)">g</text><text xml:space="preserve" font-family="CourierNewPSMT,Courier New" font-size="60.0" fill="#FEFFFE" transform="matrix(1.00, 0.00, -0.00, -1.00, 1390.6, 302.0)">e</text><text xml:space="preserve" font-family="CourierNewPSMT,Courier New" font-size="60.0" fill="#FEFFFE" transform="matrix(1.00, 0.00, -0.00, -1.00, 1426.4, 302.0)">"</text><text xml:space="preserve" font-family="CourierNewPSMT,Courier New" font-size="60.0" fill="#FEFFFE" transform="matrix(1.00, 0.00, -0.00, -1.00, 1462.4, 302.0)">;</text><text xml:space="preserve" font-family="CourierNewPSMT,Courier New" font-size="60.0" fill="#FEFFFE" transform="matrix(1.00, 0.00, -0.00, -1.00, 1498.4, 302.0)"> </text><text xml:space="preserve" font-family="CourierNewPSMT,Courier New" font-size="60.0" fill="#FEFFFE" transform="matrix(1.00, 0.00, -0.00, -1.00, 58.2, 234.0)"> </text><text xml:space="preserve" font-family="CourierNewPSMT,Courier New" font-size="60.0" fill="#FEFFFE" transform="matrix(1.00, 0.00, -0.00, -1.00, 94.2, 234.0)"> </text><text xml:space="preserve" font-family="CourierNewPSMT,Courier New" font-size="60.0" fill="#FEFFFE" transform="matrix(1.00, 0.00, -0.00, -1.00, 130.2, 234.0)"> </text><text xml:space="preserve" font-family="CourierNewPSMT,Courier New" font-size="60.0" fill="#FEFFFE" transform="matrix(1.00, 0.00, -0.00, -1.00, 166.2, 234.0)"> </text><text xml:space="preserve" font-family="CourierNewPSMT,Courier New" font-size="60.0" fill="#FEFFFE" transform="matrix(1.00, 0.00, -0.00, -1.00, 202.2, 234.0)"> </text><text xml:space="preserve" font-family="CourierNewPSMT,Courier New" font-size="60.0" fill="#FEFFFE" transform="matrix(1.00, 0.00, -0.00, -1.00, 238.2, 234.0)"> </text><text xml:space="preserve" font-family="CourierNewPSMT,Courier New" font-size="60.0" fill="#FEFFFE" transform="matrix(1.00, 0.00, -0.00, -1.00, 274.2, 234.0)"> </text><text xml:space="preserve" font-family="CourierNewPSMT,Courier New" font-size="60.0" fill="#FEFFFE" transform="matrix(1.00, 0.00, -0.00, -1.00, 310.2, 234.0)"> </text><text xml:space="preserve" font-family="CourierNewPSMT,Courier New" font-size="60.0" fill="#FEFFFE" transform="matrix(1.00, 0.00, -0.00, -1.00, 346.2, 234.0)">}</text><text xml:space="preserve" font-family="CourierNewPSMT,Courier New" font-size="60.0" fill="#FEFFFE" transform="matrix(1.00, 0.00, -0.00, -1.00, 382.3, 234.0)"> </text><text xml:space="preserve" font-family="CourierNewPSMT,Courier New" font-size="60.0" fill="#FEFFFE" transform="matrix(1.00, 0.00, -0.00, -1.00, 58.2, 166.0)"> </text><text xml:space="preserve" font-family="CourierNewPSMT,Courier New" font-size="60.0" fill="#FEFFFE" transform="matrix(1.00, 0.00, -0.00, -1.00, 94.2, 166.0)"> </text><text xml:space="preserve" font-family="CourierNewPSMT,Courier New" font-size="60.0" fill="#FEFFFE" transform="matrix(1.00, 0.00, -0.00, -1.00, 130.2, 166.0)"> </text><text xml:space="preserve" font-family="CourierNewPSMT,Courier New" font-size="60.0" fill="#FEFFFE" transform="matrix(1.00, 0.00, -0.00, -1.00, 166.2, 166.0)"> </text><text xml:space="preserve" font-family="CourierNewPSMT,Courier New" font-size="60.0" fill="#FEFFFE" transform="matrix(1.00, 0.00, -0.00, -1.00, 202.2, 166.0)"> </text><text xml:space="preserve" font-family="CourierNewPSMT,Courier New" font-size="60.0" fill="#FEFFFE" transform="matrix(1.00, 0.00, -0.00, -1.00, 238.2, 166.0)"> </text><text xml:space="preserve" font-family="CourierNewPSMT,Courier New" font-size="60.0" fill="#FEFFFE" transform="matrix(1.00, 0.00, -0.00, -1.00, 274.2, 166.0)"> </text><text xml:space="preserve" font-family="CourierNewPSMT,Courier New" font-size="60.0" fill="#FEFFFE" transform="matrix(1.00, 0.00, -0.00, -1.00, 310.2, 166.0)"> </text><text xml:space="preserve" font-family="CourierNewPS-BoldMT,Courier New" font-weight="bold" font-size="60.0" fill="#FEFFFE" transform="matrix(1.00, 0.00, -0.00, -1.00, 346.2, 166.0)">r</text><text xml:space="preserve" font-family="CourierNewPS-BoldMT,Courier New" font-weight="bold" font-size="60.0" fill="#FEFFFE" transform="matrix(1.00, 0.00, -0.00, -1.00, 382.2, 166.0)">e</text><text xml:space="preserve" font-family="CourierNewPS-BoldMT,Courier New" font-weight="bold" font-size="60.0" fill="#FEFFFE" transform="matrix(1.00, 0.00, -0.00, -1.00, 418.2, 166.0)">t</text><text xml:space="preserve" font-family="CourierNewPS-BoldMT,Courier New" font-weight="bold" font-size="60.0" fill="#FEFFFE" transform="matrix(1.00, 0.00, -0.00, -1.00, 454.2, 166.0)">u</text><text xml:space="preserve" font-family="CourierNewPS-BoldMT,Courier New" font-weight="bold" font-size="60.0" fill="#FEFFFE" transform="matrix(1.00, 0.00, -0.00, -1.00, 490.2, 166.0)">r</text><text xml:space="preserve" font-family="CourierNewPS-BoldMT,Courier New" font-weight="bold" font-size="60.0" fill="#FEFFFE" transform="matrix(1.00, 0.00, -0.00, -1.00, 526.3, 166.0)">n</text><text xml:space="preserve" font-family="CourierNewPSMT,Courier New" font-size="60.0" fill="#FEFFFE" transform="matrix(1.00, 0.00, -0.00, -1.00, 562.2, 166.0)"> </text><text xml:space="preserve" font-family="CourierNewPSMT,Courier New" font-size="60.0" fill="#FEFFFE" transform="matrix(1.00, 0.00, -0.00, -1.00, 598.2, 166.0)">n</text><text xml:space="preserve" font-family="CourierNewPSMT,Courier New" font-size="60.0" fill="#FEFFFE" transform="matrix(1.00, 0.00, -0.00, -1.00, 634.3, 166.0)">u</text><text xml:space="preserve" font-family="CourierNewPSMT,Courier New" font-size="60.0" fill="#FEFFFE" transform="matrix(1.00, 0.00, -0.00, -1.00, 670.3, 166.0)">l</text><text xml:space="preserve" font-family="CourierNewPSMT,Courier New" font-size="60.0" fill="#FEFFFE" transform="matrix(1.00, 0.00, -0.00, -1.00, 706.3, 166.0)">l</text><text xml:space="preserve" font-family="CourierNewPSMT,Courier New" font-size="60.0" fill="#FEFFFE" transform="matrix(1.00, 0.00, -0.00, -1.00, 742.3, 166.0)">;</text><text xml:space="preserve" font-family="CourierNewPSMT,Courier New" font-size="60.0" fill="#FEFFFE" transform="matrix(1.00, 0.00, -0.00, -1.00, 778.3, 166.0)"> </text><text xml:space="preserve" font-family="CourierNewPSMT,Courier New" font-size="60.0" fill="#FEFFFE" transform="matrix(1.00, 0.00, -0.00, -1.00, 58.2, 98.0)"> </text><text xml:space="preserve" font-family="CourierNewPSMT,Courier New" font-size="60.0" fill="#FEFFFE" transform="matrix(1.00, 0.00, -0.00, -1.00, 94.2, 98.0)"> </text><text xml:space="preserve" font-family="CourierNewPSMT,Courier New" font-size="60.0" fill="#FEFFFE" transform="matrix(1.00, 0.00, -0.00, -1.00, 130.2, 98.0)"> </text><text xml:space="preserve" font-family="CourierNewPSMT,Courier New" font-size="60.0" fill="#FEFFFE" transform="matrix(1.00, 0.00, -0.00, -1.00, 166.2, 98.0)"> </text><text xml:space="preserve" font-family="CourierNewPSMT,Courier New" font-size="60.0" fill="#FEFFFE" transform="matrix(1.00, 0.00, -0.00, -1.00, 202.2, 98.0)">}</text><text xml:space="preserve" font-family="Monaco,Monaco" font-size="60.0" fill="#FEFFFE" transform="matrix(1.00, 0.00, -0.00, -1.00, 238.2, 98.0)"> </text><text xml:space="preserve" font-family="CourierNewPSMT,Courier New" font-size="60.0" fill="#FEFFFE" transform="matrix(1.00, 0.00, -0.00, -1.00, 58.2, 30.0)">}</text></g></svg>