<?xml version="1.0" encoding="UTF-8" standalone="no"?><svg xmlns="http://www.w3.org/2000/svg" xmlns:xlink="http://www.w3.org/1999/xlink" clip-rule="evenodd" stroke-miterlimit="10" viewBox="0 0 1920 1080"><desc>SVG generated by Keynote</desc><defs></defs><g transform="matrix(1.00, 0.00, -0.00, -1.00, 0.0, 1080.0)"><g><clipPath id="clip0x7f9a440af1b0"><path d="M 0.0 1080.0 L 1920.0 1080.0 L 1920.0 0.0 L 0.0 0.0 Z M 0.0 1080.0 "></path></clipPath><g clip-path="url(#clip0x7f9a440af1b0)"><image xlink:href="../../2454F38C-308E-4D93-86A7-ACF877EF01F7/assets/D54D7AAA5FD1EC733BC359F041C689F1.jpeg" width="2048.00" height="1536.00" transform="matrix(0.94, 0.00, -0.00, -0.70, 0.0, 1080.0)"></image></g></g><image xlink:href="../../2454F38C-308E-4D93-86A7-ACF877EF01F7/assets/4DEEB86E8592901A27491E22B30EA716.png" width="78.00" height="72.00" transform="matrix(0.67, 0.00, -0.00, -0.67, 79.9, 710.5)"></image><text xml:space="preserve" font-family="Chalkduster,Chalkduster" font-size="89.1" fill="#FEFFFE" transform="matrix(1.00, 0.00, -0.00, -1.00, 159.2, 658.2)">S</text><text xml:space="preserve" font-family="Chalkduster,Chalkduster" font-size="89.1" fill="#FEFFFE" transform="matrix(1.00, 0.00, -0.00, -1.00, 203.6, 658.2)">i</text><text xml:space="preserve" font-family="Chalkduster,Chalkduster" font-size="89.1" fill="#FEFFFE" transform="matrix(1.00, 0.00, -0.00, -1.00, 238.7, 658.2)">s</text><text xml:space="preserve" font-family="Chalkduster,Chalkduster" font-size="89.1" fill="#FEFFFE" transform="matrix(1.00, 0.00, -0.00, -1.00, 286.5, 658.2)">t</text><text xml:space="preserve" font-family="Chalkduster,Chalkduster" font-size="89.1" fill="#FEFFFE" transform="matrix(1.00, 0.00, -0.00, -1.00, 326.3, 658.2)">e</text><text xml:space="preserve" font-family="Chalkduster,Chalkduster" font-size="89.1" fill="#FEFFFE" transform="matrix(1.00, 0.00, -0.00, -1.00, 381.5, 658.2)">m</text><text xml:space="preserve" font-family="Chalkduster,Chalkduster" font-size="89.1" fill="#FEFFFE" transform="matrix(1.00, 0.00, -0.00, -1.00, 471.7, 658.2)">a</text><text xml:space="preserve" font-family="Chalkduster,Chalkduster" font-size="89.1" fill="#FEFFFE" transform="matrix(1.00, 0.00, -0.00, -1.00, 533.1, 658.2)"> </text><text xml:space="preserve" font-family="Chalkduster,Chalkduster" font-size="89.1" fill="#FEFFFE" transform="matrix(1.00, 0.00, -0.00, -1.00, 577.4, 658.2)">d</text><text xml:space="preserve" font-family="Chalkduster,Chalkduster" font-size="89.1" fill="#FEFFFE" transform="matrix(1.00, 0.00, -0.00, -1.00, 647.1, 658.2)">e</text><text xml:space="preserve" font-family="Chalkduster,Chalkduster" font-size="89.1" fill="#FEFFFE" transform="matrix(1.00, 0.00, -0.00, -1.00, 702.3, 658.2)"> </text><text xml:space="preserve" font-family="Chalkduster,Chalkduster" font-size="89.1" fill="#FF7777" transform="matrix(1.00, 0.00, -0.00, -1.00, 746.5, 658.2)">c</text><text xml:space="preserve" font-family="Chalkduster,Chalkduster" font-size="89.1" fill="#FF7777" transform="matrix(1.00, 0.00, -0.00, -1.00, 799.2, 658.2)">a</text><text xml:space="preserve" font-family="Chalkduster,Chalkduster" font-size="89.1" fill="#FF7777" transform="matrix(1.00, 0.00, -0.00, -1.00, 857.8, 658.2)">c</text><text xml:space="preserve" font-family="Chalkduster,Chalkduster" font-size="89.1" fill="#FF7777" transform="matrix(1.00, 0.00, -0.00, -1.00, 913.9, 658.2)">h</text><text xml:space="preserve" font-family="Chalkduster,Chalkduster" font-size="89.1" fill="#FF7777" transform="matrix(1.00, 0.00, -0.00, -1.00, 969.0, 658.2)">é</text><text xml:space="preserve" font-family="Chalkduster,Chalkduster" font-size="89.1" fill="#FF7777" transform="matrix(1.00, 0.00, -0.00, -1.00, 1028.3, 658.2)"> </text><text xml:space="preserve" font-family="Chalkduster,Chalkduster" font-size="89.1" fill="#FEFFFE" transform="matrix(1.00, 0.00, -0.00, -1.00, 1072.7, 658.2)">b</text><text xml:space="preserve" font-family="Chalkduster,Chalkduster" font-size="89.1" fill="#FEFFFE" transform="matrix(1.00, 0.00, -0.00, -1.00, 1122.4, 658.2)">a</text><text xml:space="preserve" font-family="Chalkduster,Chalkduster" font-size="89.1" fill="#FEFFFE" transform="matrix(1.00, 0.00, -0.00, -1.00, 1184.9, 658.2)">s</text><text xml:space="preserve" font-family="Chalkduster,Chalkduster" font-size="89.1" fill="#FEFFFE" transform="matrix(1.00, 0.00, -0.00, -1.00, 1229.9, 658.2)">a</text><text xml:space="preserve" font-family="Chalkduster,Chalkduster" font-size="89.1" fill="#FEFFFE" transform="matrix(1.00, 0.00, -0.00, -1.00, 1288.4, 658.2)">d</text><text xml:space="preserve" font-family="Chalkduster,Chalkduster" font-size="89.1" fill="#FEFFFE" transform="matrix(1.00, 0.00, -0.00, -1.00, 1358.1, 658.2)">o</text><text xml:space="preserve" font-family="Chalkduster,Chalkduster" font-size="89.1" fill="#FEFFFE" transform="matrix(1.00, 0.00, -0.00, -1.00, 1422.1, 658.2)"> </text><text xml:space="preserve" font-family="Chalkduster,Chalkduster" font-size="89.1" fill="#FEFFFE" transform="matrix(1.00, 0.00, -0.00, -1.00, 1466.4, 658.2)">e</text><text xml:space="preserve" font-family="Chalkduster,Chalkduster" font-size="89.1" fill="#FEFFFE" transform="matrix(1.00, 0.00, -0.00, -1.00, 1522.6, 658.2)">n</text><text xml:space="preserve" font-family="Chalkduster,Chalkduster" font-size="89.1" fill="#FEFFFE" transform="matrix(1.00, 0.00, -0.00, -1.00, 1588.0, 658.2)"> </text><text xml:space="preserve" font-family="Chalkduster,Chalkduster" font-size="89.1" fill="#FEFFFE" transform="matrix(1.00, 0.00, -0.00, -1.00, 159.2, 545.2)">E</text><text xml:space="preserve" font-family="Chalkduster,Chalkduster" font-size="89.1" fill="#FEFFFE" transform="matrix(1.00, 0.00, -0.00, -1.00, 225.1, 545.2)">H</text><text xml:space="preserve" font-family="Chalkduster,Chalkduster" font-size="89.1" fill="#FEFFFE" transform="matrix(1.00, 0.00, -0.00, -1.00, 280.0, 545.2)">C</text><text xml:space="preserve" font-family="Chalkduster,Chalkduster" font-size="89.1" fill="#FEFFFE" transform="matrix(1.00, 0.00, -0.00, -1.00, 352.3, 545.2)">a</text><text xml:space="preserve" font-family="Chalkduster,Chalkduster" font-size="89.1" fill="#FEFFFE" transform="matrix(1.00, 0.00, -0.00, -1.00, 410.9, 545.2)">c</text><text xml:space="preserve" font-family="Chalkduster,Chalkduster" font-size="89.1" fill="#FEFFFE" transform="matrix(1.00, 0.00, -0.00, -1.00, 467.0, 545.2)">h</text><text xml:space="preserve" font-family="Chalkduster,Chalkduster" font-size="89.1" fill="#FEFFFE" transform="matrix(1.00, 0.00, -0.00, -1.00, 522.0, 545.2)">e</text><text xml:space="preserve" font-family="Chalkduster,Chalkduster" font-size="89.1" fill="#FEFFFE" transform="matrix(1.00, 0.00, -0.00, -1.00, 577.3, 545.2)"> </text><image xlink:href="../../2454F38C-308E-4D93-86A7-ACF877EF01F7/assets/4DEEB86E8592901A27491E22B30EA716.png" width="78.00" height="72.00" transform="matrix(0.67, 0.00, -0.00, -0.67, 79.9, 448.8)"></image><text xml:space="preserve" font-family="Chalkduster,Chalkduster" font-size="89.1" fill="#FEFFFE" transform="matrix(1.00, 0.00, -0.00, -1.00, 159.2, 396.6)">B</text><text xml:space="preserve" font-family="Chalkduster,Chalkduster" font-size="89.1" fill="#FEFFFE" transform="matrix(1.00, 0.00, -0.00, -1.00, 218.8, 396.6)">u</text><text xml:space="preserve" font-family="Chalkduster,Chalkduster" font-size="89.1" fill="#FEFFFE" transform="matrix(1.00, 0.00, -0.00, -1.00, 280.0, 396.6)">i</text><text xml:space="preserve" font-family="Chalkduster,Chalkduster" font-size="89.1" fill="#FEFFFE" transform="matrix(1.00, 0.00, -0.00, -1.00, 316.1, 396.6)">l</text><text xml:space="preserve" font-family="Chalkduster,Chalkduster" font-size="89.1" fill="#FEFFFE" transform="matrix(1.00, 0.00, -0.00, -1.00, 357.9, 396.6)">d</text><text xml:space="preserve" font-family="Chalkduster,Chalkduster" font-size="89.1" fill="#FEFFFE" transform="matrix(1.00, 0.00, -0.00, -1.00, 427.5, 396.6)"> </text><text xml:space="preserve" font-family="Chalkduster,Chalkduster" font-size="89.1" fill="#FEFFFE" transform="matrix(1.00, 0.00, -0.00, -1.00, 471.8, 396.6)">s</text><text xml:space="preserve" font-family="Chalkduster,Chalkduster" font-size="89.1" fill="#FEFFFE" transform="matrix(1.00, 0.00, -0.00, -1.00, 516.8, 396.6)">y</text><text xml:space="preserve" font-family="Chalkduster,Chalkduster" font-size="89.1" fill="#FEFFFE" transform="matrix(1.00, 0.00, -0.00, -1.00, 571.1, 396.6)">s</text><text xml:space="preserve" font-family="Chalkduster,Chalkduster" font-size="89.1" fill="#FEFFFE" transform="matrix(1.00, 0.00, -0.00, -1.00, 618.8, 396.6)">t</text><text xml:space="preserve" font-family="Chalkduster,Chalkduster" font-size="89.1" fill="#FEFFFE" transform="matrix(1.00, 0.00, -0.00, -1.00, 658.6, 396.6)">e</text><text xml:space="preserve" font-family="Chalkduster,Chalkduster" font-size="89.1" fill="#FEFFFE" transform="matrix(1.00, 0.00, -0.00, -1.00, 713.8, 396.6)">m</text><text xml:space="preserve" font-family="Chalkduster,Chalkduster" font-size="89.1" fill="#FEFFFE" transform="matrix(1.00, 0.00, -0.00, -1.00, 804.0, 396.6)"> </text><text xml:space="preserve" font-family="Chalkduster,Chalkduster" font-size="89.1" fill="#FEFFFE" transform="matrix(1.00, 0.00, -0.00, -1.00, 848.4, 396.6)">b</text><text xml:space="preserve" font-family="Chalkduster,Chalkduster" font-size="89.1" fill="#FEFFFE" transform="matrix(1.00, 0.00, -0.00, -1.00, 898.1, 396.6)">a</text><text xml:space="preserve" font-family="Chalkduster,Chalkduster" font-size="89.1" fill="#FEFFFE" transform="matrix(1.00, 0.00, -0.00, -1.00, 960.6, 396.6)">s</text><text xml:space="preserve" font-family="Chalkduster,Chalkduster" font-size="89.1" fill="#FEFFFE" transform="matrix(1.00, 0.00, -0.00, -1.00, 1005.6, 396.6)">a</text><text xml:space="preserve" font-family="Chalkduster,Chalkduster" font-size="89.1" fill="#FEFFFE" transform="matrix(1.00, 0.00, -0.00, -1.00, 1064.1, 396.6)">d</text><text xml:space="preserve" font-family="Chalkduster,Chalkduster" font-size="89.1" fill="#FEFFFE" transform="matrix(1.00, 0.00, -0.00, -1.00, 1133.7, 396.6)">o</text><text xml:space="preserve" font-family="Chalkduster,Chalkduster" font-size="89.1" fill="#FEFFFE" transform="matrix(1.00, 0.00, -0.00, -1.00, 1197.7, 396.6)"> </text><text xml:space="preserve" font-family="Chalkduster,Chalkduster" font-size="89.1" fill="#FEFFFE" transform="matrix(1.00, 0.00, -0.00, -1.00, 1242.1, 396.6)">e</text><text xml:space="preserve" font-family="Chalkduster,Chalkduster" font-size="89.1" fill="#FEFFFE" transform="matrix(1.00, 0.00, -0.00, -1.00, 1298.3, 396.6)">n</text><text xml:space="preserve" font-family="Chalkduster,Chalkduster" font-size="89.1" fill="#FEFFFE" transform="matrix(1.00, 0.00, -0.00, -1.00, 1363.6, 396.6)"> </text><text xml:space="preserve" font-family="Chalkduster,Chalkduster" font-size="89.1" fill="#FEFFFE" transform="matrix(1.00, 0.00, -0.00, -1.00, 159.2, 283.6)">“</text><text xml:space="preserve" font-family="Chalkduster,Chalkduster" font-size="89.1" fill="#FEFFFE" transform="matrix(1.00, 0.00, -0.00, -1.00, 198.6, 283.6)">s</text><text xml:space="preserve" font-family="Chalkduster,Chalkduster" font-size="89.1" fill="#FEFFFE" transform="matrix(1.00, 0.00, -0.00, -1.00, 242.8, 283.6)">b</text><text xml:space="preserve" font-family="Chalkduster,Chalkduster" font-size="89.1" fill="#FEFFFE" transform="matrix(1.00, 0.00, -0.00, -1.00, 294.5, 283.6)">t</text><text xml:space="preserve" font-family="Chalkduster,Chalkduster" font-size="89.1" fill="#FEFFFE" transform="matrix(1.00, 0.00, -0.00, -1.00, 335.2, 283.6)">”</text><text xml:space="preserve" font-family="Chalkduster,Chalkduster" font-size="89.1" fill="#FEFFFE" transform="matrix(1.00, 0.00, -0.00, -1.00, 371.3, 283.6)"> </text><text xml:space="preserve" font-family="Chalkduster,Chalkduster" font-size="89.1" fill="#FEFFFE" transform="matrix(1.00, 0.00, -0.00, -1.00, 415.6, 283.6)">(</text><text xml:space="preserve" font-family="Chalkduster,Chalkduster" font-size="89.1" fill="#FEFFFE" transform="matrix(1.00, 0.00, -0.00, -1.00, 454.6, 283.6)">b</text><text xml:space="preserve" font-family="Chalkduster,Chalkduster" font-size="89.1" fill="#FEFFFE" transform="matrix(1.00, 0.00, -0.00, -1.00, 506.4, 283.6)">u</text><text xml:space="preserve" font-family="Chalkduster,Chalkduster" font-size="89.1" fill="#FEFFFE" transform="matrix(1.00, 0.00, -0.00, -1.00, 567.7, 283.6)">e</text><text xml:space="preserve" font-family="Chalkduster,Chalkduster" font-size="89.1" fill="#FEFFFE" transform="matrix(1.00, 0.00, -0.00, -1.00, 623.9, 283.6)">n</text><text xml:space="preserve" font-family="Chalkduster,Chalkduster" font-size="89.1" fill="#FEFFFE" transform="matrix(1.00, 0.00, -0.00, -1.00, 687.4, 283.6)">o</text><text xml:space="preserve" font-family="Chalkduster,Chalkduster" font-size="89.1" fill="#FEFFFE" transform="matrix(1.00, 0.00, -0.00, -1.00, 751.4, 283.6)">?</text><text xml:space="preserve" font-family="Chalkduster,Chalkduster" font-size="89.1" fill="#FEFFFE" transform="matrix(1.00, 0.00, -0.00, -1.00, 795.4, 283.6)">)</text><text xml:space="preserve" font-family="Chalkduster,Chalkduster" font-size="89.1" fill="#FEFFFE" transform="matrix(1.00, 0.00, -0.00, -1.00, 840.2, 283.6)"> </text><image xlink:href="../../2454F38C-308E-4D93-86A7-ACF877EF01F7/assets/4DEEB86E8592901A27491E22B30EA716.png" width="78.00" height="72.00" transform="matrix(0.67, 0.00, -0.00, -0.67, 79.9, 187.2)"></image><text xml:space="preserve" font-family="Chalkduster,Chalkduster" font-size="89.1" fill="#FEFFFE" transform="matrix(1.00, 0.00, -0.00, -1.00, 159.2, 134.9)">I</text><text xml:space="preserve" font-family="Chalkduster,Chalkduster" font-size="89.1" fill="#FEFFFE" transform="matrix(1.00, 0.00, -0.00, -1.00, 212.3, 134.9)">n</text><text xml:space="preserve" font-family="Chalkduster,Chalkduster" font-size="89.1" fill="#FEFFFE" transform="matrix(1.00, 0.00, -0.00, -1.00, 274.3, 134.9)">t</text><text xml:space="preserve" font-family="Chalkduster,Chalkduster" font-size="89.1" fill="#FEFFFE" transform="matrix(1.00, 0.00, -0.00, -1.00, 314.1, 134.9)">e</text><text xml:space="preserve" font-family="Chalkduster,Chalkduster" font-size="89.1" fill="#FEFFFE" transform="matrix(1.00, 0.00, -0.00, -1.00, 366.6, 134.9)">g</text><text xml:space="preserve" font-family="Chalkduster,Chalkduster" font-size="89.1" fill="#FEFFFE" transform="matrix(1.00, 0.00, -0.00, -1.00, 429.8, 134.9)">r</text><text xml:space="preserve" font-family="Chalkduster,Chalkduster" font-size="89.1" fill="#FEFFFE" transform="matrix(1.00, 0.00, -0.00, -1.00, 476.8, 134.9)">a</text><text xml:space="preserve" font-family="Chalkduster,Chalkduster" font-size="89.1" fill="#FEFFFE" transform="matrix(1.00, 0.00, -0.00, -1.00, 535.3, 134.9)">d</text><text xml:space="preserve" font-family="Chalkduster,Chalkduster" font-size="89.1" fill="#FEFFFE" transform="matrix(1.00, 0.00, -0.00, -1.00, 605.0, 134.9)">o</text><text xml:space="preserve" font-family="Chalkduster,Chalkduster" font-size="89.1" fill="#FEFFFE" transform="matrix(1.00, 0.00, -0.00, -1.00, 669.0, 134.9)"> </text><text xml:space="preserve" font-family="Chalkduster,Chalkduster" font-size="89.1" fill="#FEFFFE" transform="matrix(1.00, 0.00, -0.00, -1.00, 713.3, 134.9)">c</text><text xml:space="preserve" font-family="Chalkduster,Chalkduster" font-size="89.1" fill="#FEFFFE" transform="matrix(1.00, 0.00, -0.00, -1.00, 766.5, 134.9)">o</text><text xml:space="preserve" font-family="Chalkduster,Chalkduster" font-size="89.1" fill="#FEFFFE" transform="matrix(1.00, 0.00, -0.00, -1.00, 832.8, 134.9)">n</text><text xml:space="preserve" font-family="Chalkduster,Chalkduster" font-size="89.1" fill="#FEFFFE" transform="matrix(1.00, 0.00, -0.00, -1.00, 898.2, 134.9)"> </text><text xml:space="preserve" font-family="Chalkduster,Chalkduster" font-size="89.1" fill="#FEFFFE" transform="matrix(1.00, 0.00, -0.00, -1.00, 942.5, 134.9)">C</text><text xml:space="preserve" font-family="Chalkduster,Chalkduster" font-size="89.1" fill="#FEFFFE" transform="matrix(1.00, 0.00, -0.00, -1.00, 1014.8, 134.9)">o</text><text xml:space="preserve" font-family="Chalkduster,Chalkduster" font-size="89.1" fill="#FEFFFE" transform="matrix(1.00, 0.00, -0.00, -1.00, 1078.8, 134.9)">f</text><text xml:space="preserve" font-family="Chalkduster,Chalkduster" font-size="89.1" fill="#FEFFFE" transform="matrix(1.00, 0.00, -0.00, -1.00, 1123.5, 134.9)">f</text><text xml:space="preserve" font-family="Chalkduster,Chalkduster" font-size="89.1" fill="#FEFFFE" transform="matrix(1.00, 0.00, -0.00, -1.00, 1171.8, 134.9)">e</text><text xml:space="preserve" font-family="Chalkduster,Chalkduster" font-size="89.1" fill="#FEFFFE" transform="matrix(1.00, 0.00, -0.00, -1.00, 1227.0, 134.9)">S</text><text xml:space="preserve" font-family="Chalkduster,Chalkduster" font-size="89.1" fill="#FEFFFE" transform="matrix(1.00, 0.00, -0.00, -1.00, 1271.3, 134.9)">c</text><text xml:space="preserve" font-family="Chalkduster,Chalkduster" font-size="89.1" fill="#FEFFFE" transform="matrix(1.00, 0.00, -0.00, -1.00, 1325.5, 134.9)">r</text><text xml:space="preserve" font-family="Chalkduster,Chalkduster" font-size="89.1" fill="#FEFFFE" transform="matrix(1.00, 0.00, -0.00, -1.00, 1374.8, 134.9)">i</text><text xml:space="preserve" font-family="Chalkduster,Chalkduster" font-size="89.1" fill="#FEFFFE" transform="matrix(1.00, 0.00, -0.00, -1.00, 1407.9, 134.9)">p</text><text xml:space="preserve" font-family="Chalkduster,Chalkduster" font-size="89.1" fill="#FEFFFE" transform="matrix(1.00, 0.00, -0.00, -1.00, 1463.8, 134.9)">t</text><text xml:space="preserve" font-family="Chalkduster,Chalkduster" font-size="89.1" fill="#FEFFFE" transform="matrix(1.00, 0.00, -0.00, -1.00, 1504.5, 134.9)"> </text><text xml:space="preserve" font-family="Chalkduster,Chalkduster" font-size="89.1" fill="#FEFFFE" transform="matrix(1.00, 0.00, -0.00, -1.00, 1548.8, 134.9)">y</text><text xml:space="preserve" font-family="Chalkduster,Chalkduster" font-size="89.1" fill="#FEFFFE" transform="matrix(1.00, 0.00, -0.00, -1.00, 1603.1, 134.9)"> </text><text xml:space="preserve" font-family="Chalkduster,Chalkduster" font-size="89.1" fill="#FEFFFE" transform="matrix(1.00, 0.00, -0.00, -1.00, 1647.4, 134.9)">L</text><text xml:space="preserve" font-family="Chalkduster,Chalkduster" font-size="89.1" fill="#FEFFFE" transform="matrix(1.00, 0.00, -0.00, -1.00, 1703.8, 134.9)">e</text><text xml:space="preserve" font-family="Chalkduster,Chalkduster" font-size="89.1" fill="#FEFFFE" transform="matrix(1.00, 0.00, -0.00, -1.00, 1761.1, 134.9)">s</text><text xml:space="preserve" font-family="Chalkduster,Chalkduster" font-size="89.1" fill="#FEFFFE" transform="matrix(1.00, 0.00, -0.00, -1.00, 1806.1, 134.9)">s</text><text xml:space="preserve" font-family="Chalkduster,Chalkduster" font-size="100.0" fill="#71AFE1" transform="matrix(1.00, 0.00, -0.00, -1.00, 399.6, 922.5)">¿</text><text xml:space="preserve" font-family="Chalkduster,Chalkduster" font-size="100.0" fill="#71AFE1" transform="matrix(1.00, 0.00, -0.00, -1.00, 460.0, 922.5)">Q</text><text xml:space="preserve" font-family="Chalkduster,Chalkduster" font-size="100.0" fill="#71AFE1" transform="matrix(1.00, 0.00, -0.00, -1.00, 537.2, 922.5)">u</text><text xml:space="preserve" font-family="Chalkduster,Chalkduster" font-size="100.0" fill="#71AFE1" transform="matrix(1.00, 0.00, -0.00, -1.00, 606.0, 922.5)">é</text><text xml:space="preserve" font-family="Chalkduster,Chalkduster" font-size="100.0" fill="#71AFE1" transform="matrix(1.00, 0.00, -0.00, -1.00, 672.7, 922.5)"> </text><text xml:space="preserve" font-family="Chalkduster,Chalkduster" font-size="100.0" fill="#71AFE1" transform="matrix(1.00, 0.00, -0.00, -1.00, 722.4, 922.5)">o</text><text xml:space="preserve" font-family="Chalkduster,Chalkduster" font-size="100.0" fill="#71AFE1" transform="matrix(1.00, 0.00, -0.00, -1.00, 794.3, 922.5)">f</text><text xml:space="preserve" font-family="Chalkduster,Chalkduster" font-size="100.0" fill="#71AFE1" transform="matrix(1.00, 0.00, -0.00, -1.00, 851.6, 922.5)">r</text><text xml:space="preserve" font-family="Chalkduster,Chalkduster" font-size="100.0" fill="#71AFE1" transform="matrix(1.00, 0.00, -0.00, -1.00, 902.2, 922.5)">e</text><text xml:space="preserve" font-family="Chalkduster,Chalkduster" font-size="100.0" fill="#71AFE1" transform="matrix(1.00, 0.00, -0.00, -1.00, 965.8, 922.5)">c</text><text xml:space="preserve" font-family="Chalkduster,Chalkduster" font-size="100.0" fill="#71AFE1" transform="matrix(1.00, 0.00, -0.00, -1.00, 1026.3, 922.5)">e</text><text xml:space="preserve" font-family="Chalkduster,Chalkduster" font-size="100.0" fill="#71AFE1" transform="matrix(1.00, 0.00, -0.00, -1.00, 1088.3, 922.5)"> </text><text xml:space="preserve" font-family="Chalkduster,Chalkduster" font-size="100.0" fill="#71AFE1" transform="matrix(1.00, 0.00, -0.00, -1.00, 1138.1, 922.5)">b</text><text xml:space="preserve" font-family="Chalkduster,Chalkduster" font-size="100.0" fill="#71AFE1" transform="matrix(1.00, 0.00, -0.00, -1.00, 1196.3, 922.5)">u</text><text xml:space="preserve" font-family="Chalkduster,Chalkduster" font-size="100.0" fill="#71AFE1" transform="matrix(1.00, 0.00, -0.00, -1.00, 1265.1, 922.5)">e</text><text xml:space="preserve" font-family="Chalkduster,Chalkduster" font-size="100.0" fill="#71AFE1" transform="matrix(1.00, 0.00, -0.00, -1.00, 1328.2, 922.5)">n</text><text xml:space="preserve" font-family="Chalkduster,Chalkduster" font-size="100.0" fill="#71AFE1" transform="matrix(1.00, 0.00, -0.00, -1.00, 1399.4, 922.5)">o</text><text xml:space="preserve" font-family="Chalkduster,Chalkduster" font-size="100.0" fill="#71AFE1" transform="matrix(1.00, 0.00, -0.00, -1.00, 1471.0, 922.5)">?</text></g></svg>