<?xml version="1.0" encoding="UTF-8" standalone="no"?><svg xmlns="http://www.w3.org/2000/svg" xmlns:xlink="http://www.w3.org/1999/xlink" clip-rule="evenodd" stroke-miterlimit="10" viewBox="0 0 1920 1080"><desc>SVG generated by Keynote</desc><defs></defs><g transform="matrix(1.00, 0.00, -0.00, -1.00, 0.0, 1080.0)"><g><clipPath id="clip0x7f9a418d6030"><path d="M 0.0 1080.0 L 1920.0 1080.0 L 1920.0 0.0 L 0.0 0.0 Z M 0.0 1080.0 "></path></clipPath><g clip-path="url(#clip0x7f9a418d6030)"><image xlink:href="../../2454F38C-308E-4D93-86A7-ACF877EF01F7/assets/D54D7AAA5FD1EC733BC359F041C689F1.jpeg" width="2048.00" height="1536.00" transform="matrix(0.94, 0.00, -0.00, -0.70, 0.0, 1080.0)"></image></g></g><text xml:space="preserve" font-family="Chalkduster,Chalkduster" font-size="100.0" fill="#71AFE1" transform="matrix(1.00, 0.00, -0.00, -1.00, 655.1, 922.5)">E</text><text xml:space="preserve" font-family="Chalkduster,Chalkduster" font-size="100.0" fill="#71AFE1" transform="matrix(1.00, 0.00, -0.00, -1.00, 729.0, 922.5)">v</text><text xml:space="preserve" font-family="Chalkduster,Chalkduster" font-size="100.0" fill="#71AFE1" transform="matrix(1.00, 0.00, -0.00, -1.00, 791.4, 922.5)">o</text><text xml:space="preserve" font-family="Chalkduster,Chalkduster" font-size="100.0" fill="#71AFE1" transform="matrix(1.00, 0.00, -0.00, -1.00, 867.4, 922.5)">l</text><text xml:space="preserve" font-family="Chalkduster,Chalkduster" font-size="100.0" fill="#71AFE1" transform="matrix(1.00, 0.00, -0.00, -1.00, 913.3, 922.5)">u</text><text xml:space="preserve" font-family="Chalkduster,Chalkduster" font-size="100.0" fill="#71AFE1" transform="matrix(1.00, 0.00, -0.00, -1.00, 981.0, 922.5)">t</text><text xml:space="preserve" font-family="Chalkduster,Chalkduster" font-size="100.0" fill="#71AFE1" transform="matrix(1.00, 0.00, -0.00, -1.00, 1027.3, 922.5)">i</text><text xml:space="preserve" font-family="Chalkduster,Chalkduster" font-size="100.0" fill="#71AFE1" transform="matrix(1.00, 0.00, -0.00, -1.00, 1066.8, 922.5)">o</text><text xml:space="preserve" font-family="Chalkduster,Chalkduster" font-size="100.0" fill="#71AFE1" transform="matrix(1.00, 0.00, -0.00, -1.00, 1141.1, 922.5)">n</text><text xml:space="preserve" font-family="Chalkduster,Chalkduster" font-size="100.0" fill="#71AFE1" transform="matrix(1.00, 0.00, -0.00, -1.00, 1214.4, 922.5)">s</text><image xlink:href="../../E0601982-8641-4C7A-B7E2-605AF9815FA9/assets/A00CB407E0B3210E38745C5F6FC15246.png" width="815.00" height="586.00" transform="matrix(1.72, 0.00, -0.00, -1.72, 256.0, 833.0)"></image><image xlink:href="../../E0601982-8641-4C7A-B7E2-605AF9815FA9/assets/65934F371B80EA530ABEB1BA76F7AF86.png" width="1406.00" height="1018.00" transform="matrix(1.00, 0.00, -0.00, 1.00, 257.0, -186.0)"></image></g></svg>