<?xml version="1.0" encoding="UTF-8" standalone="no"?><svg xmlns="http://www.w3.org/2000/svg" xmlns:xlink="http://www.w3.org/1999/xlink" clip-rule="evenodd" stroke-miterlimit="10" viewBox="0 0 1920 1080"><desc>SVG generated by Keynote</desc><defs></defs><g transform="matrix(1.00, 0.00, -0.00, -1.00, 0.0, 1080.0)"><g><clipPath id="clip0x7f9a443dac40"><path d="M 0.0 1080.0 L 1920.0 1080.0 L 1920.0 0.0 L 0.0 0.0 Z M 0.0 1080.0 "></path></clipPath><g clip-path="url(#clip0x7f9a443dac40)"><image xlink:href="../../2454F38C-308E-4D93-86A7-ACF877EF01F7/assets/D54D7AAA5FD1EC733BC359F041C689F1.jpeg" width="2048.00" height="1536.00" transform="matrix(0.94, 0.00, -0.00, -0.70, 0.0, 1080.0)"></image></g></g><text xml:space="preserve" font-family="Chalkduster,Chalkduster" font-size="100.0" fill="#71AFE1" transform="matrix(1.00, 0.00, -0.00, -1.00, 638.0, 922.5)">V</text><text xml:space="preserve" font-family="Chalkduster,Chalkduster" font-size="100.0" fill="#71AFE1" transform="matrix(1.00, 0.00, -0.00, -1.00, 702.0, 922.5)">a</text><text xml:space="preserve" font-family="Chalkduster,Chalkduster" font-size="100.0" fill="#71AFE1" transform="matrix(1.00, 0.00, -0.00, -1.00, 766.8, 922.5)">l</text><text xml:space="preserve" font-family="Chalkduster,Chalkduster" font-size="100.0" fill="#71AFE1" transform="matrix(1.00, 0.00, -0.00, -1.00, 814.9, 922.5)">i</text><text xml:space="preserve" font-family="Chalkduster,Chalkduster" font-size="100.0" fill="#71AFE1" transform="matrix(1.00, 0.00, -0.00, -1.00, 857.9, 922.5)">d</text><text xml:space="preserve" font-family="Chalkduster,Chalkduster" font-size="100.0" fill="#71AFE1" transform="matrix(1.00, 0.00, -0.00, -1.00, 936.0, 922.5)">a</text><text xml:space="preserve" font-family="Chalkduster,Chalkduster" font-size="100.0" fill="#71AFE1" transform="matrix(1.00, 0.00, -0.00, -1.00, 998.1, 922.5)">t</text><text xml:space="preserve" font-family="Chalkduster,Chalkduster" font-size="100.0" fill="#71AFE1" transform="matrix(1.00, 0.00, -0.00, -1.00, 1044.3, 922.5)">i</text><text xml:space="preserve" font-family="Chalkduster,Chalkduster" font-size="100.0" fill="#71AFE1" transform="matrix(1.00, 0.00, -0.00, -1.00, 1083.8, 922.5)">o</text><text xml:space="preserve" font-family="Chalkduster,Chalkduster" font-size="100.0" fill="#71AFE1" transform="matrix(1.00, 0.00, -0.00, -1.00, 1158.3, 922.5)">n</text><text xml:space="preserve" font-family="Chalkduster,Chalkduster" font-size="100.0" fill="#71AFE1" transform="matrix(1.00, 0.00, -0.00, -1.00, 1231.6, 922.5)">s</text><text xml:space="preserve" font-family="CourierNewPSMT,Courier New" font-size="60.0" fill="#FEFFFE" transform="matrix(1.00, 0.00, -0.00, -1.00, 58.2, 880.0)">@</text><text xml:space="preserve" font-family="CourierNewPSMT,Courier New" font-size="60.0" fill="#FEFFFE" transform="matrix(1.00, 0.00, -0.00, -1.00, 94.2, 880.0)">E</text><text xml:space="preserve" font-family="CourierNewPSMT,Courier New" font-size="60.0" fill="#FEFFFE" transform="matrix(1.00, 0.00, -0.00, -1.00, 130.2, 880.0)">n</text><text xml:space="preserve" font-family="CourierNewPSMT,Courier New" font-size="60.0" fill="#FEFFFE" transform="matrix(1.00, 0.00, -0.00, -1.00, 166.2, 880.0)">t</text><text xml:space="preserve" font-family="CourierNewPSMT,Courier New" font-size="60.0" fill="#FEFFFE" transform="matrix(1.00, 0.00, -0.00, -1.00, 202.2, 880.0)">i</text><text xml:space="preserve" font-family="CourierNewPSMT,Courier New" font-size="60.0" fill="#FEFFFE" transform="matrix(1.00, 0.00, -0.00, -1.00, 238.2, 880.0)">t</text><text xml:space="preserve" font-family="CourierNewPSMT,Courier New" font-size="60.0" fill="#FEFFFE" transform="matrix(1.00, 0.00, -0.00, -1.00, 274.2, 880.0)">y</text><text xml:space="preserve" font-family="CourierNewPSMT,Courier New" font-size="60.0" fill="#FEFFFE" transform="matrix(1.00, 0.00, -0.00, -1.00, 310.2, 880.0)"> </text><text xml:space="preserve" font-family="CourierNewPSMT,Courier New" font-size="60.0" fill="#FEFFFE" transform="matrix(1.00, 0.00, -0.00, -1.00, 346.2, 880.0)"> </text><text xml:space="preserve" font-family="CourierNewPS-BoldMT,Courier New" font-weight="bold" font-size="60.0" fill="#FEFFFE" transform="matrix(1.00, 0.00, -0.00, -1.00, 58.2, 812.0)">p</text><text xml:space="preserve" font-family="CourierNewPS-BoldMT,Courier New" font-weight="bold" font-size="60.0" fill="#FEFFFE" transform="matrix(1.00, 0.00, -0.00, -1.00, 94.2, 812.0)">u</text><text xml:space="preserve" font-family="CourierNewPS-BoldMT,Courier New" font-weight="bold" font-size="60.0" fill="#FEFFFE" transform="matrix(1.00, 0.00, -0.00, -1.00, 130.2, 812.0)">b</text><text xml:space="preserve" font-family="CourierNewPS-BoldMT,Courier New" font-weight="bold" font-size="60.0" fill="#FEFFFE" transform="matrix(1.00, 0.00, -0.00, -1.00, 166.2, 812.0)">l</text><text xml:space="preserve" font-family="CourierNewPS-BoldMT,Courier New" font-weight="bold" font-size="60.0" fill="#FEFFFE" transform="matrix(1.00, 0.00, -0.00, -1.00, 202.2, 812.0)">i</text><text xml:space="preserve" font-family="CourierNewPS-BoldMT,Courier New" font-weight="bold" font-size="60.0" fill="#FEFFFE" transform="matrix(1.00, 0.00, -0.00, -1.00, 238.2, 812.0)">c</text><text xml:space="preserve" font-family="CourierNewPSMT,Courier New" font-size="60.0" fill="#FEFFFE" transform="matrix(1.00, 0.00, -0.00, -1.00, 274.2, 812.0)"> </text><text xml:space="preserve" font-family="CourierNewPS-BoldMT,Courier New" font-weight="bold" font-size="60.0" fill="#FEFFFE" transform="matrix(1.00, 0.00, -0.00, -1.00, 310.2, 812.0)">c</text><text xml:space="preserve" font-family="CourierNewPS-BoldMT,Courier New" font-weight="bold" font-size="60.0" fill="#FEFFFE" transform="matrix(1.00, 0.00, -0.00, -1.00, 346.2, 812.0)">l</text><text xml:space="preserve" font-family="CourierNewPS-BoldMT,Courier New" font-weight="bold" font-size="60.0" fill="#FEFFFE" transform="matrix(1.00, 0.00, -0.00, -1.00, 382.2, 812.0)">a</text><text xml:space="preserve" font-family="CourierNewPS-BoldMT,Courier New" font-weight="bold" font-size="60.0" fill="#FEFFFE" transform="matrix(1.00, 0.00, -0.00, -1.00, 418.2, 812.0)">s</text><text xml:space="preserve" font-family="CourierNewPS-BoldMT,Courier New" font-weight="bold" font-size="60.0" fill="#FEFFFE" transform="matrix(1.00, 0.00, -0.00, -1.00, 454.2, 812.0)">s</text><text xml:space="preserve" font-family="CourierNewPSMT,Courier New" font-size="60.0" fill="#FEFFFE" transform="matrix(1.00, 0.00, -0.00, -1.00, 490.2, 812.0)"> </text><text xml:space="preserve" font-family="CourierNewPSMT,Courier New" font-size="60.0" fill="#FEFFFE" transform="matrix(1.00, 0.00, -0.00, -1.00, 526.2, 812.0)">M</text><text xml:space="preserve" font-family="CourierNewPSMT,Courier New" font-size="60.0" fill="#FEFFFE" transform="matrix(1.00, 0.00, -0.00, -1.00, 562.2, 812.0)">i</text><text xml:space="preserve" font-family="CourierNewPSMT,Courier New" font-size="60.0" fill="#FEFFFE" transform="matrix(1.00, 0.00, -0.00, -1.00, 598.3, 812.0)">M</text><text xml:space="preserve" font-family="CourierNewPSMT,Courier New" font-size="60.0" fill="#FEFFFE" transform="matrix(1.00, 0.00, -0.00, -1.00, 634.3, 812.0)">o</text><text xml:space="preserve" font-family="CourierNewPSMT,Courier New" font-size="60.0" fill="#FEFFFE" transform="matrix(1.00, 0.00, -0.00, -1.00, 670.3, 812.0)">d</text><text xml:space="preserve" font-family="CourierNewPSMT,Courier New" font-size="60.0" fill="#FEFFFE" transform="matrix(1.00, 0.00, -0.00, -1.00, 706.3, 812.0)">e</text><text xml:space="preserve" font-family="CourierNewPSMT,Courier New" font-size="60.0" fill="#FEFFFE" transform="matrix(1.00, 0.00, -0.00, -1.00, 742.3, 812.0)">l</text><text xml:space="preserve" font-family="CourierNewPSMT,Courier New" font-size="60.0" fill="#FEFFFE" transform="matrix(1.00, 0.00, -0.00, -1.00, 778.3, 812.0)">o</text><text xml:space="preserve" font-family="CourierNewPSMT,Courier New" font-size="60.0" fill="#FEFFFE" transform="matrix(1.00, 0.00, -0.00, -1.00, 814.3, 812.0)"> </text><text xml:space="preserve" font-family="CourierNewPS-BoldMT,Courier New" font-weight="bold" font-size="60.0" fill="#FEFFFE" transform="matrix(1.00, 0.00, -0.00, -1.00, 850.3, 812.0)">e</text><text xml:space="preserve" font-family="CourierNewPS-BoldMT,Courier New" font-weight="bold" font-size="60.0" fill="#FEFFFE" transform="matrix(1.00, 0.00, -0.00, -1.00, 886.3, 812.0)">x</text><text xml:space="preserve" font-family="CourierNewPS-BoldMT,Courier New" font-weight="bold" font-size="60.0" fill="#FEFFFE" transform="matrix(1.00, 0.00, -0.00, -1.00, 922.3, 812.0)">t</text><text xml:space="preserve" font-family="CourierNewPS-BoldMT,Courier New" font-weight="bold" font-size="60.0" fill="#FEFFFE" transform="matrix(1.00, 0.00, -0.00, -1.00, 958.3, 812.0)">e</text><text xml:space="preserve" font-family="CourierNewPS-BoldMT,Courier New" font-weight="bold" font-size="60.0" fill="#FEFFFE" transform="matrix(1.00, 0.00, -0.00, -1.00, 994.3, 812.0)">n</text><text xml:space="preserve" font-family="CourierNewPS-BoldMT,Courier New" font-weight="bold" font-size="60.0" fill="#FEFFFE" transform="matrix(1.00, 0.00, -0.00, -1.00, 1030.3, 812.0)">d</text><text xml:space="preserve" font-family="CourierNewPS-BoldMT,Courier New" font-weight="bold" font-size="60.0" fill="#FEFFFE" transform="matrix(1.00, 0.00, -0.00, -1.00, 1066.4, 812.0)">s</text><text xml:space="preserve" font-family="CourierNewPSMT,Courier New" font-size="60.0" fill="#FEFFFE" transform="matrix(1.00, 0.00, -0.00, -1.00, 1102.3, 812.0)"> </text><text xml:space="preserve" font-family="CourierNewPSMT,Courier New" font-size="60.0" fill="#FEFFFE" transform="matrix(1.00, 0.00, -0.00, -1.00, 1138.3, 812.0)">M</text><text xml:space="preserve" font-family="CourierNewPSMT,Courier New" font-size="60.0" fill="#FEFFFE" transform="matrix(1.00, 0.00, -0.00, -1.00, 1174.3, 812.0)">o</text><text xml:space="preserve" font-family="CourierNewPSMT,Courier New" font-size="60.0" fill="#FEFFFE" transform="matrix(1.00, 0.00, -0.00, -1.00, 1210.4, 812.0)">d</text><text xml:space="preserve" font-family="CourierNewPSMT,Courier New" font-size="60.0" fill="#FEFFFE" transform="matrix(1.00, 0.00, -0.00, -1.00, 1246.4, 812.0)">e</text><text xml:space="preserve" font-family="CourierNewPSMT,Courier New" font-size="60.0" fill="#FEFFFE" transform="matrix(1.00, 0.00, -0.00, -1.00, 1282.4, 812.0)">l</text><text xml:space="preserve" font-family="CourierNewPSMT,Courier New" font-size="60.0" fill="#FEFFFE" transform="matrix(1.00, 0.00, -0.00, -1.00, 1318.4, 812.0)"> </text><text xml:space="preserve" font-family="CourierNewPSMT,Courier New" font-size="60.0" fill="#FEFFFE" transform="matrix(1.00, 0.00, -0.00, -1.00, 1354.4, 812.0)">{</text><text xml:space="preserve" font-family="CourierNewPSMT,Courier New" font-size="60.0" fill="#FEFFFE" transform="matrix(1.00, 0.00, -0.00, -1.00, 1390.4, 812.0)"> </text><text xml:space="preserve" font-family="CourierNewPSMT,Courier New" font-size="60.0" fill="#FEFFFE" transform="matrix(1.00, 0.00, -0.00, -1.00, 58.2, 676.0)"> </text><text xml:space="preserve" font-family="CourierNewPSMT,Courier New" font-size="60.0" fill="#FEFFFE" transform="matrix(1.00, 0.00, -0.00, -1.00, 94.2, 676.0)"> </text><text xml:space="preserve" font-family="CourierNewPSMT,Courier New" font-size="60.0" fill="#FEFFFE" transform="matrix(1.00, 0.00, -0.00, -1.00, 130.2, 676.0)"> </text><text xml:space="preserve" font-family="CourierNewPSMT,Courier New" font-size="60.0" fill="#FEFFFE" transform="matrix(1.00, 0.00, -0.00, -1.00, 166.2, 676.0)"> </text><text xml:space="preserve" font-family="CourierNewPSMT,Courier New" font-size="60.0" fill="#FEFFFE" transform="matrix(1.00, 0.00, -0.00, -1.00, 202.2, 676.0)">@</text><text xml:space="preserve" font-family="CourierNewPSMT,Courier New" font-size="60.0" fill="#FEFFFE" transform="matrix(1.00, 0.00, -0.00, -1.00, 238.2, 676.0)">R</text><text xml:space="preserve" font-family="CourierNewPSMT,Courier New" font-size="60.0" fill="#FEFFFE" transform="matrix(1.00, 0.00, -0.00, -1.00, 274.2, 676.0)">e</text><text xml:space="preserve" font-family="CourierNewPSMT,Courier New" font-size="60.0" fill="#FEFFFE" transform="matrix(1.00, 0.00, -0.00, -1.00, 310.2, 676.0)">q</text><text xml:space="preserve" font-family="CourierNewPSMT,Courier New" font-size="60.0" fill="#FEFFFE" transform="matrix(1.00, 0.00, -0.00, -1.00, 346.2, 676.0)">u</text><text xml:space="preserve" font-family="CourierNewPSMT,Courier New" font-size="60.0" fill="#FEFFFE" transform="matrix(1.00, 0.00, -0.00, -1.00, 382.3, 676.0)">i</text><text xml:space="preserve" font-family="CourierNewPSMT,Courier New" font-size="60.0" fill="#FEFFFE" transform="matrix(1.00, 0.00, -0.00, -1.00, 418.3, 676.0)">r</text><text xml:space="preserve" font-family="CourierNewPSMT,Courier New" font-size="60.0" fill="#FEFFFE" transform="matrix(1.00, 0.00, -0.00, -1.00, 454.3, 676.0)">e</text><text xml:space="preserve" font-family="CourierNewPSMT,Courier New" font-size="60.0" fill="#FEFFFE" transform="matrix(1.00, 0.00, -0.00, -1.00, 490.3, 676.0)">d</text><text xml:space="preserve" font-family="CourierNewPSMT,Courier New" font-size="60.0" fill="#FEFFFE" transform="matrix(1.00, 0.00, -0.00, -1.00, 526.2, 676.0)"> </text><text xml:space="preserve" font-family="CourierNewPSMT,Courier New" font-size="60.0" fill="#FEFFFE" transform="matrix(1.00, 0.00, -0.00, -1.00, 58.2, 608.0)"> </text><text xml:space="preserve" font-family="CourierNewPSMT,Courier New" font-size="60.0" fill="#FEFFFE" transform="matrix(1.00, 0.00, -0.00, -1.00, 94.2, 608.0)"> </text><text xml:space="preserve" font-family="CourierNewPSMT,Courier New" font-size="60.0" fill="#FEFFFE" transform="matrix(1.00, 0.00, -0.00, -1.00, 130.2, 608.0)"> </text><text xml:space="preserve" font-family="CourierNewPSMT,Courier New" font-size="60.0" fill="#FEFFFE" transform="matrix(1.00, 0.00, -0.00, -1.00, 166.2, 608.0)"> </text><text xml:space="preserve" font-family="CourierNewPS-BoldMT,Courier New" font-weight="bold" font-size="60.0" fill="#FEFFFE" transform="matrix(1.00, 0.00, -0.00, -1.00, 202.2, 608.0)">p</text><text xml:space="preserve" font-family="CourierNewPS-BoldMT,Courier New" font-weight="bold" font-size="60.0" fill="#FEFFFE" transform="matrix(1.00, 0.00, -0.00, -1.00, 238.2, 608.0)">u</text><text xml:space="preserve" font-family="CourierNewPS-BoldMT,Courier New" font-weight="bold" font-size="60.0" fill="#FEFFFE" transform="matrix(1.00, 0.00, -0.00, -1.00, 274.2, 608.0)">b</text><text xml:space="preserve" font-family="CourierNewPS-BoldMT,Courier New" font-weight="bold" font-size="60.0" fill="#FEFFFE" transform="matrix(1.00, 0.00, -0.00, -1.00, 310.2, 608.0)">l</text><text xml:space="preserve" font-family="CourierNewPS-BoldMT,Courier New" font-weight="bold" font-size="60.0" fill="#FEFFFE" transform="matrix(1.00, 0.00, -0.00, -1.00, 346.2, 608.0)">i</text><text xml:space="preserve" font-family="CourierNewPS-BoldMT,Courier New" font-weight="bold" font-size="60.0" fill="#FEFFFE" transform="matrix(1.00, 0.00, -0.00, -1.00, 382.2, 608.0)">c</text><text xml:space="preserve" font-family="CourierNewPSMT,Courier New" font-size="60.0" fill="#FEFFFE" transform="matrix(1.00, 0.00, -0.00, -1.00, 418.2, 608.0)"> </text><text xml:space="preserve" font-family="CourierNewPSMT,Courier New" font-size="60.0" fill="#FEFFFE" transform="matrix(1.00, 0.00, -0.00, -1.00, 454.2, 608.0)">S</text><text xml:space="preserve" font-family="CourierNewPSMT,Courier New" font-size="60.0" fill="#FEFFFE" transform="matrix(1.00, 0.00, -0.00, -1.00, 490.2, 608.0)">t</text><text xml:space="preserve" font-family="CourierNewPSMT,Courier New" font-size="60.0" fill="#FEFFFE" transform="matrix(1.00, 0.00, -0.00, -1.00, 526.2, 608.0)">r</text><text xml:space="preserve" font-family="CourierNewPSMT,Courier New" font-size="60.0" fill="#FEFFFE" transform="matrix(1.00, 0.00, -0.00, -1.00, 562.3, 608.0)">i</text><text xml:space="preserve" font-family="CourierNewPSMT,Courier New" font-size="60.0" fill="#FEFFFE" transform="matrix(1.00, 0.00, -0.00, -1.00, 598.3, 608.0)">n</text><text xml:space="preserve" font-family="CourierNewPSMT,Courier New" font-size="60.0" fill="#FEFFFE" transform="matrix(1.00, 0.00, -0.00, -1.00, 634.3, 608.0)">g</text><text xml:space="preserve" font-family="CourierNewPSMT,Courier New" font-size="60.0" fill="#FEFFFE" transform="matrix(1.00, 0.00, -0.00, -1.00, 670.3, 608.0)"> </text><text xml:space="preserve" font-family="CourierNewPSMT,Courier New" font-size="60.0" fill="#FEFFFE" transform="matrix(1.00, 0.00, -0.00, -1.00, 706.3, 608.0)">n</text><text xml:space="preserve" font-family="CourierNewPSMT,Courier New" font-size="60.0" fill="#FEFFFE" transform="matrix(1.00, 0.00, -0.00, -1.00, 742.3, 608.0)">a</text><text xml:space="preserve" font-family="CourierNewPSMT,Courier New" font-size="60.0" fill="#FEFFFE" transform="matrix(1.00, 0.00, -0.00, -1.00, 778.3, 608.0)">m</text><text xml:space="preserve" font-family="CourierNewPSMT,Courier New" font-size="60.0" fill="#FEFFFE" transform="matrix(1.00, 0.00, -0.00, -1.00, 814.3, 608.0)">e</text><text xml:space="preserve" font-family="CourierNewPSMT,Courier New" font-size="60.0" fill="#FEFFFE" transform="matrix(1.00, 0.00, -0.00, -1.00, 850.4, 608.0)">;</text><text xml:space="preserve" font-family="CourierNewPSMT,Courier New" font-size="60.0" fill="#FEFFFE" transform="matrix(1.00, 0.00, -0.00, -1.00, 886.3, 608.0)"> </text><text xml:space="preserve" font-family="Monaco,Monaco" font-size="60.0" fill="#FEFFFE" transform="matrix(1.00, 0.00, -0.00, -1.00, 58.2, 540.0)"> </text><text xml:space="preserve" font-family="CourierNewPSMT,Courier New" font-size="60.0" fill="#FEFFFE" transform="matrix(1.00, 0.00, -0.00, -1.00, 58.2, 472.0)"> </text><text xml:space="preserve" font-family="CourierNewPSMT,Courier New" font-size="60.0" fill="#FEFFFE" transform="matrix(1.00, 0.00, -0.00, -1.00, 94.2, 472.0)"> </text><text xml:space="preserve" font-family="CourierNewPSMT,Courier New" font-size="60.0" fill="#FEFFFE" transform="matrix(1.00, 0.00, -0.00, -1.00, 130.2, 472.0)"> </text><text xml:space="preserve" font-family="CourierNewPSMT,Courier New" font-size="60.0" fill="#FEFFFE" transform="matrix(1.00, 0.00, -0.00, -1.00, 166.2, 472.0)"> </text><text xml:space="preserve" font-family="CourierNewPSMT,Courier New" font-size="60.0" fill="#FEFFFE" transform="matrix(1.00, 0.00, -0.00, -1.00, 202.2, 472.0)">@</text><text xml:space="preserve" font-family="CourierNewPSMT,Courier New" font-size="60.0" fill="#FEFFFE" transform="matrix(1.00, 0.00, -0.00, -1.00, 238.2, 472.0)">M</text><text xml:space="preserve" font-family="CourierNewPSMT,Courier New" font-size="60.0" fill="#FEFFFE" transform="matrix(1.00, 0.00, -0.00, -1.00, 274.2, 472.0)">a</text><text xml:space="preserve" font-family="CourierNewPSMT,Courier New" font-size="60.0" fill="#FEFFFE" transform="matrix(1.00, 0.00, -0.00, -1.00, 310.2, 472.0)">x</text><text xml:space="preserve" font-family="CourierNewPSMT,Courier New" font-size="60.0" fill="#FEFFFE" transform="matrix(1.00, 0.00, -0.00, -1.00, 346.2, 472.0)">(</text><text xml:space="preserve" font-family="CourierNewPSMT,Courier New" font-size="60.0" fill="#FEFFFE" transform="matrix(1.00, 0.00, -0.00, -1.00, 382.3, 472.0)">6</text><text xml:space="preserve" font-family="CourierNewPSMT,Courier New" font-size="60.0" fill="#FEFFFE" transform="matrix(1.00, 0.00, -0.00, -1.00, 418.3, 472.0)">0</text><text xml:space="preserve" font-family="CourierNewPSMT,Courier New" font-size="60.0" fill="#FEFFFE" transform="matrix(1.00, 0.00, -0.00, -1.00, 454.3, 472.0)">)</text><text xml:space="preserve" font-family="CourierNewPSMT,Courier New" font-size="60.0" fill="#FEFFFE" transform="matrix(1.00, 0.00, -0.00, -1.00, 490.3, 472.0)"> </text><text xml:space="preserve" font-family="CourierNewPSMT,Courier New" font-size="60.0" fill="#FEFFFE" transform="matrix(1.00, 0.00, -0.00, -1.00, 58.2, 404.0)"> </text><text xml:space="preserve" font-family="CourierNewPSMT,Courier New" font-size="60.0" fill="#FEFFFE" transform="matrix(1.00, 0.00, -0.00, -1.00, 94.2, 404.0)"> </text><text xml:space="preserve" font-family="CourierNewPSMT,Courier New" font-size="60.0" fill="#FEFFFE" transform="matrix(1.00, 0.00, -0.00, -1.00, 130.2, 404.0)"> </text><text xml:space="preserve" font-family="CourierNewPSMT,Courier New" font-size="60.0" fill="#FEFFFE" transform="matrix(1.00, 0.00, -0.00, -1.00, 166.2, 404.0)"> </text><text xml:space="preserve" font-family="CourierNewPSMT,Courier New" font-size="60.0" fill="#FEFFFE" transform="matrix(1.00, 0.00, -0.00, -1.00, 202.2, 404.0)">@</text><text xml:space="preserve" font-family="CourierNewPSMT,Courier New" font-size="60.0" fill="#FEFFFE" transform="matrix(1.00, 0.00, -0.00, -1.00, 238.2, 404.0)">M</text><text xml:space="preserve" font-family="CourierNewPSMT,Courier New" font-size="60.0" fill="#FEFFFE" transform="matrix(1.00, 0.00, -0.00, -1.00, 274.2, 404.0)">i</text><text xml:space="preserve" font-family="CourierNewPSMT,Courier New" font-size="60.0" fill="#FEFFFE" transform="matrix(1.00, 0.00, -0.00, -1.00, 310.2, 404.0)">n</text><text xml:space="preserve" font-family="CourierNewPSMT,Courier New" font-size="60.0" fill="#FEFFFE" transform="matrix(1.00, 0.00, -0.00, -1.00, 346.2, 404.0)">(</text><text xml:space="preserve" font-family="CourierNewPSMT,Courier New" font-size="60.0" fill="#FEFFFE" transform="matrix(1.00, 0.00, -0.00, -1.00, 382.3, 404.0)">1</text><text xml:space="preserve" font-family="CourierNewPSMT,Courier New" font-size="60.0" fill="#FEFFFE" transform="matrix(1.00, 0.00, -0.00, -1.00, 418.3, 404.0)">8</text><text xml:space="preserve" font-family="CourierNewPSMT,Courier New" font-size="60.0" fill="#FEFFFE" transform="matrix(1.00, 0.00, -0.00, -1.00, 454.3, 404.0)">)</text><text xml:space="preserve" font-family="CourierNewPSMT,Courier New" font-size="60.0" fill="#FEFFFE" transform="matrix(1.00, 0.00, -0.00, -1.00, 490.3, 404.0)"> </text><text xml:space="preserve" font-family="CourierNewPSMT,Courier New" font-size="60.0" fill="#FEFFFE" transform="matrix(1.00, 0.00, -0.00, -1.00, 58.2, 336.0)"> </text><text xml:space="preserve" font-family="CourierNewPSMT,Courier New" font-size="60.0" fill="#FEFFFE" transform="matrix(1.00, 0.00, -0.00, -1.00, 94.2, 336.0)"> </text><text xml:space="preserve" font-family="CourierNewPSMT,Courier New" font-size="60.0" fill="#FEFFFE" transform="matrix(1.00, 0.00, -0.00, -1.00, 130.2, 336.0)"> </text><text xml:space="preserve" font-family="CourierNewPSMT,Courier New" font-size="60.0" fill="#FEFFFE" transform="matrix(1.00, 0.00, -0.00, -1.00, 166.2, 336.0)"> </text><text xml:space="preserve" font-family="CourierNewPS-BoldMT,Courier New" font-weight="bold" font-size="60.0" fill="#FEFFFE" transform="matrix(1.00, 0.00, -0.00, -1.00, 202.2, 336.0)">p</text><text xml:space="preserve" font-family="CourierNewPS-BoldMT,Courier New" font-weight="bold" font-size="60.0" fill="#FEFFFE" transform="matrix(1.00, 0.00, -0.00, -1.00, 238.2, 336.0)">u</text><text xml:space="preserve" font-family="CourierNewPS-BoldMT,Courier New" font-weight="bold" font-size="60.0" fill="#FEFFFE" transform="matrix(1.00, 0.00, -0.00, -1.00, 274.2, 336.0)">b</text><text xml:space="preserve" font-family="CourierNewPS-BoldMT,Courier New" font-weight="bold" font-size="60.0" fill="#FEFFFE" transform="matrix(1.00, 0.00, -0.00, -1.00, 310.2, 336.0)">l</text><text xml:space="preserve" font-family="CourierNewPS-BoldMT,Courier New" font-weight="bold" font-size="60.0" fill="#FEFFFE" transform="matrix(1.00, 0.00, -0.00, -1.00, 346.2, 336.0)">i</text><text xml:space="preserve" font-family="CourierNewPS-BoldMT,Courier New" font-weight="bold" font-size="60.0" fill="#FEFFFE" transform="matrix(1.00, 0.00, -0.00, -1.00, 382.2, 336.0)">c</text><text xml:space="preserve" font-family="CourierNewPSMT,Courier New" font-size="60.0" fill="#FEFFFE" transform="matrix(1.00, 0.00, -0.00, -1.00, 418.2, 336.0)"> </text><text xml:space="preserve" font-family="CourierNewPSMT,Courier New" font-size="60.0" fill="#FEFFFE" transform="matrix(1.00, 0.00, -0.00, -1.00, 454.2, 336.0)">I</text><text xml:space="preserve" font-family="CourierNewPSMT,Courier New" font-size="60.0" fill="#FEFFFE" transform="matrix(1.00, 0.00, -0.00, -1.00, 490.2, 336.0)">n</text><text xml:space="preserve" font-family="CourierNewPSMT,Courier New" font-size="60.0" fill="#FEFFFE" transform="matrix(1.00, 0.00, -0.00, -1.00, 526.2, 336.0)">t</text><text xml:space="preserve" font-family="CourierNewPSMT,Courier New" font-size="60.0" fill="#FEFFFE" transform="matrix(1.00, 0.00, -0.00, -1.00, 562.3, 336.0)">e</text><text xml:space="preserve" font-family="CourierNewPSMT,Courier New" font-size="60.0" fill="#FEFFFE" transform="matrix(1.00, 0.00, -0.00, -1.00, 598.3, 336.0)">g</text><text xml:space="preserve" font-family="CourierNewPSMT,Courier New" font-size="60.0" fill="#FEFFFE" transform="matrix(1.00, 0.00, -0.00, -1.00, 634.3, 336.0)">e</text><text xml:space="preserve" font-family="CourierNewPSMT,Courier New" font-size="60.0" fill="#FEFFFE" transform="matrix(1.00, 0.00, -0.00, -1.00, 670.3, 336.0)">r</text><text xml:space="preserve" font-family="CourierNewPSMT,Courier New" font-size="60.0" fill="#FEFFFE" transform="matrix(1.00, 0.00, -0.00, -1.00, 706.3, 336.0)"> </text><text xml:space="preserve" font-family="CourierNewPSMT,Courier New" font-size="60.0" fill="#FEFFFE" transform="matrix(1.00, 0.00, -0.00, -1.00, 742.3, 336.0)">a</text><text xml:space="preserve" font-family="CourierNewPSMT,Courier New" font-size="60.0" fill="#FEFFFE" transform="matrix(1.00, 0.00, -0.00, -1.00, 778.3, 336.0)">g</text><text xml:space="preserve" font-family="CourierNewPSMT,Courier New" font-size="60.0" fill="#FEFFFE" transform="matrix(1.00, 0.00, -0.00, -1.00, 814.3, 336.0)">e</text><text xml:space="preserve" font-family="CourierNewPSMT,Courier New" font-size="60.0" fill="#FEFFFE" transform="matrix(1.00, 0.00, -0.00, -1.00, 850.4, 336.0)">;</text><text xml:space="preserve" font-family="Monaco,Monaco" font-size="60.0" fill="#FEFFFE" transform="matrix(1.00, 0.00, -0.00, -1.00, 886.3, 336.0)"> </text><text xml:space="preserve" font-family="Monaco,Monaco" font-size="60.0" fill="#FEFFFE" transform="matrix(1.00, 0.00, -0.00, -1.00, 58.2, 268.0)"> </text><text xml:space="preserve" font-family="CourierNewPSMT,Courier New" font-size="60.0" fill="#FEFFFE" transform="matrix(1.00, 0.00, -0.00, -1.00, 58.2, 200.0)"> </text><text xml:space="preserve" font-family="CourierNewPSMT,Courier New" font-size="60.0" fill="#FEFFFE" transform="matrix(1.00, 0.00, -0.00, -1.00, 94.2, 200.0)"> </text><text xml:space="preserve" font-family="CourierNewPSMT,Courier New" font-size="60.0" fill="#FEFFFE" transform="matrix(1.00, 0.00, -0.00, -1.00, 130.2, 200.0)"> </text><text xml:space="preserve" font-family="CourierNewPSMT,Courier New" font-size="60.0" fill="#FEFFFE" transform="matrix(1.00, 0.00, -0.00, -1.00, 166.2, 200.0)"> </text><text xml:space="preserve" font-family="CourierNewPSMT,Courier New" font-size="60.0" fill="#FEFFFE" transform="matrix(1.00, 0.00, -0.00, -1.00, 202.2, 200.0)">@</text><text xml:space="preserve" font-family="CourierNewPSMT,Courier New" font-size="60.0" fill="#FEFFFE" transform="matrix(1.00, 0.00, -0.00, -1.00, 238.2, 200.0)">O</text><text xml:space="preserve" font-family="CourierNewPSMT,Courier New" font-size="60.0" fill="#FEFFFE" transform="matrix(1.00, 0.00, -0.00, -1.00, 274.2, 200.0)">n</text><text xml:space="preserve" font-family="CourierNewPSMT,Courier New" font-size="60.0" fill="#FEFFFE" transform="matrix(1.00, 0.00, -0.00, -1.00, 310.2, 200.0)">e</text><text xml:space="preserve" font-family="CourierNewPSMT,Courier New" font-size="60.0" fill="#FEFFFE" transform="matrix(1.00, 0.00, -0.00, -1.00, 346.2, 200.0)">T</text><text xml:space="preserve" font-family="CourierNewPSMT,Courier New" font-size="60.0" fill="#FEFFFE" transform="matrix(1.00, 0.00, -0.00, -1.00, 382.3, 200.0)">o</text><text xml:space="preserve" font-family="CourierNewPSMT,Courier New" font-size="60.0" fill="#FEFFFE" transform="matrix(1.00, 0.00, -0.00, -1.00, 418.3, 200.0)">O</text><text xml:space="preserve" font-family="CourierNewPSMT,Courier New" font-size="60.0" fill="#FEFFFE" transform="matrix(1.00, 0.00, -0.00, -1.00, 454.3, 200.0)">n</text><text xml:space="preserve" font-family="CourierNewPSMT,Courier New" font-size="60.0" fill="#FEFFFE" transform="matrix(1.00, 0.00, -0.00, -1.00, 490.3, 200.0)">e</text><text xml:space="preserve" font-family="Monaco,Monaco" font-size="60.0" fill="#FEFFFE" transform="matrix(1.00, 0.00, -0.00, -1.00, 526.2, 200.0)"> </text><text xml:space="preserve" font-family="CourierNewPSMT,Courier New" font-size="60.0" fill="#FEFFFE" transform="matrix(1.00, 0.00, -0.00, -1.00, 58.2, 132.0)"> </text><text xml:space="preserve" font-family="CourierNewPSMT,Courier New" font-size="60.0" fill="#FEFFFE" transform="matrix(1.00, 0.00, -0.00, -1.00, 94.2, 132.0)"> </text><text xml:space="preserve" font-family="CourierNewPSMT,Courier New" font-size="60.0" fill="#FEFFFE" transform="matrix(1.00, 0.00, -0.00, -1.00, 130.2, 132.0)"> </text><text xml:space="preserve" font-family="CourierNewPSMT,Courier New" font-size="60.0" fill="#FEFFFE" transform="matrix(1.00, 0.00, -0.00, -1.00, 166.2, 132.0)"> </text><text xml:space="preserve" font-family="CourierNewPSMT,Courier New" font-size="60.0" fill="#FEFFFE" transform="matrix(1.00, 0.00, -0.00, -1.00, 202.2, 132.0)">@</text><text xml:space="preserve" font-family="CourierNewPSMT,Courier New" font-size="60.0" fill="#FEFFFE" transform="matrix(1.00, 0.00, -0.00, -1.00, 238.2, 132.0)">V</text><text xml:space="preserve" font-family="CourierNewPSMT,Courier New" font-size="60.0" fill="#FEFFFE" transform="matrix(1.00, 0.00, -0.00, -1.00, 274.2, 132.0)">a</text><text xml:space="preserve" font-family="CourierNewPSMT,Courier New" font-size="60.0" fill="#FEFFFE" transform="matrix(1.00, 0.00, -0.00, -1.00, 310.2, 132.0)">l</text><text xml:space="preserve" font-family="CourierNewPSMT,Courier New" font-size="60.0" fill="#FEFFFE" transform="matrix(1.00, 0.00, -0.00, -1.00, 346.2, 132.0)">i</text><text xml:space="preserve" font-family="CourierNewPSMT,Courier New" font-size="60.0" fill="#FEFFFE" transform="matrix(1.00, 0.00, -0.00, -1.00, 382.3, 132.0)">d</text><text xml:space="preserve" font-family="CourierNewPSMT,Courier New" font-size="60.0" fill="#FEFFFE" transform="matrix(1.00, 0.00, -0.00, -1.00, 418.3, 132.0)"> </text><text xml:space="preserve" font-family="CourierNewPSMT,Courier New" font-size="60.0" fill="#FEFFFE" transform="matrix(1.00, 0.00, -0.00, -1.00, 58.2, 64.0)"> </text><text xml:space="preserve" font-family="CourierNewPSMT,Courier New" font-size="60.0" fill="#FEFFFE" transform="matrix(1.00, 0.00, -0.00, -1.00, 94.2, 64.0)"> </text><text xml:space="preserve" font-family="CourierNewPSMT,Courier New" font-size="60.0" fill="#FEFFFE" transform="matrix(1.00, 0.00, -0.00, -1.00, 130.2, 64.0)"> </text><text xml:space="preserve" font-family="CourierNewPSMT,Courier New" font-size="60.0" fill="#FEFFFE" transform="matrix(1.00, 0.00, -0.00, -1.00, 166.2, 64.0)"> </text><text xml:space="preserve" font-family="CourierNewPS-BoldMT,Courier New" font-weight="bold" font-size="60.0" fill="#FEFFFE" transform="matrix(1.00, 0.00, -0.00, -1.00, 202.2, 64.0)">p</text><text xml:space="preserve" font-family="CourierNewPS-BoldMT,Courier New" font-weight="bold" font-size="60.0" fill="#FEFFFE" transform="matrix(1.00, 0.00, -0.00, -1.00, 238.2, 64.0)">u</text><text xml:space="preserve" font-family="CourierNewPS-BoldMT,Courier New" font-weight="bold" font-size="60.0" fill="#FEFFFE" transform="matrix(1.00, 0.00, -0.00, -1.00, 274.2, 64.0)">b</text><text xml:space="preserve" font-family="CourierNewPS-BoldMT,Courier New" font-weight="bold" font-size="60.0" fill="#FEFFFE" transform="matrix(1.00, 0.00, -0.00, -1.00, 310.2, 64.0)">l</text><text xml:space="preserve" font-family="CourierNewPS-BoldMT,Courier New" font-weight="bold" font-size="60.0" fill="#FEFFFE" transform="matrix(1.00, 0.00, -0.00, -1.00, 346.2, 64.0)">i</text><text xml:space="preserve" font-family="CourierNewPS-BoldMT,Courier New" font-weight="bold" font-size="60.0" fill="#FEFFFE" transform="matrix(1.00, 0.00, -0.00, -1.00, 382.2, 64.0)">c</text><text xml:space="preserve" font-family="CourierNewPSMT,Courier New" font-size="60.0" fill="#FEFFFE" transform="matrix(1.00, 0.00, -0.00, -1.00, 418.2, 64.0)"> </text><text xml:space="preserve" font-family="CourierNewPSMT,Courier New" font-size="60.0" fill="#FEFFFE" transform="matrix(1.00, 0.00, -0.00, -1.00, 454.2, 64.0)">E</text><text xml:space="preserve" font-family="CourierNewPSMT,Courier New" font-size="60.0" fill="#FEFFFE" transform="matrix(1.00, 0.00, -0.00, -1.00, 490.2, 64.0)">m</text><text xml:space="preserve" font-family="CourierNewPSMT,Courier New" font-size="60.0" fill="#FEFFFE" transform="matrix(1.00, 0.00, -0.00, -1.00, 526.2, 64.0)">a</text><text xml:space="preserve" font-family="CourierNewPSMT,Courier New" font-size="60.0" fill="#FEFFFE" transform="matrix(1.00, 0.00, -0.00, -1.00, 562.3, 64.0)">i</text><text xml:space="preserve" font-family="CourierNewPSMT,Courier New" font-size="60.0" fill="#FEFFFE" transform="matrix(1.00, 0.00, -0.00, -1.00, 598.3, 64.0)">l</text><text xml:space="preserve" font-family="CourierNewPSMT,Courier New" font-size="60.0" fill="#FEFFFE" transform="matrix(1.00, 0.00, -0.00, -1.00, 634.3, 64.0)">M</text><text xml:space="preserve" font-family="CourierNewPSMT,Courier New" font-size="60.0" fill="#FEFFFE" transform="matrix(1.00, 0.00, -0.00, -1.00, 670.3, 64.0)">o</text><text xml:space="preserve" font-family="CourierNewPSMT,Courier New" font-size="60.0" fill="#FEFFFE" transform="matrix(1.00, 0.00, -0.00, -1.00, 706.3, 64.0)">d</text><text xml:space="preserve" font-family="CourierNewPSMT,Courier New" font-size="60.0" fill="#FEFFFE" transform="matrix(1.00, 0.00, -0.00, -1.00, 742.3, 64.0)">e</text><text xml:space="preserve" font-family="CourierNewPSMT,Courier New" font-size="60.0" fill="#FEFFFE" transform="matrix(1.00, 0.00, -0.00, -1.00, 778.3, 64.0)">l</text><text xml:space="preserve" font-family="CourierNewPSMT,Courier New" font-size="60.0" fill="#FEFFFE" transform="matrix(1.00, 0.00, -0.00, -1.00, 814.3, 64.0)"> </text><text xml:space="preserve" font-family="CourierNewPSMT,Courier New" font-size="60.0" fill="#FEFFFE" transform="matrix(1.00, 0.00, -0.00, -1.00, 850.4, 64.0)">e</text><text xml:space="preserve" font-family="CourierNewPSMT,Courier New" font-size="60.0" fill="#FEFFFE" transform="matrix(1.00, 0.00, -0.00, -1.00, 886.4, 64.0)">m</text><text xml:space="preserve" font-family="CourierNewPSMT,Courier New" font-size="60.0" fill="#FEFFFE" transform="matrix(1.00, 0.00, -0.00, -1.00, 922.4, 64.0)">a</text><text xml:space="preserve" font-family="CourierNewPSMT,Courier New" font-size="60.0" fill="#FEFFFE" transform="matrix(1.00, 0.00, -0.00, -1.00, 958.4, 64.0)">i</text><text xml:space="preserve" font-family="CourierNewPSMT,Courier New" font-size="60.0" fill="#FEFFFE" transform="matrix(1.00, 0.00, -0.00, -1.00, 994.4, 64.0)">l</text><text xml:space="preserve" font-family="CourierNewPSMT,Courier New" font-size="60.0" fill="#FEFFFE" transform="matrix(1.00, 0.00, -0.00, -1.00, 1030.4, 64.0)">;</text><text xml:space="preserve" font-family="CourierNewPSMT,Courier New" font-size="60.0" fill="#FEFFFE" transform="matrix(1.00, 0.00, -0.00, -1.00, 1066.4, 64.0)"> </text><text xml:space="preserve" font-family="CourierNewPSMT,Courier New" font-size="60.0" fill="#FEFFFE" transform="matrix(1.00, 0.00, -0.00, -1.00, 58.2, -4.0)">}</text></g></svg>