<?xml version="1.0" encoding="UTF-8" standalone="no"?><svg xmlns="http://www.w3.org/2000/svg" xmlns:xlink="http://www.w3.org/1999/xlink" clip-rule="evenodd" stroke-miterlimit="10" viewBox="0 0 1920 1080"><desc>SVG generated by Keynote</desc><defs></defs><g transform="matrix(1.00, 0.00, -0.00, -1.00, 0.0, 1080.0)"><g><clipPath id="clip0x7f9a467d3340"><path d="M 0.0 1080.0 L 1920.0 1080.0 L 1920.0 0.0 L 0.0 0.0 Z M 0.0 1080.0 "></path></clipPath><g clip-path="url(#clip0x7f9a467d3340)"><image xlink:href="../../2454F38C-308E-4D93-86A7-ACF877EF01F7/assets/D54D7AAA5FD1EC733BC359F041C689F1.jpeg" width="2048.00" height="1536.00" transform="matrix(0.94, 0.00, -0.00, -0.70, 0.0, 1080.0)"></image></g></g><text xml:space="preserve" font-family="Monaco,Monaco" font-size="53.0" fill="#FEFFFE" transform="matrix(1.00, 0.00, -0.00, -1.00, 68.8, 648.7)"> </text><text xml:space="preserve" font-family="CourierNewPS-BoldMT,Courier New" font-weight="bold" font-size="53.0" fill="#FEFFFE" transform="matrix(1.00, 0.00, -0.00, -1.00, 68.8, 588.7)">p</text><text xml:space="preserve" font-family="CourierNewPS-BoldMT,Courier New" font-weight="bold" font-size="53.0" fill="#FEFFFE" transform="matrix(1.00, 0.00, -0.00, -1.00, 100.6, 588.7)">u</text><text xml:space="preserve" font-family="CourierNewPS-BoldMT,Courier New" font-weight="bold" font-size="53.0" fill="#FEFFFE" transform="matrix(1.00, 0.00, -0.00, -1.00, 132.4, 588.7)">b</text><text xml:space="preserve" font-family="CourierNewPS-BoldMT,Courier New" font-weight="bold" font-size="53.0" fill="#FEFFFE" transform="matrix(1.00, 0.00, -0.00, -1.00, 164.2, 588.7)">l</text><text xml:space="preserve" font-family="CourierNewPS-BoldMT,Courier New" font-weight="bold" font-size="53.0" fill="#FEFFFE" transform="matrix(1.00, 0.00, -0.00, -1.00, 196.0, 588.7)">i</text><text xml:space="preserve" font-family="CourierNewPS-BoldMT,Courier New" font-weight="bold" font-size="53.0" fill="#FEFFFE" transform="matrix(1.00, 0.00, -0.00, -1.00, 227.8, 588.7)">c</text><text xml:space="preserve" font-family="CourierNewPS-BoldMT,Courier New" font-weight="bold" font-size="53.0" fill="#FEFFFE" transform="matrix(1.00, 0.00, -0.00, -1.00, 259.6, 588.7)"> </text><text xml:space="preserve" font-family="CourierNewPS-BoldMT,Courier New" font-weight="bold" font-size="53.0" fill="#FEFFFE" transform="matrix(1.00, 0.00, -0.00, -1.00, 291.5, 588.7)">c</text><text xml:space="preserve" font-family="CourierNewPS-BoldMT,Courier New" font-weight="bold" font-size="53.0" fill="#FEFFFE" transform="matrix(1.00, 0.00, -0.00, -1.00, 323.3, 588.7)">l</text><text xml:space="preserve" font-family="CourierNewPS-BoldMT,Courier New" font-weight="bold" font-size="53.0" fill="#FEFFFE" transform="matrix(1.00, 0.00, -0.00, -1.00, 355.1, 588.7)">a</text><text xml:space="preserve" font-family="CourierNewPS-BoldMT,Courier New" font-weight="bold" font-size="53.0" fill="#FEFFFE" transform="matrix(1.00, 0.00, -0.00, -1.00, 386.9, 588.7)">s</text><text xml:space="preserve" font-family="CourierNewPS-BoldMT,Courier New" font-weight="bold" font-size="53.0" fill="#FEFFFE" transform="matrix(1.00, 0.00, -0.00, -1.00, 418.7, 588.7)">s</text><text xml:space="preserve" font-family="CourierNewPSMT,Courier New" font-size="53.0" fill="#FEFFFE" transform="matrix(1.00, 0.00, -0.00, -1.00, 450.4, 588.7)"> </text><text xml:space="preserve" font-family="CourierNewPSMT,Courier New" font-size="53.0" fill="#FEFFFE" transform="matrix(1.00, 0.00, -0.00, -1.00, 482.2, 588.7)">M</text><text xml:space="preserve" font-family="CourierNewPSMT,Courier New" font-size="53.0" fill="#FEFFFE" transform="matrix(1.00, 0.00, -0.00, -1.00, 514.1, 588.7)">y</text><text xml:space="preserve" font-family="CourierNewPSMT,Courier New" font-size="53.0" fill="#FEFFFE" transform="matrix(1.00, 0.00, -0.00, -1.00, 545.9, 588.7)">C</text><text xml:space="preserve" font-family="CourierNewPSMT,Courier New" font-size="53.0" fill="#FEFFFE" transform="matrix(1.00, 0.00, -0.00, -1.00, 577.7, 588.7)">o</text><text xml:space="preserve" font-family="CourierNewPSMT,Courier New" font-size="53.0" fill="#FEFFFE" transform="matrix(1.00, 0.00, -0.00, -1.00, 609.5, 588.7)">n</text><text xml:space="preserve" font-family="CourierNewPSMT,Courier New" font-size="53.0" fill="#FEFFFE" transform="matrix(1.00, 0.00, -0.00, -1.00, 641.3, 588.7)">t</text><text xml:space="preserve" font-family="CourierNewPSMT,Courier New" font-size="53.0" fill="#FEFFFE" transform="matrix(1.00, 0.00, -0.00, -1.00, 673.1, 588.7)">r</text><text xml:space="preserve" font-family="CourierNewPSMT,Courier New" font-size="53.0" fill="#FEFFFE" transform="matrix(1.00, 0.00, -0.00, -1.00, 704.9, 588.7)">o</text><text xml:space="preserve" font-family="CourierNewPSMT,Courier New" font-size="53.0" fill="#FEFFFE" transform="matrix(1.00, 0.00, -0.00, -1.00, 736.7, 588.7)">l</text><text xml:space="preserve" font-family="CourierNewPSMT,Courier New" font-size="53.0" fill="#FEFFFE" transform="matrix(1.00, 0.00, -0.00, -1.00, 768.5, 588.7)">l</text><text xml:space="preserve" font-family="CourierNewPSMT,Courier New" font-size="53.0" fill="#FEFFFE" transform="matrix(1.00, 0.00, -0.00, -1.00, 800.4, 588.7)">e</text><text xml:space="preserve" font-family="CourierNewPSMT,Courier New" font-size="53.0" fill="#FEFFFE" transform="matrix(1.00, 0.00, -0.00, -1.00, 832.2, 588.7)">r</text><text xml:space="preserve" font-family="CourierNewPSMT,Courier New" font-size="53.0" fill="#FEFFFE" transform="matrix(1.00, 0.00, -0.00, -1.00, 864.0, 588.7)"> </text><text xml:space="preserve" font-family="CourierNewPS-BoldMT,Courier New" font-weight="bold" font-size="53.0" fill="#FEFFFE" transform="matrix(1.00, 0.00, -0.00, -1.00, 895.7, 588.7)">e</text><text xml:space="preserve" font-family="CourierNewPS-BoldMT,Courier New" font-weight="bold" font-size="53.0" fill="#FEFFFE" transform="matrix(1.00, 0.00, -0.00, -1.00, 927.5, 588.7)">x</text><text xml:space="preserve" font-family="CourierNewPS-BoldMT,Courier New" font-weight="bold" font-size="53.0" fill="#FEFFFE" transform="matrix(1.00, 0.00, -0.00, -1.00, 959.3, 588.7)">t</text><text xml:space="preserve" font-family="CourierNewPS-BoldMT,Courier New" font-weight="bold" font-size="53.0" fill="#FEFFFE" transform="matrix(1.00, 0.00, -0.00, -1.00, 991.1, 588.7)">e</text><text xml:space="preserve" font-family="CourierNewPS-BoldMT,Courier New" font-weight="bold" font-size="53.0" fill="#FEFFFE" transform="matrix(1.00, 0.00, -0.00, -1.00, 1023.0, 588.7)">n</text><text xml:space="preserve" font-family="CourierNewPS-BoldMT,Courier New" font-weight="bold" font-size="53.0" fill="#FEFFFE" transform="matrix(1.00, 0.00, -0.00, -1.00, 1054.8, 588.7)">d</text><text xml:space="preserve" font-family="CourierNewPS-BoldMT,Courier New" font-weight="bold" font-size="53.0" fill="#FEFFFE" transform="matrix(1.00, 0.00, -0.00, -1.00, 1086.6, 588.7)">s</text><text xml:space="preserve" font-family="CourierNewPSMT,Courier New" font-size="53.0" fill="#FEFFFE" transform="matrix(1.00, 0.00, -0.00, -1.00, 1118.3, 588.7)"> </text><text xml:space="preserve" font-family="CourierNewPSMT,Courier New" font-size="53.0" fill="#FEFFFE" transform="matrix(1.00, 0.00, -0.00, -1.00, 1150.2, 588.7)">C</text><text xml:space="preserve" font-family="CourierNewPSMT,Courier New" font-size="53.0" fill="#FEFFFE" transform="matrix(1.00, 0.00, -0.00, -1.00, 1182.0, 588.7)">o</text><text xml:space="preserve" font-family="CourierNewPSMT,Courier New" font-size="53.0" fill="#FEFFFE" transform="matrix(1.00, 0.00, -0.00, -1.00, 1213.8, 588.7)">n</text><text xml:space="preserve" font-family="CourierNewPSMT,Courier New" font-size="53.0" fill="#FEFFFE" transform="matrix(1.00, 0.00, -0.00, -1.00, 1245.6, 588.7)">t</text><text xml:space="preserve" font-family="CourierNewPSMT,Courier New" font-size="53.0" fill="#FEFFFE" transform="matrix(1.00, 0.00, -0.00, -1.00, 1277.4, 588.7)">r</text><text xml:space="preserve" font-family="CourierNewPSMT,Courier New" font-size="53.0" fill="#FEFFFE" transform="matrix(1.00, 0.00, -0.00, -1.00, 1309.2, 588.7)">o</text><text xml:space="preserve" font-family="CourierNewPSMT,Courier New" font-size="53.0" fill="#FEFFFE" transform="matrix(1.00, 0.00, -0.00, -1.00, 1341.0, 588.7)">l</text><text xml:space="preserve" font-family="CourierNewPSMT,Courier New" font-size="53.0" fill="#FEFFFE" transform="matrix(1.00, 0.00, -0.00, -1.00, 1372.8, 588.7)">l</text><text xml:space="preserve" font-family="CourierNewPSMT,Courier New" font-size="53.0" fill="#FEFFFE" transform="matrix(1.00, 0.00, -0.00, -1.00, 1404.6, 588.7)">e</text><text xml:space="preserve" font-family="CourierNewPSMT,Courier New" font-size="53.0" fill="#FEFFFE" transform="matrix(1.00, 0.00, -0.00, -1.00, 1436.5, 588.7)">r</text><text xml:space="preserve" font-family="CourierNewPSMT,Courier New" font-size="53.0" fill="#FEFFFE" transform="matrix(1.00, 0.00, -0.00, -1.00, 1468.3, 588.7)"> </text><text xml:space="preserve" font-family="CourierNewPSMT,Courier New" font-size="53.0" fill="#FEFFFE" transform="matrix(1.00, 0.00, -0.00, -1.00, 1500.1, 588.7)">{</text><text xml:space="preserve" font-family="CourierNewPSMT,Courier New" font-size="53.0" fill="#FEFFFE" transform="matrix(1.00, 0.00, -0.00, -1.00, 1531.9, 588.7)"> </text><text xml:space="preserve" font-family="CourierNewPSMT,Courier New" font-size="53.0" fill="#FEFFFE" transform="matrix(1.00, 0.00, -0.00, -1.00, 68.8, 492.7)"> </text><text xml:space="preserve" font-family="CourierNewPSMT,Courier New" font-size="53.0" fill="#FEFFFE" transform="matrix(1.00, 0.00, -0.00, -1.00, 100.6, 492.7)"> </text><text xml:space="preserve" font-family="CourierNewPSMT,Courier New" font-size="53.0" fill="#FEFFFE" transform="matrix(1.00, 0.00, -0.00, -1.00, 132.4, 492.7)"> </text><text xml:space="preserve" font-family="CourierNewPSMT,Courier New" font-size="53.0" fill="#FEFFFE" transform="matrix(1.00, 0.00, -0.00, -1.00, 164.2, 492.7)"> </text><text xml:space="preserve" font-family="CourierNewPS-BoldMT,Courier New" font-weight="bold" font-size="53.0" fill="#FEFFFE" transform="matrix(1.00, 0.00, -0.00, -1.00, 196.0, 492.7)">p</text><text xml:space="preserve" font-family="CourierNewPS-BoldMT,Courier New" font-weight="bold" font-size="53.0" fill="#FEFFFE" transform="matrix(1.00, 0.00, -0.00, -1.00, 227.8, 492.7)">u</text><text xml:space="preserve" font-family="CourierNewPS-BoldMT,Courier New" font-weight="bold" font-size="53.0" fill="#FEFFFE" transform="matrix(1.00, 0.00, -0.00, -1.00, 259.6, 492.7)">b</text><text xml:space="preserve" font-family="CourierNewPS-BoldMT,Courier New" font-weight="bold" font-size="53.0" fill="#FEFFFE" transform="matrix(1.00, 0.00, -0.00, -1.00, 291.4, 492.7)">l</text><text xml:space="preserve" font-family="CourierNewPS-BoldMT,Courier New" font-weight="bold" font-size="53.0" fill="#FEFFFE" transform="matrix(1.00, 0.00, -0.00, -1.00, 323.2, 492.7)">i</text><text xml:space="preserve" font-family="CourierNewPS-BoldMT,Courier New" font-weight="bold" font-size="53.0" fill="#FEFFFE" transform="matrix(1.00, 0.00, -0.00, -1.00, 355.1, 492.7)">c</text><text xml:space="preserve" font-family="CourierNewPS-BoldMT,Courier New" font-weight="bold" font-size="53.0" fill="#FEFFFE" transform="matrix(1.00, 0.00, -0.00, -1.00, 386.9, 492.7)"> </text><text xml:space="preserve" font-family="CourierNewPS-BoldMT,Courier New" font-weight="bold" font-size="53.0" fill="#FEFFFE" transform="matrix(1.00, 0.00, -0.00, -1.00, 418.7, 492.7)">s</text><text xml:space="preserve" font-family="CourierNewPS-BoldMT,Courier New" font-weight="bold" font-size="53.0" fill="#FEFFFE" transform="matrix(1.00, 0.00, -0.00, -1.00, 450.5, 492.7)">t</text><text xml:space="preserve" font-family="CourierNewPS-BoldMT,Courier New" font-weight="bold" font-size="53.0" fill="#FEFFFE" transform="matrix(1.00, 0.00, -0.00, -1.00, 482.3, 492.7)">a</text><text xml:space="preserve" font-family="CourierNewPS-BoldMT,Courier New" font-weight="bold" font-size="53.0" fill="#FEFFFE" transform="matrix(1.00, 0.00, -0.00, -1.00, 514.1, 492.7)">t</text><text xml:space="preserve" font-family="CourierNewPS-BoldMT,Courier New" font-weight="bold" font-size="53.0" fill="#FEFFFE" transform="matrix(1.00, 0.00, -0.00, -1.00, 545.9, 492.7)">i</text><text xml:space="preserve" font-family="CourierNewPS-BoldMT,Courier New" font-weight="bold" font-size="53.0" fill="#FEFFFE" transform="matrix(1.00, 0.00, -0.00, -1.00, 577.7, 492.7)">c</text><text xml:space="preserve" font-family="CourierNewPSMT,Courier New" font-size="53.0" fill="#FEFFFE" transform="matrix(1.00, 0.00, -0.00, -1.00, 609.5, 492.7)"> </text><text xml:space="preserve" font-family="CourierNewPSMT,Courier New" font-size="53.0" fill="#FEFFFE" transform="matrix(1.00, 0.00, -0.00, -1.00, 641.3, 492.7)">R</text><text xml:space="preserve" font-family="CourierNewPSMT,Courier New" font-size="53.0" fill="#FEFFFE" transform="matrix(1.00, 0.00, -0.00, -1.00, 673.1, 492.7)">e</text><text xml:space="preserve" font-family="CourierNewPSMT,Courier New" font-size="53.0" fill="#FEFFFE" transform="matrix(1.00, 0.00, -0.00, -1.00, 704.9, 492.7)">s</text><text xml:space="preserve" font-family="CourierNewPSMT,Courier New" font-size="53.0" fill="#FEFFFE" transform="matrix(1.00, 0.00, -0.00, -1.00, 736.7, 492.7)">u</text><text xml:space="preserve" font-family="CourierNewPSMT,Courier New" font-size="53.0" fill="#FEFFFE" transform="matrix(1.00, 0.00, -0.00, -1.00, 768.5, 492.7)">l</text><text xml:space="preserve" font-family="CourierNewPSMT,Courier New" font-size="53.0" fill="#FEFFFE" transform="matrix(1.00, 0.00, -0.00, -1.00, 800.3, 492.7)">t</text><text xml:space="preserve" font-family="CourierNewPSMT,Courier New" font-size="53.0" fill="#FEFFFE" transform="matrix(1.00, 0.00, -0.00, -1.00, 832.1, 492.7)"> </text><text xml:space="preserve" font-family="CourierNewPSMT,Courier New" font-size="53.0" fill="#FEFFFE" transform="matrix(1.00, 0.00, -0.00, -1.00, 863.9, 492.7)">i</text><text xml:space="preserve" font-family="CourierNewPSMT,Courier New" font-size="53.0" fill="#FEFFFE" transform="matrix(1.00, 0.00, -0.00, -1.00, 895.8, 492.7)">n</text><text xml:space="preserve" font-family="CourierNewPSMT,Courier New" font-size="53.0" fill="#FEFFFE" transform="matrix(1.00, 0.00, -0.00, -1.00, 927.6, 492.7)">d</text><text xml:space="preserve" font-family="CourierNewPSMT,Courier New" font-size="53.0" fill="#FEFFFE" transform="matrix(1.00, 0.00, -0.00, -1.00, 959.4, 492.7)">e</text><text xml:space="preserve" font-family="CourierNewPSMT,Courier New" font-size="53.0" fill="#FEFFFE" transform="matrix(1.00, 0.00, -0.00, -1.00, 991.2, 492.7)">x</text><text xml:space="preserve" font-family="CourierNewPSMT,Courier New" font-size="53.0" fill="#FEFFFE" transform="matrix(1.00, 0.00, -0.00, -1.00, 1023.0, 492.7)">(</text><text xml:space="preserve" font-family="CourierNewPSMT,Courier New" font-size="53.0" fill="#FEFFFE" transform="matrix(1.00, 0.00, -0.00, -1.00, 1054.8, 492.7)">)</text><text xml:space="preserve" font-family="CourierNewPSMT,Courier New" font-size="53.0" fill="#FEFFFE" transform="matrix(1.00, 0.00, -0.00, -1.00, 1086.6, 492.7)"> </text><text xml:space="preserve" font-family="CourierNewPSMT,Courier New" font-size="53.0" fill="#FEFFFE" transform="matrix(1.00, 0.00, -0.00, -1.00, 1118.4, 492.7)">{</text><text xml:space="preserve" font-family="Monaco,Monaco" font-size="53.0" fill="#FEFFFE" transform="matrix(1.00, 0.00, -0.00, -1.00, 1150.2, 492.7)"> </text><text xml:space="preserve" font-family="CourierNewPSMT,Courier New" font-size="53.0" fill="#FEFFFE" transform="matrix(1.00, 0.00, -0.00, -1.00, 68.8, 432.7)"> </text><text xml:space="preserve" font-family="CourierNewPSMT,Courier New" font-size="53.0" fill="#FEFFFE" transform="matrix(1.00, 0.00, -0.00, -1.00, 100.6, 432.7)"> </text><text xml:space="preserve" font-family="CourierNewPSMT,Courier New" font-size="53.0" fill="#FEFFFE" transform="matrix(1.00, 0.00, -0.00, -1.00, 132.4, 432.7)"> </text><text xml:space="preserve" font-family="CourierNewPSMT,Courier New" font-size="53.0" fill="#FEFFFE" transform="matrix(1.00, 0.00, -0.00, -1.00, 164.2, 432.7)"> </text><text xml:space="preserve" font-family="CourierNewPSMT,Courier New" font-size="53.0" fill="#FEFFFE" transform="matrix(1.00, 0.00, -0.00, -1.00, 196.0, 432.7)"> </text><text xml:space="preserve" font-family="CourierNewPSMT,Courier New" font-size="53.0" fill="#FEFFFE" transform="matrix(1.00, 0.00, -0.00, -1.00, 227.8, 432.7)"> </text><text xml:space="preserve" font-family="CourierNewPSMT,Courier New" font-size="53.0" fill="#FEFFFE" transform="matrix(1.00, 0.00, -0.00, -1.00, 259.6, 432.7)"> </text><text xml:space="preserve" font-family="CourierNewPSMT,Courier New" font-size="53.0" fill="#FEFFFE" transform="matrix(1.00, 0.00, -0.00, -1.00, 291.5, 432.7)">U</text><text xml:space="preserve" font-family="CourierNewPSMT,Courier New" font-size="53.0" fill="#FEFFFE" transform="matrix(1.00, 0.00, -0.00, -1.00, 323.3, 432.7)">s</text><text xml:space="preserve" font-family="CourierNewPSMT,Courier New" font-size="53.0" fill="#FEFFFE" transform="matrix(1.00, 0.00, -0.00, -1.00, 355.1, 432.7)">e</text><text xml:space="preserve" font-family="CourierNewPSMT,Courier New" font-size="53.0" fill="#FEFFFE" transform="matrix(1.00, 0.00, -0.00, -1.00, 386.9, 432.7)">r</text><text xml:space="preserve" font-family="CourierNewPSMT,Courier New" font-size="53.0" fill="#FEFFFE" transform="matrix(1.00, 0.00, -0.00, -1.00, 418.7, 432.7)"> </text><text xml:space="preserve" font-family="CourierNewPSMT,Courier New" font-size="53.0" fill="#FEFFFE" transform="matrix(1.00, 0.00, -0.00, -1.00, 450.5, 432.7)">u</text><text xml:space="preserve" font-family="CourierNewPSMT,Courier New" font-size="53.0" fill="#FEFFFE" transform="matrix(1.00, 0.00, -0.00, -1.00, 482.3, 432.7)">s</text><text xml:space="preserve" font-family="CourierNewPSMT,Courier New" font-size="53.0" fill="#FEFFFE" transform="matrix(1.00, 0.00, -0.00, -1.00, 514.1, 432.7)">e</text><text xml:space="preserve" font-family="CourierNewPSMT,Courier New" font-size="53.0" fill="#FEFFFE" transform="matrix(1.00, 0.00, -0.00, -1.00, 545.9, 432.7)">r</text><text xml:space="preserve" font-family="CourierNewPSMT,Courier New" font-size="53.0" fill="#FEFFFE" transform="matrix(1.00, 0.00, -0.00, -1.00, 577.7, 432.7)"> </text><text xml:space="preserve" font-family="CourierNewPSMT,Courier New" font-size="53.0" fill="#FEFFFE" transform="matrix(1.00, 0.00, -0.00, -1.00, 609.6, 432.7)">=</text><text xml:space="preserve" font-family="CourierNewPSMT,Courier New" font-size="53.0" fill="#FEFFFE" transform="matrix(1.00, 0.00, -0.00, -1.00, 641.4, 432.7)"> </text><text xml:space="preserve" font-family="Monaco,Monaco" font-size="53.0" fill="#FEFFFE" transform="matrix(1.00, 0.00, -0.00, -1.00, 673.1, 432.7)"> </text><text xml:space="preserve" font-family="CourierNewPSMT,Courier New" font-size="53.0" fill="#FEFFFE" transform="matrix(1.00, 0.00, -0.00, -1.00, 68.8, 372.7)"> </text><text xml:space="preserve" font-family="CourierNewPSMT,Courier New" font-size="53.0" fill="#FEFFFE" transform="matrix(1.00, 0.00, -0.00, -1.00, 100.6, 372.7)"> </text><text xml:space="preserve" font-family="CourierNewPSMT,Courier New" font-size="53.0" fill="#FEFFFE" transform="matrix(1.00, 0.00, -0.00, -1.00, 132.4, 372.7)"> </text><text xml:space="preserve" font-family="CourierNewPSMT,Courier New" font-size="53.0" fill="#FEFFFE" transform="matrix(1.00, 0.00, -0.00, -1.00, 164.2, 372.7)"> </text><text xml:space="preserve" font-family="CourierNewPSMT,Courier New" font-size="53.0" fill="#FEFFFE" transform="matrix(1.00, 0.00, -0.00, -1.00, 196.0, 372.7)"> </text><text xml:space="preserve" font-family="CourierNewPSMT,Courier New" font-size="53.0" fill="#FEFFFE" transform="matrix(1.00, 0.00, -0.00, -1.00, 227.8, 372.7)"> </text><text xml:space="preserve" font-family="CourierNewPSMT,Courier New" font-size="53.0" fill="#FEFFFE" transform="matrix(1.00, 0.00, -0.00, -1.00, 259.6, 372.7)"> </text><text xml:space="preserve" font-family="CourierNewPSMT,Courier New" font-size="53.0" fill="#FEFFFE" transform="matrix(1.00, 0.00, -0.00, -1.00, 291.5, 372.7)"> </text><text xml:space="preserve" font-family="CourierNewPSMT,Courier New" font-size="53.0" fill="#FEFFFE" transform="matrix(1.00, 0.00, -0.00, -1.00, 323.3, 372.7)"> </text><text xml:space="preserve" font-family="CourierNewPSMT,Courier New" font-size="53.0" fill="#FEFFFE" transform="matrix(1.00, 0.00, -0.00, -1.00, 355.1, 372.7)"> </text><text xml:space="preserve" font-family="CourierNewPSMT,Courier New" font-size="53.0" fill="#FEFFFE" transform="matrix(1.00, 0.00, -0.00, -1.00, 386.9, 372.7)"> </text><text xml:space="preserve" font-family="CourierNewPSMT,Courier New" font-size="53.0" fill="#FEFFFE" transform="matrix(1.00, 0.00, -0.00, -1.00, 418.7, 372.7)">F</text><text xml:space="preserve" font-family="CourierNewPSMT,Courier New" font-size="53.0" fill="#FEFFFE" transform="matrix(1.00, 0.00, -0.00, -1.00, 450.5, 372.7)">o</text><text xml:space="preserve" font-family="CourierNewPSMT,Courier New" font-size="53.0" fill="#FEFFFE" transform="matrix(1.00, 0.00, -0.00, -1.00, 482.3, 372.7)">r</text><text xml:space="preserve" font-family="CourierNewPSMT,Courier New" font-size="53.0" fill="#FEFFFE" transform="matrix(1.00, 0.00, -0.00, -1.00, 514.1, 372.7)">m</text><text xml:space="preserve" font-family="CourierNewPSMT,Courier New" font-size="53.0" fill="#FEFFFE" transform="matrix(1.00, 0.00, -0.00, -1.00, 545.9, 372.7)">.</text><text xml:space="preserve" font-family="CourierNewPSMT,Courier New" font-size="53.0" fill="#FEFFFE" transform="matrix(1.00, 0.00, -0.00, -1.00, 577.7, 372.7)">f</text><text xml:space="preserve" font-family="CourierNewPSMT,Courier New" font-size="53.0" fill="#FEFFFE" transform="matrix(1.00, 0.00, -0.00, -1.00, 609.6, 372.7)">o</text><text xml:space="preserve" font-family="CourierNewPSMT,Courier New" font-size="53.0" fill="#FEFFFE" transform="matrix(1.00, 0.00, -0.00, -1.00, 641.4, 372.7)">r</text><text xml:space="preserve" font-family="CourierNewPSMT,Courier New" font-size="53.0" fill="#FEFFFE" transform="matrix(1.00, 0.00, -0.00, -1.00, 673.2, 372.7)">m</text><text xml:space="preserve" font-family="CourierNewPSMT,Courier New" font-size="53.0" fill="#FEFFFE" transform="matrix(1.00, 0.00, -0.00, -1.00, 705.0, 372.7)">(</text><text xml:space="preserve" font-family="CourierNewPSMT,Courier New" font-size="53.0" fill="#FEFFFE" transform="matrix(1.00, 0.00, -0.00, -1.00, 736.8, 372.7)">U</text><text xml:space="preserve" font-family="CourierNewPSMT,Courier New" font-size="53.0" fill="#FEFFFE" transform="matrix(1.00, 0.00, -0.00, -1.00, 768.6, 372.7)">s</text><text xml:space="preserve" font-family="CourierNewPSMT,Courier New" font-size="53.0" fill="#FEFFFE" transform="matrix(1.00, 0.00, -0.00, -1.00, 800.4, 372.7)">e</text><text xml:space="preserve" font-family="CourierNewPSMT,Courier New" font-size="53.0" fill="#FEFFFE" transform="matrix(1.00, 0.00, -0.00, -1.00, 832.2, 372.7)">r</text><text xml:space="preserve" font-family="CourierNewPSMT,Courier New" font-size="53.0" fill="#FEFFFE" transform="matrix(1.00, 0.00, -0.00, -1.00, 864.0, 372.7)">.</text><text xml:space="preserve" font-family="CourierNewPSMT,Courier New" font-size="53.0" fill="#FEFFFE" transform="matrix(1.00, 0.00, -0.00, -1.00, 895.8, 372.7)">c</text><text xml:space="preserve" font-family="CourierNewPSMT,Courier New" font-size="53.0" fill="#FEFFFE" transform="matrix(1.00, 0.00, -0.00, -1.00, 927.7, 372.7)">l</text><text xml:space="preserve" font-family="CourierNewPSMT,Courier New" font-size="53.0" fill="#FEFFFE" transform="matrix(1.00, 0.00, -0.00, -1.00, 959.5, 372.7)">a</text><text xml:space="preserve" font-family="CourierNewPSMT,Courier New" font-size="53.0" fill="#FEFFFE" transform="matrix(1.00, 0.00, -0.00, -1.00, 991.3, 372.7)">s</text><text xml:space="preserve" font-family="CourierNewPSMT,Courier New" font-size="53.0" fill="#FEFFFE" transform="matrix(1.00, 0.00, -0.00, -1.00, 1023.1, 372.7)">s</text><text xml:space="preserve" font-family="CourierNewPSMT,Courier New" font-size="53.0" fill="#FEFFFE" transform="matrix(1.00, 0.00, -0.00, -1.00, 1054.9, 372.7)">)</text><text xml:space="preserve" font-family="CourierNewPSMT,Courier New" font-size="53.0" fill="#FEFFFE" transform="matrix(1.00, 0.00, -0.00, -1.00, 1086.7, 372.7)">.</text><text xml:space="preserve" font-family="CourierNewPSMT,Courier New" font-size="53.0" fill="#FEFFFE" transform="matrix(1.00, 0.00, -0.00, -1.00, 1118.5, 372.7)">b</text><text xml:space="preserve" font-family="CourierNewPSMT,Courier New" font-size="53.0" fill="#FEFFFE" transform="matrix(1.00, 0.00, -0.00, -1.00, 1150.3, 372.7)">i</text><text xml:space="preserve" font-family="CourierNewPSMT,Courier New" font-size="53.0" fill="#FEFFFE" transform="matrix(1.00, 0.00, -0.00, -1.00, 1182.1, 372.7)">n</text><text xml:space="preserve" font-family="CourierNewPSMT,Courier New" font-size="53.0" fill="#FEFFFE" transform="matrix(1.00, 0.00, -0.00, -1.00, 1214.0, 372.7)">d</text><text xml:space="preserve" font-family="CourierNewPSMT,Courier New" font-size="53.0" fill="#FEFFFE" transform="matrix(1.00, 0.00, -0.00, -1.00, 1245.8, 372.7)">F</text><text xml:space="preserve" font-family="CourierNewPSMT,Courier New" font-size="53.0" fill="#FEFFFE" transform="matrix(1.00, 0.00, -0.00, -1.00, 1277.6, 372.7)">r</text><text xml:space="preserve" font-family="CourierNewPSMT,Courier New" font-size="53.0" fill="#FEFFFE" transform="matrix(1.00, 0.00, -0.00, -1.00, 1309.4, 372.7)">o</text><text xml:space="preserve" font-family="CourierNewPSMT,Courier New" font-size="53.0" fill="#FEFFFE" transform="matrix(1.00, 0.00, -0.00, -1.00, 1341.2, 372.7)">m</text><text xml:space="preserve" font-family="CourierNewPSMT,Courier New" font-size="53.0" fill="#FEFFFE" transform="matrix(1.00, 0.00, -0.00, -1.00, 1373.0, 372.7)">R</text><text xml:space="preserve" font-family="CourierNewPSMT,Courier New" font-size="53.0" fill="#FEFFFE" transform="matrix(1.00, 0.00, -0.00, -1.00, 1404.8, 372.7)">e</text><text xml:space="preserve" font-family="CourierNewPSMT,Courier New" font-size="53.0" fill="#FEFFFE" transform="matrix(1.00, 0.00, -0.00, -1.00, 1436.6, 372.7)">q</text><text xml:space="preserve" font-family="CourierNewPSMT,Courier New" font-size="53.0" fill="#FEFFFE" transform="matrix(1.00, 0.00, -0.00, -1.00, 1468.4, 372.7)">u</text><text xml:space="preserve" font-family="CourierNewPSMT,Courier New" font-size="53.0" fill="#FEFFFE" transform="matrix(1.00, 0.00, -0.00, -1.00, 1500.2, 372.7)">e</text><text xml:space="preserve" font-family="CourierNewPSMT,Courier New" font-size="53.0" fill="#FEFFFE" transform="matrix(1.00, 0.00, -0.00, -1.00, 1532.1, 372.7)">s</text><text xml:space="preserve" font-family="CourierNewPSMT,Courier New" font-size="53.0" fill="#FEFFFE" transform="matrix(1.00, 0.00, -0.00, -1.00, 1563.9, 372.7)">t</text><text xml:space="preserve" font-family="CourierNewPSMT,Courier New" font-size="53.0" fill="#FEFFFE" transform="matrix(1.00, 0.00, -0.00, -1.00, 1595.7, 372.7)">(</text><text xml:space="preserve" font-family="CourierNewPSMT,Courier New" font-size="53.0" fill="#FEFFFE" transform="matrix(1.00, 0.00, -0.00, -1.00, 1627.5, 372.7)">)</text><text xml:space="preserve" font-family="CourierNewPSMT,Courier New" font-size="53.0" fill="#FEFFFE" transform="matrix(1.00, 0.00, -0.00, -1.00, 1659.3, 372.7)">.</text><text xml:space="preserve" font-family="CourierNewPSMT,Courier New" font-size="53.0" fill="#FEFFFE" transform="matrix(1.00, 0.00, -0.00, -1.00, 1691.1, 372.7)">g</text><text xml:space="preserve" font-family="CourierNewPSMT,Courier New" font-size="53.0" fill="#FEFFFE" transform="matrix(1.00, 0.00, -0.00, -1.00, 1722.9, 372.7)">e</text><text xml:space="preserve" font-family="CourierNewPSMT,Courier New" font-size="53.0" fill="#FEFFFE" transform="matrix(1.00, 0.00, -0.00, -1.00, 1754.7, 372.7)">t</text><text xml:space="preserve" font-family="CourierNewPSMT,Courier New" font-size="53.0" fill="#FEFFFE" transform="matrix(1.00, 0.00, -0.00, -1.00, 1786.5, 372.7)">(</text><text xml:space="preserve" font-family="CourierNewPSMT,Courier New" font-size="53.0" fill="#FEFFFE" transform="matrix(1.00, 0.00, -0.00, -1.00, 1818.4, 372.7)">)</text><text xml:space="preserve" font-family="CourierNewPSMT,Courier New" font-size="53.0" fill="#FEFFFE" transform="matrix(1.00, 0.00, -0.00, -1.00, 1850.2, 372.7)">;</text><text xml:space="preserve" font-family="Monaco,Monaco" font-size="53.0" fill="#FEFFFE" transform="matrix(1.00, 0.00, -0.00, -1.00, 1881.7, 372.7)"> </text><text xml:space="preserve" font-family="CourierNewPSMT,Courier New" font-size="53.0" fill="#FEFFFE" transform="matrix(1.00, 0.00, -0.00, -1.00, 68.8, 312.7)"> </text><text xml:space="preserve" font-family="CourierNewPSMT,Courier New" font-size="53.0" fill="#FEFFFE" transform="matrix(1.00, 0.00, -0.00, -1.00, 100.6, 312.7)"> </text><text xml:space="preserve" font-family="CourierNewPSMT,Courier New" font-size="53.0" fill="#FEFFFE" transform="matrix(1.00, 0.00, -0.00, -1.00, 132.4, 312.7)"> </text><text xml:space="preserve" font-family="CourierNewPSMT,Courier New" font-size="53.0" fill="#FEFFFE" transform="matrix(1.00, 0.00, -0.00, -1.00, 164.2, 312.7)"> </text><text xml:space="preserve" font-family="CourierNewPSMT,Courier New" font-size="53.0" fill="#FEFFFE" transform="matrix(1.00, 0.00, -0.00, -1.00, 196.0, 312.7)"> </text><text xml:space="preserve" font-family="CourierNewPSMT,Courier New" font-size="53.0" fill="#FEFFFE" transform="matrix(1.00, 0.00, -0.00, -1.00, 227.8, 312.7)"> </text><text xml:space="preserve" font-family="CourierNewPSMT,Courier New" font-size="53.0" fill="#FEFFFE" transform="matrix(1.00, 0.00, -0.00, -1.00, 259.6, 312.7)"> </text><text xml:space="preserve" font-family="CourierNewPS-BoldMT,Courier New" font-weight="bold" font-size="53.0" fill="#FEFFFE" transform="matrix(1.00, 0.00, -0.00, -1.00, 291.4, 312.7)">r</text><text xml:space="preserve" font-family="CourierNewPS-BoldMT,Courier New" font-weight="bold" font-size="53.0" fill="#FEFFFE" transform="matrix(1.00, 0.00, -0.00, -1.00, 323.2, 312.7)">e</text><text xml:space="preserve" font-family="CourierNewPS-BoldMT,Courier New" font-weight="bold" font-size="53.0" fill="#FEFFFE" transform="matrix(1.00, 0.00, -0.00, -1.00, 355.0, 312.7)">t</text><text xml:space="preserve" font-family="CourierNewPS-BoldMT,Courier New" font-weight="bold" font-size="53.0" fill="#FEFFFE" transform="matrix(1.00, 0.00, -0.00, -1.00, 386.8, 312.7)">u</text><text xml:space="preserve" font-family="CourierNewPS-BoldMT,Courier New" font-weight="bold" font-size="53.0" fill="#FEFFFE" transform="matrix(1.00, 0.00, -0.00, -1.00, 418.7, 312.7)">r</text><text xml:space="preserve" font-family="CourierNewPS-BoldMT,Courier New" font-weight="bold" font-size="53.0" fill="#FEFFFE" transform="matrix(1.00, 0.00, -0.00, -1.00, 450.5, 312.7)">n</text><text xml:space="preserve" font-family="CourierNewPSMT,Courier New" font-size="53.0" fill="#FEFFFE" transform="matrix(1.00, 0.00, -0.00, -1.00, 482.2, 312.7)"> </text><text xml:space="preserve" font-family="CourierNewPSMT,Courier New" font-size="53.0" fill="#FEFFFE" transform="matrix(1.00, 0.00, -0.00, -1.00, 514.1, 312.7)">o</text><text xml:space="preserve" font-family="CourierNewPSMT,Courier New" font-size="53.0" fill="#FEFFFE" transform="matrix(1.00, 0.00, -0.00, -1.00, 545.9, 312.7)">k</text><text xml:space="preserve" font-family="CourierNewPSMT,Courier New" font-size="53.0" fill="#FEFFFE" transform="matrix(1.00, 0.00, -0.00, -1.00, 577.7, 312.7)">(</text><text xml:space="preserve" font-family="CourierNewPSMT,Courier New" font-size="53.0" fill="#FEFFFE" transform="matrix(1.00, 0.00, -0.00, -1.00, 609.5, 312.7)">J</text><text xml:space="preserve" font-family="CourierNewPSMT,Courier New" font-size="53.0" fill="#FEFFFE" transform="matrix(1.00, 0.00, -0.00, -1.00, 641.3, 312.7)">s</text><text xml:space="preserve" font-family="CourierNewPSMT,Courier New" font-size="53.0" fill="#FEFFFE" transform="matrix(1.00, 0.00, -0.00, -1.00, 673.1, 312.7)">o</text><text xml:space="preserve" font-family="CourierNewPSMT,Courier New" font-size="53.0" fill="#FEFFFE" transform="matrix(1.00, 0.00, -0.00, -1.00, 704.9, 312.7)">n</text><text xml:space="preserve" font-family="CourierNewPSMT,Courier New" font-size="53.0" fill="#FEFFFE" transform="matrix(1.00, 0.00, -0.00, -1.00, 736.7, 312.7)">.</text><text xml:space="preserve" font-family="CourierNewPSMT,Courier New" font-size="53.0" fill="#FEFFFE" transform="matrix(1.00, 0.00, -0.00, -1.00, 768.5, 312.7)">t</text><text xml:space="preserve" font-family="CourierNewPSMT,Courier New" font-size="53.0" fill="#FEFFFE" transform="matrix(1.00, 0.00, -0.00, -1.00, 800.3, 312.7)">o</text><text xml:space="preserve" font-family="CourierNewPSMT,Courier New" font-size="53.0" fill="#FEFFFE" transform="matrix(1.00, 0.00, -0.00, -1.00, 832.2, 312.7)">J</text><text xml:space="preserve" font-family="CourierNewPSMT,Courier New" font-size="53.0" fill="#FEFFFE" transform="matrix(1.00, 0.00, -0.00, -1.00, 864.0, 312.7)">s</text><text xml:space="preserve" font-family="CourierNewPSMT,Courier New" font-size="53.0" fill="#FEFFFE" transform="matrix(1.00, 0.00, -0.00, -1.00, 895.8, 312.7)">o</text><text xml:space="preserve" font-family="CourierNewPSMT,Courier New" font-size="53.0" fill="#FEFFFE" transform="matrix(1.00, 0.00, -0.00, -1.00, 927.6, 312.7)">n</text><text xml:space="preserve" font-family="CourierNewPSMT,Courier New" font-size="53.0" fill="#FEFFFE" transform="matrix(1.00, 0.00, -0.00, -1.00, 959.4, 312.7)">(</text><text xml:space="preserve" font-family="CourierNewPSMT,Courier New" font-size="53.0" fill="#FEFFFE" transform="matrix(1.00, 0.00, -0.00, -1.00, 991.2, 312.7)">u</text><text xml:space="preserve" font-family="CourierNewPSMT,Courier New" font-size="53.0" fill="#FEFFFE" transform="matrix(1.00, 0.00, -0.00, -1.00, 1023.0, 312.7)">s</text><text xml:space="preserve" font-family="CourierNewPSMT,Courier New" font-size="53.0" fill="#FEFFFE" transform="matrix(1.00, 0.00, -0.00, -1.00, 1054.8, 312.7)">e</text><text xml:space="preserve" font-family="CourierNewPSMT,Courier New" font-size="53.0" fill="#FEFFFE" transform="matrix(1.00, 0.00, -0.00, -1.00, 1086.6, 312.7)">r</text><text xml:space="preserve" font-family="CourierNewPSMT,Courier New" font-size="53.0" fill="#FEFFFE" transform="matrix(1.00, 0.00, -0.00, -1.00, 1118.5, 312.7)">)</text><text xml:space="preserve" font-family="CourierNewPSMT,Courier New" font-size="53.0" fill="#FEFFFE" transform="matrix(1.00, 0.00, -0.00, -1.00, 1150.3, 312.7)">)</text><text xml:space="preserve" font-family="CourierNewPSMT,Courier New" font-size="53.0" fill="#FEFFFE" transform="matrix(1.00, 0.00, -0.00, -1.00, 1182.1, 312.7)">;</text><text xml:space="preserve" font-family="Monaco,Monaco" font-size="53.0" fill="#FEFFFE" transform="matrix(1.00, 0.00, -0.00, -1.00, 1213.8, 312.7)"> </text><text xml:space="preserve" font-family="CourierNewPSMT,Courier New" font-size="53.0" fill="#FEFFFE" transform="matrix(1.00, 0.00, -0.00, -1.00, 68.8, 252.7)"> </text><text xml:space="preserve" font-family="CourierNewPSMT,Courier New" font-size="53.0" fill="#FEFFFE" transform="matrix(1.00, 0.00, -0.00, -1.00, 100.6, 252.7)"> </text><text xml:space="preserve" font-family="CourierNewPSMT,Courier New" font-size="53.0" fill="#FEFFFE" transform="matrix(1.00, 0.00, -0.00, -1.00, 132.4, 252.7)"> </text><text xml:space="preserve" font-family="CourierNewPSMT,Courier New" font-size="53.0" fill="#FEFFFE" transform="matrix(1.00, 0.00, -0.00, -1.00, 164.2, 252.7)"> </text><text xml:space="preserve" font-family="CourierNewPSMT,Courier New" font-size="53.0" fill="#FEFFFE" transform="matrix(1.00, 0.00, -0.00, -1.00, 196.0, 252.7)">}</text><text xml:space="preserve" font-family="Monaco,Monaco" font-size="53.0" fill="#FEFFFE" transform="matrix(1.00, 0.00, -0.00, -1.00, 227.8, 252.7)"> </text><text xml:space="preserve" font-family="CourierNewPSMT,Courier New" font-size="53.0" fill="#FEFFFE" transform="matrix(1.00, 0.00, -0.00, -1.00, 68.8, 192.7)">}</text><text xml:space="preserve" font-family="Chalkduster,Chalkduster" font-size="100.0" fill="#71AFE1" transform="matrix(1.00, 0.00, -0.00, -1.00, 660.7, 922.5)">C</text><text xml:space="preserve" font-family="Chalkduster,Chalkduster" font-size="100.0" fill="#71AFE1" transform="matrix(1.00, 0.00, -0.00, -1.00, 741.8, 922.5)">o</text><text xml:space="preserve" font-family="Chalkduster,Chalkduster" font-size="100.0" fill="#71AFE1" transform="matrix(1.00, 0.00, -0.00, -1.00, 816.2, 922.5)">n</text><text xml:space="preserve" font-family="Chalkduster,Chalkduster" font-size="100.0" fill="#71AFE1" transform="matrix(1.00, 0.00, -0.00, -1.00, 885.8, 922.5)">t</text><text xml:space="preserve" font-family="Chalkduster,Chalkduster" font-size="100.0" fill="#71AFE1" transform="matrix(1.00, 0.00, -0.00, -1.00, 931.5, 922.5)">r</text><text xml:space="preserve" font-family="Chalkduster,Chalkduster" font-size="100.0" fill="#71AFE1" transform="matrix(1.00, 0.00, -0.00, -1.00, 982.7, 922.5)">o</text><text xml:space="preserve" font-family="Chalkduster,Chalkduster" font-size="100.0" fill="#71AFE1" transform="matrix(1.00, 0.00, -0.00, -1.00, 1058.8, 922.5)">l</text><text xml:space="preserve" font-family="Chalkduster,Chalkduster" font-size="100.0" fill="#71AFE1" transform="matrix(1.00, 0.00, -0.00, -1.00, 1104.2, 922.5)">l</text><text xml:space="preserve" font-family="Chalkduster,Chalkduster" font-size="100.0" fill="#71AFE1" transform="matrix(1.00, 0.00, -0.00, -1.00, 1145.6, 922.5)">e</text><text xml:space="preserve" font-family="Chalkduster,Chalkduster" font-size="100.0" fill="#71AFE1" transform="matrix(1.00, 0.00, -0.00, -1.00, 1206.5, 922.5)">r</text></g></svg>