<?xml version="1.0" encoding="UTF-8" standalone="no"?><svg xmlns="http://www.w3.org/2000/svg" xmlns:xlink="http://www.w3.org/1999/xlink" clip-rule="evenodd" stroke-miterlimit="10" viewBox="0 0 1920 1080"><desc>SVG generated by Keynote</desc><defs></defs><g transform="matrix(1.00, 0.00, -0.00, -1.00, 0.0, 1080.0)"><g><clipPath id="clip0x7f9a46aa8540"><path d="M 0.0 1080.0 L 1920.0 1080.0 L 1920.0 0.0 L 0.0 0.0 Z M 0.0 1080.0 "></path></clipPath><g clip-path="url(#clip0x7f9a46aa8540)"><image xlink:href="../../2454F38C-308E-4D93-86A7-ACF877EF01F7/assets/D54D7AAA5FD1EC733BC359F041C689F1.jpeg" width="2048.00" height="1536.00" transform="matrix(0.94, 0.00, -0.00, -0.70, 0.0, 1080.0)"></image></g></g><image xlink:href="4DEEB86E8592901A27491E22B30EA716.png" width="78.00" height="72.00" transform="matrix(0.60, 0.00, -0.00, -0.60, 79.1, 711.1)"></image><text xml:space="preserve" font-family="Chalkduster,Chalkduster" font-size="79.0" fill="#FEFFFE" transform="matrix(1.00, 0.00, -0.00, -1.00, 191.6, 665.1)">D</text><text xml:space="preserve" font-family="Chalkduster,Chalkduster" font-size="79.0" fill="#FEFFFE" transform="matrix(1.00, 0.00, -0.00, -1.00, 246.1, 665.1)">e</text><text xml:space="preserve" font-family="Chalkduster,Chalkduster" font-size="79.0" fill="#FEFFFE" transform="matrix(1.00, 0.00, -0.00, -1.00, 296.9, 665.1)">s</text><text xml:space="preserve" font-family="Chalkduster,Chalkduster" font-size="79.0" fill="#FEFFFE" transform="matrix(1.00, 0.00, -0.00, -1.00, 338.4, 665.1)">c</text><text xml:space="preserve" font-family="Chalkduster,Chalkduster" font-size="79.0" fill="#FEFFFE" transform="matrix(1.00, 0.00, -0.00, -1.00, 385.7, 665.1)">o</text><text xml:space="preserve" font-family="Chalkduster,Chalkduster" font-size="79.0" fill="#FEFFFE" transform="matrix(1.00, 0.00, -0.00, -1.00, 444.4, 665.1)">n</text><text xml:space="preserve" font-family="Chalkduster,Chalkduster" font-size="79.0" fill="#FEFFFE" transform="matrix(1.00, 0.00, -0.00, -1.00, 502.4, 665.1)">f</text><text xml:space="preserve" font-family="Chalkduster,Chalkduster" font-size="79.0" fill="#FEFFFE" transform="matrix(1.00, 0.00, -0.00, -1.00, 544.5, 665.1)">i</text><text xml:space="preserve" font-family="Chalkduster,Chalkduster" font-size="79.0" fill="#FEFFFE" transform="matrix(1.00, 0.00, -0.00, -1.00, 576.5, 665.1)">a</text><text xml:space="preserve" font-family="Chalkduster,Chalkduster" font-size="79.0" fill="#FEFFFE" transform="matrix(1.00, 0.00, -0.00, -1.00, 628.4, 665.1)">d</text><text xml:space="preserve" font-family="Chalkduster,Chalkduster" font-size="79.0" fill="#FEFFFE" transform="matrix(1.00, 0.00, -0.00, -1.00, 690.1, 665.1)"> </text><text xml:space="preserve" font-family="Chalkduster,Chalkduster" font-size="79.0" fill="#FEFFFE" transform="matrix(1.00, 0.00, -0.00, -1.00, 729.4, 665.1)">d</text><text xml:space="preserve" font-family="Chalkduster,Chalkduster" font-size="79.0" fill="#FEFFFE" transform="matrix(1.00, 0.00, -0.00, -1.00, 791.1, 665.1)">e</text><text xml:space="preserve" font-family="Chalkduster,Chalkduster" font-size="79.0" fill="#FEFFFE" transform="matrix(1.00, 0.00, -0.00, -1.00, 840.1, 665.1)"> </text><text xml:space="preserve" font-family="Chalkduster,Chalkduster" font-size="79.0" fill="#FEFFFE" transform="matrix(1.00, 0.00, -0.00, -1.00, 879.4, 665.1)">l</text><text xml:space="preserve" font-family="Chalkduster,Chalkduster" font-size="79.0" fill="#FEFFFE" transform="matrix(1.00, 0.00, -0.00, -1.00, 913.4, 665.1)">o</text><text xml:space="preserve" font-family="Chalkduster,Chalkduster" font-size="79.0" fill="#FEFFFE" transform="matrix(1.00, 0.00, -0.00, -1.00, 970.9, 665.1)">s</text><text xml:space="preserve" font-family="Chalkduster,Chalkduster" font-size="79.0" fill="#FEFFFE" transform="matrix(1.00, 0.00, -0.00, -1.00, 1010.8, 665.1)"> </text><text xml:space="preserve" font-family="Chalkduster,Chalkduster" font-size="79.0" fill="#FEFFFE" transform="matrix(1.00, 0.00, -0.00, -1.00, 1050.1, 665.1)">s</text><text xml:space="preserve" font-family="Chalkduster,Chalkduster" font-size="79.0" fill="#FEFFFE" transform="matrix(1.00, 0.00, -0.00, -1.00, 1090.0, 665.1)">p</text><text xml:space="preserve" font-family="Chalkduster,Chalkduster" font-size="79.0" fill="#FEFFFE" transform="matrix(1.00, 0.00, -0.00, -1.00, 1139.7, 665.1)">e</text><text xml:space="preserve" font-family="Chalkduster,Chalkduster" font-size="79.0" fill="#FEFFFE" transform="matrix(1.00, 0.00, -0.00, -1.00, 1188.6, 665.1)">a</text><text xml:space="preserve" font-family="Chalkduster,Chalkduster" font-size="79.0" fill="#FEFFFE" transform="matrix(1.00, 0.00, -0.00, -1.00, 1238.1, 665.1)">k</text><text xml:space="preserve" font-family="Chalkduster,Chalkduster" font-size="79.0" fill="#FEFFFE" transform="matrix(1.00, 0.00, -0.00, -1.00, 1297.9, 665.1)">e</text><text xml:space="preserve" font-family="Chalkduster,Chalkduster" font-size="79.0" fill="#FEFFFE" transform="matrix(1.00, 0.00, -0.00, -1.00, 1346.0, 665.1)">r</text><text xml:space="preserve" font-family="Chalkduster,Chalkduster" font-size="79.0" fill="#FEFFFE" transform="matrix(1.00, 0.00, -0.00, -1.00, 1386.8, 665.1)">s</text><text xml:space="preserve" font-family="Chalkduster,Chalkduster" font-size="79.0" fill="#FEFFFE" transform="matrix(1.00, 0.00, -0.00, -1.00, 1426.7, 665.1)"> </text><text xml:space="preserve" font-family="Chalkduster,Chalkduster" font-size="79.0" fill="#FEFFFE" transform="matrix(1.00, 0.00, -0.00, -1.00, 1466.0, 665.1)">s</text><text xml:space="preserve" font-family="Chalkduster,Chalkduster" font-size="79.0" fill="#FEFFFE" transform="matrix(1.00, 0.00, -0.00, -1.00, 1505.9, 665.1)">i</text><text xml:space="preserve" font-family="Chalkduster,Chalkduster" font-size="79.0" fill="#FEFFFE" transform="matrix(1.00, 0.00, -0.00, -1.00, 1537.1, 665.1)">n</text><text xml:space="preserve" font-family="Chalkduster,Chalkduster" font-size="79.0" fill="#FEFFFE" transform="matrix(1.00, 0.00, -0.00, -1.00, 1595.0, 665.1)"> </text><text xml:space="preserve" font-family="Chalkduster,Chalkduster" font-size="79.0" fill="#FEFFFE" transform="matrix(1.00, 0.00, -0.00, -1.00, 191.6, 565.1)">e</text><text xml:space="preserve" font-family="Chalkduster,Chalkduster" font-size="79.0" fill="#FEFFFE" transform="matrix(1.00, 0.00, -0.00, -1.00, 238.1, 565.1)">x</text><text xml:space="preserve" font-family="Chalkduster,Chalkduster" font-size="79.0" fill="#FEFFFE" transform="matrix(1.00, 0.00, -0.00, -1.00, 287.3, 565.1)">p</text><text xml:space="preserve" font-family="Chalkduster,Chalkduster" font-size="79.0" fill="#FEFFFE" transform="matrix(1.00, 0.00, -0.00, -1.00, 336.9, 565.1)">e</text><text xml:space="preserve" font-family="Chalkduster,Chalkduster" font-size="79.0" fill="#FEFFFE" transform="matrix(1.00, 0.00, -0.00, -1.00, 385.1, 565.1)">r</text><text xml:space="preserve" font-family="Chalkduster,Chalkduster" font-size="79.0" fill="#FEFFFE" transform="matrix(1.00, 0.00, -0.00, -1.00, 428.8, 565.1)">i</text><text xml:space="preserve" font-family="Chalkduster,Chalkduster" font-size="79.0" fill="#FEFFFE" transform="matrix(1.00, 0.00, -0.00, -1.00, 460.1, 565.1)">e</text><text xml:space="preserve" font-family="Chalkduster,Chalkduster" font-size="79.0" fill="#FEFFFE" transform="matrix(1.00, 0.00, -0.00, -1.00, 509.9, 565.1)">n</text><text xml:space="preserve" font-family="Chalkduster,Chalkduster" font-size="79.0" fill="#FEFFFE" transform="matrix(1.00, 0.00, -0.00, -1.00, 567.8, 565.1)">c</text><text xml:space="preserve" font-family="Chalkduster,Chalkduster" font-size="79.0" fill="#FEFFFE" transform="matrix(1.00, 0.00, -0.00, -1.00, 617.5, 565.1)">i</text><text xml:space="preserve" font-family="Chalkduster,Chalkduster" font-size="79.0" fill="#FEFFFE" transform="matrix(1.00, 0.00, -0.00, -1.00, 649.5, 565.1)">a</text><text xml:space="preserve" font-family="Chalkduster,Chalkduster" font-size="79.0" fill="#FEFFFE" transform="matrix(1.00, 0.00, -0.00, -1.00, 703.9, 565.1)"> </text><text xml:space="preserve" font-family="Chalkduster,Chalkduster" font-size="79.0" fill="#FEFFFE" transform="matrix(1.00, 0.00, -0.00, -1.00, 743.2, 565.1)">d</text><text xml:space="preserve" font-family="Chalkduster,Chalkduster" font-size="79.0" fill="#FEFFFE" transform="matrix(1.00, 0.00, -0.00, -1.00, 804.9, 565.1)">e</text><text xml:space="preserve" font-family="Chalkduster,Chalkduster" font-size="79.0" fill="#FEFFFE" transform="matrix(1.00, 0.00, -0.00, -1.00, 853.9, 565.1)"> </text><text xml:space="preserve" font-family="Chalkduster,Chalkduster" font-size="79.0" fill="#FEFFFE" transform="matrix(1.00, 0.00, -0.00, -1.00, 893.2, 565.1)">a</text><text xml:space="preserve" font-family="Chalkduster,Chalkduster" font-size="79.0" fill="#FEFFFE" transform="matrix(1.00, 0.00, -0.00, -1.00, 947.6, 565.1)">ñ</text><text xml:space="preserve" font-family="Chalkduster,Chalkduster" font-size="79.0" fill="#FEFFFE" transform="matrix(1.00, 0.00, -0.00, -1.00, 1006.9, 565.1)">o</text><text xml:space="preserve" font-family="Chalkduster,Chalkduster" font-size="79.0" fill="#FEFFFE" transform="matrix(1.00, 0.00, -0.00, -1.00, 1064.4, 565.1)">s</text><text xml:space="preserve" font-family="Chalkduster,Chalkduster" font-size="79.0" fill="#FEFFFE" transform="matrix(1.00, 0.00, -0.00, -1.00, 1104.3, 565.1)"> </text><text xml:space="preserve" font-family="Chalkduster,Chalkduster" font-size="79.0" fill="#FEFFFE" transform="matrix(1.00, 0.00, -0.00, -1.00, 1143.6, 565.1)">e</text><text xml:space="preserve" font-family="Chalkduster,Chalkduster" font-size="79.0" fill="#FEFFFE" transform="matrix(1.00, 0.00, -0.00, -1.00, 1193.5, 565.1)">n</text><text xml:space="preserve" font-family="Chalkduster,Chalkduster" font-size="79.0" fill="#FEFFFE" transform="matrix(1.00, 0.00, -0.00, -1.00, 1251.4, 565.1)"> </text><text xml:space="preserve" font-family="Chalkduster,Chalkduster" font-size="79.0" fill="#FEFFFE" transform="matrix(1.00, 0.00, -0.00, -1.00, 1290.7, 565.1)">p</text><text xml:space="preserve" font-family="Chalkduster,Chalkduster" font-size="79.0" fill="#FEFFFE" transform="matrix(1.00, 0.00, -0.00, -1.00, 1339.5, 565.1)">r</text><text xml:space="preserve" font-family="Chalkduster,Chalkduster" font-size="79.0" fill="#FEFFFE" transform="matrix(1.00, 0.00, -0.00, -1.00, 1380.0, 565.1)">o</text><text xml:space="preserve" font-family="Chalkduster,Chalkduster" font-size="79.0" fill="#FEFFFE" transform="matrix(1.00, 0.00, -0.00, -1.00, 1438.1, 565.1)">y</text><text xml:space="preserve" font-family="Chalkduster,Chalkduster" font-size="79.0" fill="#FEFFFE" transform="matrix(1.00, 0.00, -0.00, -1.00, 1483.2, 565.1)">e</text><text xml:space="preserve" font-family="Chalkduster,Chalkduster" font-size="79.0" fill="#FEFFFE" transform="matrix(1.00, 0.00, -0.00, -1.00, 1533.5, 565.1)">c</text><text xml:space="preserve" font-family="Chalkduster,Chalkduster" font-size="79.0" fill="#FEFFFE" transform="matrix(1.00, 0.00, -0.00, -1.00, 1580.3, 565.1)">t</text><text xml:space="preserve" font-family="Chalkduster,Chalkduster" font-size="79.0" fill="#FEFFFE" transform="matrix(1.00, 0.00, -0.00, -1.00, 1612.9, 565.1)">o</text><text xml:space="preserve" font-family="Chalkduster,Chalkduster" font-size="79.0" fill="#FEFFFE" transform="matrix(1.00, 0.00, -0.00, -1.00, 1670.4, 565.1)">s</text><text xml:space="preserve" font-family="Chalkduster,Chalkduster" font-size="79.0" fill="#FEFFFE" transform="matrix(1.00, 0.00, -0.00, -1.00, 1710.3, 565.1)"> </text><text xml:space="preserve" font-family="Chalkduster,Chalkduster" font-size="79.0" fill="#FEFFFE" transform="matrix(1.00, 0.00, -0.00, -1.00, 191.6, 465.1)">r</text><text xml:space="preserve" font-family="Chalkduster,Chalkduster" font-size="79.0" fill="#FEFFFE" transform="matrix(1.00, 0.00, -0.00, -1.00, 231.6, 465.1)">e</text><text xml:space="preserve" font-family="Chalkduster,Chalkduster" font-size="79.0" fill="#FEFFFE" transform="matrix(1.00, 0.00, -0.00, -1.00, 280.6, 465.1)">a</text><text xml:space="preserve" font-family="Chalkduster,Chalkduster" font-size="79.0" fill="#FEFFFE" transform="matrix(1.00, 0.00, -0.00, -1.00, 331.7, 465.1)">l</text><text xml:space="preserve" font-family="Chalkduster,Chalkduster" font-size="79.0" fill="#FEFFFE" transform="matrix(1.00, 0.00, -0.00, -1.00, 364.4, 465.1)">e</text><text xml:space="preserve" font-family="Chalkduster,Chalkduster" font-size="79.0" fill="#FEFFFE" transform="matrix(1.00, 0.00, -0.00, -1.00, 415.2, 465.1)">s</text><text xml:space="preserve" font-family="Chalkduster,Chalkduster" font-size="79.0" fill="#FEFFFE" transform="matrix(1.00, 0.00, -0.00, -1.00, 453.4, 465.1)">.</text><text xml:space="preserve" font-family="Chalkduster,Chalkduster" font-size="79.0" fill="#FEFFFE" transform="matrix(1.00, 0.00, -0.00, -1.00, 476.1, 465.1)"> </text><image xlink:href="../../2454F38C-308E-4D93-86A7-ACF877EF01F7/assets/4DEEB86E8592901A27491E22B30EA716.png" width="78.00" height="72.00" transform="matrix(0.60, 0.00, -0.00, -0.60, 79.1, 375.1)"></image><text xml:space="preserve" font-family="Chalkduster,Chalkduster" font-size="79.0" fill="#FEFFFE" transform="matrix(1.00, 0.00, -0.00, -1.00, 191.6, 329.1)">Y</text><text xml:space="preserve" font-family="Chalkduster,Chalkduster" font-size="79.0" fill="#FEFFFE" transform="matrix(1.00, 0.00, -0.00, -1.00, 249.2, 329.1)">o</text><text xml:space="preserve" font-family="Chalkduster,Chalkduster" font-size="79.0" fill="#FEFFFE" transform="matrix(1.00, 0.00, -0.00, -1.00, 306.0, 329.1)"> </text><text xml:space="preserve" font-family="Chalkduster,Chalkduster" font-size="79.0" fill="#FEFFFE" transform="matrix(1.00, 0.00, -0.00, -1.00, 345.3, 329.1)">n</text><text xml:space="preserve" font-family="Chalkduster,Chalkduster" font-size="79.0" fill="#FEFFFE" transform="matrix(1.00, 0.00, -0.00, -1.00, 401.5, 329.1)">o</text><text xml:space="preserve" font-family="Chalkduster,Chalkduster" font-size="79.0" fill="#FEFFFE" transform="matrix(1.00, 0.00, -0.00, -1.00, 458.3, 329.1)"> </text><text xml:space="preserve" font-family="Chalkduster,Chalkduster" font-size="79.0" fill="#FEFFFE" transform="matrix(1.00, 0.00, -0.00, -1.00, 497.6, 329.1)">t</text><text xml:space="preserve" font-family="Chalkduster,Chalkduster" font-size="79.0" fill="#FEFFFE" transform="matrix(1.00, 0.00, -0.00, -1.00, 532.9, 329.1)">e</text><text xml:space="preserve" font-family="Chalkduster,Chalkduster" font-size="79.0" fill="#FEFFFE" transform="matrix(1.00, 0.00, -0.00, -1.00, 582.8, 329.1)">n</text><text xml:space="preserve" font-family="Chalkduster,Chalkduster" font-size="79.0" fill="#FEFFFE" transform="matrix(1.00, 0.00, -0.00, -1.00, 638.2, 329.1)">g</text><text xml:space="preserve" font-family="Chalkduster,Chalkduster" font-size="79.0" fill="#FEFFFE" transform="matrix(1.00, 0.00, -0.00, -1.00, 693.9, 329.1)">o</text><text xml:space="preserve" font-family="Chalkduster,Chalkduster" font-size="79.0" fill="#FEFFFE" transform="matrix(1.00, 0.00, -0.00, -1.00, 750.7, 329.1)"> </text><text xml:space="preserve" font-family="Chalkduster,Chalkduster" font-size="79.0" fill="#FEFFFE" transform="matrix(1.00, 0.00, -0.00, -1.00, 790.0, 329.1)">e</text><text xml:space="preserve" font-family="Chalkduster,Chalkduster" font-size="79.0" fill="#FEFFFE" transform="matrix(1.00, 0.00, -0.00, -1.00, 836.5, 329.1)">x</text><text xml:space="preserve" font-family="Chalkduster,Chalkduster" font-size="79.0" fill="#FEFFFE" transform="matrix(1.00, 0.00, -0.00, -1.00, 885.7, 329.1)">p</text><text xml:space="preserve" font-family="Chalkduster,Chalkduster" font-size="79.0" fill="#FEFFFE" transform="matrix(1.00, 0.00, -0.00, -1.00, 935.3, 329.1)">e</text><text xml:space="preserve" font-family="Chalkduster,Chalkduster" font-size="79.0" fill="#FEFFFE" transform="matrix(1.00, 0.00, -0.00, -1.00, 983.5, 329.1)">r</text><text xml:space="preserve" font-family="Chalkduster,Chalkduster" font-size="79.0" fill="#FEFFFE" transform="matrix(1.00, 0.00, -0.00, -1.00, 1027.3, 329.1)">i</text><text xml:space="preserve" font-family="Chalkduster,Chalkduster" font-size="79.0" fill="#FEFFFE" transform="matrix(1.00, 0.00, -0.00, -1.00, 1058.4, 329.1)">e</text><text xml:space="preserve" font-family="Chalkduster,Chalkduster" font-size="79.0" fill="#FEFFFE" transform="matrix(1.00, 0.00, -0.00, -1.00, 1108.3, 329.1)">n</text><text xml:space="preserve" font-family="Chalkduster,Chalkduster" font-size="79.0" fill="#FEFFFE" transform="matrix(1.00, 0.00, -0.00, -1.00, 1166.2, 329.1)">c</text><text xml:space="preserve" font-family="Chalkduster,Chalkduster" font-size="79.0" fill="#FEFFFE" transform="matrix(1.00, 0.00, -0.00, -1.00, 1215.8, 329.1)">i</text><text xml:space="preserve" font-family="Chalkduster,Chalkduster" font-size="79.0" fill="#FEFFFE" transform="matrix(1.00, 0.00, -0.00, -1.00, 1247.8, 329.1)">a</text><text xml:space="preserve" font-family="Chalkduster,Chalkduster" font-size="79.0" fill="#FEFFFE" transform="matrix(1.00, 0.00, -0.00, -1.00, 1302.2, 329.1)"> </text><text xml:space="preserve" font-family="Chalkduster,Chalkduster" font-size="79.0" fill="#FEFFFE" transform="matrix(1.00, 0.00, -0.00, -1.00, 1341.5, 329.1)">r</text><text xml:space="preserve" font-family="Chalkduster,Chalkduster" font-size="79.0" fill="#FEFFFE" transform="matrix(1.00, 0.00, -0.00, -1.00, 1381.5, 329.1)">e</text><text xml:space="preserve" font-family="Chalkduster,Chalkduster" font-size="79.0" fill="#FEFFFE" transform="matrix(1.00, 0.00, -0.00, -1.00, 1430.5, 329.1)">a</text><text xml:space="preserve" font-family="Chalkduster,Chalkduster" font-size="79.0" fill="#FEFFFE" transform="matrix(1.00, 0.00, -0.00, -1.00, 1481.7, 329.1)">l</text><text xml:space="preserve" font-family="Chalkduster,Chalkduster" font-size="79.0" fill="#FEFFFE" transform="matrix(1.00, 0.00, -0.00, -1.00, 1518.7, 329.1)"> </text><text xml:space="preserve" font-family="Chalkduster,Chalkduster" font-size="79.0" fill="#FEFFFE" transform="matrix(1.00, 0.00, -0.00, -1.00, 1558.1, 329.1)">c</text><text xml:space="preserve" font-family="Chalkduster,Chalkduster" font-size="79.0" fill="#FEFFFE" transform="matrix(1.00, 0.00, -0.00, -1.00, 1605.2, 329.1)">o</text><text xml:space="preserve" font-family="Chalkduster,Chalkduster" font-size="79.0" fill="#FEFFFE" transform="matrix(1.00, 0.00, -0.00, -1.00, 1664.0, 329.1)">n</text><text xml:space="preserve" font-family="Chalkduster,Chalkduster" font-size="79.0" fill="#FEFFFE" transform="matrix(1.00, 0.00, -0.00, -1.00, 1721.9, 329.1)"> </text><text xml:space="preserve" font-family="Chalkduster,Chalkduster" font-size="79.0" fill="#FEFFFE" transform="matrix(1.00, 0.00, -0.00, -1.00, 191.6, 229.1)">P</text><text xml:space="preserve" font-family="Chalkduster,Chalkduster" font-size="79.0" fill="#FEFFFE" transform="matrix(1.00, 0.00, -0.00, -1.00, 247.8, 229.1)">l</text><text xml:space="preserve" font-family="Chalkduster,Chalkduster" font-size="79.0" fill="#FEFFFE" transform="matrix(1.00, 0.00, -0.00, -1.00, 283.2, 229.1)">a</text><text xml:space="preserve" font-family="Chalkduster,Chalkduster" font-size="79.0" fill="#FEFFFE" transform="matrix(1.00, 0.00, -0.00, -1.00, 337.7, 229.1)">y</text><text xml:space="preserve" font-family="Chalkduster,Chalkduster" font-size="79.0" fill="#FEFFFE" transform="matrix(1.00, 0.00, -0.00, -1.00, 385.7, 229.1)">…</text><text xml:space="preserve" font-family="Chalkduster,Chalkduster" font-size="96.0" fill="#71AFE1" transform="matrix(1.00, 0.00, -0.00, -1.00, 677.0, 914.3)">D</text><text xml:space="preserve" font-family="Chalkduster,Chalkduster" font-size="96.0" fill="#71AFE1" transform="matrix(1.00, 0.00, -0.00, -1.00, 744.2, 914.3)">i</text><text xml:space="preserve" font-family="Chalkduster,Chalkduster" font-size="96.0" fill="#71AFE1" transform="matrix(1.00, 0.00, -0.00, -1.00, 782.1, 914.3)">s</text><text xml:space="preserve" font-family="Chalkduster,Chalkduster" font-size="96.0" fill="#71AFE1" transform="matrix(1.00, 0.00, -0.00, -1.00, 832.6, 914.3)">c</text><text xml:space="preserve" font-family="Chalkduster,Chalkduster" font-size="96.0" fill="#71AFE1" transform="matrix(1.00, 0.00, -0.00, -1.00, 893.0, 914.3)">l</text><text xml:space="preserve" font-family="Chalkduster,Chalkduster" font-size="96.0" fill="#71AFE1" transform="matrix(1.00, 0.00, -0.00, -1.00, 936.0, 914.3)">a</text><text xml:space="preserve" font-family="Chalkduster,Chalkduster" font-size="96.0" fill="#71AFE1" transform="matrix(1.00, 0.00, -0.00, -1.00, 999.2, 914.3)">m</text><text xml:space="preserve" font-family="Chalkduster,Chalkduster" font-size="96.0" fill="#71AFE1" transform="matrix(1.00, 0.00, -0.00, -1.00, 1098.7, 914.3)">e</text><text xml:space="preserve" font-family="Chalkduster,Chalkduster" font-size="96.0" fill="#71AFE1" transform="matrix(1.00, 0.00, -0.00, -1.00, 1157.2, 914.3)">r</text></g></svg>